<svg xmlns="http://www.w3.org/2000/svg" viewBox="0 0 455.95 613.45"><defs><style>.cls-1{isolation:isolate;}.cls-2,.cls-6{fill:#4d3c68;}.cls-3{fill:#624f5a;}.cls-4{opacity:0.52;}.cls-4,.cls-8,.cls-9{mix-blend-mode:multiply;}.cls-13,.cls-14,.cls-5{fill:#1d1d1b;}.cls-15,.cls-6{mix-blend-mode:color-dodge;}.cls-7{fill:#e7dfd3;}.cls-9{opacity:0.54;}.cls-10{fill:#f8be91;}.cls-11{fill:#fff;}.cls-12{fill:#a0614c;}.cls-13,.cls-14{stroke:#1d1d1b;stroke-miterlimit:10;}.cls-13{stroke-width:1.93px;}.cls-14{stroke-width:1.46px;}.cls-16{fill:#342e39;}.cls-17{fill:#c9282e;}.cls-18{fill:#1592d4;}</style></defs><title>Recurso 3</title><g class="cls-1"><g id="Capa_2" data-name="Capa 2"><g id="Capa_1-2" data-name="Capa 1"><path class="cls-2" d="M441,257.42a147.11,147.11,0,0,0,10.27-14.66c1.36-2.23,2.7-4.59,2.9-7.19a2,2,0,0,0-.41-1.6c-.77-.73-2-.05-2.82.64l-15.1,12.7a7.72,7.72,0,0,1-3.12,1.87,2.63,2.63,0,0,1-3.07-1.36,3.87,3.87,0,0,1,.17-2.37l6-20.6c.87-3,1.73-6.3.55-9.2a1.31,1.31,0,0,0-.45-.63c-.44-.29-1,0-1.45.3-8.89,6.17-9.93,19.43-18,26.61a2.31,2.31,0,0,1-1.33.7c-1.38.08-1.77-1.85-1.67-3.23l1.5-19.82c.37-4.84.71-9.86-1-14.4a5.56,5.56,0,0,0-1.5-2.37,2.42,2.42,0,0,0-2.64-.41,3.75,3.75,0,0,0-1.44,2.13l-12.72,34.18c-3.26-.7-5.75-3.37-7.47-6.22s-2.89-6-4.78-8.78-4.76-5.12-8.1-5.21a2.19,2.19,0,0,0-1.24.25,2.42,2.42,0,0,0-.81,1.19,25.61,25.61,0,0,0-1.09,16.5,23,23,0,0,0,9.76,13.25,35.41,35.41,0,0,0,8.95,3.74c15.66,4.66,32.18,5.49,48.52,5.64"/><path class="cls-3" d="M430.34,243.67C449.49,258.48,440.67,272,440.67,272s-1.47,11.23-24.7,50.86S365.49,378,336.58,379.3s-48.45-24.14-48.45-24.14-13.52-6.88-35.71-38.49-70.19-75.87-70.19-75.87c-10-8.54-8.93-15-.59-29,.35-.58.7-1.12,1.06-1.63a17.45,17.45,0,0,1,20.66-6.83l37.33,11.38s73.06,52,86.18,55.43,23.5-13.37,38.42-25.6a47.28,47.28,0,0,1,18.25-8.72C398.75,232,417.3,233.59,430.34,243.67Z"/><g class="cls-4"><path class="cls-3" d="M430.34,243.67C449.49,258.48,440.67,272,440.67,272s-1.47,11.23-24.7,50.86S365.49,378,336.58,379.3s-48.45-24.14-48.45-24.14-13.52-6.88-35.71-38.49-70.19-75.87-70.19-75.87c-10-8.54-8.93-15-.59-29,.35-.58.7-1.12,1.06-1.63,2.1,12.47,13,21.94,22.92,30.13C219.89,252,234,264.12,245.89,278.25c13.68,16.26,24.24,35,38.4,50.85s33.32,29.07,54.56,29.11c24.76.05,46.46-18,59-39.34a85.07,85.07,0,0,0,10.61-26.68c2.77-14.24-.25-31-12.1-39.34-9.1-6.44-21.08-6.55-32.22-6.41a79.16,79.16,0,0,1,19.37-10.6C398.75,232,417.3,233.59,430.34,243.67Z"/></g><path class="cls-5" d="M175.61,237.29c4.81,3.83,9.48,7.89,14.09,12s9,8.27,13.23,12.64c8.57,8.78,16.62,18.1,24.49,27.52,15.76,18.86,30.63,38.49,47.5,56.4,8.65,9.17,17.79,18.39,28.12,25.68a58.12,58.12,0,0,0,35.29,10.78,75.78,75.78,0,0,0,36.07-10.73c11.1-6.56,20.61-15.46,28.76-25.39a214.18,214.18,0,0,0,21.48-32.49,250.07,250.07,0,0,0,17.74-38.88q1.67-4.86,3.15-9.77a1.83,1.83,0,0,0-2-2.43,4.19,4.19,0,0,0-3.48,2.82c-9,25.06-20.33,49.87-36.1,71.45-14.09,19.28-33.15,36.23-57.7,39.64-12.07,1.69-24.36,0-35-6.11a98.76,98.76,0,0,1-15.64-11.74q-6.77-6-13.09-12.42c-17-17.18-31.91-36.25-47.41-54.76-7.73-9.22-15.61-18.31-24.07-26.88q-6.3-6.39-13-12.39A144.39,144.39,0,0,0,184.27,241q-3.72-2.58-7.57-5c-.65-.41-1.78.75-1.09,1.3Z"/><path class="cls-5" d="M212.94,210.44c7.1-.51,14.18,1.24,20.71,3.94A125.59,125.59,0,0,1,255,226c13.94,9.26,26.58,20.29,39.88,30.43a115.84,115.84,0,0,0,16.15,10.83c4.45,2.34,9.37,4.61,14.4,5.25a22.05,22.05,0,0,0,14.69-3.45,64.33,64.33,0,0,0,11.33-10,92.42,92.42,0,0,1,10.81-9.93,62,62,0,0,1,27.21-12,52.12,52.12,0,0,1,28.55,3.31c8.77,3.73,17.37,10.2,21.29,19.13a31.72,31.72,0,0,1,1.31,3.57,22.14,22.14,0,0,0,1.56,3.44c.92,1.88,3.57,0,3.67-1.53a12.31,12.31,0,0,0-.19-4.15,30.71,30.71,0,0,0-1.35-3.77,33.19,33.19,0,0,0-3.85-6.69,44.18,44.18,0,0,0-11.15-10.23,54.73,54.73,0,0,0-28.58-8.6,63.36,63.36,0,0,0-30.05,7.3,76.29,76.29,0,0,0-13.61,9,143.42,143.42,0,0,0-11,10.64c-3.08,3.12-6.41,6.22-10.41,8-4.82,2.16-10.24,1.19-15.09-.65a82.06,82.06,0,0,1-18.21-10.15c-13.65-9.67-26.36-20.56-40.3-29.84-12.9-8.58-27.66-17.11-43.63-17.13a38.66,38.66,0,0,0-5.16.34c-.64.09-1.31,1.32-.36,1.26Z"/><path class="cls-5" d="M441.58,258a43.29,43.29,0,0,1,3.54-4.46c1.15-1.47,2.23-3,3.26-4.53A68,68,0,0,0,454,238.76a22.06,22.06,0,0,0,1.93-5c.29-1.84-1.44-2-2.82-1.73-3.7.75-6.58,3.34-9.35,5.73-3.63,3.12-7.17,6.32-10.58,9.68-.5.49-.68,1.5,0,1.91s1.68-.16,2.18-.68c3.16-3.27,6.42-6.48,9.87-9.46a27.43,27.43,0,0,1,4.77-3.54,24.72,24.72,0,0,1,2.67-1c.45.06.56,0,.31-.26-.09.27-.19.54-.29.81-.17.48-.34.95-.52,1.42a64.71,64.71,0,0,1-5.53,11q-1.62,2.59-3.48,5a23.55,23.55,0,0,0-3.29,5c-.58,1.37,1.18,1.26,1.72.34Z"/><path class="cls-5" d="M429.77,242.59a53.6,53.6,0,0,0,5.63-11.72,66.16,66.16,0,0,0,3.68-12.43c.26-1.7.48-4.21-.55-5.72-1.27-1.86-3.84-.27-5.09.74-3.07,2.46-5,6.26-7.07,9.56q-3.93,6.38-7.42,13c-.37.71-.27,1.6.6,1.81a2.32,2.32,0,0,0,2.29-1.24q3.21-6.1,6.8-12c1.13-1.86,2.25-3.72,3.48-5.51a24.2,24.2,0,0,1,1.69-2.2c.45-.5,1.36-1.64,2.08-1.64l-.79-.16c.76.35.53,2.67.48,3.34a20,20,0,0,1-.71,3.57c-.63,2.32-1.35,4.62-2.12,6.9-1.52,4.53-3.45,9-4.68,13.6-.34,1.26,1.31.67,1.7.09Z"/><path class="cls-5" d="M373,238.72a6,6,0,0,0,.69-2.84,28.15,28.15,0,0,0-.14-2.9c-.13-2-.21-4-.23-6a24.75,24.75,0,0,1,.26-4.79,14.54,14.54,0,0,1,.63-2.35c.1-.28.26-.54.37-.82s.26-.36.14-.28-.12.1.15-.09l-1.2.65c1.35-.47,3.38,1,4.41,1.69a14.91,14.91,0,0,1,3.61,3.9c2.35,3.57,3.54,7.76,5.4,11.57a1.66,1.66,0,0,0,2.42.51c.72-.38,1.92-1.62,1.45-2.57-3-6-4.72-13.13-10.49-17.22a15.7,15.7,0,0,0-4.06-1.91,4.67,4.67,0,0,0-5.41,1.92c-2.23,3-2.61,6.63-2.42,10.29.11,2.07.3,4.13.54,6.18a29.77,29.77,0,0,0,.47,3.28,3.71,3.71,0,0,0,1.54,2.56c.62.41,1.6-.26,1.87-.8Z"/><path class="cls-5" d="M399.37,233.27c3.33-8.14,5.47-16.72,8.53-25,.36-1,.73-2,1.1-2.91.2-.52.38-1.06.61-1.57,0,0,.14-.27.16-.34l.16-.29-.91.74a19.53,19.53,0,0,1,1.7,1.3,7.1,7.1,0,0,1,1.21,2.25,15.26,15.26,0,0,1,.43,5.79c-.12,2.21-.31,4.41-.47,6.62l-1.1,15.25c-.08,1,1,1.25,1.77,1a2.53,2.53,0,0,0,1.82-2.13l1.09-15.48c.32-4.49,1.31-9.64-.4-14a7,7,0,0,0-3.69-4.13c-2.32-.93-4.46.77-5.35,2.85-1.94,4.56-3.49,9.34-5,14-1.71,5.34-3.34,10.69-3.81,16.29-.05.54.51.72.93.66a1.63,1.63,0,0,0,1.21-1.06Z"/><path class="cls-3" d="M290.3,341.66c-.38-.57-34.69-55.25-34.69-55.25l-14.33-23.18-7.7-30.55-4.36-17.33s13-4.34,21.11,7.72c7.31,10.9,32,76.95,36.73,89.69l.79,2.12Z"/><g class="cls-4"><path class="cls-3" d="M290.3,341.66c-.38-.57-34.69-55.25-34.69-55.25l-14.33-23.18-7.7-30.55a22.81,22.81,0,0,1,4.22-1l6.92.39c16,20.58,21.32,47.51,34.92,69.73,2.3,3.75,4.83,7.36,7.42,10.92l.79,2.12Z"/></g><path class="cls-3" d="M322.48,465.31c0,4.35-4.76,31.46-10.56,45.54s-19.87,32.09-24.42,37.26-30.65,20.71-34.58,24.23-2.69,6.21,1.46,7,.4,4.14-2.49,5.79-12.63,15.74-13.25,21.32-6,4.35-6,4.35l-9.68-.75-3.56-.29s-34.79-5.17-41.82-6.41l-2.58-.46c-4.58-.86-4.62-1.36-.52-4.92,4.76-4.14,5.17-15.11,8.27-24.22s-3.31-20.08-3.31-20.08c-1-1.12-.93-1.9.19-2.57,4.28-2.55,24.06-3.38,60.47-14.2,42.78-12.72,56-29.39,63.59-36.64.57-.54,1.1-1,1.62-1.45C312.75,492.64,322.48,461,322.48,465.31Z"/><g class="cls-4"><path class="cls-3" d="M303.68,500.3c-7.42,14.12-18.09,26.65-29.61,37.83A139.74,139.74,0,0,1,260.5,550c-13.44,10-20.49,15.71-30.43,29.22,6.15-.86,19.5,2.5,25.3,4.74-8.38,7-15.72,15.3-17.61,26l-18.37-.14s-34.79-5.17-41.82-6.41l-2.58-.46a34.17,34.17,0,0,0,12.52-20.65c2-10.84-1.26-22.32-7.89-31.14,4.28-2.55,24.06-3.38,60.47-14.2C282.87,524.22,296.05,507.55,303.68,500.3Z"/></g><path class="cls-5" d="M170.34,602.48c7.44,2.92,15.56,4.49,23.43,5.82s16,2.29,24.06,3c16.22,1.34,32.51,1.53,48.77,1.41,9.23-.06,18.47-.25,27.7-.38,1.4,0,3-1.79,2.18-3.13-8.8-14.42-23.7-25-39.42-30.7a70.67,70.67,0,0,0-16.77-3.93,3,3,0,0,0-2.87,1.56c-.43.8-.39,2.12.76,2.27a81.54,81.54,0,0,1,27.42,8.52,77,77,0,0,1,20.06,15.25,62.44,62.44,0,0,1,7.48,9.73l2.19-3.13c-16.19.29-32.39.79-48.58.64a357.91,357.91,0,0,1-48.19-3.26c-4.5-.65-9-1.38-13.47-2.24s-9.16-2-13.79-2.78c-.59-.1-1.79,1.07-1,1.4Z"/><path class="cls-5" d="M175.91,550.87c1.73,4.09,3.66,7.94,4.44,12.37a38.74,38.74,0,0,1-.28,13.24,56.7,56.7,0,0,1-4.14,13.34c-.9,2-1.84,4.06-2.89,6-1,1.78-2.24,3.28-3.35,5-1,1.5.82,2.65,2.14,1.82,3.14-2,4.79-5.36,6.33-8.63a83.47,83.47,0,0,0,4.46-11.18,42,42,0,0,0,.88-22.59c-1-3.88-2.56-8-5.64-10.64-.71-.62-2.36.34-2,1.3Z"/><path class="cls-5" d="M250,578.18a25.18,25.18,0,0,1,5-4.82c1.74-1.39,3.6-2.6,5.45-3.82,4-2.63,7.85-5.52,11.84-8.2,8.14-5.47,16.34-10.86,23.07-18.08,7-7.48,12.09-16.92,16.26-26.19a146.64,146.64,0,0,0,9.8-30.16,129.82,129.82,0,0,0,2.66-18.2c.19-3,.15-6,.06-9a37.61,37.61,0,0,0-1-8.66c-.22-.81-1.49-.06-1.58.48a79.47,79.47,0,0,0-.91,8.14c-.22,2.77-.61,5.5-.89,8.26-.55,5.33-1.22,10.66-2.21,15.93a143.46,143.46,0,0,1-8.91,29.74,131.53,131.53,0,0,1-6.85,13.76,78.42,78.42,0,0,1-8.3,12.19c-6.19,7.18-14.19,12.51-21.95,17.82-4.27,2.92-8.36,6.06-12.56,9.06a74.05,74.05,0,0,0-6.25,4.76,19,19,0,0,0-4.73,6.29c-.72,1.53,1.26,1.83,2,.74Z"/><path class="cls-5" d="M260.82,582.8c1.69-1.6.09-3.21-1.87-2.64a21.83,21.83,0,0,0-5.31,2.55,39.78,39.78,0,0,0-15,17.14c-1.55,3.42-3.13,7.55-3.09,11.37a1,1,0,0,0,.87,1.07c2.15.37,2.6-2,2.88-3.53a40.33,40.33,0,0,1,1.18-5,34.78,34.78,0,0,1,11.12-16.44,41.23,41.23,0,0,1,4.08-2.89c.68-.43,1.37-.83,2.07-1.21a4,4,0,0,1,1.15-.6c.35,0,.42.18.74.38a1.12,1.12,0,0,0,1.19-.23Z"/><path class="cls-5" d="M239.47,603.62a44.25,44.25,0,0,1,9.59,1.82c3.1.85,6.19,1.73,9.29,2.6s6.21,1.78,9.33,2.61l4.82,1.28c1.44.38,2.75,1,4.17.34a.87.87,0,0,0,.52-.93c-.41-1.25-2.33-1.37-3.44-1.68L269,608.33c-3.28-.92-6.59-1.75-9.88-2.62s-6.39-1.71-9.59-2.51a25.46,25.46,0,0,0-9.66-.83c-.63.09-1.33,1.21-.36,1.25Z"/><path class="cls-5" d="M241.38,596.45a98,98,0,0,1,22,6.07c3.49,1.36,6.9,2.89,10.26,4.55q2.63,1.29,5.19,2.67c1.61.86,3.23,2.1,5.05,2.32.29,0,.74-.31.53-.62-1-1.45-3-2.15-4.51-3-1.71-.93-3.43-1.82-5.18-2.69-3.47-1.73-7-3.33-10.64-4.74a84.7,84.7,0,0,0-10.8-3.43,68.83,68.83,0,0,0-11.62-1.6c-.22,0-.55.4-.25.44Z"/><path class="cls-5" d="M294.07,609.61a133.54,133.54,0,0,0-21.92-13.76,81.54,81.54,0,0,0-11.55-4.71,63.06,63.06,0,0,0-6.22-1.61c-1.67-.34-4-1.18-5.49-.17a.66.66,0,0,0-.29.67c.32.91,1.41.77,2.22.9,1,.15,2,.32,3,.53A58.31,58.31,0,0,1,259.6,593a79.41,79.41,0,0,1,11.75,4.81c7.58,3.79,14.57,8.57,21.9,12.81.49.28,1.35-.57.82-1Z"/><path class="cls-6" d="M287.7,600.08l-22.77-15.74a10.57,10.57,0,0,0-13,.83c-6.63,5.59-11.8,13.25-13.25,21.33s4.14,3.1,11.39,4.14,37.88-.21,38.71-.21S299.09,609.81,287.7,600.08Z"/><path class="cls-3" d="M316.86,477.69C300.52,515.63,248.78,545.2,181,550c-90.7,6.36-142-40.14-157.58-85.19s27.68-131.5,49.33-162.43,32.16-74.26,34.56-86S97.05,189,97.05,189l52.34,3,3.31.19L236.14,197s2.47,17.41,4.76,27,13.73,17.45,12,39.35,13.39,40.65,13.39,40.65,41.11,77.17,54.25,133A64.07,64.07,0,0,1,316.86,477.69Z"/><g class="cls-4"><path class="cls-3" d="M316.86,477.69C300.52,515.63,248.78,545.2,181,550c-90.7,6.36-142-40.14-157.58-85.19s27.68-131.5,49.33-162.43,32.16-74.26,34.56-86S97.05,189,97.05,189l52.34,3,3.31.19c-8.2,11.2-37.23,12.2-34.58,26,3.75,19.55,36.65,54.29,39.09,74,5,40.81-22.41,77.67-34.74,116.9a163.69,163.69,0,0,0-6.22,69.26c2.16,17.07,7.59,34.72,20.44,46.17,17,15.17,42.2,15.71,65,14.53,27.85-1.46,57.37-4.94,79.17-22.31C294.68,505.69,304.2,489.91,316.86,477.69Z"/></g><path class="cls-7" d="M319.17,469.18a61.41,61.41,0,0,1-2.94,9.13c-14.72,35.82-64.11,63.22-121.59,70.23-62.26,7.59-73.28-6.08-100.23-26.2s-30-74.8-12.91-118.84,48.22-79.35,53.15-98.71-16.7-33,.38-53.91a38.21,38.21,0,0,1,8-7.54c14.35-9.76,40.7-1.11,43.59.34,8.34,4.16,15.75,5.94,26.83-5.79,2.52-2.67.73,6.42,5.78,2.41,14-11.08,28.94,11,28.94,11,9.49,10.62.38,23.15,3,30s17.09,26.57,17.09,26.57,29.24,57.33,33,70.25S328.67,428.94,319.17,469.18Z"/><g class="cls-8"><path class="cls-7" d="M316.23,478.31c-14.72,35.82-64.11,63.22-121.59,70.23-62.26,7.59-73.28-6.08-100.23-26.2s-30-74.8-12.91-118.84,48.22-79.35,53.15-98.71-16.7-33,.38-53.91a38.21,38.21,0,0,1,8-7.54c4.51,16.36,12.09,32,14.17,48.84,5,40.81-22.41,77.67-34.74,116.9a163.69,163.69,0,0,0-6.22,69.26c2.16,17.07,7.59,34.72,20.44,46.17,17,15.17,42.2,15.71,65,14.53,27.85-1.46,57.37-4.94,79.17-22.31C294.45,505.88,303.88,490.44,316.23,478.31Z"/></g><path class="cls-5" d="M236.53,209.36a57.28,57.28,0,0,0,3.36,18c2,5.86,4.87,11.36,7,17.18,4.77,13.22,5.89,27.41,1,40.78a41.7,41.7,0,0,1-4.65,9.33,24.52,24.52,0,0,1-3.11,3.78c-1.21,1.18-2.62,2.11-3.84,3.27-.44.42-.9,1.83.24,1.63,3-.55,5.54-3,7.51-5.19a34.59,34.59,0,0,0,5.18-8.05,56.5,56.5,0,0,0,5.55-20.94,63.7,63.7,0,0,0-2.53-21.3c-1.9-6.7-5-12.89-7.55-19.33s-4-13.36-5.53-20.24c-.33-1.43-2.64.06-2.63,1.1Z"/><path class="cls-5" d="M106.91,209.65c-4.11,25.34-13.21,49.31-25,72-11.54,22.25-25.06,43.39-36.52,65.68a274,274,0,0,0-15,34.26A200.17,200.17,0,0,0,21.18,420c-2.1,14.74-3,29.83-.33,44.56a78.53,78.53,0,0,0,17.8,37.26c8.88,10.37,20,18.76,31.69,25.69a176.59,176.59,0,0,0,36.5,16.23c25.69,8.16,53.12,10.59,79.91,8.08A223.33,223.33,0,0,0,265,529.6c23.19-11.53,46.65-28.27,55.49-53.74,5.09-14.67,4.46-30.66,1.66-45.73-2.88-15.5-8-30.54-13.87-45.13-6-14.92-12.78-29.54-19.76-44s-14.43-29-22.19-43.17q-5.65-10.32-11.56-20.5c-.74-1.27-2.89-.4-3.71.26-1.09.88-1.78,2.28-1,3.57a929.62,929.62,0,0,1,43.83,84.65c6.45,14.27,12.59,28.71,17.31,43.65,4.6,14.53,8.2,29.74,8,45.06-.22,13.87-4.28,27.14-12.65,38.27C298.85,502.9,288.73,511,278,517.58c-22.39,13.78-47.93,22.91-73.81,27.33a206,206,0,0,1-78.9-1.49c-25.54-5.64-50.79-16.69-70.88-33.68-10.13-8.56-19-19-24.11-31.36-5.66-13.51-6.88-28.29-6.09-42.78a199.22,199.22,0,0,1,6.46-40.82,218.18,218.18,0,0,1,12.79-34.53C53.78,338,66.82,317.07,78.7,295.59s22.74-44,28.39-68.16a134.66,134.66,0,0,0,2.71-18.32c.15-1.7-2.69-.67-2.89.54Z"/><path class="cls-5" d="M131.76,291.34a32.34,32.34,0,0,1,.51,14.51,45.4,45.4,0,0,1-5.2,13.25c-4.89,8.78-11.21,16.67-16.29,25.34C104.89,354.49,99,364.57,93.6,374.87a331.73,331.73,0,0,0-14.77,31.92C70.7,427.17,66.11,448.91,69,470.86c1.24,9.52,3,19.27,6.27,28.33A71.55,71.55,0,0,0,89.91,523c12.84,14,30.79,22.87,49.34,26.22,1.19.22,2.38.45,3.58.56a18.48,18.48,0,0,0,3.85-.32c.55-.07,1.92-1.26.94-1.71a23.84,23.84,0,0,0-2.76-1.29,37.3,37.3,0,0,0-3.67-.76c-2.32-.52-4.63-1.12-6.91-1.8a94.12,94.12,0,0,1-13-5,88.65,88.65,0,0,1-23-15.55,74,74,0,0,1-16.27-22.13c-4-8.41-6.14-17.7-7.69-26.85A110.66,110.66,0,0,1,73,444.82a151.27,151.27,0,0,1,7.41-33.08c7.34-22,19.06-42.47,30.64-62.48,2.58-4.45,5.16-8.88,8-13.16s5.64-8.19,8.26-12.42c4.88-7.89,9.37-17,8.11-26.56a23.58,23.58,0,0,0-1.91-6.72c-.43-1-2,.08-1.77.94Z"/><path class="cls-5" d="M207.79,306c2.49-2.52,3.73-6.48,4.69-9.81A40.38,40.38,0,0,0,214,285.46l-3.56,1.48c.73,1.6,2.54,1.77,4,1,1.86-.95,2.44-3,2.62-4.9a16.92,16.92,0,0,0-3-10.94l-2.86,2.79c1.85,1.12,4.46.68,5.21-1.59.6-1.82-.93-4.22-1.91-5.66a32.56,32.56,0,0,0-4-4.6c-1.51-1.49-3.18-2.85-4.55-4.45-.67-.78-2.29.4-2,1.29a16.39,16.39,0,0,0,2,4c.9,1.2,2,2.31,3,3.42a23.86,23.86,0,0,1,2.66,3.35,10.9,10.9,0,0,1,.92,1.84c.36.95,0,1.29,1.12.37s.84-.52.07-1c-1.41-.86-3.84,1.35-2.85,2.79a14.78,14.78,0,0,1,2.37,5.82,13.52,13.52,0,0,1,.17,3.05,11.25,11.25,0,0,0-.16,1.5q-.36.81.63,0s0,0,0,0c-.83-1.82-3.54,0-3.56,1.48a41.47,41.47,0,0,1-1.31,9.91,39.67,39.67,0,0,1-1.5,4.63,25.84,25.84,0,0,0-1.71,4.56c-.25,1.35,1.29,1,1.89.38Z"/><path class="cls-5" d="M132.55,284.57c-1.06-8.81-2.24-17.69.67-26.29a25,25,0,0,1,13.13-15c3-1.38,6.74-2.45,9.58-.3,1.61,1.22,4.72-2,2.89-3.42l-1.5-1.21-.72-.57c-1.36,1.05-1.7,1.49-1,1.33,1,.21,2.08.15,3.06.3A38.54,38.54,0,0,1,165,241a38.1,38.1,0,0,1,11.59,6.35c.67.53,1.9,0,2.45-.47a2.32,2.32,0,0,0,1-2.29,8.09,8.09,0,0,0-1.15-2.27c-.16-.24-1.08-1.78-.91-1.8s-.45.55-.48.49a5.57,5.57,0,0,0,.66-.05,4.75,4.75,0,0,1,2.17.73c3.55,2.07,6,5.62,9.9,7.21a17.12,17.12,0,0,0,19.35-5,24.61,24.61,0,0,0,1.95-2.91,5,5,0,0,1,1.75-2.07c2.12-1,2.51,2.34,2.59,3.65.09,1.63,2,1.36,2.91.6a24.28,24.28,0,0,1,10-5.14c1.56-.32,3.54-.31,4.71,1,.66.71,1.39,2.14.59,3a1.49,1.49,0,0,0-.15,2.09,1.9,1.9,0,0,0,2.29-.3c-.07.06-.58.24-.59.29s.23,0,.37,0a6.06,6.06,0,0,1,1.23.39,22.58,22.58,0,0,1,3.23,1.7,21.81,21.81,0,0,1,5.08,4c5.22,5.74,5.94,14.19,5.53,21.61-.26,4.54-1.4,8.87-2.17,13.32-.15.92,1.05.67,1.32.08a40,40,0,0,0,3.1-12.76,51,51,0,0,0-.35-13.58,21.92,21.92,0,0,0-4.82-11,25.74,25.74,0,0,0-5.88-4.82c-2.23-1.4-5.34-3.28-7.81-1.38l2.14,1.8a5.05,5.05,0,0,0,1-5.67,6,6,0,0,0-5.71-3.39,18.6,18.6,0,0,0-7.91,2.06,32.23,32.23,0,0,0-7.14,4.42l2.91.6c-.1-2-.37-4.36-2.17-5.59-2.14-1.46-5.06-.42-6.84,1.13s-2.66,3.84-4.2,5.62a10.73,10.73,0,0,1-4.1,2.88,12.66,12.66,0,0,1-11-.73c-3.77-2.2-6.65-7-11.28-7.46a5.62,5.62,0,0,0-5.87,2.91c-1.27,2.72,1.08,4.18,1.75,6.54l3.42-2.76A40.31,40.31,0,0,0,163,236.13c-2.59-.56-6-1.47-8.51-.12-1.25.69-2.46,2.17-2,3.69s2.43,2.47,3.51,3.32l2.89-3.42c-3-2.26-7.14-1.75-10.48-.6a29.85,29.85,0,0,0-9.77,5.6c-6.91,6-10.33,15-10.48,24a50,50,0,0,0,.58,8.2,36.76,36.76,0,0,0,2.31,8.42c.32.78,1.65,0,1.57-.65Z"/><path class="cls-3" d="M128.92,545.49a54.75,54.75,0,0,0,11.25,2c-1,.66-3.48,3.74-7.52,9.29-5.05,7-12.32,31-13.58,39.82-.74,5.18-4.52,7-8.27,7.81-2.67.58-5.33.64-6.9,1-3.79.94-40.44,6.32-47.71,6a5.63,5.63,0,0,1-3.23-.94c-1.63-1.24-1.44-3.51-.86-5.66.39-1.44.95-2.83,1.25-3.83.94-3.16-2.85-12.64-4.43-16.43-.32-.77-.69-1.54-1-2.29-1.34-2.9-2.22-5.36,2.3-5.61,5.7-.31,1.27-7.9,1.27-7.9s1.26-4.73-13.27-40.12-17.69-77.1-18-82.47c-.1-1.61.52-5.4,1.44-9.91,2.12-10.47,5.83-24.85,5.83-24.85s25.83,80.83,54.9,107.69C100,535.43,117.72,542.53,128.92,545.49Z"/><path class="cls-3" d="M140.63,547.45s-.14,0-.46,0C140.42,547.33,140.57,547.31,140.63,547.45Z"/><g class="cls-4"><path class="cls-3" d="M128.37,548a91.4,91.4,0,0,0-16.23,56l-1.34.4a219.07,219.07,0,0,1-57.46,9c-.12-1-.24-2-.38-2.93-.25-1.89-.53-3.78-.86-5.66a179.92,179.92,0,0,0-5.18-22.22l1-.33C56,579.57,59.75,574,68.2,572.45c-7.51-4.86-5.1,8.07-9.42.23-12.63-23-26.5-64.48-32.66-90a159.67,159.67,0,0,1-4.51-46.42c2.12-10.47,5.83-24.85,5.83-24.85s25.83,80.83,54.9,107.69c17.63,16.29,35.38,23.39,46.58,26.35Z"/></g><path class="cls-5" d="M21.82,420.74a174.25,174.25,0,0,0,1.88,74C28.11,513,36,530,42.54,547.54a189.16,189.16,0,0,1,8.55,27.93c.35,1.72,3.5,0,3.32-1.38-2.27-17.7-9.5-34-16-50.44C31,504.72,24.85,485.27,23.12,464.91c-1.26-14.92-.25-29.82,1.35-44.67.16-1.56-2.44-.58-2.65.5Z"/><path class="cls-5" d="M138.51,547.56c-6,4.33-9.64,11.12-12.51,17.8a129.15,129.15,0,0,0-7.46,23.1c-.52,2.32-1,4.64-1.44,7-.23,1.24-.47,2.49-.7,3.73a14.92,14.92,0,0,0-.52,3.68,1.21,1.21,0,0,0,1.57,1.11,2.77,2.77,0,0,0,2-1.78c.75-1.85.85-4.11,1.21-6.07s.74-4,1.15-6.05c.82-4,1.75-8,2.92-11.92a95.76,95.76,0,0,1,8.2-20.19,57.61,57.61,0,0,1,6.73-9.39c.86-1-.31-1.62-1.18-1Z"/><path class="cls-5" d="M117.25,601.37c-7.36,1.37-14.61,3.22-22,4.51S80.42,608.24,72.94,609a274.48,274.48,0,0,1-44.6.58c-8.53-.58-17-1.55-25.48-2.84l.88,1.61C11.27,590,31.35,581.54,49.49,577.9c6.08-1.21,12.23-2,18.35-2.93a3.1,3.1,0,0,0,2.58-2.09A1.35,1.35,0,0,0,69,571.07c-21.37,2.62-44.72,7.27-60,23.68A45.11,45.11,0,0,0,.08,608.57a1.19,1.19,0,0,0,.87,1.6A280.77,280.77,0,0,0,92.1,609c8.38-1.52,16.92-3.3,24.92-6.23.57-.2,1.28-1.63.23-1.43Z"/><path class="cls-5" d="M44.32,578.08a79.25,79.25,0,0,1,5.81,16.72,53,53,0,0,1,1,8.6c.05,1.51.05,3,0,4.54s-.41,2.9.14,4.29,2.33.33,2.79-.53c1.4-2.65,1-6.29.9-9.22a57.43,57.43,0,0,0-1.19-9.15,42.84,42.84,0,0,0-7.18-16.75c-.71-.94-2.71.51-2.27,1.5Z"/><path class="cls-5" d="M52.82,604.5c-2.07-.78-4.78-.27-6.94,0a68.9,68.9,0,0,0-7.41,1.21c-2.47.54-4.91,1.19-7.33,1.9a60.43,60.43,0,0,0-7.46,2.49c-.8.35-.91,1.67.2,1.43,2.45-.53,4.82-1.46,7.23-2.18S35.67,608,38,607.45a73,73,0,0,1,7.2-1.34c2.38-.31,5-.11,7.27-.74.25-.07.82-.7.37-.87Z"/><path class="cls-5" d="M13.38,609.46c2.92-1.13,5.54-3.08,8.39-4.4a65,65,0,0,1,9.55-3.4c3.25-.92,6.55-1.64,9.86-2.25,1.65-.3,3.3-.57,5-.84a35.86,35.86,0,0,0,5-.91c.9-.27,1.79-2,.32-2a30,30,0,0,0-5.32.68q-2.47.39-4.95.84c-3.46.64-6.9,1.38-10.28,2.35a61.18,61.18,0,0,0-9.59,3.59c-2.9,1.37-6.36,3-8.37,5.63-.25.33-.13.91.38.71Z"/><path class="cls-5" d="M7.31,608.7c3-2.23,6.19-4.27,9.35-6.3s6.45-4.11,9.84-5.88a56.26,56.26,0,0,1,10.57-4.28,58.72,58.72,0,0,1,6-1.36,40.85,40.85,0,0,0,6-1.15c.53-.18,1.64-1.58.5-1.73a20.64,20.64,0,0,0-6.3.61c-2,.36-4,.79-5.92,1.34a58.52,58.52,0,0,0-11.24,4.54,109.35,109.35,0,0,0-10.34,6.22c-3.22,2.16-6.88,4.21-9.43,7.17-.7.81.25,1.36,1,.82Z"/><path class="cls-5" d="M5.94,601.57a80.21,80.21,0,0,1,8.26-6.69,54.55,54.55,0,0,1,9.91-5.16A91.37,91.37,0,0,1,35.67,586c2-.5,4-1,5.95-1.41,1.83-.4,4.18-.49,5.72-1.6.45-.32.61-1,0-1.24a5,5,0,0,0-2.7.29c-1.08.23-2.15.47-3.22.72-2.15.48-4.29,1-6.42,1.56a88.77,88.77,0,0,0-11.89,4c-6.54,2.76-13.76,6.81-17.61,13-.19.31.22.42.43.24Z"/><path class="cls-6" d="M24.31,584.28S9.06,596.94,4.61,603s1.17,6.1,14.3,7S44.24,612,44.24,612s8.91,2.81,8.68-4.93-5.39-25.09-6.33-27.43S38.38,576.77,24.31,584.28Z"/><g class="cls-9"><path class="cls-10" d="M239.6,27.26c-2.68-1.88-6.58-1.14-9,1s-3.66,5.42-4.23,8.63a11.25,11.25,0,0,0,.57,7c.55,1.07,1.4,2.14,1.2,3.33a20.86,20.86,0,0,0-10.42-4.87,2.69,2.69,0,0,1-1.28-.41,2.33,2.33,0,0,1-.7-1.33,14.65,14.65,0,0,1,1.84-10.91A18.94,18.94,0,0,1,226,22.46a10,10,0,0,1,6.43-1,8.79,8.79,0,0,1,5.36,4.75"/></g><path class="cls-5" d="M229,213.68c.49,1.12,2.23.52,3.1.27a11.86,11.86,0,0,0,3-1.42,13.92,13.92,0,0,0,2.84-2.29c.74-.79,1.94-2.24,1.17-3.35-.39-.56-1.29,0-1.6.31-.11.13-.2.28-.3.41s0,.09,0,0l-.09.1a2,2,0,0,0-.35.47c-.08.2.18-.21-.06.09a4.72,4.72,0,0,1-.41.48c-.1.1-.21.2,0,0l-.25.23c-.32.3-.65.58-1,.85-.18.14-.37.27-.56.4s.13-.07,0,0l-.29.18a12.64,12.64,0,0,1-1.15.61l-.31.14c-.27.12.09,0-.08,0l-.56.23c.15-.06.1,0,0,0-1,.38-2.15.58-2.81,1.47-.13.18-.3.46-.2.69Z"/><path class="cls-3" d="M277,160.84c-5.37,16.68-17.86,32-32.8,41.21-5.51,3.38-11.06,4.93-17.33,6.51-8.11,2-16.59,2.05-25,1.88q-18.6-.36-37.16-1.79-23.64-1.83-47.09-5.38l-15.27-7.74C88.05,184,80.58,165.3,80.1,146.89s5.43-36.51,14-52.81c2.8-5.3,10.27-18.56,9.27-19.23-2.54-1.69-3.92-10.13-9.33-12.71-1.43.37-2.67-1-3.43-2.26a30.11,30.11,0,0,1-.7-29.06,30.12,30.12,0,0,1,24.53-15.58q-1.19-2-2.36-4.05c.4-1.43,2.46-1.31,3.86-.79,10.85,4.07,20.48,12.87,23.62,24,.87,3.1.7,7.39,3.54,8.91a8.52,8.52,0,0,0,4,.81,25.22,25.22,0,0,0,23.49-16.56A11.09,11.09,0,0,1,173.66,36c1.33-3.3,4.78-5.77,7.75-7.73,1.72,2.34,1.37,5.15.43,7.88a5.34,5.34,0,0,1,5.58-2.89,11.83,11.83,0,0,1-1.53,8.8l10-1.34L205,39.52a34.08,34.08,0,0,1,8.65-29.07c11-11.52,11.28-5.66,17-5.91,8.33-.37,13.43,3.83,18.83,10.19,1.58,1.87,3.15,4,3.17,6.44,0,1.63-.18,5.47-3.66,6.46-.75.22-.42,9.78-4.31,18.43-.82,1.8-6.66,7.66-9.33,8.66-1.47.55,2.82,5.83,3.23,7.35,1.8,6.56,5.76,11,9.42,16.78,6.89,10.81,16.09,20.74,23.09,31.49C280.61,125,282.38,144.16,277,160.84Z"/><g class="cls-4"><path class="cls-3" d="M210.86,76.74c-2.19,6.42-11.19,6.75-16.53,11-4.83,3.81-6.2,10.56-6.19,16.7s1.06,12.4-.32,18.39a10.39,10.39,0,0,1-2.85,5.53,10.75,10.75,0,0,1-5,2.21c-8.31,1.75-18.83.31-23.46,7.43-2.52,3.89-2.07,9-.53,13.42s4,8.38,5.4,12.81a4.64,4.64,0,0,1,.19,3c-.45,1.18,51.55,14.7,50.48,15.37-7.91,4.89-59.42-4.27-60.36,11.81-.39,6.6,7.26,11,13.07,14.31q-23.64-1.83-47.09-5.38l-15.27-7.74C88.05,184,80.58,165.3,80.1,146.89s5.43-36.51,14-52.81c2.8-5.3,10.27-18.56,9.27-19.23-2.54-1.69-3.92-10.13-9.33-12.71-1.43.37-2.67-1-3.43-2.26a30.11,30.11,0,0,1-.7-29.06,30.12,30.12,0,0,1,24.53-15.58q-1.19-2-2.36-4.05c.4-1.43,2.46-1.31,3.86-.79,10.85,4.07,20.48,12.87,23.62,24,.87,3.1.7,7.39,3.54,8.91a8.52,8.52,0,0,0,4,.81,25.22,25.22,0,0,0,23.49-16.56A11.09,11.09,0,0,1,173.66,36c1.33-3.3,4.78-5.77,7.75-7.73,1.72,2.34,1.37,5.15.43,7.88a5.34,5.34,0,0,1,5.58-2.89,11.83,11.83,0,0,1-1.53,8.8l10-1.34a34.41,34.41,0,0,1,1.51,11c-.08,2.92-.55,5.87.09,8.72,1.26,5.67,6.46,9.47,11.46,12.42a4.08,4.08,0,0,1,2,2A3.14,3.14,0,0,1,210.86,76.74Z"/></g><path class="cls-7" d="M225.68,185.71a9.62,9.62,0,0,0,8.66-4.3c-.91.74.5,2.28,1.6,1.88s1.6-1.64,2.05-2.72a23.23,23.23,0,0,1,5.61-8.1,1.94,1.94,0,0,0,.37,2.39A91.31,91.31,0,0,0,253,161.37a1.7,1.7,0,0,0,.66,2.17c1.06-1.88,1.95-3.84,3-5.71,1.61-2.8,3.64-5.36,5.09-8.25s2.3-6.28,1.35-9.37l1.79,1.43a28.66,28.66,0,0,0-2.48-21.52c.42.92,2,.52,2.34-.44a3.77,3.77,0,0,0-.59-2.9A60.42,60.42,0,0,0,254,102.56c.78.42,1.69-.65,1.48-1.51a3.29,3.29,0,0,0-1.83-1.83,66.19,66.19,0,0,1-6.71-3.57c-2.08-1.46-3.85-3.64-4-6.17.37-.91,1.87-.29,2.66-.87s.11-2.12-.67-3c-7.45-8.15-4.87-20.45-14-27.83-7-5.67-17.47-5.49-25.46-1.34a15.25,15.25,0,0,1-5,2c-2.38.29-4.68-.83-6.82-1.91a67.12,67.12,0,0,0-12.57-5.19,40.83,40.83,0,0,0-28.89,3.26c-8.23,4.26-16.12,11.32-17,21.08l2.84-.3-6,14.4a2,2,0,0,0-.22.89,1.4,1.4,0,0,0,1.67,1.1,4.11,4.11,0,0,0,1.93-1.09,16.56,16.56,0,0,1-4.26,11.67c-2.1,2.29-5,4.37-5.21,7.48l2.25.13a38.25,38.25,0,0,0-12.53,30.34,2.62,2.62,0,0,0,2.45-1.37,34.2,34.2,0,0,0,9.58,29.53l.6-2.54a33.31,33.31,0,0,0,15.62,14l.27-2.62c-.12,1.23,6.2,4.69,7.22,5.27a40.63,40.63,0,0,0,8.66,3.7c4.8,1.42,11.9,1.41,15.62,5.34,14.17,14.93-9.06-4.16,1.06,0,6.93,2.85-.89-.33,6.41,1.39s15.75,1,21.14-4.23c4.52-4.37,6-10.91,7.45-17,5.57-23.84-1-8,16.68-25"/><path class="cls-3" d="M165.73,65a15.6,15.6,0,0,0-5.07,2.9c-5.2,4.68-2.48,11.88-7.6,16.87-.78.76-1.73,1.65-1.5,2.71a1.52,1.52,0,0,0,2.68.39c.21,2.5-2.08,4.4-4.06,6s-4,3.86-3.26,6.25a15.78,15.78,0,0,0,3.47-.61A5.63,5.63,0,0,0,148.3,102c-.31,1.06.29,2.47,1.4,2.54a2.84,2.84,0,0,0,1.32-.36c2.75-1.24,5.7-2.41,8.69-2,3.38.43,6.15,2.75,8.91,4.75a59.9,59.9,0,0,0,8.63,5.2,12.31,12.31,0,0,0,5.44,1.59,13.68,13.68,0,0,0,5.15-1.46l5.54-2.4a8.39,8.39,0,0,0,2.32-1.3,8.66,8.66,0,0,0,1.92-2.94c2.57-5.47,5.19-11.63,3.24-17.34a4.27,4.27,0,0,0-2,2.66c-1-5.93.78-12.59-2.45-17.66a1.94,1.94,0,0,0-.86-.84c-.72-.29-1.52.27-2,.92a8.41,8.41,0,0,1-1.31,1.93c1-.84-1.88-5.55-2.43-6.27a12.55,12.55,0,0,0-6.13-4.32A27.91,27.91,0,0,0,165.73,65Z"/><path class="cls-3" d="M209.67,105.43a23.76,23.76,0,0,1-5.3-13.62,1.84,1.84,0,0,1,2.41.71,19.59,19.59,0,0,1-3.66-12.41,4.13,4.13,0,0,1,.87-2.66,1.63,1.63,0,0,1,2.46,0c-1.73-5.25,2.26-11.19,7.52-12.89s11.14.05,15.71,3.16a9,9,0,0,1,2.62,2.47,12.66,12.66,0,0,1,1.27,3.52,28,28,0,0,0,5.1,9.94,2.72,2.72,0,0,1-3.68.12c-1.24,1.78,0,4.22,1.41,5.86s3.17,3.42,3,5.58a4.43,4.43,0,0,1-2.83.7c.55,2.52,3.78,3.09,6.06,4.3,2.66,1.41,4.43,4.89,3,7.54-1.27,2.36-4.3,3-7,3.3-9.21.87-17.94-.73-26.77-3.2"/><g class="cls-8"><path class="cls-7" d="M162.76,103.43c-1.06-8.59-.42-17.9,4.64-24.92a13,13,0,0,1,3.25-3.28,13.87,13.87,0,0,1,7.27-1.88c6.75-.17,14,2.38,17.52,8.16,1,1.67,1.67,3.55,2.93,5s3.43,2.46,5.16,1.59,2.18-2.79,2.72-4.52a21.05,21.05,0,0,1,5.21-9A12.59,12.59,0,0,1,221,70.94c5.11.42,9.28,4.73,10.89,9.6S233,90.73,232,95.76c-.41,2-1,4.19-2.72,5.32a9.08,9.08,0,0,1-3.41,1.07,51.19,51.19,0,0,0-15.93,5.77c-.62-2.37-3.58-3.4-6-2.93s-4.46,2-6.64,3.08a31.71,31.71,0,0,1-12.81,3.05,20.48,20.48,0,0,1-5.58-.33c-6-1.36-10.32-6.84-16.21-8.63"/></g><path class="cls-7" d="M227.79,46.81S230.64,52.32,237,44s6.65-19.56-1.61-23.26-17.94,4.84-19,9.78-4.84,8.16.57,10.82S227.79,46.81,227.79,46.81Z"/><path class="cls-7" d="M126.61,36.94s-7.21-10-14.43-7.88-10.53,13.67-6.07,22.5,12.15,10.82,16.42,9.68,9.59-7.59,7.4-15S126.61,36.94,126.61,36.94Z"/><path class="cls-7" d="M147.11,119.62S133.73,130,136.39,146.38s34.13,54.37,62.68,58.28c20.43,2.8,31.08-10.5,33.17-12.59s-3.16-29.93-1.26-36.39,5.26-4.65,11.15-4.36,11.67-1.23,10.91-6.74-6.17-9.21-6.36-12-4.74,1.9-7.69,3.89-10.72,7.31-19.26,3-17.56-7.5-19.08-13.1-2.66-10.35,1.61-14.14a54.21,54.21,0,0,1,10.16-6.74s-5.79-2.75-13.58.76-10.53,6.74-27.52,6.17S147.11,119.62,147.11,119.62Z"/><g class="cls-8"><path class="cls-7" d="M204.78,184.22c-4.82-.69-9.7-1.4-14.17-3.32s-8.55-5.25-10.31-9.79c-1-2.46-1.06-5.56.78-7.45,2.11-2.16,5.59-1.78,8.6-1.63a35.36,35.36,0,0,0,15-2.55c3.3-1.34,6.39-3.18,9.78-4.27,5.66-1.82,11.78-1.44,17.7-.81a11.84,11.84,0,0,0,4.24-.05,3.85,3.85,0,0,0,2.91-2.8c-4.22-1.15-8.69-.29-13.06-.49S217,149,215.62,144.85c-.93-2.83,0-5.9.12-8.88.16-7-4.76-13.78-3.05-20.57a10,10,0,0,0,.64-3.42c-.3-2.73-3.61-4-6.35-3.94-6.15.2-11.45,4.21-17.31,6.08-5.55,1.78-11.5,1.6-17.3,2.13-9.37.87-19.24,4.12-24.65,11.82a29.59,29.59,0,0,0-4.15,9.36,40,40,0,0,0-.42,20.82c1.81,6.79,4.41,14.32,10.3,18.14,2.69,1.75,8.17,9,11.2,10.08,10.38,3.6,24.55,18,35.54,17.77"/></g><path class="cls-2" d="M230.55,102.88s19.52,5.19,19.73,11.42-5.82,19.63-12.67,23.16a23,23,0,0,1-19.63,1c-6.13-2.39-16.41-9.55-17.76-13.81s-1.77-11.53,4.57-14.85S221.2,102.56,230.55,102.88Z"/><path class="cls-5" d="M103.6,73a121.88,121.88,0,0,0-7.94,13.76c-2.43,4.59-4.73,9.24-6.81,14a134.8,134.8,0,0,0-9.48,29.69C76,149.2,77.89,169.3,88.81,185.38a53.77,53.77,0,0,0,10.3,11.26,61.91,61.91,0,0,0,7,5,79.64,79.64,0,0,0,7.77,3.93c1,.49,2.75-1.12,1.67-2-3.82-3-7.7-5.89-11.55-8.85a52.85,52.85,0,0,1-9.55-9.47,60,60,0,0,1-10.81-23.5c-4.41-19.35.16-39.54,7.64-57.53,2.19-5.27,4.66-10.42,7.2-15.53s5.5-10,7.61-15.2c.64-1.59-1.83-1.36-2.44-.49Z"/><path class="cls-5" d="M144,44.07c-.25-8.86-4.65-17.84-10.34-24.51A35.85,35.85,0,0,0,112.53,7.11c-1.24-.2-3.73,1.39-3,2.9a19.21,19.21,0,0,0,5.82,7.1l2.4-3.48c-5.42-1-11.25,1.09-15.94,3.71a35.55,35.55,0,0,0-11.3,9.86c-6.12,8.34-8.07,19.45-4.34,29.22.93,2.42,2.24,5.59,4.35,7.21,2.46,1.89,6.7-.56,5.94-3.69l-3.76,2c1.47,4.92,5,10.64,10.07,12.38,1.07.36,3.08-1.48,2.12-2.5-1.7-1.8-3.68-3.23-5.2-5.23a19.35,19.35,0,0,1-3.23-6.66c-.58-2.12-4.16.16-3.76,2l1.23-1.23-.23-.09c-.11-.13-.35-.25-.48-.37a7.23,7.23,0,0,1-.76-1,24.19,24.19,0,0,1-1.68-2.87,27.37,27.37,0,0,1-2.06-17.94,28.43,28.43,0,0,1,13.36-17.84c3.93-2.31,9.07-4.56,13.67-3.36a2.68,2.68,0,0,0,2.4-1c.41-.48,1-1.65.33-2.19a19.82,19.82,0,0,1-5-6.13l-3,2.89a33.3,33.3,0,0,1,19.75,11.75,44.81,44.81,0,0,1,6.66,10.75c1.72,3.86,3,7.88,4.77,11.72.53,1.16,2.34,0,2.31-1Z"/><path class="cls-5" d="M142.94,44c6,2.15,13.12.59,18.45-2.66,5.52-3.38,10.18-8.73,11.54-15.18l-3.06,1.29c1.84,2.89,2.45,6.68,2.81,10,.21,1.84,2.6.92,3.16-.22A25.74,25.74,0,0,1,182.09,29l-1.85-.11a12.92,12.92,0,0,1-.31,4.42,15.36,15.36,0,0,1-1.05,4c-.89,2.11,1.56,2.24,2.69,1a13.82,13.82,0,0,1,6.88-4.16l-1.69-1a9.94,9.94,0,0,1-2.67,7.06c-.85,1-.81,2.94.9,2.73,9.4-1.14,19.08-2.14,28.41,0,7.64,1.76,14.94,5.72,19.45,12.29,2.45,3.57,4,7.65,5.61,11.63a69.15,69.15,0,0,0,5.45,11c4.06,6.46,9.31,12.07,14.43,17.69s10.19,11.29,13.9,17.92A48.61,48.61,0,0,1,278,138.31a79.93,79.93,0,0,1-16.28,46.31,68.85,68.85,0,0,1-17.54,16.16,42.46,42.46,0,0,1-6.69,3.58c-1.39.55-3.15,1.06-4.72,1.54-.62.19-1.42.5-1.85.66s-1.16.68-1.13,1.31a.77.77,0,0,0,1.1.64,30.64,30.64,0,0,1,4.24-.83,31.76,31.76,0,0,0,6.33-2,42.32,42.32,0,0,0,8.82-5.38,75.51,75.51,0,0,0,10-9.06c11.61-12.56,18.73-29.08,21.05-45.94,1.27-9.21.94-18.87-2.25-27.67-2.7-7.48-7.45-14-12.61-19.93S255.66,86.2,250.88,79.9a57.65,57.65,0,0,1-6.26-10.08c-1.92-4-3.34-8.31-5.29-12.34a31.41,31.41,0,0,0-7.51-10.27A35,35,0,0,0,221.31,41c-8.86-3.36-18.41-3.51-27.75-2.69-2.49.22-5,.5-7.46.8l.9,2.73a13,13,0,0,0,3.18-9.73,1.18,1.18,0,0,0-1.68-1,22,22,0,0,0-9.35,5.81l2.69,1a17.45,17.45,0,0,0,1.54-5.19c.22-1.68-.4-3.47-.68-5.11-.16-.88-1.46-.44-1.85-.12a34.14,34.14,0,0,0-7.94,9.24l3.16-.23c-.12-4-1.56-7.43-3.13-11-.69-1.6-2.89-.16-3.23,1a20.66,20.66,0,0,1-9.55,12.14,23.22,23.22,0,0,1-15.66,2.66c-1.44-.25-3.44,2.14-1.56,2.82Z"/><path class="cls-5" d="M206.93,39.4c.16-1.93-.07-3.85-.05-5.79a27,27,0,0,1,.63-5.45,45.92,45.92,0,0,1,3.82-10.59c3.06-6.27,7.11-12.16,14.23-13.92l-1.72-.36A2.79,2.79,0,0,1,224,5.92c-.48,1.23.84,1.9,1.84,1.58a19.86,19.86,0,0,1,24.9,11.13,9.53,9.53,0,0,1,.94,5.15c-.23,1.22-1.17,2.09-2.39,1.36s-3.4,1-2.83,2.29c1.11,2.54.86,5.26.23,7.89a46.94,46.94,0,0,1-2.51,7.77,26.79,26.79,0,0,1-3.9,6.31,7.84,7.84,0,0,1-4.91,3.11,2.62,2.62,0,0,0-2.15,1.75,1.12,1.12,0,0,0,1.22,1.5,12.85,12.85,0,0,0,7.25-3.84,28.15,28.15,0,0,0,5.1-7.46A47.78,47.78,0,0,0,250,35.09c.75-3.1,1.11-6.42-.27-9.4L246.89,28c2.77,1.57,6.31-.41,7.56-3.06,1.5-3.19.27-7-1.21-10a21.87,21.87,0,0,0-27.35-10.9l1.85,1.59a6.12,6.12,0,0,0-.21-4.82A1.31,1.31,0,0,0,226.12,0c-8.6,1.46-14.4,8.84-18,16.27a49.87,49.87,0,0,0-4.27,12.13c-.7,3.65-1.28,8.87,1.38,11.87.58.65,1.6-.24,1.65-.89Z"/><path class="cls-5" d="M230.68,49.43a10,10,0,0,0,5.94-3.86,28.16,28.16,0,0,0,4.17-6.7c2-4.53,2.34-9.76-.06-14.21a11.59,11.59,0,0,0-10.93-6,16,16,0,0,0-12,6.78,22.41,22.41,0,0,0-3.49,7.84,28,28,0,0,0-.63,4.27c-.09,1.23-.33,2.8.87,3.55.34.21.87-.06,1.09-.34,1.29-1.68,1-3.94,1.31-5.94a23.32,23.32,0,0,1,1.76-6,13.74,13.74,0,0,1,8.56-7.67,9.94,9.94,0,0,1,10.66,3,13.38,13.38,0,0,1,2.22,11.92A22.14,22.14,0,0,1,236.78,43c-1.47,2.1-3.24,4.49-5.89,5.05-.66.15-1.18,1.56-.21,1.4Z"/><path class="cls-5" d="M131,47.88c-1-7.34-4.18-16.09-11.78-18.94a11.81,11.81,0,0,0-9.63.54c-3.45,1.89-5.2,5.7-6.43,9.26A15.06,15.06,0,0,0,104.26,51,29.2,29.2,0,0,0,111,60.2c5.69,4.77,15,3.57,19-2.83,1.78-2.81,2-6.28,1.58-9.49-.35-2.67-.93-5.71-2.55-7.93-.51-.7-1.76.36-1.57,1,1.26,4.41,2.72,8.69,1.17,13.26-2,5.74-9,7.69-14,4.61-2.75-1.69-4.69-4.44-6.37-7.13-1.79-2.89-3.49-6.17-3.33-9.67a16.64,16.64,0,0,1,1.54-5.56A14,14,0,0,1,109,32.17c2.16-2.23,5.66-2.57,8.51-1.7,7.8,2.38,9.93,11.2,12.79,17.77.17.4.73,0,.69-.36Z"/><path class="cls-5" d="M98.15,69.42A23.07,23.07,0,0,0,99.63,72a11.55,11.55,0,0,0,1.91,2,13.43,13.43,0,0,0,5.23,2.68,16.12,16.12,0,0,0,6.34.23,17.07,17.07,0,0,0,3.15-.78,7.56,7.56,0,0,0,3.52-2c.78-1,.74-2.49-.82-2.48a7.89,7.89,0,0,0-2.64.91,15,15,0,0,1-2.45.66,14.85,14.85,0,0,1-5.44-.11,17.63,17.63,0,0,1-4.75-1.6c-.76-.38-1.5-.78-2.22-1.23a11.79,11.79,0,0,1-2.3-1.63c-.43-.45-1.31.29-1,.81Z"/><path class="cls-5" d="M228.64,142.16a13.66,13.66,0,0,0,6.49-1.73,32,32,0,0,0,14.48-14.18c2.18-4.32,3.93-9.92,1.93-14.62s-6.57-7.06-11-8.65a38.9,38.9,0,0,0-30.13,1.8A29.31,29.31,0,0,0,199,114.44,11.82,11.82,0,0,0,199.3,128c3.08,4.58,8.19,7.9,13.17,10.08A57.74,57.74,0,0,0,229,142.35a2.88,2.88,0,0,0,2.77-1.51c.43-.79.36-2-.73-2.19-8.75-1.41-17.66-3.47-24.5-9.49-2.93-2.58-6.06-6.37-5.39-10.56.61-3.9,4.42-7.07,7.55-9.09,7.3-4.71,16.58-5.91,25-4.14,4.15.88,8.83,2.44,11.88,5.54,3.4,3.44,3.13,8,1.55,12.28a25.48,25.48,0,0,1-7.09,10.2,27.43,27.43,0,0,1-5.19,3.62c-2,1.07-4.14,1.83-6.14,2.91-.95.51-1.56,2.16,0,2.24Z"/><path class="cls-5" d="M228.9,141.55a1.85,1.85,0,0,0,2.17-.68c.55-.66,1.05-1.4,1.59-2.08a22.63,22.63,0,0,0,3.39-6.19,24.76,24.76,0,0,0,1.48-6.8,19.53,19.53,0,0,0,0-3.42,10.79,10.79,0,0,0-1.19-3.3c-.24-.53-1.05,0-1.05.43,0,1.09-.17,2.18-.23,3.26s0,2.07,0,3.11a22.81,22.81,0,0,1-1.29,6.1,24.7,24.7,0,0,1-2.75,5.33,20.8,20.8,0,0,0-1.64,2.33c-.09.18-.43,1-.14.42a7.9,7.9,0,0,0-.5.91.49.49,0,0,0,.19.58Z"/><path class="cls-5" d="M248.69,121.22a8.52,8.52,0,0,0-.82-2.06,5.46,5.46,0,0,0-1.54-1.6c-1.31-1-3.2-1.68-4.75-.84a5.19,5.19,0,0,0-2.29,4.28,7.3,7.3,0,0,0,1.06,4.19,9,9,0,0,0,2.75,3.13,2.2,2.2,0,0,0,2.2.37c.73-.36.53-1.08.06-1.57a5.87,5.87,0,0,0-.92-.61,6.22,6.22,0,0,1-.73-.63,6.76,6.76,0,0,1-2-5.6,3.77,3.77,0,0,1,.45-1.82.4.4,0,0,1,.17-.16,1.24,1.24,0,0,1,.54-.06,4.84,4.84,0,0,1,1.31.26,6.58,6.58,0,0,1,2.19,1.27,7.79,7.79,0,0,1,1.72,1.86c.18.3.68-.15.62-.41Z"/><path class="cls-5" d="M213.49,132.4a17.79,17.79,0,0,0,10.38-4.76c2.12-2.13,3.36-6.08.7-8.35-1.39-1.19-3.35-1.07-5-.53a22.82,22.82,0,0,0-5.45,2.79c-2.78,1.84-6.47,4.55-6,8.35a3.93,3.93,0,0,0,5.59,3.53,5.74,5.74,0,0,0,1.44-.78,3.62,3.62,0,0,0,.94-1.26c.1-.17,0-.42-.21-.39s-.49,0-.73,0a4.28,4.28,0,0,0-1.07.43,3,3,0,0,1-2,.39,2.74,2.74,0,0,1-1.88-2.38c-.38-2.72,2.34-4.7,4.29-6a34.78,34.78,0,0,1,4.09-2.48c1.27-.65,2.86-1.28,4.18-.42a3.42,3.42,0,0,1,1.36,3,4.69,4.69,0,0,1-1.5,3.19,16.09,16.09,0,0,1-3.86,2.61,39.67,39.67,0,0,1-5.13,2.25c-.34.13-.8.95-.14.87Z"/><path class="cls-5" d="M175.08,127.29c-1.27-1-3-1-4.59-.8a11,11,0,0,0-4.85,1.65,11.41,11.41,0,0,0-3.66,3.72,9,9,0,0,0-.9,2.09,3,3,0,0,0,.09,2.71c.84,1.1,2.62-.09,3.09-1a3.58,3.58,0,0,0,.43-1.39s.06-.46,0-.27.06-.23.07-.27a7.46,7.46,0,0,1,.26-.8c-.15.38.06-.12.09-.16s.1-.2.16-.3a3.87,3.87,0,0,1,.27-.43c-.11.15-.14.18,0,0s.37-.44.56-.65c.39-.41-.34.28.1-.08l.26-.22c.13-.11.27-.21.41-.31-.23.17-.17.1,0,0s.55-.3.83-.44-.42.15.15-.06l.46-.16c.32-.1.63-.19.95-.27l.48-.12.23-.05a16.88,16.88,0,0,1,2-.18,11.15,11.15,0,0,0,2.29-.43c.73-.19,1.51-1.23.77-1.82Z"/><path class="cls-5" d="M165.73,129.62a21.13,21.13,0,0,0,1,6.81,43.59,43.59,0,0,0,1.73,5.33,24.12,24.12,0,0,0,4.82,7.78c4.64,4.8,11.23,6.44,17.59,7.64a32.62,32.62,0,0,0,12.18.18c4.72-.9,8.87-3.42,13.46-4.73,5.09-1.46,10.52-.27,15.7,0,2.7.14,5.4.22,8.1.21a33.6,33.6,0,0,0,7.43-.53c4.58-1.06,8.9-5.5,6.68-10.41-1-2.24-2.78-4-4.11-6-1.51-2.29-2.19-4.91-3-7.48-.47-1.45-2.53.09-2.59,1.08-.27,4.5,2.21,8.19,4.77,11.64,1.06,1.44,2.39,3.23,2.05,5.13s-2.1,2.63-3.71,3a33,33,0,0,1-7,.37q-3.85,0-7.69-.22c-4.85-.29-9.81-1.25-14.64-.3-4.32.86-8.17,3.1-12.35,4.43a25.65,25.65,0,0,1-11.78.74c-5.79-.91-12.29-2.21-16.89-6.09a20.41,20.41,0,0,1-5.36-7.46,41.27,41.27,0,0,1-1.87-5.31c-.65-2.24-1-4.72-2-6.79-.64-1.24-2.37,0-2.44,1Z"/><path class="cls-5" d="M211.5,105c-5.31-2.77-11.58-.25-16.54,2.18a69.82,69.82,0,0,1-8.45,3.85,20.82,20.82,0,0,1-9.63.75,60.11,60.11,0,0,0-9.37-.76,36.93,36.93,0,0,0-9,1.33,33.92,33.92,0,0,0-14.65,8.36,31.77,31.77,0,0,0-8.54,29.68c1.63,7.47,5.63,14.29,10.38,20.2,9.87,12.26,23.34,21.84,37.22,29.06a78.29,78.29,0,0,0,15.51,6.46c5.23,1.41,10.73-.15,15.79-1.67a50.34,50.34,0,0,0,11.82-5c3.11-1.9,6.28-4.37,7.67-7.87.76-1.93.59-4,.55-6-.07-3.11-.21-6.22-.37-9.32-.32-5.82-.75-11.63-.87-17.45,0-2.33-.07-4.68,0-7,0-.75-.75-1-1.36-.8a2,2,0,0,0-1.41,1.63c-.6,4.95-.24,10,0,15,.29,5.87.67,11.75.8,17.63,0,2,.42,4.3-.29,6.2a8.33,8.33,0,0,1-2.24,3.09,29.56,29.56,0,0,1-9.42,5.4,63.69,63.69,0,0,1-11.24,3.26,28.53,28.53,0,0,1-4.22.57h-.39c-.4,0,.28,0-.14,0s-.69-.08-1-.14c-4.51-.78-8.87-2.78-13-4.72-13.21-6.25-25.86-14.7-36-25.24-11.14-11.54-20.78-28.79-12.35-44.73,5.32-10.05,16.27-15.38,27.4-15.38,3.15,0,6.22.62,9.36.86a21.64,21.64,0,0,0,8.38-.92c5.55-1.76,10.33-5.32,15.92-7a19.34,19.34,0,0,1,9.1-.53c.38.07,1.13-.64.62-.9Z"/><path class="cls-5" d="M173.06,108.61c-3.44-3.87-8.57-7-13.83-7.48a15,15,0,0,0-6.83.87c-1.93.76-4.66,2.13-4.87,4.47,0,.47.54.69.92.54,1.7-.7,2.93-2.08,4.71-2.66a12.48,12.48,0,0,1,5.82-.43c4.81.76,8.71,3.81,13.09,5.66.45.19,1.43-.47,1-1Z"/><path class="cls-11" d="M169.8,106.82c-2.48-5.7-4.06-12.11-2.54-18.15s6.84-11.42,13.06-11.35a14.17,14.17,0,0,1,8.78,3.57,19.19,19.19,0,0,1,6.52,16.9c-.84,6.31-5.37,12.22-11.53,13.85s-13.49-1.78-15.49-7.83"/><path class="cls-11" d="M228.84,96.23a21.91,21.91,0,0,0-1.53-16.52c-1.11-2.1-2.71-4.12-5-4.85-3.72-1.2-7.61,1.56-9.82,4.78A21.22,21.22,0,0,0,209.33,96c.54,2.44,1.63,4.93,3.75,6.26a8.23,8.23,0,0,0,4.16,1.12,11.93,11.93,0,0,0,12-13.79"/><path class="cls-5" d="M170.34,106.66c-.45-3.72-1.89-7.19-2.21-11a18.85,18.85,0,0,1,1.67-10.1,13.12,13.12,0,0,1,5.88-6,10.4,10.4,0,0,1,9,.28,18,18,0,0,1,9.76,16c0,6-3.48,12.26-9.31,14.35s-13.28-1-15.42-7c-.44-1.24-2.62.11-2.25,1.2,2.14,6.24,9.15,9.68,15.48,8.56,7-1.25,12.45-7.56,13.79-14.38a20,20,0,0,0-7.9-19.9,13.8,13.8,0,0,0-10.74-2.46,15.72,15.72,0,0,0-8.72,5.55,18.45,18.45,0,0,0-4.11,11.89,27.44,27.44,0,0,0,1,7,15.74,15.74,0,0,0,3.07,6.5c.31.36,1-.12,1-.54Z"/><path class="cls-5" d="M229.37,96.19a20.61,20.61,0,0,0-1.86-18.81,8.15,8.15,0,0,0-7-4.06c-3.08.09-5.89,2-7.93,4.19-4.29,4.56-6,11.59-5.13,17.68.4,2.83,1.32,5.83,3.57,7.75,2.5,2.15,6.15,2.28,9.22,1.52a14,14,0,0,0,8.1-5.92c1.53-2.35,3.26-6.83,1.35-9.36-.27-.37-.88.09-1,.41-.7,2.57-.59,5.11-2,7.48a9.57,9.57,0,0,1-5.49,4.19c-2.37.72-5.2.9-7.31-.63-1.91-1.39-2.73-3.88-3.15-6.11A19.56,19.56,0,0,1,213.86,80a9.23,9.23,0,0,1,5.22-4c2.59-.57,4.72,1,6.17,3,3.5,4.87,4.14,11.54,3.07,17.29-.15.79.86.39,1.05-.07Z"/><path class="cls-5" d="M158.93,77.28c.41-.77.9-1.49,1.34-2.24l.64-1.1c.29-.44.31-.48.07-.12l.65-.95c.23-.35.44-.71.67-1.06-.46.7.22-.29.32-.43.5-.68,1-1.34,1.55-2s1.11-1.31,1.67-2c.71-.83-.42.29.34-.35l1-.81c.85-.69-.51.19.36-.22.37-.18.72-.39,1.1-.55-.8.35.3-.08.47-.13s1.28-.33,1.08-.29a15.26,15.26,0,0,1,4.06-.09,19.38,19.38,0,0,1,4.62,1.2,34,34,0,0,1,4.73,2.42,4.23,4.23,0,0,0,4,.67,5.52,5.52,0,0,0,3.83-3.82,2.72,2.72,0,0,0-1.05-3.18C183.32,57.8,175,55.55,167,59c-3.93,1.69-6.86,4.8-9.43,8.12A25,25,0,0,0,154,72.81a9.07,9.07,0,0,0-.63,5.53c.22,1.11,1.65,1.35,2.54,1.18a4.57,4.57,0,0,0,3.07-2.24Z"/><path class="cls-5" d="M235,72.42a3.73,3.73,0,0,0,1.33-3.2c-.13-.75-.32-1.5-.48-2.25-.33-1.55-1.69-3.14-2.67-4.36a17.68,17.68,0,0,0-9.07-5.72c-7.66-2-13.87,3.52-18.44,8.9-1.18,1.38-1.94,4,0,5.1s4.56-.33,5.82-1.81c.84-1,1.69-2,2.58-2.88-.45.47-.25.24.1-.08s.48-.42.73-.62.51-.38.75-.58c.42-.36-.72.36.07,0,.27-.14.56-.28.82-.44.51-.31-.9.25.14,0,.09,0,1-.28.57-.18s.72-.07.71-.06a7.72,7.72,0,0,1,3.23.69c2.59,1.18,4.61,3.21,6.81,5,.49.39.94.81,1.42,1.19s1.18.6,1.7,1c.7.56,1,1,2,1a2.4,2.4,0,0,0,1.9-.58Z"/><ellipse class="cls-12" cx="178.91" cy="94.76" rx="9.72" ry="12.72"/><ellipse class="cls-12" cx="217.75" cy="91.61" rx="7.45" ry="9.74"/><ellipse class="cls-13" cx="178.91" cy="94.76" rx="5.84" ry="8.27"/><ellipse class="cls-11" cx="183.47" cy="87.83" rx="4.4" ry="6.23"/><ellipse class="cls-14" cx="217.58" cy="91.85" rx="4.44" ry="6.29"/><path class="cls-5" d="M101.54,197.44c-.77,1.24-.1,2.81.47,4a40,40,0,0,0,2,3.7,31.69,31.69,0,0,0,2.28,3.22c.41.51.84,1,1.28,1.5a3.51,3.51,0,0,0,2,1.27c.85.16,2.26-.73,2.12-1.72a2.4,2.4,0,0,0-.38-1.21,7.1,7.1,0,0,0-.65-.8c-.46-.52-.91-1-1.35-1.58-.88-1.11-1.73-2.25-2.52-3.43a33.16,33.16,0,0,1-2-3.45,4.82,4.82,0,0,0-1.32-1.77,1.24,1.24,0,0,0-1.86.28Z"/><ellipse class="cls-11" cx="221.47" cy="84.3" rx="4.02" ry="5.7"/><g class="cls-4"><path class="cls-2" d="M210.91,131.92c-1.63-2-1.14-5.14.51-7.14s4.14-3.06,6.61-3.82a9,9,0,0,1,5.23-.39,2,2,0,0,1,.88.51,1.87,1.87,0,0,1,.38,1.24c0,2.26-1.88,4-3.61,5.45-2.77,2.29-5.87,4.62-9.46,4.73"/></g><g class="cls-4"><path class="cls-2" d="M249.46,122.3A11.18,11.18,0,0,0,245,118a3,3,0,0,0-2.49-.37,2.51,2.51,0,0,0-1.3,1.82c-.43,1.94.43,3.92,1.36,5.68a6.72,6.72,0,0,0,1.49,2.08,2.49,2.49,0,0,0,2.39.56,3.26,3.26,0,0,0,1.55-1.54,13.35,13.35,0,0,0,1.53-4"/></g><g class="cls-4"><path class="cls-2" d="M217.75,103a13.26,13.26,0,0,0-8.66,6.5,10.21,10.21,0,0,0,.64,10.58,13.11,13.11,0,0,0,2.87,2.69A21.81,21.81,0,0,0,225,126.88a19.46,19.46,0,0,0,12.33-4.24,1.57,1.57,0,0,0,1.29,1.39,4.18,4.18,0,0,0,2-.21,31.74,31.74,0,0,0,8.36-3.75c-.57,4.58-3.08,8.66-5.69,12.46a18.32,18.32,0,0,1-3.74,4.34,12.93,12.93,0,0,1-7.26,2.41,36,36,0,0,1-7.73-.73,39.08,39.08,0,0,1-16.55-6.09,14.76,14.76,0,0,1-2.61-1.8,15,15,0,0,1-2.65-3.73c-1.51-2.66-3.06-5.55-2.75-8.59.34-3.25,2.75-5.91,5.39-7.83s5.64-3.38,8-5.6"/></g><g class="cls-15"><path class="cls-2" d="M240.22,106.51a6,6,0,0,0-7.26-1.29,3,3,0,0,0-1.68,2.16c-.14,1.49,1.34,2.57,2.64,3.31l1.07.61a14.21,14.21,0,0,0,4,1.78,4.78,4.78,0,0,0,4.17-.89,2,2,0,0,0,.73-2c-.35-1-1.69-1.23-2.63-1.77"/></g><path class="cls-16" d="M205.6,155.55c.09,4.34,1.5,8.53,2.9,12.64,2.56,7.54,5.13,15.08,8.09,22.47.2.49.36,1.13-.05,1.47a1.16,1.16,0,0,1-.58.21,23.18,23.18,0,0,1-11.48-1.19,52.31,52.31,0,0,1-10.4-5.25,23,23,0,0,1-3.34-2.38,24.87,24.87,0,0,1-3.32-4c-3.32-4.59-6.66-9.22-9-14.38-2.72-6-4.4-13.94-5.67-20.39,3,4.58,8.57,7.67,13.86,9.1,5.61,1.51,11.61,2.9,17.37,2.17"/><path class="cls-17" d="M209.3,193c-3.79-7.59-7.73-15.38-14-21.06-5.1-4.58-11.45-7.52-17.82-10.06a5.62,5.62,0,0,0,.18,2.54c1.71,7.21,5.22,13.86,9.08,20.18a28,28,0,0,0,3.91,5.32,22.79,22.79,0,0,0,5.2,3.71c3.75,2.08,7.93,3.68,12.2,3.43a3.69,3.69,0,0,0,2.44-.83,1.5,1.5,0,0,0-.07-2.27"/><path class="cls-11" d="M184.47,181c5.5,2.32,12.5,6.23,18.35,7.46s12.07,1.31,17.64-.84c1.89-.73,4.3-1.61,5.7-.15a.94.94,0,0,1,.3.67,1.14,1.14,0,0,1-.37.64,26,26,0,0,1-40.71-4.24"/><path class="cls-5" d="M166,130.69c1,4,2.45,7.91,3.75,11.8s2.61,7.85,3.73,11.82c2,7.16,3.47,14.44,6.39,21.32,2.66,6.26,6.47,12.38,11.92,16.59,5.08,3.92,11.51,6.35,18,5.63a25.46,25.46,0,0,0,10.71-4c3.17-2,6.75-4.43,9-7.47.35-.48,0-1-.57-.7-3,1.64-5.41,4.21-8.26,6.06a24.09,24.09,0,0,1-9.14,3.82c-6.19,1-12.48-1.25-17.48-4.83-11.73-8.43-14.78-22.64-18.39-35.75-1.14-4.14-2.47-8.21-3.86-12.27-1.45-4.24-2.82-8.59-4.54-12.72-.29-.69-1.39.07-1.25.67Z"/><path class="cls-5" d="M176.14,162.63c1.5.65,3.1,1.06,4.63,1.63a46.87,46.87,0,0,1,4.71,2.05,40.08,40.08,0,0,1,8.48,5.75,43.23,43.23,0,0,1,6.81,8.09c1.08,1.58,2.12,3.18,3.18,4.78l1.62,2.46c.54.82,1,2,2,2.35a.89.89,0,0,0,1.15-.77,4.63,4.63,0,0,0-1.18-2.52L205.9,184c-1.13-1.75-2.25-3.5-3.4-5.23a41.16,41.16,0,0,0-7.05-8.4,41.72,41.72,0,0,0-8.53-5.75c-3-1.51-6.47-3.09-9.85-3.32-.51,0-1.78,1-.93,1.35Z"/><path class="cls-5" d="M216.58,151.11a46.51,46.51,0,0,0-.54,17.48,54.17,54.17,0,0,0,2.05,8.79c.47,1.47.95,2.94,1.49,4.39s.92,3.35,2,4.27a1.38,1.38,0,0,0,2.08-1.11c-.14-1.45-1.18-2.8-1.8-4.11a38.72,38.72,0,0,1-1.67-4,55.68,55.68,0,0,1-2.16-8.52,61,61,0,0,1-.14-17.38c.1-.79-1.18-.27-1.3.24Z"/><path class="cls-5" d="M205.06,155.92a97.63,97.63,0,0,0,4.14,17.19c1.8,5.41,3.71,11,6.66,15.9.32.53,1.32-.26,1.15-.76-1.88-5.47-4.32-10.76-6.12-16.29s-3.25-11.06-4.72-16.63c-.17-.66-1.18.07-1.11.59Z"/><path class="cls-11" d="M170.79,143c.89,3,3.06,4,4,7,.23.76.81,4.24,1.35,4.82s-.19.24.63.51c10.76,3.55,22.05,6.83,33.28,5.28,7.42-1,14.6-4.16,22.08-3.83a57.66,57.66,0,0,0,6.42.34,7.6,7.6,0,0,0,5.67-2.57,1.14,1.14,0,0,0,.32-1c-.13-.4-.61-.57-1-.67-7.64-1.87-17.52-4.3-25.18-2.54-5.15,1.18-9.88,4.58-15.13,5.12a41.62,41.62,0,0,1-17.92-2c-5.38-1.66-11.79-6.85-14.79-11.61"/><path class="cls-5" d="M174.22,153.93a25.56,25.56,0,0,0,3.07,2.33c1.15.63,2.32,1.22,3.5,1.78a55.07,55.07,0,0,0,7.15,2.72A46.74,46.74,0,0,0,203.07,163a39.46,39.46,0,0,0,7.49-.94c2.78-.63,5.46-1.61,8.22-2.3a40.41,40.41,0,0,1,8.62-1.19c2.82-.07,5.62.27,8.44.21a14.86,14.86,0,0,0,7.49-2c1.45-.89,4.72-3.4,3.49-5.36-.24-.38-.84-.09-1.09.08a10.5,10.5,0,0,0-1.82,2.06,7.7,7.7,0,0,1-2.35,1.73,15.39,15.39,0,0,1-6.92,1.12c-2.6,0-5.17-.24-7.77-.08a42.46,42.46,0,0,0-7.6,1.18c-2.56.64-5,1.61-7.56,2.33a33,33,0,0,1-7.25,1.22,44.3,44.3,0,0,1-14.3-1.68,69.1,69.1,0,0,1-7.67-2.71c-1.23-.5-2.44-1-3.64-1.61-1.39-.66-2.82-1-4.22-1.62-.25-.11-.69.28-.41.48Z"/><path class="cls-5" d="M182.94,179.88a29.76,29.76,0,0,0,15.37,9.44,36,36,0,0,0,18.43-.08,47.58,47.58,0,0,0,4.77-1.72,8,8,0,0,1,2.43-.65,3.85,3.85,0,0,1,2.06.72c.88.42,1.94-.58,1.8-1.46-.46-3.06-5.41-1.37-7.06-.65a32.21,32.21,0,0,1-9.25,2.51,35.64,35.64,0,0,1-18.63-3,42,42,0,0,1-9.31-5.68c-.26-.22-.85.31-.61.59Z"/><path class="cls-5" d="M165.73,129.62a21.13,21.13,0,0,0,1,6.81,43.59,43.59,0,0,0,1.73,5.33,24.12,24.12,0,0,0,4.82,7.78c4.64,4.8,11.23,6.44,17.59,7.64a32.62,32.62,0,0,0,12.18.18c4.72-.9,8.87-3.42,13.46-4.73,5.09-1.46,10.52-.27,15.7,0,2.7.14,5.4.22,8.1.21a33.6,33.6,0,0,0,7.43-.53c4.58-1.06,8.9-5.5,6.68-10.41-1-2.24-2.78-4-4.11-6-1.51-2.29-2.19-4.91-3-7.48-.47-1.45-2.53.09-2.59,1.08-.27,4.5,2.21,8.19,4.77,11.64,1.06,1.44,2.39,3.23,2.05,5.13s-2.1,2.63-3.71,3a33,33,0,0,1-7,.37q-3.85,0-7.69-.22c-4.85-.29-9.81-1.25-14.64-.3-4.32.86-8.17,3.1-12.35,4.43a25.65,25.65,0,0,1-11.78.74c-5.79-.91-12.29-2.21-16.89-6.09a20.41,20.41,0,0,1-5.36-7.46,41.27,41.27,0,0,1-1.87-5.31c-.65-2.24-1-4.72-2-6.79-.64-1.24-2.37,0-2.44,1Z"/><g class="cls-8"><path class="cls-7" d="M215.73,187.5a167,167,0,0,1-9.61-29.21,3,3,0,0,1,0-2.18,3,3,0,0,1,1.26-1,54.64,54.64,0,0,1,9.52-4,55.79,55.79,0,0,0,1.53,23.9c1.29,4.45,3.16,8.93,2.71,13.54,0-1.32-1.56-2.25-2.85-1.95a4.45,4.45,0,0,0-2.81,2.62"/></g><path class="cls-18" d="M238.52,215.4c-5.41,8.84-1.86,16-11.24,20.46-2.92,1.37-6.29,2.82-7.3,5.88-.59,1.79-.2,3.73.18,5.58A799.75,799.75,0,0,1,237,405.17c35.83-1.58,59.81-10.86,91.38-27.87-20.19-32.64-40.34-65.46-56-100.5-8.88-19.86-16.32-40.45-27.23-59.26-1.06-1.85-3.9-3.7-4.85-1.79"/><path class="cls-18" d="M110,209.89c19.11,13.18,51.4,17.52,73.36,25a14.3,14.3,0,0,1,5.44,2.83c2.09,2,2.78,5.06,3.32,7.92C201.85,297,196.14,351,211.52,401c.61,2,1.21,4.35-.05,6a6.18,6.18,0,0,1-2.76,1.77c-5.67,2.21-11.76,3.09-17.8,3.8-34.29,4.05-77.85,3.06-111.86-2.9-18.56-3.26-37.36-8.22-52.57-19.34,11.78-33.07,33.28-61.73,48-93.61,10.06-21.83,16.85-45,23.28-68.16,2.28-8.25,4.6-16.66,9.34-23.79"/><path class="cls-5" d="M237.37,215.17a29.13,29.13,0,0,0-3.15,7.1c-.62,2-1,4.16-1.71,6.18a9.35,9.35,0,0,1-3.06,4.54c-1.91,1.49-4.33,2.14-6.39,3.39-2.4,1.45-4.53,3.48-5.12,6.32a12.71,12.71,0,0,0,.11,4.56c.27,1.85.47,3.71.78,5.56,1.16,6.94,2.5,13.85,3.69,20.79a844.62,844.62,0,0,1,9.9,84.51c1.1,15.92,1.82,31.91,1.91,47.87a1.73,1.73,0,0,0,2,1.69,185.12,185.12,0,0,0,38.41-5.48,198.39,198.39,0,0,0,34.17-12.6c6.83-3.19,13.54-6.65,20.15-10.28,1.3-.71,2.58-2.39,1.65-3.86-3.72-5.86-7.58-11.62-11.11-17.6s-6.84-11.75-10.17-17.68q-10.1-18-19.32-36.42C284.25,292,278.3,280.23,273.54,268c-4.05-10.39-7.22-21.12-11.88-31.27a73.53,73.53,0,0,0-9.22-15.5,50.76,50.76,0,0,0-5.89-6.11,8.74,8.74,0,0,0-3.59-2.29,4.55,4.55,0,0,0-4.71,2.49,1.66,1.66,0,0,0,.86,2.61,3.41,3.41,0,0,0,3.3-1.79c-1.94,3.24-2.53.48-1.61,1.27.15.13.37.23.54.35a15.12,15.12,0,0,1,1.23,1c1,.86,1.91,1.74,2.8,2.67a49.8,49.8,0,0,1,4.77,5.78,76.71,76.71,0,0,1,7.42,13.39c4.37,9.86,7.46,20.22,11.4,30.25,4.62,11.78,10.33,23.22,16,34.52q9,17.8,18.77,35.15,5.4,9.6,11,19.07c3.84,6.47,7.47,13.07,11.35,19.51l1.64-3.86c-11.08,5.85-22.29,11.55-34,16a169.14,169.14,0,0,1-34,9.18,197.72,197.72,0,0,1-22,2.18l2,1.69a781.45,781.45,0,0,0-5-84.46q-2.46-20.91-6-41.69-1.76-10.35-3.8-20.66c-.68-3.41-1.5-6.77-2.44-10.12-.7-2.5-1.69-5.53.56-7.52s5.05-2.63,7.36-4.25a13.33,13.33,0,0,0,4.57-5.54,35.41,35.41,0,0,0,1.85-6.57,27.74,27.74,0,0,1,2.88-7.93.91.91,0,0,0-.48-1.43,1.86,1.86,0,0,0-1.81,1Z"/><path class="cls-5" d="M109.14,211c10.14,7.07,21.93,11.29,33.74,14.65,12.21,3.47,24.65,6.12,36.75,10,2.92.93,6.5,1.69,8.48,4.2s2.43,6.5,3,9.72c1.37,7.75,2.39,15.56,3.21,23.39,1.63,15.57,2.43,31.2,3.4,46.81s2.11,31.21,4.36,46.69c1.13,7.7,2.53,15.37,4.35,22.95q1.37,5.76,3.07,11.43c.43,1.44,1.21,3.19.94,4.73s-2.08,1.63-3.24,2c-7.09,2.14-14.62,2.84-22,3.53-7,.66-14,1.1-21,1.36-14.68.55-29.4.34-44.07-.57a355.85,355.85,0,0,1-42.06-5c-14.09-2.61-28.2-6.25-40.83-13.2A82.37,82.37,0,0,1,28.43,388l.69,2.12c8.65-24.25,22.55-46.09,35-68.48a328.35,328.35,0,0,0,17.39-35.56,412.12,412.12,0,0,0,13.37-39c2.17-7.36,4.18-14.76,6.26-22.13,2-6.88,4.1-13.76,8-19.78a1.7,1.7,0,0,0-.88-2.67c-1.39-.28-2.66.77-3.37,1.84a68.64,68.64,0,0,0-7.85,18c-2,6.52-3.69,13.12-5.58,19.66-3.83,13.22-8,26.36-12.94,39.2a301.92,301.92,0,0,1-16.89,35.68c-6.28,11.46-13,22.67-19.31,34.1-7.06,12.75-13.6,25.82-18.53,39.55a1.79,1.79,0,0,0,.7,2.12c12,8.76,26.34,13.73,40.72,17A304.23,304.23,0,0,0,108,415.88a439.27,439.27,0,0,0,45.61,1.38q11-.22,22-1c7.24-.55,14.53-1.19,21.69-2.42a50.33,50.33,0,0,0,12-3.48,8.12,8.12,0,0,0,4.07-3.32,7,7,0,0,0,.52-4.54,45,45,0,0,0-1.46-5.28q-.84-2.9-1.6-5.81-1.51-5.83-2.71-11.73c-3.19-15.64-4.83-31.55-6-47.46-1.2-16.07-1.92-32.17-3.25-48.22-.66-8-1.46-15.94-2.55-23.87-.54-4-1.14-7.91-1.83-11.84-.59-3.33-1-6.95-2.7-9.92s-5.13-4.28-8.34-5.35c-2.87-.95-5.77-1.82-8.68-2.64-6.26-1.76-12.57-3.32-18.86-5-12.65-3.27-25.39-6.7-37.26-12.25a55.25,55.25,0,0,1-7.59-4.33c-1-.7-3,1.31-1.81,2.15Z"/><path class="cls-2" d="M267,284.91a146.08,146.08,0,0,0,11.09-14.06c1.48-2.14,2.95-4.42,3.29-7a1.93,1.93,0,0,0-.31-1.62c-.73-.78-2-.17-2.86.47l-15.79,11.84a7.65,7.65,0,0,1-3.21,1.68,2.63,2.63,0,0,1-3-1.53,3.81,3.81,0,0,1,.3-2.36l7.12-20.23c1-2.95,2.09-6.19,1.06-9.15a1.25,1.25,0,0,0-.4-.66c-.43-.3-1,0-1.47.22-9.22,5.67-11,18.84-19.5,25.55a2.31,2.31,0,0,1-1.37.63c-1.38,0-1.66-1.95-1.48-3.32l2.62-19.7c.63-4.81,1.26-9.81-.21-14.44a5.61,5.61,0,0,0-1.37-2.45,2.42,2.42,0,0,0-2.61-.56,3.78,3.78,0,0,0-1.56,2.05l-14.63,33.4c-3.21-.88-5.55-3.68-7.1-6.63s-2.55-6.18-4.28-9-4.47-5.38-7.79-5.66a2.17,2.17,0,0,0-1.26.18,2.45,2.45,0,0,0-.88,1.14,25.62,25.62,0,0,0-2,16.41,23.08,23.08,0,0,0,9,13.79,36.33,36.33,0,0,0,8.73,4.23c15.37,5.54,31.82,7.3,48.12,8.37"/><path class="cls-3" d="M265.92,299.41s-2.11,11.13-27.53,49.39-53.52,52.29-82.45,51.92c-.43,0-.87,0-1.3,0s-.88,0-1.31-.06c-28.17-1.52-57.43-21.35-57.43-21.35s-1.18-1.23-3-3.34l-.47-.56c-4.18-5-11.06-14.35-14-24.1A30.67,30.67,0,0,1,77,342.36c.07-38.62,10.28-45.48,10.28-45.48,3.35-7.33-1.33-6,7.79-19.46.38-.56,8.74-13.29,9.13-13.78,4.4-5.56,6.38-10.75,13.76-19.77a18,18,0,0,1,26.42-1.64,19.1,19.1,0,0,1,1.88,2.11l7.07,9.25s-9.39,34.81-.93,37.61c12.88,4.29,24.21-12,39.79-23.4a47.37,47.37,0,0,1,18.72-7.67c15.4-3,33.83-.34,46.29,10.46C275.48,286.46,265.92,299.41,265.92,299.41Z"/><g class="cls-4"><path class="cls-3" d="M92.47,375.38l.48.34c.06.18,0,.24,0,.22s-.53-.55-.62-.66A.53.53,0,0,1,92.47,375.38Z"/></g><g class="cls-4"><path class="cls-3" d="M265.92,299.41s-2.11,11.13-27.53,49.39-53.52,52.29-82.45,51.92c-.43,0-.87,0-1.3,0s-.88,0-1.31-.06C127.29,399,97.66,379,93,375.72c-.35-1-3.09-6-14.5-24.44A30.67,30.67,0,0,1,77,342.36c.07-38.62,10.28-45.48,10.28-45.48,3.35-7.33-1.33-6,7.79-19.46.38-.56,8.74-13.29,9.13-13.78,4.4-5.56,6.38-10.75,13.76-19.77a18,18,0,0,1,26.42-1.64c-5.86,0-11.18,1.6-14.82,6.2-11.46,14.48-16.36,21.68-21.2,40.08C103,309.05,93.32,331,106.56,347.64s31.63,30.91,52.84,32.15c24.72,1.45,47.4-15.37,61.15-36a85,85,0,0,0,12.1-26c3.57-14.07,1.49-30.93-9.86-40-8.73-6.94-20.68-7.71-31.82-8.2a79.48,79.48,0,0,1,19.95-9.5c15.4-3,33.83-.34,46.29,10.46C275.48,286.46,265.92,299.41,265.92,299.41Z"/></g><path class="cls-5" d="M143.36,241.09a16.71,16.71,0,0,0-9.42-4.58,18,18,0,0,0-10.18,2.43c-8.14,4.42-14.15,12.36-19.16,19.93A179.74,179.74,0,0,0,89,289a240.31,240.31,0,0,0-10.22,29.31c-3.94,14.48-6.67,30.76.2,44.8,7.21,14.74,21.48,23.92,36.49,29.38,16.53,6,34.17,9,51.76,7.7a97.47,97.47,0,0,0,25.68-5.11A65.11,65.11,0,0,0,212,383.88c11.56-9.51,20.64-21.62,29.05-33.9a272.75,272.75,0,0,0,25.34-45.26c1.73-4,3.29-8.05,4.79-12.12a1.77,1.77,0,0,0-1.64-2.41,3.94,3.94,0,0,0-3.53,2.12,329,329,0,0,1-22.93,45.11c-4,6.54-8,12.42-12.35,18.4a166.75,166.75,0,0,1-13.46,16.43,85.5,85.5,0,0,1-7.46,7.09q-2,1.67-4,3.2c-.7.52-1.42,1-2.14,1.53l-.47.32h0l-1.26.8c-6.42,4-12.89,6.09-20.39,7.72-16.44,3.56-33.87,2.83-50.21-1-15.2-3.55-31-9.94-41.49-21.95a41.6,41.6,0,0,1-9.88-20c-1.51-8.36-.34-17,1.42-25.27a198.93,198.93,0,0,1,8.11-27,231.62,231.62,0,0,1,13.4-29.87c4.42-8.19,9.59-16.64,16.54-22.86,4.91-4.4,11.3-7.69,18-5.28a19.24,19.24,0,0,1,4.71,2.57c.54.4,1.76-.7,1.21-1.19Z"/><path class="cls-5" d="M150.87,261.33c-1.94,7.56-3.26,15.89-2,23.65.46,2.93,1.51,6.6,4.56,7.8,2.25.88,5.05.24,7.27-.4a29.42,29.42,0,0,0,8.62-4.36c5.27-3.7,9.61-8.56,14.68-12.52a65.05,65.05,0,0,1,17.51-9.82,62.19,62.19,0,0,1,19.51-4,52.18,52.18,0,0,1,18.86,2.95,47.23,47.23,0,0,1,17.64,10.93,34.57,34.57,0,0,1,6.6,8.74,29.22,29.22,0,0,1,2,5.19c.26.9.47,1.82.66,2.75a6.94,6.94,0,0,0,1.23,2.44c.89,1.36,3.15-.37,3.42-1.44a8.49,8.49,0,0,0,.43-2.68,18,18,0,0,0-.5-2.53,32.68,32.68,0,0,0-1.65-4.92,34.71,34.71,0,0,0-5.39-8.61,48.6,48.6,0,0,0-14.89-11.71,57.58,57.58,0,0,0-38.76-4.54c-13.52,3-25.25,10.72-35.21,20.11-4.42,4.17-9.1,9-15.07,10.78a12.45,12.45,0,0,1-3.92.66,3,3,0,0,1-1.35-.4,6.11,6.11,0,0,1-2.27-3.15c-1.56-4.16-1.47-8.93-1.46-13.31a83.46,83.46,0,0,1,.82-11.82c.12-.78-1.19-.26-1.32.25Z"/><path class="cls-5" d="M267.62,285.49a43,43,0,0,1,3.78-4.22c1.28-1.46,2.51-3,3.66-4.55a70,70,0,0,0,5.92-9.55,26.25,26.25,0,0,0,2.28-5c.51-1.9-1.32-2.22-2.76-2-3.64.6-6.58,2.89-9.42,5.09-3.74,2.88-7.42,5.81-11,8.93-.53.46-1.11,1.35-.59,2s1.61.3,2.1-.15c3.35-3.1,6.8-6.12,10.4-8.93a30.12,30.12,0,0,1,5.11-3.41,10.74,10.74,0,0,1,1.45-.59,12,12,0,0,0,1.54-.33c.43.09.53-.06.3-.44-.08.23-.18.45-.27.68-.19.45-.39.89-.59,1.33a64.78,64.78,0,0,1-6.16,10.88c-1.2,1.71-2.49,3.35-3.84,4.93a24.45,24.45,0,0,0-3.66,4.93c-.67,1.36,1.16,1.18,1.72.33Z"/><path class="cls-5" d="M256.55,269.65a54,54,0,0,0,6.34-11.45c1.66-3.91,3.54-8,4.41-12.2.36-1.73.77-4.35-.25-5.94-1.14-1.77-3.51-.51-4.79.36-3.31,2.26-5.5,6-7.75,9.22-2.89,4.16-5.66,8.41-8.27,12.75a1.15,1.15,0,0,0,.6,1.81,2.35,2.35,0,0,0,2.29-1.24q3.68-6.12,7.74-12c1.29-1.85,2.57-3.72,4-5.47a15.36,15.36,0,0,1,2-2.1c.33-.27.69-.47,1-.72.51-.24.47-.25-.11,0a5.71,5.71,0,0,1,.16.92c.22,2.26-.59,4.5-1.31,6.6s-1.59,4.39-2.47,6.56c-1.71,4.2-3.75,8.32-5.18,12.61-.35,1.05,1.14.86,1.55.31Z"/><path class="cls-5" d="M200.24,262.36c1.15-2,.84-4.35.83-6.6,0-2,0-4,.15-6.06a18.62,18.62,0,0,1,.79-4.85c.24-.76.67-1.4.94-2.13-.09.08,0,0,.18-.23-1.11.39-1.33.6-.64.62.29.11.64.11.94.22,2.95,1.08,5.26,3.79,6.67,6.5,1.87,3.57,2.82,7.55,4.38,11.25.88,2.1,4.64-.24,3.87-2.06-2.67-6.23-4-13.47-9.67-17.86a14.33,14.33,0,0,0-3.81-2c-2.21-.85-4.19.09-5.59,1.9-2.22,2.88-2.76,6.35-2.8,9.91,0,2.11.07,4.22.2,6.33a25.78,25.78,0,0,0,.3,3.29,3.59,3.59,0,0,0,1.39,2.57c.62.47,1.59-.3,1.87-.79Z"/><path class="cls-5" d="M226.75,258.66c3.74-7.89,6.34-16.28,9.83-24.28.42-.95.84-1.9,1.27-2.85l.69-1.52c.08-.16.19-.35.25-.51.27-.91-.51.46-.55.29,0,.14.77.49.94.64a5.44,5.44,0,0,1,.67.77,7,7,0,0,1,1.06,2.32,15.54,15.54,0,0,1,.08,5.81c-.25,2.19-.56,4.38-.84,6.57l-2,15.17c-.12,1,1.06,1.24,1.78,1a2.56,2.56,0,0,0,1.82-2.12l2-15.4c.57-4.48,1.83-9.53.37-14a7.12,7.12,0,0,0-3.49-4.32c-2.27-1-4.41.68-5.4,2.65-2.22,4.45-4,9.2-5.79,13.84-2,5.23-3.9,10.44-4.71,16-.18,1.23,1.74.47,2-.14Z"/><path class="cls-18" d="M164.28,273c-.84-15.17-3.09-30.67-10.51-43.93s-20.91-23.94-36.09-24.45c-4.38-.14-9,.62-12.53,3.14s-5.75,6.42-7.51,10.37C94.1,226,92,234.53,89.87,243l-9.49,38.08a3.84,3.84,0,0,0-.15,1.68,3.44,3.44,0,0,0,1.37,1.79c3.38,2.65,7.61,4,11.77,5a149.72,149.72,0,0,0,66.39,1.71,3,3,0,0,0,3-3.09,139.94,139.94,0,0,0,1.36-27"/><path class="cls-5" d="M164.9,272.78c1-10-.48-20.44-3.23-30a62.22,62.22,0,0,0-12.92-24.46,46.68,46.68,0,0,0-21.32-14c-8.64-2.54-19.08-2.29-25.73,4.51-3.37,3.45-5.37,8-7.13,12.42a131,131,0,0,0-4.81,15.09C86.9,247.15,84.29,258,81.57,268.9l-2.06,8.19c-.32,1.29-.65,2.57-1,3.86a4.69,4.69,0,0,0,.18,3.71c1.14,1.9,3.73,3.16,5.67,4.06a43.58,43.58,0,0,0,6.92,2.4A148.29,148.29,0,0,0,123.07,296a146.21,146.21,0,0,0,32-2c2.37-.41,5.47-.53,7.47-2,2.26-1.66,2.31-4.3,2.56-6.86a138.12,138.12,0,0,0,.66-16.52,55.29,55.29,0,0,0-.9-7.8c-.13-.81-1.39.07-1.42.59-.18,2.7-.48,5.38-.59,8.09s-.29,5.29-.54,7.93-.58,5.28-1,7.91c-.18,1.17-.33,2.37-.6,3.53-.05.19-.11.37-.15.56,0,0,.22-.29.31-.3-.58.07-1.17.29-1.74.4a151.87,151.87,0,0,1-59.42-.61c-4.58-1-9.41-1.94-13.6-4.11a19,19,0,0,1-2.73-1.68,3.44,3.44,0,0,1-1.1-1.08,2.61,2.61,0,0,1,.15-1.6q1-3.85,1.91-7.71,3.81-15.39,7.63-30.79c2.27-9.17,4.46-18.87,9.12-27.18,2.11-3.77,5-6.61,9.23-7.76a26.75,26.75,0,0,1,12.36,0,41.59,41.59,0,0,1,20.26,11.32A58.26,58.26,0,0,1,156.4,240c3.19,8.6,4.62,17.69,6,26.72.35,2.23.7,4.42,1.22,6.63.16.71,1.19-.08,1.23-.52Z"/></g></g></g></svg>