<svg xmlns="http://www.w3.org/2000/svg" viewBox="0 0 527.54 372.93"><defs><style>.cls-1{fill:#36293d;}.cls-2{fill:#d1c3af;}.cls-3{fill:#4b3550;}.cls-4{fill:#4f4055;}.cls-5{fill:#57485a;}.cls-6{fill:#3d2c42;}.cls-7{fill:#625764;}.cls-8{fill:#e7dfd3;}.cls-9{fill:#221d26;}.cls-10{fill:#fff;}.cls-11{fill:#1e1a21;}.cls-12{fill:#4a3d53;}.cls-13{fill:#0e0c0f;}.cls-14{fill:none;stroke:#1e1a21;stroke-linecap:round;stroke-linejoin:round;stroke-width:3px;}</style></defs><title>Recurso 6</title><g id="Capa_2" data-name="Capa 2"><g id="Capa_1-2" data-name="Capa 1"><path class="cls-1" d="M375.93,202.78s-2.31,54.62-5.06,80.52,6.44,38.14,15.49,42.85,22.25,4.9,24.93,20.25c1.24,7.06-43.61,12.24-63.54,0s-49.89-82.25-53.21-104.93S337.7,171.7,375.93,202.78Z"/><path class="cls-2" d="M410.56,340.12c2.8.23,7.73,1.16,11.27,4.83a1.08,1.08,0,0,1-.73,1.81c-4.56.31-15,.55-14.06-4.12A3.27,3.27,0,0,1,410.56,340.12Z"/><path class="cls-2" d="M405.58,346c2.65.93,7.18,3.11,9.65,7.56a1.08,1.08,0,0,1-1.17,1.56c-4.49-.87-14.62-3.32-12.53-7.59A3.27,3.27,0,0,1,405.58,346Z"/><path class="cls-2" d="M397.54,349.26c2.27,1.66,6,5.05,7.06,10a1.08,1.08,0,0,1-1.58,1.15c-4-2.12-13-7.39-9.8-10.88A3.28,3.28,0,0,1,397.54,349.26Z"/><path class="cls-1" d="M190.36,238.56S171.68,297,177.8,311.61s19.64,7.95,23.39,23c1.62,6.55-30.61,15.54-55.1,2.36s-36.26-106.89-36.26-106.89S153.63,207,190.36,238.56Z"/><path class="cls-2" d="M199.64,329.51c2.81.22,7.74,1.16,11.27,4.83a1.07,1.07,0,0,1-.73,1.8c-4.55.32-15,.55-14.06-4.11A3.28,3.28,0,0,1,199.64,329.51Z"/><path class="cls-2" d="M194.66,335.42c2.66.94,7.18,3.11,9.65,7.57a1.07,1.07,0,0,1-1.17,1.55c-4.48-.86-14.61-3.32-12.52-7.59A3.27,3.27,0,0,1,194.66,335.42Z"/><path class="cls-2" d="M186.62,338.64c2.27,1.67,6,5.05,7.06,10a1.07,1.07,0,0,1-1.57,1.15c-4-2.12-13-7.39-9.8-10.88A3.27,3.27,0,0,1,186.62,338.64Z"/><path class="cls-3" d="M13.69,337.59a32.05,32.05,0,0,0,18.82,20c15.49,6.29,48.88,13.73,67.85,5.94a24.82,24.82,0,0,0,7.43-4.56c5.74-5.22,3.19-15.35-27.17-26.49C54.54,322.93,122,230.13,122,230.13s86.47,40.22,179.83,0S336.21,42.91,336.21,42.91s-52.8,19.78-106.37,5c-30.9-8.56-69.45-16.41-105.06-12.16-26.1,3.11-50.62,12.74-69.4,33.35C12.66,116-19.42,230.22,13.69,337.59Z"/><path class="cls-3" d="M215.09,248c-4.25,68.74,27.16,108.33,45.54,114.15,15.23,4.82,41.54,6.61,51.5.25,3.9-2.5,5.3-6.24,2.54-11.55-6-11.54-22.49-12.48-27.19-24.73-13-33.87,18.36-96,18.36-96,20.25-28.72,58.86-166.22,31.78-187.18A85.34,85.34,0,0,0,310.4,29c-24.62-7.51-53.41-4.43-74.49,16.77-19.17,19.28-27.55,44-30.14,68.49-5.34,50.54,13.92,100.32,13.92,100.32a231.83,231.83,0,0,0-4.6,33.46Z"/><path class="cls-4" d="M264.87,255.52c-17.54,32.76,6.93,79,11.3,78,2.56-.55-3.46-16.85.29-48.2,3.46-28.95,12.28-46,8.19-48.21C281.27,235.31,270.78,244.49,264.87,255.52Z"/><path class="cls-5" d="M293.22,215.34c4.14,15.9,7.92,26.13,7.92,26.13,40.26-.1,88-19.12,114.89-53.06a246.31,246.31,0,0,1,44.48-43.6,143.48,143.48,0,0,1,12-8.25s-9.89-97.18-29.67-105.65-61.36-4-105.24,12C265.08,69.31,280.8,167.73,293.22,215.34Z"/><path class="cls-4" d="M293.22,215.34c4.14,15.9,7.92,26.13,7.92,26.13,40.26-.1,88-19.12,114.89-53.06a246.31,246.31,0,0,1,44.48-43.6c-1.41-3.2-8,1-8,1S413.67,169,388.24,192.48C368,211.2,314.22,214.7,293.22,215.34Z"/><path class="cls-6" d="M260.63,362.17c15.23,4.82,41.54,6.61,51.5.25-28.44-1-85.21-15.64-97-114.43v0h0C210.84,316.76,242.25,356.35,260.63,362.17Z"/><path class="cls-6" d="M235.21,217.48s-70.64,27.44-122.2-32.6c0,0-9.67,16.33,8.94,45.25S215.09,248,215.09,248A47.1,47.1,0,0,0,235.21,217.48Z"/><path class="cls-6" d="M205.77,114.23c13.57-52.81,81-78,104.63-85.26-24.62-7.51-53.41-4.43-74.49,16.77C216.74,65,208.36,89.71,205.77,114.23Z"/><path class="cls-6" d="M13.69,337.59a32.05,32.05,0,0,0,18.82,20c15.49,6.29,48.88,13.73,67.85,5.94C38.52,349.25,18.6,337.14,21.9,210.31c2.63-101,68.74-153.94,102.88-174.61-26.1,3.11-50.62,12.74-69.4,33.35C12.66,116-19.42,230.22,13.69,337.59Z"/><path class="cls-2" d="M105.53,348.29c3,.67,8.14,2.4,11.38,6.81a1.15,1.15,0,0,1-1.07,1.79c-5-.35-16.19-1.69-14.48-6.47A3.58,3.58,0,0,1,105.53,348.29Z"/><path class="cls-2" d="M99.55,355.6c2.87,1,7.74,3.43,10.35,8.21a1.15,1.15,0,0,1-1.3,1.64c-4.86-1-15.82-3.76-13.47-8.28A3.59,3.59,0,0,1,99.55,355.6Z"/><path class="cls-2" d="M89.15,359.72c2.36,1.89,6.17,5.69,7,11a1.17,1.17,0,0,1-1.78,1.14c-4.26-2.47-13.7-8.55-10-12.09A3.63,3.63,0,0,1,89.15,359.72Z"/><path class="cls-2" d="M314.48,349.17c3,.66,8.14,2.4,11.38,6.8a1.15,1.15,0,0,1-1.07,1.8c-5-.36-16.19-1.69-14.48-6.48A3.57,3.57,0,0,1,314.48,349.17Z"/><path class="cls-2" d="M308.5,356.48c2.87,1,7.75,3.42,10.35,8.21a1.16,1.16,0,0,1-1.3,1.64c-4.85-1-15.82-3.76-13.47-8.28A3.59,3.59,0,0,1,308.5,356.48Z"/><path class="cls-2" d="M298.1,360.59c2.36,1.89,6.17,5.69,7,11a1.18,1.18,0,0,1-1.78,1.14c-4.26-2.47-13.7-8.56-10-12.09A3.63,3.63,0,0,1,298.1,360.59Z"/><path class="cls-4" d="M268.64,71.87c-16.59,34.45-1.67,77.1,2.82,76.76,4.32-.33-6.94-39.79,17-73.93C300.06,58.05,316,48.53,313.37,44.09c-2-3.47-13.65-1.06-21.76,2.87C277.58,53.78,271.17,66.63,268.64,71.87Z"/><path class="cls-4" d="M114.66,54c.07,5.67,30.35,10.34,53.68,10.36,18.31,0,44.41-2.83,44.74-8,.3-4.84-22-11.17-41.44-12.71C143.94,41.43,114.59,48.38,114.66,54Z"/><path class="cls-4" d="M70.79,244.31c-24.48,28-11.06,78.53-6.59,78.59,2.61,0,.43-17.2,11.15-46.9,9.9-27.42,22.34-42,18.85-45.12C91.32,228.32,79,234.9,70.79,244.31Z"/><path class="cls-7" d="M296,116.13c5.21,4.42,29.68-29.75,85.23-64,6.15-3.8,15.07-9.07,14.13-11.78-1.49-4.25-27.33-2-47.56,7.54C309.12,66.14,290.45,111.47,296,116.13Z"/><path class="cls-3" d="M356,97.84c-.4,58.83,120.5,64,155,33.47a47,47,0,0,0,13.23-19.44c11.56-31.91-9.75-75.05-28.86-92a40.11,40.11,0,0,0-5.62-4.13c-5.31-3.84-5.06-2.56-7.66-3.91C453.44-.13,407.27,5,395,15.64a118.27,118.27,0,0,0-21.61,24.65A105,105,0,0,0,356,97.84Z"/><path class="cls-8" d="M442.24,144.56c-8.4.22-17.08-.08-24.72-3.57s-14-10.88-14-19.29c0-4.69,2-9.39,1-14-1.08-4.9-5.26-8.4-8.12-12.53-4.43-6.38-5.73-14.49-5.42-22.25.35-8.62,2.66-17.38,7.95-24.19s13.83-11.41,22.42-10.6a28.33,28.33,0,0,1,11.91,4.26c2.2,1.35,4.34,2.93,6.84,3.59h6.73c2.5-.66,4.63-2.24,6.84-3.59a28.28,28.28,0,0,1,11.91-4.26c8.58-.81,17.13,3.78,22.42,10.6s7.6,15.57,7.94,24.19c.32,7.76-1,15.87-5.42,22.25-2.86,4.13-7,7.63-8.12,12.53-1,4.59.95,9.29,1,14,0,8.41-6.37,15.8-14,19.29s-16.33,3.79-24.73,3.57"/><path class="cls-3" d="M493.64,34.23c5.45,6.6,15.12,10.7,15.12,10.7S537.85,30,523.62,9.51C517.84,1.19,511.54-.07,506,2.2c-8.15,3.33-14.74,14.22-15.85,21.6C489.54,27.7,491.15,31.22,493.64,34.23Z"/><path class="cls-3" d="M357.37,24.31C359.77,34.82,371.44,41.5,376.6,44c1.51.73,2.47,1.09,2.47,1.09A53.64,53.64,0,0,0,387,39.5c5.28-4.47,10.94-11.16,9.08-18.31-3.28-12.65-23.72-33.9-36.21-11.13A25.82,25.82,0,0,0,358.45,13,18.56,18.56,0,0,0,357.37,24.31Z"/><path class="cls-9" d="M476.79,60.57c4.21,5.66,8,12.37,7.34,20.59S481.27,99.42,468,89.85s-12.91-17.45-11.93-23S468.25,49.06,476.79,60.57Z"/><path class="cls-10" d="M475,64.33c4.18,3.76,4.61,15.22-1,18.79s-13.77-.17-14.53-8.8C458.71,65.41,466.73,56.86,475,64.33Z"/><path class="cls-9" d="M408.66,60.57c-4.21,5.66-8,12.37-7.34,20.59s2.86,18.26,16.11,8.69,12.91-17.45,11.93-23S417.2,49.06,408.66,60.57Z"/><path class="cls-10" d="M409.91,64.59c-4.18,3.76-4.6,15.21,1,18.78s13.76-.16,14.52-8.79C426.22,65.66,418.21,57.11,409.91,64.59Z"/><path class="cls-9" d="M413.32,69.43c-2.32,2.09-2.55,8.43.55,10.41s7.62-.09,8.05-4.87C422.35,70,417.91,65.29,413.32,69.43Z"/><path class="cls-10" d="M416.45,65c-2.08,1.87-2.29,7.56.49,9.33s6.84-.08,7.21-4.37S420.56,61.29,416.45,65Z"/><path class="cls-9" d="M463.88,69.43c-2.32,2.09-2.55,8.43.55,10.41s7.63-.09,8.05-4.87C472.92,70,468.48,65.29,463.88,69.43Z"/><path class="cls-10" d="M467.78,64.75c-2.07,1.87-2.29,7.55.5,9.32s6.83-.08,7.21-4.36S471.9,61,467.78,64.75Z"/><path class="cls-2" d="M413.06,140.77c.18.31.37.62.56.93a24,24,0,0,0,5.65,6.24c12.17,9.35,32.73,7,44,.24h0c.51-.32,1-.64,1.5-1a17.14,17.14,0,0,0,5.34-5.51c13.84-25-8.23-62.72-14.08-69.9-5.26-6.46-13.93-7.67-20.61-5.46a14.94,14.94,0,0,0-7.74,5.46C422.59,79.31,398.05,114.74,413.06,140.77Z"/><path class="cls-9" d="M509.66,35.82S528,24.25,515.93,13.76s-18.15,9.38-18.15,9.38S506.76,29.19,509.66,35.82Z"/><path class="cls-9" d="M375.9,35.73s-19.11-12-6.52-22.95,18.88,9.76,18.88,9.76S378.91,28.84,375.9,35.73Z"/><path class="cls-11" d="M430.81,117.92c1.06,2,3.94,2.33,3.94,2.33,6.82,9,13.8.45,13.8.45a7.22,7.22,0,0,0,3-2.21h0c1.51-2,1.71-5.11-2.06-9.5-3.35-3.89-11.91-4-15.4,0C430.28,113.57,430,116.29,430.81,117.92Z"/><path class="cls-12" d="M450.3,114c-.72,1.12-4.13,0-4.87-.21-2.85-.91-6.38-3.17-6-4.68.32-1.26,3.32-1.94,5.67-1.32C448.66,108.69,451.1,112.72,450.3,114Z"/><path class="cls-13" d="M430.81,117.92c1.06,2,3.94,2.33,3.94,2.33,6.82,9,13.8.45,13.8.45a7.22,7.22,0,0,0,3-2.21c-.26.14-2.42,1.21-4.84-1.47,0,0-.55,6.8-5.69,6.25s-4.93-6.57-4.93-6.57S435.08,119.51,430.81,117.92Z"/><path class="cls-6" d="M357.37,24.31C359.77,34.82,371.44,41.5,376.6,44h0s-16.15-13.64-18.15-31A18.56,18.56,0,0,0,357.37,24.31Z"/><path class="cls-4" d="M386.79,11c-.48.54-3-2.22-8.48-3.95-6.9-2.18-11.82-.62-12-1.51S372.14.92,378,2.47,387.43,10.29,386.79,11Z"/><path class="cls-14" d="M467.44,128.65s-15.9,10.8-25.5-.6c0,0-11.4,12.6-25.2,0"/></g></g></svg>