<svg xmlns="http://www.w3.org/2000/svg" viewBox="0 0 570.23 515.33"><defs><style>.cls-1{fill:#4a344f;}.cls-2{fill:#4f4055;}.cls-3{fill:#3d2c42;}.cls-4{fill:#34283b;}.cls-5{fill:#57485a;}.cls-6{fill:#d1c3af;}.cls-7{fill:#625764;}.cls-8{fill:#4b3550;}.cls-9{fill:#e7dfd3;}.cls-10{fill:#221d26;}.cls-11{fill:#fff;}.cls-12{fill:#1e1a21;}.cls-13{fill:#4a3d53;}.cls-14{fill:#0e0c0f;}.cls-15{fill:none;stroke:#1e1a21;stroke-linecap:round;stroke-linejoin:round;stroke-width:3px;}</style></defs><title>Recurso 5</title><g id="Capa_2" data-name="Capa 2"><g id="Capa_1-2" data-name="Capa 1"><path class="cls-1" d="M504,449.23c-47,18.32-113.47,4.44-136.26-10-6.31-4-10.71-14.41-13.78-27.37-5.17-21.88-6.51-54.41-6.83-74.59-.16-10.94,0-18.25,0-18.25s30.3,25.56,49.14,34.7c16.26,7.9,57.57,20.69,73.71,30,16.38,9.45,53.71-4.81,62.93-3.32,2.67.43,5,2.58,6.64,5.92,0,.09.09.18.12.27C546.32,400.62,541.61,434.55,504,449.23Z"/><path class="cls-2" d="M539.6,386.58c-100.15,39.66-165.79-17.83-192.52-49.3-.16-10.94,0-18.25,0-18.25s30.3,25.56,49.14,34.7c16.26,7.9,57.57,20.69,73.71,30,16.38,9.45,53.71-4.81,62.93-3.32,2.67.43,5,2.58,6.64,5.92C539.52,386.4,539.57,386.49,539.6,386.58Z"/><path class="cls-3" d="M504,449.23c-47,18.32-113.47,4.44-136.26-10-6.31-4-10.71-14.41-13.78-27.37,38,23.49,115.07,53.65,185.57-25.56C546.37,400.18,541.85,434.46,504,449.23Z"/><path class="cls-4" d="M141.84,245.49s-36.84,45-43.5,82.18,27.48,149.6,108.27,129.61S371.51,449,371.51,449l-83-249.85Z"/><path class="cls-1" d="M206.6,457.28s-84,49.17-133.39,24.92c-12.53-6.15-22.8-17-28.91-34.66a2.77,2.77,0,0,1-.1-.26c-17.85-52.07,6.73-83.75,30.77-99,12.68-8,27.14-9.82,42.77-3.07,8.72,3.76,17.8,10.17,27.14,19.62,10,10.08,20.21,23.62,30.64,41.1C187.61,426.2,199.84,442.57,206.6,457.28Z"/><path class="cls-2" d="M117.74,345.21C69.31,366.42,51,411.76,44.3,447.54a2.77,2.77,0,0,1-.1-.26c-17.85-52.07,6.73-83.75,30.77-99C87.65,340.25,102.11,338.46,117.74,345.21Z"/><path class="cls-3" d="M206.6,457.28s-84,49.17-133.39,24.92c2.5-3,6.42-5.8,11.94-8.33,60.68-27.91,62.89-82.05,59.73-109,10,10.08,20.21,23.62,30.64,41.1C187.61,426.2,199.84,442.57,206.6,457.28Z"/><path class="cls-1" d="M378.17,492.26C374,502.87,368.37,506.9,362,506a16.33,16.33,0,0,1-4.58-1.37c-28.08-12.75-66.44-104.13-61.46-149.8,6.47-59.13-6.09-126.59-6.09-126.59l2.08-5.32,14.91-38.18,6.39-16.35s35,67.34,49.14,137.29S400.65,434.79,378.17,492.26Z"/><path class="cls-2" d="M362,506a16.33,16.33,0,0,1-4.58-1.37c-28.08-12.75-66.44-104.13-61.46-149.8,6.47-59.13-6.09-126.59-6.09-126.59l2.08-5.32c8.42,23.77,19.24,65.87,17.15,121.65C306.32,417.78,347.1,484.33,362,506Z"/><path class="cls-3" d="M378.17,492.26c-5.12,13.08-12.5,16.15-20.79,12.39,2.67-31.58,6.74-102.08-1.69-175.28-7.95-68.89-33.89-120-48.87-144.61l6.39-16.35s35,67.34,49.14,137.29S400.65,434.79,378.17,492.26Z"/><path class="cls-1" d="M285.94,503.89a10.25,10.25,0,0,1-2.37,1.62c-21.58,10.87-92.34-38.45-106.12-63.22-20.81-37.48-22.12-104.84-36.76-152.41-14.87-48.3,4.39-121.47,4.39-121.47a13.75,13.75,0,0,1,7.53-1.36c16.68,1.43,39,27.73,52.2,45.38,6.77,9,11.14,15.83,11.14,15.83s-.18,60.78,8.85,109.43,49.26,84.62,63.71,145.41C291,493.77,289.8,500.4,285.94,503.89Z"/><path class="cls-2" d="M283.57,505.51c-21.58,10.87-92.34-38.45-106.12-63.22-20.81-37.48-22.12-104.84-36.76-152.41-14.87-48.3,4.39-121.47,4.39-121.47a13.75,13.75,0,0,1,7.53-1.36c-2.42,27.44-5.57,86.78,8.19,121.17C178.32,332,151.75,433.16,283.57,505.51Z"/><path class="cls-3" d="M285.94,503.89c-16.62-71-53.35-98.52-73.5-149-17.05-42.76-11.11-113.21-7.63-142.42,6.77,9,11.14,15.83,11.14,15.83s-.18,60.78,8.85,109.43,49.26,84.62,63.71,145.41C291,493.77,289.8,500.4,285.94,503.89Z"/><path class="cls-5" d="M265.74,300.48h0c-12.49-40.19-84.11-73.07-113.25-116.94S163.38,87,163.38,87s65.33-19.22,112.16,6.43c15.62,8.56,29.19,22.1,37.58,43C346.46,219.53,266.77,299.45,265.74,300.48Z"/><path class="cls-2" d="M265.74,300.48c46.83-76.33,27.28-160.64,9.8-207.07,15.62,8.56,29.19,22.1,37.58,43C346.46,219.53,266.77,299.45,265.74,300.48Z"/><path class="cls-1" d="M95.84,483.93c-3.46,13.28-14.13,20.41-15.33,21.19S68,513,54,510.26a34.24,34.24,0,0,1-7-2.19l0,0c-27.47-9.5-39.83-59.73-42.22-70.66a11.54,11.54,0,0,1-1.47-1.26C-.44,432.4-1.1,427,1.83,424.07a6.73,6.73,0,0,1,5.66-1.77,8,8,0,0,1-.53-.73c-2.94-4.39-2.54-9.81.9-12.12a6.84,6.84,0,0,1,6.26-.52c-.56-4.08,1.13-7.86,4.36-9.05s6.8.51,9,3.85a6.85,6.85,0,0,1,4.73-4.21c4-.89,8.23,2.58,9.37,7.76a11.76,11.76,0,0,1,.28,2.54A118.27,118.27,0,0,1,67.6,427.36a96.71,96.71,0,0,1,13.4,13C86.27,446.69,101,464.29,95.84,483.93Z"/><path class="cls-6" d="M73.39,445.27c3.94,4.72,14.89,17.84,11.08,32.49A28.53,28.53,0,0,1,73,493.56c-.79.51-9.31,5.89-19.75,3.84C38.7,494.52,31.8,480.14,28.87,474,22,459.76,17,433.64,29.23,425.74,41,418.13,62.8,432.57,73.39,445.27Z"/><path class="cls-6" d="M11.47,427.13c.83.31,3.14,1.15,3.72,3.26a4.14,4.14,0,0,1-.29,2.8,4.08,4.08,0,0,1-2.19,1.9c-2,.69-3.92-.61-4.73-1.16-1.88-1.29-4.39-4.19-3.44-6.06S9.23,426.31,11.47,427.13Z"/><path class="cls-6" d="M16.26,414.52c.72.52,2.73,2,2.73,4.13a3.88,3.88,0,0,1-3.62,3.88c-2.14.13-3.63-1.62-4.27-2.36C9.63,418.43,8,415,9.38,413.42S14.32,413.14,16.26,414.52Z"/><path class="cls-6" d="M25.64,408c.42.78,1.59,2.95.63,4.91a3.9,3.9,0,0,1-5,1.88c-2-.83-2.54-3.06-2.78-4-.55-2.21-.52-6,1.44-6.81S24.51,405.89,25.64,408Z"/><path class="cls-6" d="M38,409.3c.09.88.33,3.33-1.31,4.77a3.87,3.87,0,0,1-5.31-.17c-1.51-1.53-1.17-3.8-1-4.77.34-2.26,1.85-5.78,3.95-5.73S37.77,406.93,38,409.3Z"/><path class="cls-6" d="M287.75,487.31c3.52.78,9.6,2.82,13.41,8a1.35,1.35,0,0,1-1.25,2.11c-5.84-.41-19.09-2-17.08-7.63A4.21,4.21,0,0,1,287.75,487.31Z"/><path class="cls-6" d="M280.7,495.92c3.38,1.23,9.13,4,12.21,9.68a1.37,1.37,0,0,1-1.54,1.94c-5.72-1.17-18.65-4.44-15.89-9.77A4.26,4.26,0,0,1,280.7,495.92Z"/><path class="cls-6" d="M268.43,500.78c2.79,2.22,7.29,6.7,8.31,13a1.39,1.39,0,0,1-2.1,1.34c-5-2.91-16.16-10.09-11.76-14.25A4.27,4.27,0,0,1,268.43,500.78Z"/><path class="cls-6" d="M345.43,492.1c-2.8,2.28-7.32,6.83-8.41,13.18a1.35,1.35,0,0,0,2.07,1.33c5-3,16.18-10.33,11.86-14.47A4.22,4.22,0,0,0,345.43,492.1Z"/><path class="cls-6" d="M355.58,496.65c-2.47,2.61-6.35,7.7-6.58,14.12a1.37,1.37,0,0,0,2.24,1.05c4.6-3.61,14.69-12.32,9.84-15.85A4.25,4.25,0,0,0,355.58,496.65Z"/><path class="cls-6" d="M366.37,497.81c-1.5,3.24-3.51,9.26-1.6,15.35a1.39,1.39,0,0,0,2.48.27c3.19-4.86,9.92-16.26,4.13-18A4.26,4.26,0,0,0,366.37,497.81Z"/><path class="cls-1" d="M474,437.86c4.11,12.59,15.38,18.09,16.65,18.69A39.09,39.09,0,0,0,518,457.86a39.78,39.78,0,0,0,7.11-3.14l0,0c27.85-13.24,38.49-64.41,40.49-75.51a12.39,12.39,0,0,0,1.46-1.44c3.69-4.21,4.14-9.62,1-12.08a6.77,6.77,0,0,0-5.89-.95,8.74,8.74,0,0,0,.51-.78c2.84-4.74,2.2-10-1.43-11.8a7.31,7.31,0,0,0-6.46.36c.41-4.09-1.49-7.56-4.85-8.28s-7,1.46-9.13,5.06a6.14,6.14,0,0,0-5-3.47c-4.2-.3-8.36,3.71-9.31,9a11.72,11.72,0,0,0-.19,2.54,140.48,140.48,0,0,0-25.71,20.89,112.62,112.62,0,0,0-13.24,14.69C482.25,399.87,467.88,419.26,474,437.86Z"/><path class="cls-6" d="M495.43,396.65c-3.85,5.2-14.57,19.66-10,33.54,3.07,9.38,11.47,13.49,12.41,13.93a29.2,29.2,0,0,0,20.47,1c14.88-4.89,21.38-20,24.14-26.45,6.44-15,10.55-41.42-2.37-47.47C527.61,365.36,505.8,382.66,495.43,396.65Z"/><path class="cls-6" d="M558.37,370c-.85.42-3.19,1.58-3.7,3.74a3.81,3.81,0,0,0,.41,2.71,3.65,3.65,0,0,0,2.33,1.56c2.12.4,4-1.15,4.82-1.81,1.89-1.53,4.35-4.74,3.29-6.44S560.63,368.92,558.37,370Z"/><path class="cls-6" d="M552.92,358.31c-.73.61-2.73,2.3-2.65,4.45a3.56,3.56,0,0,0,1.16,2.44,3.91,3.91,0,0,0,2.74.87c2.2-.17,3.66-2.11,4.28-2.93,1.45-1.92,3-5.56,1.49-6.88S554.86,356.68,552.92,358.31Z"/><path class="cls-6" d="M543,353.21c-.4.83-1.52,3.13-.45,4.92a3.64,3.64,0,0,0,2.21,1.58,4.39,4.39,0,0,0,3-.43c2-1.09,2.49-3.37,2.69-4.33.48-2.26.28-6-1.76-6.51S544.07,351,543,353.21Z"/><path class="cls-6" d="M530.33,356.25c-.05.88-.2,3.33,1.54,4.51a4.11,4.11,0,0,0,2.76.58,4.92,4.92,0,0,0,2.7-1.5c1.48-1.71,1-3.91.85-4.84-.44-2.17-2.14-5.42-4.3-5.08S530.48,353.88,530.33,356.25Z"/><path class="cls-7" d="M217.43,185.78C253.66,229,273,278.7,268.24,281.55c-3.39,2-13.17-22.73-46.64-51.63-28.87-24.93-48.79-30-58.3-55-4.46-11.7-7-28.76-.83-32.48C174.63,135.14,215.11,183,217.43,185.78Z"/><path class="cls-8" d="M150,97.84c-.4,58.83,120.51,64,155,33.47a47,47,0,0,0,13.22-19.44c11.57-31.91-9.74-75.05-28.86-92a40,40,0,0,0-5.61-4.13c-5.32-3.84-5.06-2.56-7.66-3.91C247.49-.13,201.33,5,189,15.64a118.27,118.27,0,0,0-21.6,24.65A105,105,0,0,0,150,97.84Z"/><path class="cls-9" d="M236.29,144.56c-8.39.22-17.08-.08-24.72-3.57s-14-10.88-14-19.29c0-4.69,2-9.39,1-14-1.09-4.9-5.26-8.4-8.12-12.53C186,88.81,184.67,80.7,185,72.94c.35-8.62,2.67-17.38,8-24.19s13.83-11.41,22.42-10.6a28.28,28.28,0,0,1,11.91,4.26c2.21,1.35,4.34,2.93,6.84,3.59h6.73c2.5-.66,4.63-2.24,6.84-3.59a28.33,28.33,0,0,1,11.91-4.26c8.59-.81,17.14,3.78,22.42,10.6s7.6,15.57,7.95,24.19c.31,7.76-1,15.87-5.42,22.25-2.87,4.13-7,7.63-8.13,12.53-1,4.59,1,9.29,1,14,0,8.41-6.37,15.8-14,19.29s-16.32,3.79-24.72,3.57"/><path class="cls-8" d="M287.69,34.23c5.46,6.6,15.13,10.7,15.13,10.7S331.9,30,317.67,9.51C311.89,1.19,305.6-.07,300,2.2c-8.16,3.33-14.75,14.22-15.85,21.6C283.59,27.7,285.21,31.22,287.69,34.23Z"/><path class="cls-8" d="M151.42,24.31C153.83,34.82,165.49,41.5,170.66,44c1.51.73,2.46,1.09,2.46,1.09A54,54,0,0,0,181,39.5C186.3,35,192,28.34,190.11,21.19c-3.28-12.65-23.72-33.9-36.21-11.13A25.94,25.94,0,0,0,152.5,13,18.63,18.63,0,0,0,151.42,24.31Z"/><path class="cls-10" d="M270.85,60.57c4.2,5.66,8,12.37,7.34,20.59s-2.87,18.26-16.11,8.69-12.92-17.45-11.93-23S262.3,49.06,270.85,60.57Z"/><path class="cls-11" d="M269.08,64.33c4.18,3.76,4.6,15.22-1,18.79s-13.76-.17-14.52-8.8C252.77,65.41,260.78,56.86,269.08,64.33Z"/><path class="cls-10" d="M202.71,60.57c-4.21,5.66-8,12.37-7.34,20.59s2.86,18.26,16.11,8.69,12.92-17.45,11.93-23S211.25,49.06,202.71,60.57Z"/><path class="cls-11" d="M204,64.59c-4.18,3.76-4.61,15.21,1,18.78s13.77-.16,14.53-8.79C220.28,65.66,212.26,57.11,204,64.59Z"/><path class="cls-10" d="M207.37,69.43c-2.32,2.09-2.55,8.43.55,10.41s7.63-.09,8.05-4.87C216.41,70,212,65.29,207.37,69.43Z"/><path class="cls-11" d="M210.5,65c-2.07,1.87-2.28,7.56.5,9.33s6.83-.08,7.21-4.37S214.62,61.29,210.5,65Z"/><path class="cls-10" d="M257.94,69.43c-2.32,2.09-2.56,8.43.55,10.41s7.62-.09,8.05-4.87C267,70,262.53,65.29,257.94,69.43Z"/><path class="cls-11" d="M261.83,64.75c-2.07,1.87-2.28,7.55.5,9.32s6.83-.08,7.21-4.36S266,61,261.83,64.75Z"/><path class="cls-6" d="M207.12,140.77c.18.31.36.62.55.93a22.85,22.85,0,0,0,3.84,4.69,22.54,22.54,0,0,0,1.82,1.55c12.16,9.35,32.72,7,44,.24h0c.52-.32,1-.64,1.5-1a17,17,0,0,0,5.34-5.51C278,116.72,256,79,250.1,71.8c-5.26-6.46-13.93-7.67-20.61-5.46a15,15,0,0,0-7.74,5.46C216.64,79.31,192.1,114.74,207.12,140.77Z"/><path class="cls-10" d="M303.71,35.82S322.09,24.25,310,13.76s-18.15,9.38-18.15,9.38S300.82,29.19,303.71,35.82Z"/><path class="cls-10" d="M170,35.73s-19.12-12-6.53-22.95,18.88,9.76,18.88,9.76S173,28.84,170,35.73Z"/><path class="cls-12" d="M224.86,117.92c1.06,2,3.94,2.33,3.94,2.33,6.83,9,13.81.45,13.81.45a7.25,7.25,0,0,0,3-2.21h0c1.51-2,1.71-5.11-2.06-9.5-3.34-3.89-11.9-4-15.39,0C224.34,113.57,224,116.29,224.86,117.92Z"/><path class="cls-13" d="M244.35,114c-.72,1.12-4.12,0-4.87-.21-2.85-.91-6.37-3.17-6-4.68.31-1.26,3.31-1.94,5.67-1.32C242.72,108.69,245.15,112.72,244.35,114Z"/><path class="cls-14" d="M224.86,117.92c1.06,2,3.94,2.33,3.94,2.33,6.83,9,13.81.45,13.81.45a7.25,7.25,0,0,0,3-2.21c-.26.14-2.42,1.21-4.83-1.47,0,0-.55,6.8-5.7,6.25s-4.93-6.57-4.93-6.57S229.14,119.51,224.86,117.92Z"/><path class="cls-3" d="M151.42,24.31C153.83,34.82,165.49,41.5,170.66,44h0S154.51,30.34,152.5,13A18.63,18.63,0,0,0,151.42,24.31Z"/><path class="cls-2" d="M180.84,11c-.48.54-3-2.22-8.47-3.95-6.91-2.18-11.83-.62-12-1.51S166.2.92,172.08,2.47,181.48,10.29,180.84,11Z"/><path class="cls-15" d="M261.49,128.65s-15.89,10.8-25.49-.6c0,0-11.4,12.6-25.2,0"/></g></g></svg>