<svg width="44" height="44" viewBox="0 0 44 44" fill="none" xmlns="http://www.w3.org/2000/svg">
<g clip-path="url(#clip0_70_3540)">
<path d="M21.9995 44.0009C9.84902 44.0009 -0.000919342 34.151 -0.000919342 22.0005C-0.000919342 9.84994 9.84902 0 21.9995 0C34.1501 0 44 9.84994 44 22.0005C44 34.151 34.1501 44.0009 21.9995 44.0009Z" fill="#9BDDB6"/>
<path d="M19.7474 25.3458C19.9101 25.4525 20.1281 25.4074 20.2347 25.2447C20.3414 25.0819 20.2963 24.864 20.1336 24.7573C19.2002 24.1458 18.643 23.115 18.643 22.0004C18.643 20.1843 20.1207 18.7066 21.9368 18.7066C23.753 18.7066 25.2307 20.1843 25.2307 22.0004C25.2307 23.8166 23.753 25.2943 21.9368 25.2943C21.809 25.2943 21.6803 25.287 21.5552 25.2722C21.3621 25.2502 21.1874 25.3881 21.1653 25.5812C21.1433 25.7743 21.2812 25.949 21.4743 25.9711C21.627 25.9886 21.7824 25.9978 21.9368 25.9978C24.141 25.9978 25.9351 24.2046 25.9351 21.9995C25.9351 19.7944 24.1419 18.0013 21.9368 18.0013C19.7317 18.0013 17.9386 19.7944 17.9386 21.9995C17.9386 23.3522 18.6145 24.6028 19.7474 25.3458Z" fill="#2A9B58"/>
<path d="M22.4657 23.5159L23.9682 22.0133C24.1724 21.8092 24.2846 21.5379 24.2846 21.2483C24.2846 20.9586 24.1724 20.6883 23.9682 20.4841C23.7641 20.28 23.4928 20.1678 23.2032 20.1678C22.9135 20.1678 22.6432 20.28 22.439 20.4841L21.7006 21.2225L21.4339 20.9558C21.0128 20.5347 20.3259 20.5347 19.9047 20.9558C19.7006 21.16 19.5884 21.4313 19.5884 21.7209C19.5884 22.0106 19.7006 22.2809 19.9047 22.4851L20.9355 23.5159C21.1397 23.72 21.4109 23.8322 21.7006 23.8322C21.9893 23.8322 22.2606 23.72 22.4648 23.5159H22.4657ZM20.4031 21.9867C20.3323 21.9159 20.2928 21.8212 20.2928 21.72C20.2928 21.6188 20.3323 21.5241 20.4031 21.4533C20.4739 21.3825 20.5686 21.343 20.6698 21.343C20.7709 21.343 20.8656 21.3825 20.9365 21.4533L21.4523 21.9692C21.5893 22.1071 21.8128 22.1071 21.9507 21.9692L22.9374 20.9825C23.0082 20.9117 23.1029 20.8722 23.2041 20.8722C23.3052 20.8722 23.399 20.9117 23.4708 20.9825C23.5416 21.0533 23.5811 21.148 23.5811 21.2492C23.5811 21.3503 23.5416 21.4451 23.4708 21.5159L21.9682 23.0184C21.8974 23.0892 21.8027 23.1288 21.7015 23.1288C21.6004 23.1288 21.5066 23.0892 21.4349 23.0184L20.404 21.9876L20.4031 21.9867Z" fill="#2A9B58"/>
<path d="M16.711 14.3561V12.8729H17.3243C17.5183 12.8729 17.6765 12.7157 17.6765 12.5207C17.6765 12.3258 17.5193 12.1685 17.3243 12.1685H16.3588C16.1648 12.1685 16.0066 12.3258 16.0066 12.5207V14.7083C16.0066 14.9024 16.1638 15.0605 16.3588 15.0605H30.5595C30.7545 15.0605 30.9117 14.9033 30.9117 14.7083V12.5207C30.9117 12.3267 30.7545 12.1685 30.5595 12.1685H18.9198C18.7257 12.1685 18.5676 12.3258 18.5676 12.5207C18.5676 12.7157 18.7248 12.8729 18.9198 12.8729H30.2073V14.3561" fill="#2A9B58"/>
<path d="M32.7472 18.3912C32.9422 18.3912 33.0994 18.2339 33.0994 18.039V11.0375C33.0994 10.4554 32.6258 9.9809 32.0428 9.9809H14.8747C14.2926 9.9809 13.8181 10.4545 13.8181 11.0375V27.5574L11.1072 30.2682C10.9739 30.4016 10.9012 30.5781 10.9012 30.7666C10.9012 30.9551 10.9748 31.1317 11.1072 31.265L12.6714 32.8292C12.9463 33.1041 13.3923 33.1041 13.6673 32.8292L13.8172 32.6793V32.9644C13.8172 33.5464 14.2907 34.0209 14.8737 34.0209H24.1346C25.7963 34.0209 28.4345 33.3736 29.6088 32.1993L31.275 30.5331C32.4502 29.3579 33.0967 27.7955 33.0967 26.1339V19.6841C33.0967 19.4901 32.9394 19.3319 32.7445 19.3319C32.5495 19.3319 32.3923 19.4891 32.3923 19.6841V25.5132C32.3923 27.0019 31.1812 28.213 29.6924 28.213H18.2835L18.3239 28.1725C18.517 27.9794 18.574 27.7026 18.4959 27.459H30.5559C30.7509 27.459 30.9081 27.3017 30.9081 27.1068C30.9081 26.9118 30.7509 26.7546 30.5559 26.7546H24.6119C24.9843 26.544 25.3301 26.2902 25.6418 26.0005H30.5559C30.7509 26.0005 30.9081 25.8433 30.9081 25.6484C30.9081 25.4534 30.7509 25.2962 30.5559 25.2962H26.28C26.4602 25.0589 26.6211 24.807 26.7609 24.5421H30.5559C30.7509 24.5421 30.9081 24.3849 30.9081 24.1899C30.9081 23.995 30.7509 23.8377 30.5559 23.8377H27.0708C27.1581 23.5941 27.2289 23.3421 27.2804 23.0837H30.555C30.7499 23.0837 30.9072 22.9265 30.9072 22.7315C30.9072 22.5366 30.7499 22.3793 30.555 22.3793H27.3752C27.3926 22.1283 27.3926 21.8763 27.3752 21.6253H30.555C30.7499 21.6253 30.9072 21.468 30.9072 21.2731C30.9072 21.0781 30.7499 20.9209 30.555 20.9209H27.2804C27.228 20.6625 27.1581 20.4105 27.0708 20.1669H30.5559C30.7509 20.1669 30.9081 20.0096 30.9081 19.8147C30.9081 19.6197 30.7509 19.4625 30.5559 19.4625H26.7609C26.6211 19.1976 26.4602 18.9457 26.28 18.7084H30.5559C30.7509 18.7084 30.9081 18.5512 30.9081 18.3562C30.9081 18.1613 30.7509 18.0041 30.5559 18.0041H25.6418C25.3301 17.7144 24.9843 17.4606 24.6119 17.25H30.5559C30.7509 17.25 30.9081 17.0928 30.9081 16.8978C30.9081 16.7029 30.7509 16.5456 30.5559 16.5456H17.0844C16.8903 16.5456 16.7322 16.7029 16.7322 16.8978C16.7322 17.0928 16.8894 17.25 17.0844 17.25H19.2536C18.8812 17.4606 18.5354 17.7144 18.2237 18.0041H17.0844C16.8903 18.0041 16.7322 18.1613 16.7322 18.3562C16.7322 18.5512 16.8894 18.7084 17.0844 18.7084H17.5855C17.4053 18.9457 17.2444 19.1976 17.1046 19.4625H17.0844C16.8903 19.4625 16.7322 19.6197 16.7322 19.8147C16.7322 19.9112 16.7708 19.9977 16.8333 20.0611C16.6025 20.6643 16.4765 21.3191 16.4765 22.0023C16.4765 22.6855 16.597 23.3311 16.8315 23.9453C16.7699 24.0088 16.7322 24.0952 16.7322 24.1899C16.7322 24.384 16.8894 24.5421 17.0844 24.5421H17.1018C17.1883 24.7058 17.283 24.8649 17.386 25.0203L17.1101 25.2962H17.0844C16.9096 25.2962 16.7644 25.4231 16.7368 25.5904C16.6062 25.4709 16.4388 25.4056 16.2614 25.4056C16.0728 25.4056 15.8963 25.4791 15.763 25.6116L15.2296 26.1449C15.1386 26.2359 15.0779 26.3454 15.0475 26.4603C14.9317 26.4907 14.8222 26.5523 14.7321 26.6424L14.5197 26.8548V11.0375C14.5197 10.8434 14.6779 10.6853 14.8719 10.6853H32.0401C32.2341 10.6853 32.3923 10.8434 32.3923 11.0375V18.039C32.3923 18.233 32.5495 18.3912 32.7445 18.3912H32.7472ZM13.1707 32.3308L11.6065 30.7666L12.3247 30.0484L13.8898 31.6135L13.1716 32.3317L13.1707 32.3308ZM26.9191 29.2677C26.9191 29.0737 27.0772 28.9155 27.2712 28.9155H29.6952C30.6341 28.9155 31.4847 28.5339 32.1008 27.9169C31.8323 28.705 31.3844 29.4268 30.7784 30.0328L29.1122 31.6991C28.5062 32.305 26.7085 32.7529 25.9204 33.0214C26.5365 32.4053 26.9191 31.5538 26.9191 30.6158V29.2677ZM26.2754 28.9155C26.2367 29.0259 26.2147 29.1445 26.2147 29.2677V29.6696H17.0871C16.8931 29.6696 16.7349 29.8268 16.7349 30.0218C16.7349 30.2167 16.8922 30.374 17.0871 30.374H26.2147V30.6158C26.2147 32.1046 25.0036 33.3156 23.5148 33.3156H14.8747C14.6806 33.3156 14.5225 33.1575 14.5225 32.9634V31.974C14.733 31.7634 17.1736 29.3229 17.2949 29.2015C17.3777 29.1188 17.4356 29.0204 17.4687 28.9155H26.2754ZM18.7138 26.7527L18.9189 26.5477C19.0274 26.6203 19.1387 26.6884 19.2518 26.7527H18.7138ZM18.0977 25.3063C18.2219 25.1821 18.2357 24.9863 18.1308 24.8465C17.4991 24.0023 17.1846 23.0138 17.1846 22.0005C17.1846 19.3797 19.3161 17.2482 21.9369 17.2482C24.5576 17.2482 26.6901 19.4229 26.6901 21.9968C26.6901 24.5706 24.587 26.7288 21.9819 26.7527C21.9332 26.7445 20.4785 26.8456 19.0918 25.8074C18.952 25.7026 18.7552 25.7164 18.632 25.8405L17.8127 26.6599L17.2793 26.1265L18.0986 25.3072L18.0977 25.3063ZM16.265 26.1072L17.8292 27.6714L17.2959 28.2047L15.7317 26.6406L16.265 26.1072ZM15.2342 27.138L16.7984 28.7022L14.3882 31.1133L12.8231 29.5482L15.2342 27.1371V27.138Z" fill="#2A9B58"/>
</g>
<defs>
<clipPath id="clip0_70_3540">
<rect width="44" height="44" fill="white" transform="matrix(-1 0 0 1 44 0)"/>
</clipPath>
</defs>
</svg>
