<svg width="74" height="80" viewBox="0 0 74 80" fill="none" xmlns="http://www.w3.org/2000/svg">
<g clip-path="url(#clip0_113_2952)">
<path d="M72.6539 3.60999C72.6539 2.32495 71.6115 1.2854 70.3286 1.2854H13.6398C12.3544 1.2854 11.3145 2.32746 11.3145 3.60999V75.9855C11.3145 77.2705 12.3569 78.31 13.6398 78.31H44.2206C49.36 78.31 56.6369 75.0661 60.2728 71.4315L65.7755 65.9306C69.4089 62.2984 72.6564 58.5736 72.6564 53.4359V3.60999H72.6539Z" fill="#F2FBFF"/>
<path d="M36.8085 26.0495C27.6949 26.1271 20.2301 33.5443 20.1023 42.6547C20.0472 46.5324 21.3026 50.1145 23.4551 52.9877L19.9294 56.5121L19.0499 55.6329C18.5963 55.1795 17.8596 55.1795 17.4061 55.6329L15.6445 57.3939C15.1909 57.8473 15.1909 58.5837 15.6445 59.0371C15.1909 58.5837 14.4542 58.5837 14.0007 59.0371L11.3145 61.7224V75.3393L20.8114 65.8456C21.265 65.3922 21.265 64.6557 20.8114 64.2023C21.265 64.6557 22.0017 64.6557 22.4552 64.2023L24.2168 62.4413C24.6704 61.9879 24.6704 61.2515 24.2168 60.7981L23.8835 60.4649C23.5803 60.1618 23.5803 59.6709 23.8835 59.3703L26.3969 56.8578C26.6625 56.5923 27.0784 56.5572 27.3867 56.7701C30.1656 58.6889 33.5509 59.7961 37.1994 59.746C46.313 59.6183 53.7326 52.156 53.8103 43.0455C53.8905 33.6244 46.2353 25.9693 36.8085 26.0495Z" fill="#DFF6FD"/>
<path d="M36.957 22.9482C27.648 22.9482 20.103 30.4931 20.103 39.7965C20.103 43.5815 21.3509 47.0734 23.4583 49.8865L19.9326 53.4109L20.7595 56.6448L23.338 56.8151L26.8637 53.2907C29.6777 55.3973 33.1708 56.6448 36.957 56.6448C46.2661 56.6448 53.811 49.0999 53.811 39.7965C53.811 30.4931 46.2636 22.9482 36.957 22.9482Z" fill="#0067C5"/>
<path d="M64.6308 18.8277H19.336C18.8949 18.8277 18.5366 18.4695 18.5366 18.0286V12.405C18.5366 11.9642 18.8949 11.606 19.336 11.606H64.6308C65.0718 11.606 65.4302 11.9642 65.4302 12.405V18.0286C65.4302 18.4695 65.0718 18.8277 64.6308 18.8277Z" fill="#DFF6FD"/>
<path d="M70.3286 1.2854H66.4521V46.0639C66.4521 52.8573 57.3911 58.3631 50.5979 58.3631C48.0846 58.3631 46.0473 60.3997 46.0473 62.9121C46.0473 69.7056 40.5396 75.2114 33.7439 75.2114H11.3145V75.9855C11.3145 77.2705 12.3569 78.31 13.6398 78.31H44.2206C49.36 78.31 56.6369 75.0661 60.2728 71.4315L65.7755 65.9306C69.4089 62.2984 72.6564 58.5736 72.6564 53.4359V3.60999C72.6564 2.32495 71.6165 1.2854 70.3311 1.2854H70.3286Z" fill="#DFF6FD"/>
<path d="M61.4762 72.6362C57.8428 76.2684 49.3607 78.3099 44.2213 78.3099H40.2095H42.1715C47.7369 78.3099 52.2498 73.801 52.2498 68.235V63.7837C52.2498 62.4987 53.2923 61.4591 54.5752 61.4591H62.5788C68.1441 61.4591 72.6571 56.9502 72.6571 51.3842V49.4229V53.4333C72.6571 58.5709 70.6149 63.4982 66.9814 67.1328L61.4787 72.6337L61.4762 72.6362Z" fill="#F2FBFF"/>
<path d="M36.9569 51.8352C43.6066 51.8352 48.9972 46.4464 48.9972 39.799C48.9972 33.1515 43.6066 27.7627 36.9569 27.7627C30.3072 27.7627 24.9165 33.1515 24.9165 39.799C24.9165 46.4464 30.3072 51.8352 36.9569 51.8352Z" fill="#C8EFFE"/>
<path d="M36.1778 41.9729L34.4763 40.272C33.5367 39.3327 32.0106 39.3327 31.071 40.272C30.1313 41.2114 30.1313 42.7369 31.071 43.6763L34.4763 47.0805C35.416 48.0199 36.9421 48.0199 37.8817 47.0805L42.8432 42.1207C43.7829 41.1813 43.7829 39.6558 42.8432 38.7165C41.9035 37.7771 40.3775 37.7771 39.4378 38.7165L36.1778 41.9754V41.9729Z" fill="#99E6FC"/>
<path d="M39.0095 27.938C41.3399 30.1323 42.7933 33.246 42.7933 36.7003C42.7933 43.3459 37.4033 48.7366 30.7529 48.7366C30.0538 48.7366 29.3672 48.6765 28.7007 48.5612C30.8557 50.5902 33.7599 51.8352 36.9548 51.8352C43.6027 51.8352 48.9952 46.4471 48.9952 39.7989C48.9952 33.8522 44.6802 28.9124 39.0095 27.938Z" fill="#99E6FC"/>
<path d="M36.1778 38.8745L34.4763 37.1737C33.5367 36.2343 32.0106 36.2343 31.071 37.1737C30.1313 38.113 30.1313 39.6385 31.071 40.5779L34.4763 43.9821C35.416 44.9215 36.9421 44.9215 37.8817 43.9821L42.8432 39.0223C43.7829 38.083 43.7829 36.5574 42.8432 35.6181C41.9035 34.6787 40.3775 34.6787 39.4378 35.6181L36.1778 38.877V38.8745Z" fill="#05E39C"/>
<path d="M24.2148 57.6991L19.0478 52.5339C18.5942 52.0805 17.8575 52.0805 17.404 52.5339L15.6424 54.2949C15.1889 54.7483 15.1889 55.4847 15.6424 55.9381L20.8094 61.1033C21.2629 61.5567 21.9996 61.5567 22.4532 61.1033L24.2148 59.3423C24.6683 58.8889 24.6683 58.1525 24.2148 57.6991Z" fill="#FE9738"/>
<path d="M7.19023 74.7178L2.02327 69.5526C1.56972 69.0992 1.56972 68.3627 2.02327 67.9093L13.9985 55.9382C14.452 55.4848 15.1887 55.4848 15.6423 55.9382L20.8093 61.1034C21.2628 61.5568 21.2628 62.2932 20.8093 62.7466L8.83403 74.7178C8.38048 75.1712 7.64378 75.1712 7.19023 74.7178Z" fill="#01C0FA"/>
<path d="M7.19023 74.7178L2.02327 69.5526C1.56972 69.0992 1.56972 68.3627 2.02327 67.9093L13.9985 55.9382C14.452 55.4848 15.1887 55.4848 15.6423 55.9382L20.8093 61.1034C21.2628 61.5568 21.2628 62.2932 20.8093 62.7466L8.83403 74.7178C8.38048 75.1712 7.64378 75.1712 7.19023 74.7178Z" fill="#FE9738"/>
<path d="M20.8095 61.1034L15.6426 55.9382C15.189 55.4848 14.4523 55.4848 13.9988 55.9382L13.2696 56.6671L14.1867 57.5839C15.7278 59.1245 15.7278 61.6244 14.1867 63.1675L4.90771 72.4433L7.18549 74.7203C7.63904 75.1737 8.37574 75.1737 8.82929 74.7203L20.8045 62.7491C21.2581 62.2957 21.2581 61.5593 20.8045 61.1059L20.8095 61.1034Z" fill="#FE860A"/>
<path d="M18.5366 8.50708H65.4302V15.7288H18.5366V8.50708Z" fill="#05E39C"/>
<path d="M55.6776 8.5069V10.2629C55.6776 11.5679 54.6176 12.6275 53.3121 12.6275H18.5366V15.7262H65.4302V8.50439H55.6776V8.5069Z" fill="#0ED290"/>
<path d="M29.7281 50.8432C30.2643 51.1939 30.986 51.0461 31.3368 50.5076C31.6901 49.9715 31.5398 49.2501 31.001 48.8994C27.9189 46.8804 26.0796 43.4787 26.0796 39.7989C26.0796 33.8046 30.9584 28.9249 36.9573 28.9249C42.9562 28.9249 47.835 33.8021 47.835 39.7989C47.835 45.7958 42.9562 50.6729 36.9573 50.6729C36.5364 50.6729 36.1104 50.6478 35.6969 50.6002C35.0579 50.5276 34.4816 50.9835 34.4089 51.6223C34.3363 52.261 34.7923 52.8372 35.4313 52.9098C35.935 52.9674 36.4487 52.9975 36.9598 52.9975C44.2392 52.9975 50.1629 47.0783 50.1629 39.7989C50.1629 32.5195 44.2417 26.6003 36.9598 26.6003C29.678 26.6003 23.7593 32.5195 23.7593 39.7989C23.7593 44.2627 25.9919 48.3934 29.7331 50.8432H29.7281Z" fill="black"/>
<path d="M38.7032 44.8012L43.6646 39.8414C44.3387 39.1675 44.7096 38.2708 44.7096 37.3164C44.7096 36.362 44.3387 35.4677 43.6646 34.7914C42.9906 34.1176 42.0935 33.7468 41.1388 33.7468C40.1841 33.7468 39.2895 34.1176 38.613 34.7914L36.1748 37.2287L35.2953 36.3495C33.9021 34.9567 31.6368 34.9567 30.2461 36.3495C29.572 37.0233 29.2012 37.9201 29.2012 38.8745C29.2012 39.8288 29.572 40.7231 30.2461 41.3994L33.6515 44.8037C34.3255 45.4775 35.2226 45.8482 36.1773 45.8482C37.132 45.8482 38.0266 45.4775 38.7032 44.8037V44.8012ZM31.8924 39.7537C31.6569 39.5182 31.5266 39.2051 31.5266 38.8745C31.5266 38.5438 31.6569 38.2282 31.8924 37.9952C32.1279 37.7623 32.4412 37.6295 32.7719 37.6295C33.1027 37.6295 33.4184 37.7598 33.6515 37.9952L35.3529 39.6961C35.8065 40.1495 36.5432 40.1495 36.9967 39.6961L40.2568 36.4371C40.4923 36.2017 40.8055 36.0714 41.1363 36.0714C41.4671 36.0714 41.7828 36.2017 42.0158 36.4371C42.2514 36.6726 42.3817 36.9857 42.3817 37.3164C42.3817 37.647 42.2514 37.9627 42.0158 38.1956L37.0544 43.1554C36.8188 43.3909 36.5056 43.5211 36.1748 43.5211C35.844 43.5211 35.5283 43.3909 35.2953 43.1554L31.8899 39.7512L31.8924 39.7537Z" fill="black"/>
<path d="M21.7246 9.66932C22.3661 9.66932 22.8873 9.14829 22.8873 8.50702C22.8873 7.86576 22.3661 7.34473 21.7246 7.34473H18.5372C17.8957 7.34473 17.3745 7.86576 17.3745 8.50702V15.7288C17.3745 16.3701 17.8957 16.8911 18.5372 16.8911H65.4308C66.0722 16.8911 66.5934 16.3701 66.5934 15.7288V8.50702C66.5934 7.86576 66.0722 7.34473 65.4308 7.34473H26.9968C26.3553 7.34473 25.8341 7.86576 25.8341 8.50702C25.8341 9.14829 26.3553 9.66932 26.9968 9.66932H64.2681V14.5665H19.6999V9.66932H21.7246Z" fill="black"/>
<path d="M72.6545 27.8829C73.296 27.8829 73.8172 27.3618 73.8172 26.7206V3.60993C73.8172 1.68613 72.2511 0.123047 70.3291 0.123047H13.6404C11.7159 0.123047 10.1523 1.68613 10.1523 3.60993V58.1401L1.2016 67.0878C0.763082 67.5262 0.52002 68.1098 0.52002 68.7311C0.52002 69.3523 0.763082 69.9359 1.2016 70.3743L6.36856 75.5395C7.27566 76.4463 8.75157 76.4463 9.65617 75.5395L10.1523 75.0435V75.9829C10.1523 77.9067 11.7159 79.4698 13.6404 79.4698H44.2212C49.7089 79.4698 58.419 77.3331 62.298 73.4554L67.8008 67.9545C71.6797 64.0769 73.8172 58.9192 73.8172 53.4333V32.1413C73.8172 31.5 73.296 30.979 72.6545 30.979C72.013 30.979 71.4918 31.5 71.4918 32.1413V51.3843C71.4918 56.299 67.4925 60.2969 62.5762 60.2969H24.9015L25.0368 60.1616C25.6732 59.5254 25.8637 58.6086 25.6056 57.807H65.4303C66.0718 57.807 66.593 57.286 66.593 56.6447C66.593 56.0034 66.0718 55.4824 65.4303 55.4824H45.8023C47.0327 54.786 48.1728 53.9494 49.2027 52.9925H65.4278C66.0693 52.9925 66.5905 52.4714 66.5905 51.8302C66.5905 51.1889 66.0693 50.6679 65.4278 50.6679H51.3076C51.9015 49.8863 52.4327 49.0547 52.8963 48.178H65.4278C66.0693 48.178 66.5905 47.6569 66.5905 47.0157C66.5905 46.3744 66.0693 45.8534 65.4278 45.8534H53.9211C54.2093 45.0493 54.4423 44.2176 54.6152 43.3635H65.4278C66.0693 43.3635 66.5905 42.8424 66.5905 42.2012C66.5905 41.5599 66.0693 41.0389 65.4278 41.0389H54.926C54.9836 40.2122 54.9836 39.3781 54.926 38.5489H65.4278C66.0693 38.5489 66.5905 38.0279 66.5905 37.3867C66.5905 36.7454 66.0693 36.2244 65.4278 36.2244H54.6152C54.4423 35.3702 54.2093 34.5385 53.9211 33.7344H65.4278C66.0693 33.7344 66.5905 33.2134 66.5905 32.5721C66.5905 31.9309 66.0693 31.4098 65.4278 31.4098H52.8963C52.4352 30.5356 51.9015 29.704 51.3076 28.9199H65.4278C66.0693 28.9199 66.5905 28.3989 66.5905 27.7576C66.5905 27.1164 66.0693 26.5953 65.4278 26.5953H49.2002C48.1703 25.6384 47.0302 24.8018 45.7973 24.1054H65.4253C66.0667 24.1054 66.588 23.5844 66.588 22.9431C66.588 22.3019 66.0667 21.7808 65.4253 21.7808H20.9448C20.3033 21.7808 19.7821 22.3019 19.7821 22.9431C19.7821 23.5844 20.3033 24.1054 20.9448 24.1054H28.1089C26.8785 24.8018 25.7359 25.6384 24.706 26.5953H20.9448C20.3033 26.5953 19.7821 27.1164 19.7821 27.7576C19.7821 28.3989 20.3033 28.9199 20.9448 28.9199H22.6011C22.0073 29.7015 21.476 30.5331 21.0125 31.4098H20.9448C20.3033 31.4098 19.7821 31.9309 19.7821 32.5721C19.7821 32.8903 19.9099 33.1783 20.1154 33.3862C19.3536 35.3777 18.9377 37.5369 18.9377 39.7939C18.9377 42.0509 19.3361 44.1801 20.1079 46.2066C19.9049 46.417 19.7796 46.7 19.7796 47.0157C19.7796 47.6569 20.3008 48.178 20.9423 48.178H20.9999C21.2856 48.7165 21.5988 49.2426 21.9396 49.7561L21.0275 50.6679H20.9423C20.366 50.6679 19.8874 51.0887 19.7946 51.6398C19.3636 51.2465 18.8099 51.0286 18.2235 51.0286C17.6021 51.0286 17.0182 51.2716 16.5797 51.7099L14.8181 53.4709C14.5199 53.769 14.3195 54.1322 14.2167 54.513C13.8333 54.6157 13.4725 54.8161 13.1743 55.1142L12.4727 55.8156V3.60993C12.4727 2.96867 12.9939 2.44764 13.6354 2.44764H70.3241C70.9656 2.44764 71.4868 2.96867 71.4868 3.60993V26.7206C71.4868 27.3618 72.008 27.8829 72.6495 27.8829H72.6545ZM8.01236 73.8988L2.8454 68.7336L5.2184 66.3614L10.3854 71.5266L8.01236 73.8988ZM53.41 63.7863C53.41 63.145 53.9312 62.624 54.5726 62.624H62.5762C65.6758 62.624 68.4848 61.364 70.5196 59.33C69.6325 61.9301 68.1541 64.3148 66.1544 66.3163L60.6517 71.8172C58.6521 73.8161 52.7158 75.294 50.1123 76.1808C52.147 74.1468 53.41 71.3362 53.41 68.2376V63.7863ZM51.2825 62.624C51.1547 62.9872 51.0821 63.378 51.0821 63.7863V65.1139H20.9423C20.3008 65.1139 19.7796 65.6349 19.7796 66.2762C19.7796 66.9175 20.3008 67.4385 20.9423 67.4385H51.0821V68.2376C51.0821 73.1523 47.0828 77.1502 42.1664 77.1502H13.6404C12.9989 77.1502 12.4777 76.6292 12.4777 75.9879V72.7214C13.1718 72.0276 21.233 63.9692 21.6339 63.5684C21.907 63.2953 22.0975 62.9697 22.2077 62.624H51.2875H51.2825ZM26.3122 55.4849L26.9888 54.8086C27.3496 55.049 27.7155 55.2745 28.0888 55.4849H26.3122ZM24.2775 50.7105C24.686 50.3022 24.7336 49.6534 24.3853 49.1925C22.2979 46.407 21.2605 43.143 21.2605 39.7989C21.2605 31.1493 28.2993 24.1129 36.9519 24.1129C45.6044 24.1129 52.6457 31.2921 52.6457 39.7864C52.6457 48.2807 45.7021 55.4072 37.0972 55.4849C36.9368 55.4598 32.1332 55.793 27.5526 52.3637C27.089 52.0181 26.4425 52.0631 26.0341 52.4714L23.3303 55.1743L21.5687 53.4133L24.2725 50.7105H24.2775ZM18.226 53.3557L23.393 58.5209L21.6314 60.2819L16.4644 55.1167L18.226 53.3557ZM14.8206 56.7599L19.9876 61.9251L12.0292 69.8833L6.8622 64.7181L14.8231 56.7599H14.8206Z" fill="black"/>
</g>
<defs>
<clipPath id="clip0_113_2952">
<rect width="73.2972" height="79.3492" fill="white" transform="translate(0.52002 0.123047)"/>
</clipPath>
</defs>
</svg>
