<svg width="65" height="81" viewBox="0 0 65 81" fill="none" xmlns="http://www.w3.org/2000/svg">
<g clip-path="url(#clip0_113_2933)">
<path d="M58.2497 78.8786H6.00916C3.53616 78.8786 1.53076 77.1449 1.53076 75.0042V12.9494C1.53076 10.8087 3.53616 9.07495 6.00916 9.07495H58.2497C60.7227 9.07495 62.7281 10.8087 62.7281 12.9494V75.0042C62.7281 77.1449 60.7227 78.8786 58.2497 78.8786Z" fill="#FE9738"/>
<path d="M7.09375 18.5654V75.5923C7.09375 76.4617 7.90891 77.1678 8.91412 77.1678H38.05C41.3831 77.1678 44.5788 76.022 46.9343 73.9843L53.4806 68.3182C55.8361 66.278 57.1613 63.5141 57.1613 60.6296V18.5654C57.1613 17.696 56.3462 16.99 55.341 16.99H8.91412C7.90891 16.99 7.09375 17.6935 7.09375 18.5654Z" fill="#FE860A"/>
<path d="M58.249 9.07495H55.4735C55.531 9.32622 55.5635 9.58502 55.5635 9.84884V64.0792C55.5635 70.5392 49.5123 75.7756 42.0458 75.7756H1.62012C2.0352 77.5444 3.84307 78.8761 6.0085 78.8761H58.249C60.722 78.8761 62.7274 77.1424 62.7274 75.0016V12.9494C62.7274 10.8087 60.722 9.07495 58.249 9.07495Z" fill="#FE860A"/>
<path d="M7.09375 13.8892V74.0644H38.8026C41.6532 74.0644 41.9708 73.0845 43.9862 71.3407L51.6002 64.7526C53.6156 63.0088 57.1638 60.6444 57.1638 58.177V13.8892H7.09375Z" fill="#F2FBFF"/>
<path d="M36.1369 64.456L32.5286 62.8957C32.2761 62.7877 31.981 62.7877 31.7285 62.8957L28.1203 64.456C27.4051 64.7651 26.5649 64.3153 26.5649 63.6244V50.6868H37.6922V63.6244C37.6922 64.3153 36.852 64.7651 36.1369 64.456Z" fill="#DFF6FD"/>
<path d="M48.8168 41.0611C48.8168 42.2973 47.1864 43.3325 46.8339 44.4707C46.4688 45.6517 47.274 47.2497 46.5838 48.2824C45.8837 49.3302 43.8733 49.5237 42.8906 50.3729C41.9079 51.2222 41.6853 52.9609 40.4726 53.569C39.2799 54.167 37.432 53.471 36.0667 53.7876C34.7489 54.0916 33.5537 55.5037 32.1259 55.5037C30.6981 55.5037 29.5029 54.0916 28.1851 53.7876C26.8223 53.4735 24.9745 54.167 23.7792 53.569C22.569 52.9635 22.3439 51.2247 21.3613 50.3729C20.3786 49.5237 18.3706 49.3302 17.668 48.2824C16.9779 47.2497 17.7805 45.6492 17.418 44.4707C17.0654 43.33 15.4351 42.2973 15.4351 41.0611C15.4351 39.8249 17.0654 38.7896 17.418 37.6514C17.783 36.4705 16.9779 34.8724 17.668 33.8397C18.3681 32.792 20.3786 32.5985 21.3613 31.7492C22.3439 30.8999 22.5665 29.1612 23.7792 28.5531C24.972 27.9551 26.8198 28.6511 28.1851 28.3345C29.5029 28.0305 30.6981 26.6184 32.1259 26.6184C33.5537 26.6184 34.7489 28.0305 36.0667 28.3345C37.4295 28.6511 39.2774 27.9551 40.4726 28.5531C41.6828 29.1587 41.9079 30.8974 42.8906 31.7492C43.8733 32.5985 45.8812 32.792 46.5838 33.8397C47.274 34.8724 46.4713 36.473 46.8339 37.6514C47.1864 38.7922 48.8168 39.8249 48.8168 41.0611Z" fill="#DFF6FD"/>
<path d="M37.693 9.76857C37.693 7.11019 35.2025 4.95435 32.1293 4.95435C29.0562 4.95435 26.5657 7.11019 26.5657 9.76857H15.4385V17.0728C15.4385 18.3568 16.6412 19.397 18.124 19.397H46.1297C47.6124 19.397 48.8152 18.3568 48.8152 17.0728V9.76857H37.688H37.693Z" fill="#DFF6FD"/>
<path d="M41.7106 62.029H48.2894C51.27 62.029 53.688 59.5993 53.688 56.6042V58.1772C53.688 60.6446 52.7128 63.009 50.9775 64.7527L44.4211 71.3409C42.6858 73.0847 40.3328 74.0646 37.8773 74.0646H36.312C39.2926 74.0646 41.7106 71.6349 41.7106 68.6398V62.029Z" fill="white"/>
<path d="M36.9198 62.0291L32.1289 59.622L27.3379 62.0291V47.5864H36.9198V62.0291Z" fill="#FE0364"/>
<path d="M27.3379 53.732C27.828 53.6893 28.3081 53.6717 28.7357 53.7848C29.8709 54.0888 30.8986 55.5009 32.1289 55.5009C33.3591 55.5009 34.3893 54.0888 35.522 53.7848C35.9471 53.6692 36.4297 53.6893 36.9198 53.732V47.5886H27.3379V53.732Z" fill="#E30256"/>
<path d="M46.5016 37.9602C46.5016 39.1965 45.0964 40.2317 44.7938 41.3699C44.4812 42.5508 45.1714 44.1489 44.5763 45.1816C43.9736 46.2293 42.2433 46.4228 41.3956 47.2721C40.5504 48.1214 40.3579 49.8601 39.3152 50.4682C38.2875 51.0662 36.6947 50.3702 35.5219 50.6868C34.3867 50.9908 33.359 52.4029 32.1288 52.4029C30.8985 52.4029 29.8683 50.9908 28.7356 50.6868C27.5603 50.3727 25.97 51.0662 24.9423 50.4682C23.8996 49.8626 23.7071 48.1239 22.8619 47.2721C22.0167 46.4228 20.2864 46.2293 19.6812 45.1816C19.0861 44.1489 19.7788 42.5483 19.4637 41.3699C19.1611 40.2292 17.7559 39.1965 17.7559 37.9602C17.7559 36.724 19.1611 35.6888 19.4637 34.5506C19.7788 33.3696 19.0861 31.7716 19.6812 30.7389C20.2839 29.6911 22.0142 29.4977 22.8619 28.6484C23.7071 27.7991 23.8996 26.0604 24.9423 25.4523C25.97 24.8543 27.5628 25.5503 28.7356 25.2337C29.8708 24.9297 30.8985 23.5176 32.1288 23.5176C33.359 23.5176 34.3892 24.9297 35.5219 25.2337C36.6972 25.5503 38.2875 24.8543 39.3152 25.4523C40.3579 26.0579 40.5504 27.7966 41.3956 28.6484C42.2408 29.4977 43.9711 29.6911 44.5763 30.7389C45.1714 31.7716 44.4787 33.3722 44.7938 34.5506C45.0964 35.6913 46.5016 36.724 46.5016 37.9602Z" fill="#FED402"/>
<path d="M31.3532 40.1365L29.6604 38.4354C28.7252 37.4957 27.2074 37.4957 26.2722 38.4354C25.337 39.3751 25.337 40.9003 26.2722 41.84L29.6604 45.2447C30.5956 46.1844 32.1134 46.1844 33.0486 45.2447L37.9846 40.2847C38.9197 39.345 38.9197 37.8198 37.9846 36.8801C37.0494 35.9404 35.5316 35.9404 34.5964 36.8801L31.3532 40.139V40.1365Z" fill="#FAC600"/>
<path d="M44.7931 41.37C45.0957 40.2293 46.501 39.1966 46.501 37.9604C46.501 36.7241 45.0957 35.6889 44.7931 34.5507C44.4806 33.3698 45.1707 31.7717 44.5756 30.739C43.973 29.6912 42.2426 29.4978 41.3949 28.6485C40.5473 27.7992 40.3572 26.0605 39.3145 25.4524C38.2868 24.8544 36.694 25.5504 35.5213 25.2338C35.2587 25.1635 35.0012 25.0328 34.7461 24.8745C34.8861 25.1283 35.0412 25.3595 35.2262 25.5454C36.0714 26.3947 37.8017 26.5881 38.4068 27.6359C39.002 28.6686 38.3093 30.2692 38.6244 31.4476C38.9269 32.5883 40.3322 33.621 40.3322 34.8572C40.3322 36.0935 38.9269 37.1287 38.6244 38.2669C38.3093 39.4478 39.002 41.0459 38.4068 42.0786C37.8042 43.1263 36.0739 43.3198 35.2262 44.1691C34.381 45.0184 34.1885 46.7571 33.1458 47.3652C32.1181 47.9632 30.5253 47.2672 29.3525 47.5838C28.2173 47.8878 27.1896 49.2999 25.9593 49.2999C25.0141 49.2999 24.1865 48.4657 23.3413 47.9431C23.8339 48.8351 24.129 49.9934 24.9416 50.4658C25.9693 51.0638 27.5622 50.3678 28.7349 50.6844C29.8701 50.9884 30.8978 52.4005 32.1281 52.4005C33.3583 52.4005 34.3885 50.9884 35.5213 50.6844C36.6965 50.3703 38.2868 51.0638 39.3145 50.4658C40.3572 49.8602 40.5498 48.1215 41.3949 47.2697C42.2401 46.4179 43.9705 46.2269 44.5756 45.1792C45.1707 44.1465 44.4781 42.5459 44.7931 41.3675V41.37Z" fill="#FAC600"/>
<path d="M31.3532 37.0356L29.6604 35.3346C28.7252 34.3949 27.2074 34.3949 26.2722 35.3346C25.337 36.2743 25.337 37.7995 26.2722 38.7392L29.6604 42.1438C30.5956 43.0836 32.1134 43.0836 33.0486 42.1438L37.9846 37.1839C38.9197 36.2442 38.9197 34.719 37.9846 33.7793C37.0494 32.8395 35.5316 32.8395 34.5964 33.7793L31.3532 37.0382V37.0356Z" fill="#05E39C"/>
<path d="M36.29 31.9099C35.3423 31.9099 34.4496 32.2818 33.777 32.9552L31.3515 35.3899L30.4763 34.5105C29.091 33.1185 26.8381 33.1185 25.4528 34.5105C24.7827 35.1839 24.4126 36.0809 24.4126 37.0357C24.4126 37.9905 24.7827 38.885 25.4528 39.5584L28.841 42.963C29.5111 43.6364 30.4038 44.0083 31.3515 44.0083C32.2992 44.0083 33.1919 43.6364 33.8645 42.963L38.8005 38.0031C39.4706 37.3297 39.8407 36.4327 39.8407 35.4779C39.8407 34.5231 39.4706 33.6286 38.8005 32.9552C38.1304 32.2818 37.2377 31.9099 36.2875 31.9099H36.29ZM37.1652 36.3598L32.2292 41.3198C31.9941 41.5559 31.6841 41.6841 31.354 41.6841C31.0239 41.6841 30.7114 41.5534 30.4788 41.3198L27.0906 37.9151C26.8556 37.6789 26.7281 37.3674 26.7281 37.0357C26.7281 36.704 26.8581 36.39 27.0906 36.1563C27.3257 35.9201 27.6357 35.7919 27.9658 35.7919C28.2959 35.7919 28.6084 35.9226 28.841 36.1563L30.5338 37.8573C30.7514 38.0759 31.0439 38.1991 31.3515 38.1991C31.6591 38.1991 31.9516 38.0759 32.1692 37.8573L35.4123 34.5984C35.6474 34.3623 35.9574 34.2341 36.2875 34.2341C36.6176 34.2341 36.9301 34.3648 37.1627 34.5984C37.3977 34.8346 37.5252 35.1462 37.5252 35.4779C37.5252 35.8095 37.3952 36.1236 37.1627 36.3573L37.1652 36.3598Z" fill="black"/>
<path d="M37.6925 6.66798C37.6925 4.00961 35.202 1.85376 32.1288 1.85376C29.0557 1.85376 26.5652 4.00961 26.5652 6.66798H15.438V13.9722C15.438 15.2562 16.6407 16.2964 18.1235 16.2964H46.1292C47.612 16.2964 48.8147 15.2562 48.8147 13.9722V6.66798H37.6875H37.6925Z" fill="#B2CAEC"/>
<path d="M41.6533 6.66804V7.77109C41.6533 10.7662 38.8477 13.1959 35.3845 13.1959H15.438V13.9698C15.438 15.2537 16.6407 16.294 18.1235 16.294H46.1292C47.612 16.294 48.8147 15.2537 48.8147 13.9698V6.66553H41.6508L41.6533 6.66804Z" fill="#82AEE3"/>
<path d="M49.9999 13.8892V53.506C49.9999 56.5011 47.1943 58.9308 43.7311 58.9308H41.7032C38.6026 58.9308 36.0921 61.1042 36.0921 63.7877V65.5415C36.0921 68.5366 33.2865 70.9663 29.8233 70.9663H7.09375V74.0669H38.8026C41.6532 74.0669 41.9708 73.087 43.9862 71.3432L51.6002 64.7551C53.6156 63.0113 57.1638 60.6469 57.1638 58.1795V13.8892H49.9999Z" fill="#DFF6FD"/>
<path d="M43.2554 10.321H21.0034C20.2608 10.321 19.6606 10.8412 19.6606 11.4844C19.6606 12.1276 20.2608 12.6478 21.0034 12.6478H43.2554C43.998 12.6478 44.5982 12.1276 44.5982 11.4844C44.5982 10.8412 43.998 10.321 43.2554 10.321Z" fill="black"/>
<path d="M32.1284 7.83135C32.87 7.83135 33.4712 7.31049 33.4712 6.66799C33.4712 6.02549 32.87 5.50464 32.1284 5.50464C31.3868 5.50464 30.7856 6.02549 30.7856 6.66799C30.7856 7.31049 31.3868 7.83135 32.1284 7.83135Z" fill="black"/>
<path d="M58.2487 7.9142H50.1621V6.67045C50.1621 6.02972 49.5619 5.50709 48.8193 5.50709H38.9048C38.2772 2.7658 35.4791 0.692871 32.1284 0.692871C28.7778 0.692871 25.9797 2.7658 25.3521 5.50709H15.4376C14.6949 5.50709 14.0948 6.02721 14.0948 6.67045V7.9142H13.3872C12.6445 7.9142 12.0444 8.43432 12.0444 9.07756C12.0444 9.72079 12.6445 10.2409 13.3872 10.2409H14.0948V12.7309H7.0934C6.35075 12.7309 5.75063 13.2511 5.75063 13.8943V74.0696C5.75063 74.7103 6.35075 75.2329 7.0934 75.2329H38.8023C42.0304 75.2329 45.066 74.1449 47.3515 72.17L54.9655 65.5819C57.2485 63.6069 58.5062 60.9787 58.5062 58.1846V37.6362C58.5062 36.9955 57.9061 36.4729 57.1635 36.4729C56.4208 36.4729 55.8207 36.993 55.8207 37.6362V56.6117C55.8207 58.961 53.6103 60.8732 50.8947 60.8732H43.2557C42.513 60.8732 41.9129 61.3933 41.9129 62.0365V68.6473C41.9129 70.9966 39.7025 72.9087 36.9869 72.9087H8.43617V15.0526H14.2923C14.82 16.4471 16.3378 17.4597 18.1231 17.4597H46.1288C47.9141 17.4597 49.4344 16.4497 49.9595 15.0526H55.8157V32.2064C55.8157 32.8472 56.4158 33.3698 57.1585 33.3698C57.9011 33.3698 58.5012 32.8497 58.5012 32.2064V13.8893C58.5012 13.2485 57.9011 12.7259 57.1585 12.7259H50.1571V10.2359H58.2437C59.9715 10.2359 61.3768 11.452 61.3768 12.947V75.0017C61.3768 76.4968 59.9715 77.7129 58.2437 77.7129H6.00818C4.28034 77.7129 2.87505 76.4968 2.87505 75.0017V12.9495C2.87505 11.4545 4.28034 10.2384 6.00818 10.2384H7.11841C7.86106 10.2384 8.46118 9.71828 8.46118 9.07505C8.46118 8.43181 7.86106 7.91169 7.11841 7.91169H6.00818C2.79754 7.9142 0.187012 10.1731 0.187012 12.9495V75.0043C0.187012 77.7807 2.79754 80.0421 6.00818 80.0421H58.2487C61.4593 80.0421 64.0699 77.7832 64.0699 75.0043V12.9495C64.0699 10.1731 61.4593 7.91169 58.2487 7.91169V7.9142ZM44.5984 68.6423V63.1948H50.8947C52.1725 63.1948 53.3752 62.921 54.4329 62.4385C54.0504 62.9762 53.5928 63.4763 53.0652 63.9336L45.4511 70.5217C44.9235 70.979 44.3434 71.3735 43.7233 71.7052C44.2809 70.7906 44.5984 69.7478 44.5984 68.6423ZM47.4765 13.9747C47.4765 14.6154 46.8739 15.1381 46.1338 15.1381H18.1281C17.388 15.1381 16.7854 14.6179 16.7854 13.9747V7.8338H26.5698C27.3125 7.8338 27.9126 7.31368 27.9126 6.67045C27.9126 4.65782 29.8055 3.01958 32.1334 3.01958C34.4614 3.01958 36.3543 4.65782 36.3543 6.67045C36.3543 7.31117 36.9544 7.8338 37.6971 7.8338H47.4815V13.9747H47.4765Z" fill="black"/>
<path d="M46.5414 40.6039C47.039 39.9054 47.6567 39.036 47.6567 37.9606C47.6567 36.8852 47.0365 36.0158 46.5414 35.3173C46.2689 34.9354 45.9888 34.5384 45.9113 34.252C45.8263 33.9354 45.8738 33.4328 45.9188 32.9479C46.0013 32.0634 46.0963 31.0584 45.5787 30.1589C45.0536 29.2468 44.1334 28.8272 43.3233 28.4553C42.8882 28.2568 42.4381 28.0508 42.2156 27.8271C41.993 27.6035 41.788 27.1512 41.5904 26.714C41.2204 25.8999 40.8028 24.9753 39.8951 24.4476C38.9974 23.9275 37.9997 24.0205 37.1195 24.1059C36.6369 24.1511 36.1368 24.1989 35.8218 24.1134C35.5342 24.0355 35.1416 23.7541 34.7616 23.4803C34.0664 22.9802 33.2012 22.3596 32.131 22.3596C31.0608 22.3596 30.1956 22.9828 29.5005 23.4803C29.1204 23.7541 28.7253 24.0355 28.4403 24.1134C28.1252 24.1989 27.6251 24.1511 27.1425 24.1059C26.2624 24.023 25.2622 23.9275 24.367 24.4476C23.4593 24.9753 23.0417 25.8999 22.6716 26.714C22.4741 27.1512 22.269 27.6035 22.0465 27.8271C21.824 28.0508 21.3739 28.2568 20.9388 28.4553C20.1286 28.8272 19.2084 29.2468 18.6833 30.1589C18.1657 31.0584 18.2582 32.0634 18.3433 32.9479C18.3883 33.4328 18.4358 33.9354 18.3533 34.252C18.2757 34.5409 17.9957 34.9354 17.7231 35.3198C17.2255 36.0183 16.6079 36.8877 16.6079 37.9631C16.6079 39.0385 17.228 39.9079 17.7231 40.6064C17.9957 40.9883 18.2757 41.3853 18.3533 41.6718C18.4383 41.9884 18.3908 42.4909 18.3458 42.9758C18.2632 43.8603 18.1682 44.8654 18.6858 45.7649C19.2109 46.677 20.1311 47.0966 20.9413 47.4684C21.3764 47.6669 21.8265 47.873 22.049 48.0966C22.2716 48.3202 22.4766 48.7725 22.6741 49.2097C23.0442 50.0238 23.4618 50.9485 24.3695 51.4761C24.9521 51.8153 25.5797 51.8932 26.1898 51.8832V53.5063C26.1898 54.147 26.7074 54.6697 27.3476 54.6697C27.9877 54.6697 28.5053 54.1496 28.5053 53.5063V51.8279C28.7854 51.9234 29.1529 52.1872 29.508 52.4435C30.2031 52.9435 31.0683 53.5641 32.1385 53.5641C33.2087 53.5641 34.0739 52.941 34.7691 52.4435C35.1241 52.1872 35.4917 51.9259 35.7718 51.8279V60.1497L32.6561 58.5844C32.3311 58.421 31.946 58.421 31.6209 58.5844L28.5053 60.1497V58.9311C28.5053 58.2904 27.9877 57.7678 27.3476 57.7678C26.7074 57.7678 26.1898 58.2879 26.1898 58.9311V62.0317C26.1898 62.4337 26.3974 62.8081 26.7374 63.0217C27.0775 63.2328 27.5051 63.2529 27.8627 63.0719L32.136 60.9236L36.4094 63.0719C36.767 63.2529 37.1946 63.2328 37.5346 63.0217C37.8747 62.8106 38.0822 62.4362 38.0822 62.0317V51.8857C38.6924 51.8957 39.3175 51.8178 39.9026 51.4786C40.8103 50.951 41.2279 50.0263 41.5979 49.2122C41.7955 48.775 42.0005 48.3227 42.2231 48.0991C42.4456 47.8755 42.8957 47.6695 43.3308 47.471C44.1409 47.0991 45.0611 46.6795 45.5862 45.7674C46.1038 44.8679 46.0113 43.8628 45.9263 42.9784C45.8813 42.4934 45.8338 41.9909 45.9163 41.6743C45.9938 41.3853 46.2739 40.9909 46.5464 40.6089L46.5414 40.6039ZM44.6586 39.2521C44.2835 39.7773 43.8609 40.3727 43.6759 41.0713C43.4833 41.7899 43.5533 42.5361 43.6158 43.1944C43.6659 43.7321 43.7234 44.3427 43.5758 44.6015C43.4208 44.8704 42.8607 45.1267 42.3656 45.3528C41.7705 45.6242 41.0978 45.9332 40.5802 46.4533C40.0626 46.9735 39.7576 47.6494 39.485 48.2474C39.26 48.7449 39.0049 49.3102 38.7374 49.4635C38.4798 49.6117 37.8747 49.5539 37.3371 49.5037C36.6294 49.4358 35.9218 49.3755 35.2242 49.564C34.5315 49.7499 33.9389 50.1771 33.4138 50.5515C32.9437 50.8907 32.4561 51.2399 32.1285 51.2399C31.801 51.2399 31.3134 50.8907 30.8433 50.5515C30.3207 50.1746 29.7281 49.7499 29.0329 49.564C28.3353 49.3755 27.6251 49.4384 26.92 49.5037C26.3849 49.5539 25.7773 49.6117 25.5197 49.4635C25.2521 49.3077 24.9971 48.7449 24.7721 48.2474C24.502 47.6494 24.1944 46.9735 23.6768 46.4533C23.1592 45.9332 22.4866 45.6242 21.8915 45.3528C21.3964 45.1267 20.8338 44.8704 20.6812 44.6015C20.5337 44.3427 20.5912 43.7321 20.6412 43.1944C20.7037 42.5361 20.7737 41.7899 20.5812 41.0713C20.3962 40.3753 19.9711 39.7798 19.5985 39.2521C19.2609 38.7797 18.9134 38.2898 18.9134 37.9606C18.9134 37.6315 19.2609 37.1415 19.5985 36.6691C19.9736 36.144 20.3962 35.5485 20.5812 34.85C20.7737 34.1288 20.7037 33.3851 20.6412 32.7268C20.5912 32.1891 20.5337 31.5785 20.6812 31.3197C20.8363 31.0508 21.3964 30.7946 21.8915 30.5684C22.4866 30.2971 23.1592 29.988 23.6768 29.4679C24.1944 28.9478 24.4995 28.2719 24.7721 27.6739C24.9971 27.1764 25.2521 26.611 25.5197 26.4577C25.7773 26.3095 26.3824 26.3673 26.92 26.4175C27.5751 26.4803 28.3178 26.5507 29.0329 26.3572C29.7255 26.1713 30.3182 25.7441 30.8433 25.3698C31.3134 25.0306 31.801 24.6813 32.1285 24.6813C32.4561 24.6813 32.9437 25.0306 33.4138 25.3698C33.9364 25.7467 34.529 26.1713 35.2242 26.3572C35.9418 26.5507 36.682 26.4803 37.3371 26.4175C37.8722 26.3673 38.4798 26.3095 38.7374 26.4577C39.0049 26.6135 39.26 27.1764 39.485 27.6739C39.7551 28.2719 40.0626 28.9478 40.5802 29.4679C41.0978 29.988 41.7705 30.2971 42.3656 30.5684C42.8607 30.7946 43.4233 31.0508 43.5758 31.3197C43.7234 31.5785 43.6659 32.1891 43.6158 32.7268C43.5533 33.3851 43.4833 34.1313 43.6759 34.85C43.8609 35.546 44.286 36.1415 44.6586 36.6691C44.9961 37.1415 45.3437 37.6315 45.3437 37.9606C45.3437 38.2898 44.9961 38.7797 44.6586 39.2521Z" fill="black"/>
</g>
<defs>
<clipPath id="clip0_113_2933">
<rect width="63.8829" height="79.3492" fill="white" transform="translate(0.1875 0.692871)"/>
</clipPath>
</defs>
</svg>
