<svg xmlns="http://www.w3.org/2000/svg" width="80" height="78" fill="none" viewBox="0 0 80 78">
  <g clip-path="url(#a)">
    <path fill="#0067C5" d="M67.401 76.201h-54.89c-5.93 0-10.74-4.987-10.74-11.14 0-6.152 4.81-11.14 10.74-11.14h54.893c5.93 0 10.74 4.988 10.74 11.14 0 6.153-4.81 11.14-10.74 11.14h-.002Z"/>
    <path fill="#B2CAEC" d="M67.402 71.251h-54.89c-3.296 0-5.966-2.77-5.966-6.19 0-3.419 2.672-6.19 5.966-6.19h54.892c3.296 0 5.966 2.771 5.966 6.19 0 3.42-2.672 6.19-5.968 6.19Z"/>
    <path fill="#82AEE3" d="M67.401 58.874h-.927a6.33 6.33 0 0 1 .748 3.001c0 3.42-2.671 6.19-5.965 6.19H7.292c1.019 1.902 2.972 3.189 5.22 3.189h54.892c3.296 0 5.965-2.771 5.965-6.19 0-3.419-2.672-6.19-5.965-6.19H67.4Z"/>
    <path fill="#F2FBFF" d="M39.956 31.642c10.162 0 18.4-4.988 18.4-11.14 0-6.153-8.238-11.14-18.4-11.14-10.162 0-18.4 4.987-18.4 11.14 0 6.152 8.238 11.14 18.4 11.14Z"/>
    <path fill="#DFF6FD" d="M39.956 29.877c2.903 0 5.257-2.216 5.257-4.95s-2.354-4.95-5.257-4.95c-2.903 0-5.257 2.216-5.257 4.95s2.354 4.95 5.257 4.95Z"/>
    <path fill="#DFF6FD" d="M44.103 9.955c4.414 2.91 7.483 6.56 7.483 7.36 0 1.368-9.034 11.14-18.4 11.14-1.4 0-2.791-.218-4.146-.594 3.16 2.08 7.01 3.78 10.917 3.78 9.365 0 18.4-9.772 18.4-11.14 0-1.165-6.537-8.409-14.254-10.546Z"/>
    <path fill="#D3E1F5" d="M12.512 71.251c3.294 0 5.965-2.771 5.965-6.19 0-3.418-2.67-6.19-5.965-6.19s-5.966 2.772-5.966 6.19c0 3.419 2.671 6.19 5.966 6.19Zm54.889 0c3.295 0 5.966-2.771 5.966-6.19 0-3.418-2.67-6.19-5.966-6.19-3.294 0-5.965 2.772-5.965 6.19 0 3.419 2.671 6.19 5.965 6.19Zm-27.445 0c3.295 0 5.965-2.771 5.965-6.19 0-3.418-2.67-6.19-5.965-6.19-3.294 0-5.965 2.772-5.965 6.19 0 3.419 2.67 6.19 5.965 6.19Z"/>
    <path fill="#528FD8" d="M26.234 67.538c1.318 0 2.386-1.108 2.386-2.476 0-1.368-1.068-2.477-2.386-2.477s-2.386 1.11-2.386 2.477c0 1.368 1.068 2.476 2.386 2.476Zm27.445 0c1.318 0 2.386-1.108 2.386-2.476 0-1.368-1.068-2.477-2.386-2.477s-2.386 1.11-2.386 2.477c0 1.368 1.068 2.476 2.386 2.476Z"/>
    <path fill="#FE9738" d="M20.945 53.922h-9.709c-1.272 0-2.304-1.072-2.304-2.39V41.46c0-1.32 1.032-2.39 2.304-2.39h9.711c1.273 0 2.305 1.072 2.305 2.39v10.072c0 1.32-1.032 2.39-2.305 2.39h-.002Z"/>
    <path fill="#FE860A" d="M20.945 39.068h-3.072v6.78c0 2.697-2.108 4.884-4.708 4.884H8.932v.797c0 1.321 1.032 2.39 2.304 2.39h9.711c1.273 0 2.305-1.071 2.305-2.39V41.458c0-1.321-1.032-2.39-2.305-2.39h-.002Z"/>
    <path fill="#C8EFFE" d="M13.704 39.068h4.772v4.95h-4.772v-4.95Z"/>
    <path fill="#99E6FC" d="M17.873 39.068h.604v4.95h-.604v-4.95Z"/>
    <path fill="#FE9738" d="M44.892 53.922h-9.71c-1.273 0-2.305-1.072-2.305-2.39V41.46c0-1.32 1.032-2.39 2.304-2.39h9.711c1.273 0 2.304 1.072 2.304 2.39v10.072c0 1.32-1.031 2.39-2.304 2.39Z"/>
    <path fill="#FE860A" d="M44.893 39.068H41.82v6.78c0 2.697-2.108 4.884-4.708 4.884H32.88v.797c0 1.321 1.032 2.39 2.304 2.39h9.711c1.273 0 2.304-1.071 2.304-2.39V41.458c0-1.321-1.031-2.39-2.304-2.39h-.002Z"/>
    <path fill="#C8EFFE" d="M37.652 39.068h4.772v4.95h-4.772v-4.95Z"/>
    <path fill="#99E6FC" d="M41.82 39.068h.604v4.95h-.604v-4.95Z"/>
    <path fill="#FE9738" d="M68.84 53.922h-9.71c-1.273 0-2.304-1.072-2.304-2.39V41.46c0-1.32 1.031-2.39 2.304-2.39h9.71c1.273 0 2.305 1.072 2.305 2.39v10.072c0 1.32-1.032 2.39-2.304 2.39Z"/>
    <path fill="#FE860A" d="M68.84 39.068h-3.07v6.78c0 2.697-2.108 4.884-4.708 4.884h-4.233v.797c0 1.321 1.032 2.39 2.304 2.39h9.711c1.273 0 2.304-1.071 2.304-2.39V41.458c0-1.321-1.031-2.39-2.304-2.39h-.002Z"/>
    <path fill="#C8EFFE" d="M61.598 39.068h4.772v4.95h-4.772v-4.95Z"/>
    <path fill="#99E6FC" d="M65.766 39.068h.604v4.95h-.604v-4.95Z"/>
    <path fill="#0067C5" d="M39.956 26.691c2.903 0 5.257-2.216 5.257-4.95s-2.354-4.95-5.257-4.95c-2.903 0-5.257 2.216-5.257 4.95s2.354 4.95 5.257 4.95Z"/>
    <path fill="#0055A3" d="M39.957 16.788c-.19 0-.376.01-.56.027.47.743.739 1.609.739 2.534 0 2.555-2.058 4.66-4.698 4.923.917 1.447 2.597 2.42 4.519 2.42 2.903 0 5.257-2.217 5.257-4.95 0-2.735-2.354-4.951-5.257-4.951v-.003Z"/>
    <path fill="#000" d="M71.692 53.558a3.652 3.652 0 0 0 .606-2.026V41.46c0-1.977-1.55-3.588-3.457-3.588H59.13c-1.907 0-3.458 1.608-3.458 3.588v2.194c0 .66.517 1.195 1.154 1.195.636 0 1.153-.535 1.153-1.195V41.46c0-.659.517-1.195 1.153-1.195h1.315v3.755c0 .66.517 1.195 1.153 1.195h4.773c.636 0 1.153-.535 1.153-1.195v-3.755h1.315c.636 0 1.153.536 1.153 1.195v10.07c0 .659-.517 1.196-1.153 1.196H59.13c-.637 0-1.154-.537-1.154-1.195v-2.298c0-.661-.517-1.195-1.153-1.195s-1.153.534-1.153 1.194v2.299c0 .418.07.821.196 1.195H48.15c.127-.374.196-.777.196-1.195V41.46c0-1.977-1.55-3.588-3.457-3.588h-9.711c-1.907 0-3.458 1.608-3.458 3.588v10.07c0 .419.07.822.197 1.196h-7.718c.127-.374.197-.777.197-1.195V41.46c0-1.977-1.551-3.588-3.458-3.588H11.23c-1.907 0-3.458 1.608-3.458 3.588v10.07c0 .73.212 1.409.572 1.975C3.832 55.26.611 59.777.611 65.062c0 6.8 5.334 12.335 11.893 12.335h54.893c6.556 0 11.893-5.535 11.893-12.335 0-5.235-3.16-9.718-7.603-11.506l.005.002Zm-6.473-10.732h-2.468v-2.56h2.468v2.56Zm-23.948-2.56v2.56h-2.468v-2.56h2.468Zm-7.24 11.266V41.46c0-.659.517-1.195 1.153-1.195H36.5v3.755c0 .66.517 1.195 1.153 1.195h4.773c.636 0 1.153-.535 1.153-1.195v-3.755h1.315c.636 0 1.153.536 1.153 1.195v10.07c0 .659-.517 1.196-1.153 1.196h-9.711c-.637 0-1.154-.537-1.154-1.195h.003ZM17.326 40.266v2.56h-2.468v-2.56h2.468Zm-6.09 12.463c-.636 0-1.153-.537-1.153-1.195V41.463c0-.658.517-1.195 1.153-1.195h1.315v3.755c0 .661.517 1.195 1.153 1.195h4.773c.636 0 1.153-.534 1.153-1.195v-3.755h1.315c.636 0 1.153.537 1.153 1.195v10.071c0 .658-.517 1.195-1.153 1.195h-9.709Zm56.168 22.28H12.511c-5.286 0-9.586-4.46-9.586-9.945 0-5.484 4.3-9.945 9.586-9.945h54.893c5.287 0 9.587 4.46 9.587 9.945s-4.3 9.945-9.587 9.945Z"/>
    <path fill="#000" d="M67.402 57.677h-54.89c-3.925 0-7.119 3.313-7.119 7.385 0 4.072 3.194 7.385 7.119 7.385h6.88c.636 0 1.153-.535 1.153-1.195s-.517-1.195-1.154-1.195h-1.64c2.505-2.826 2.508-7.16 0-9.988h16.966c-2.505 2.826-2.508 7.16 0 9.988H24.77c-.636 0-1.153.534-1.153 1.195 0 .66.517 1.195 1.153 1.195h42.632c3.925 0 7.118-3.313 7.118-7.385 0-4.072-3.193-7.385-7.118-7.385Zm-5.24 2.39c-2.505 2.825-2.508 7.16 0 9.987H45.196c2.506-2.825 2.508-7.16 0-9.987h16.966ZM17.324 65.06c0 2.754-2.16 4.993-4.815 4.993-2.654 0-4.814-2.24-4.814-4.993s2.16-4.992 4.814-4.992c2.655 0 4.815 2.239 4.815 4.992Zm17.818 0c0-2.753 2.16-4.992 4.815-4.992 2.654 0 4.814 2.239 4.814 4.992 0 2.754-2.16 4.993-4.814 4.993-2.655 0-4.815-2.24-4.815-4.993Zm32.26 4.993c-2.655 0-4.815-2.24-4.815-4.993s2.16-4.992 4.815-4.992c2.654 0 4.814 2.239 4.814 4.992 0 2.754-2.16 4.993-4.814 4.993Z"/>
    <path fill="#000" d="M26.233 68.733c1.952 0 3.54-1.648 3.54-3.671 0-2.024-1.588-3.672-3.54-3.672-1.95 0-3.539 1.648-3.539 3.672 0 2.023 1.588 3.671 3.54 3.671Zm0-4.95c.681 0 1.236.574 1.236 1.279s-.555 1.279-1.236 1.279c-.68 0-1.235-.574-1.235-1.28 0-.704.554-1.278 1.235-1.278Zm27.445 4.95c1.952 0 3.54-1.648 3.54-3.671 0-2.024-1.588-3.672-3.54-3.672-1.95 0-3.539 1.648-3.539 3.672 0 2.023 1.588 3.671 3.54 3.671Zm0-4.95c.682 0 1.236.574 1.236 1.279s-.554 1.279-1.236 1.279c-.68 0-1.235-.574-1.235-1.28 0-.704.555-1.278 1.236-1.278Zm-41.198 3 1.688-1.751c.45-.468.45-1.225 0-1.69a1.123 1.123 0 0 0-1.63 0l-1.688 1.752a1.227 1.227 0 0 0 0 1.69c.45.467 1.181.467 1.63 0Zm56.114-2.916h-2.386c-.636 0-1.153.534-1.153 1.195 0 .66.517 1.195 1.153 1.195h2.386c.637 0 1.154-.535 1.154-1.195s-.517-1.195-1.154-1.195ZM39.956 62.63c-.636 0-1.153.534-1.153 1.194v2.477c0 .66.517 1.195 1.153 1.195.637 0 1.153-.534 1.153-1.195v-2.477c0-.66-.516-1.194-1.153-1.194Zm6.527-40.889c0-3.39-2.927-6.148-6.527-6.148-3.599 0-6.527 2.759-6.527 6.148 0 3.39 2.928 6.148 6.527 6.148 3.6 0 6.527-2.759 6.527-6.148Zm-10.513 0c0-2.07 1.79-3.756 3.986-3.756 2.198 0 3.987 1.685 3.987 3.756 0 2.07-1.79 3.755-3.987 3.755s-3.986-1.684-3.986-3.755Z"/>
    <path fill="#000" d="M26.445 27.515c3.186 2.43 8.115 5.324 13.511 5.324 5.396 0 10.325-2.894 13.512-5.324 2.557-1.95 6.159-5.413 6.159-7.014 0-1.6-3.602-5.064-6.16-7.013-3.186-2.427-8.115-5.324-13.51-5.324-5.397 0-9.913 2.68-12.985 4.928-.554.406-.654 1.155-.224 1.677.43.522 1.228.616 1.782.21 2.757-2.018 6.98-4.425 11.426-4.425 8.207 0 16.104 8.144 17.073 9.945-.969 1.799-8.866 9.945-17.073 9.945s-16.084-8.124-17.07-9.938c.169-.294.604-.922 1.491-1.875a1.148 1.148 0 0 0-.114-1.687 1.324 1.324 0 0 0-1.792.109c-2.185 2.34-2.185 3.144-2.185 3.446 0 1.598 3.601 5.064 6.159 7.014v.002ZM39.954 5.606c.706 0 1.278-.542 1.27-1.207l-.027-2.477C41.19 1.267 40.623.74 39.927.74c-.696 0-1.278.542-1.27 1.207l.027 2.476c.008.656.574 1.183 1.27 1.183Zm-8.985.594c.358.569 1.136.757 1.737.42.604-.336.803-1.069.447-1.638l-1.337-2.13c-.355-.569-1.136-.757-1.737-.42-.604.336-.803 1.069-.448 1.638L30.97 6.2Zm16.23.432c.602.337 1.382.151 1.74-.418l1.342-2.13c.358-.566.16-1.301-.445-1.637-.601-.337-1.382-.149-1.74.418l-1.342 2.13c-.358.566-.159 1.301.445 1.637Z"/>
  </g>
  <defs>
    <clipPath id="a">
      <path fill="#fff" d="M.618.74h78.677v76.659H.618z"/>
    </clipPath>
  </defs>
</svg>
