<svg width="44" height="44" viewBox="0 0 44 44" fill="none" xmlns="http://www.w3.org/2000/svg">
<g clip-path="url(#clip0_70_3605)">
<path d="M22.0005 44.0009C34.151 44.0009 44.0009 34.151 44.0009 22.0005C44.0009 9.84994 34.151 0 22.0005 0C9.84994 0 0 9.84994 0 22.0005C0 34.151 9.84994 44.0009 22.0005 44.0009Z" fill="#9BDDB6"/>
<path d="M15.1157 22.0004H15.3042V23.5508H15.1157V22.0004Z" fill="#2A9B58"/>
<path d="M22.5807 22.0004H22.7692V23.5508H22.5807V22.0004Z" fill="#2A9B58"/>
<path d="M30.0466 22.0004H30.2351V23.5508H30.0466V22.0004Z" fill="#2A9B58"/>
<path d="M31.894 26.5375C32.0126 26.3573 32.0825 26.1384 32.0825 25.903V22.7489C32.0825 22.1292 31.5988 21.6252 31.0048 21.6252H27.9776C27.3835 21.6252 26.8998 22.1292 26.8998 22.7489V23.4359C26.8998 23.6428 27.0608 23.8101 27.2594 23.8101C27.458 23.8101 27.6189 23.6428 27.6189 23.4359V22.7489C27.6189 22.542 27.7799 22.3747 27.9785 22.3747H28.3886V23.5508C28.3886 23.7577 28.5495 23.9251 28.7482 23.9251H30.236C30.4346 23.9251 30.5956 23.7577 30.5956 23.5508V22.3747H31.0057C31.2034 22.3747 31.3652 22.543 31.3652 22.7489V25.904C31.3652 26.1109 31.2043 26.2782 31.0057 26.2782H27.9785C27.7808 26.2782 27.6189 26.1099 27.6189 25.904V25.1839C27.6189 24.977 27.458 24.8097 27.2594 24.8097C27.0608 24.8097 26.8998 24.977 26.8998 25.1839V25.904C26.8998 26.0355 26.9219 26.1614 26.9615 26.2782H24.5559C24.5954 26.1614 24.6175 26.0355 24.6175 25.904V22.7489C24.6175 22.1292 24.1338 21.6252 23.5398 21.6252H20.5126C19.9185 21.6252 19.4349 22.1292 19.4349 22.7489V25.904C19.4349 26.0355 19.4569 26.1614 19.4965 26.2782H17.09C17.1295 26.1614 17.1516 26.0355 17.1516 25.904V22.7489C17.1516 22.1292 16.6679 21.6252 16.0739 21.6252H13.0467C12.4526 21.6252 11.969 22.1292 11.969 22.7489V25.904C11.969 26.132 12.0342 26.3444 12.1473 26.5219C10.7404 27.0709 9.73718 28.4861 9.73718 30.1413C9.73718 32.2719 11.4007 34.0053 13.4448 34.0053H30.5569C32.6011 34.0053 34.2646 32.2719 34.2646 30.1413C34.2646 28.5017 33.2797 27.0975 31.8949 26.5375H31.894ZM29.8765 23.1756H29.1068V22.3738H29.8765V23.1756ZM22.4106 22.3738V23.1756H21.6409V22.3738H22.4106ZM20.153 25.903V22.748C20.153 22.5411 20.314 22.3738 20.5126 22.3738H20.9227V23.5499C20.9227 23.7568 21.0836 23.9241 21.2823 23.9241H22.7701C22.9687 23.9241 23.1296 23.7568 23.1296 23.5499V22.3738H23.5398C23.7375 22.3738 23.8993 22.542 23.8993 22.748V25.903C23.8993 26.1099 23.7384 26.2773 23.5398 26.2773H20.5126C20.3149 26.2773 20.153 26.109 20.153 25.903ZM14.9446 22.3738V23.1756H14.175V22.3738H14.9446ZM13.0467 26.2773C12.849 26.2773 12.6871 26.109 12.6871 25.903V22.748C12.6871 22.5411 12.8481 22.3738 13.0467 22.3738H13.4568V23.5499C13.4568 23.7568 13.6177 23.9241 13.8163 23.9241H15.3042C15.5028 23.9241 15.6637 23.7568 15.6637 23.5499V22.3738H16.0739C16.2716 22.3738 16.4334 22.542 16.4334 22.748V25.903C16.4334 26.1099 16.2725 26.2773 16.0739 26.2773H13.0467ZM30.5569 33.2558H13.4448C11.797 33.2558 10.4563 31.8581 10.4563 30.1413C10.4563 28.4245 11.797 27.0267 13.4448 27.0267H30.5569C32.2048 27.0267 33.5455 28.4235 33.5455 30.1413C33.5455 31.859 32.2048 33.2558 30.5569 33.2558Z" fill="#2A9B58"/>
<path d="M30.556 27.8286H13.4439C12.2199 27.8286 11.225 28.8659 11.225 30.1413C11.225 31.4167 12.2209 32.454 13.4439 32.454H15.5892C15.7878 32.454 15.9488 32.2866 15.9488 32.0797C15.9488 31.8728 15.7878 31.7055 15.5892 31.7055H15.0779C15.8586 30.8209 15.8596 29.4636 15.0779 28.5771H20.3672C19.5865 29.4617 19.5856 30.819 20.3672 31.7055H17.2665C17.0679 31.7055 16.9069 31.8728 16.9069 32.0797C16.9069 32.2866 17.0679 32.454 17.2665 32.454H30.5569C31.7808 32.454 32.7758 31.4167 32.7758 30.1413C32.7758 28.8659 31.7799 27.8286 30.5569 27.8286H30.556ZM28.9228 28.5771C28.1421 29.4617 28.1412 30.819 28.9228 31.7055H23.6335C24.4142 30.8209 24.4151 29.4636 23.6335 28.5771H28.9228ZM14.9446 30.1413C14.9446 31.0039 14.2715 31.7055 13.4439 31.7055C12.6163 31.7055 11.9432 31.0039 11.9432 30.1413C11.9432 29.2788 12.6163 28.5771 13.4439 28.5771C14.2715 28.5771 14.9446 29.2788 14.9446 30.1413ZM20.4997 30.1413C20.4997 29.2788 21.1728 28.5771 22.0004 28.5771C22.828 28.5771 23.5011 29.2788 23.5011 30.1413C23.5011 31.0039 22.828 31.7055 22.0004 31.7055C21.1728 31.7055 20.4997 31.0039 20.4997 30.1413ZM30.5569 31.7055C29.7293 31.7055 29.0562 31.0039 29.0562 30.1413C29.0562 29.2788 29.7293 28.5771 30.5569 28.5771C31.3845 28.5771 32.0576 29.2788 32.0576 30.1413C32.0576 31.0039 31.3845 31.7055 30.5569 31.7055Z" fill="#2A9B58"/>
<path d="M17.7218 31.2917C18.3305 31.2917 18.8252 30.7758 18.8252 30.1422C18.8252 29.5087 18.3305 28.9928 17.7218 28.9928C17.113 28.9928 16.6183 29.5087 16.6183 30.1422C16.6183 30.7758 17.113 31.2917 17.7218 31.2917ZM17.7218 29.7413C17.9342 29.7413 18.1061 29.9216 18.1061 30.1422C18.1061 30.3629 17.9333 30.5432 17.7218 30.5432C17.5103 30.5432 17.3374 30.3629 17.3374 30.1422C17.3374 29.9216 17.5103 29.7413 17.7218 29.7413Z" fill="#2A9B58"/>
<path d="M26.2783 31.2917C26.887 31.2917 27.3817 30.7758 27.3817 30.1422C27.3817 29.5087 26.887 28.9928 26.2783 28.9928C25.6695 28.9928 25.1748 29.5087 25.1748 30.1422C25.1748 30.7758 25.6695 31.2917 26.2783 31.2917ZM26.2783 29.7413C26.4907 29.7413 26.6627 29.9216 26.6627 30.1422C26.6627 30.3629 26.4898 30.5432 26.2783 30.5432C26.0668 30.5432 25.8939 30.3629 25.8939 30.1422C25.8939 29.9216 26.0668 29.7413 26.2783 29.7413Z" fill="#2A9B58"/>
<path d="M13.4347 30.6802L13.9607 30.1321C14.1014 29.9859 14.1014 29.7487 13.9607 29.6025C13.82 29.4562 13.5929 29.4562 13.4522 29.6025L12.9262 30.1505C12.7855 30.2967 12.7855 30.534 12.9262 30.6802C13.0669 30.8264 13.294 30.8264 13.4347 30.6802Z" fill="#2A9B58"/>
<path d="M30.9284 29.767H30.1845C29.9859 29.767 29.825 29.9344 29.825 30.1413C29.825 30.3482 29.9859 30.5156 30.1845 30.5156H30.9284C31.127 30.5156 31.288 30.3482 31.288 30.1413C31.288 29.9344 31.127 29.767 30.9284 29.767Z" fill="#2A9B58"/>
<path d="M22.0004 29.3799C21.8018 29.3799 21.6409 29.5473 21.6409 29.7542V30.5294C21.6409 30.7363 21.8018 30.9037 22.0004 30.9037C22.199 30.9037 22.36 30.7363 22.36 30.5294V29.7542C22.36 29.5473 22.199 29.3799 22.0004 29.3799Z" fill="#2A9B58"/>
<path d="M24.0344 16.5723C24.0344 15.5111 23.1213 14.6467 21.9995 14.6467C20.8776 14.6467 19.9645 15.5102 19.9645 16.5723C19.9645 17.6344 20.8776 18.4978 21.9995 18.4978C23.1213 18.4978 24.0344 17.6344 24.0344 16.5723ZM20.7571 16.5723C20.7571 15.924 21.3144 15.3962 22.0004 15.3962C22.6864 15.3962 23.2436 15.924 23.2436 16.5723C23.2436 17.2206 22.6864 17.7484 22.0004 17.7484C21.3144 17.7484 20.7571 17.2206 20.7571 16.5723Z" fill="#2A9B58"/>
<path d="M17.7879 18.3811C18.781 19.1415 20.3176 20.0482 21.9995 20.0482C23.6814 20.0482 25.2179 19.1415 26.2111 18.3811C27.0083 17.7705 28.1311 16.6854 28.1311 16.1842C28.1311 15.6831 27.0083 14.598 26.2111 13.9874C25.2179 13.2269 23.6814 12.3203 21.9995 12.3203C20.3176 12.3203 18.9098 13.1598 17.9516 13.8642C17.7787 13.9911 17.7484 14.2265 17.8817 14.3893C18.015 14.552 18.2642 14.5824 18.4371 14.4555C19.2969 13.8228 20.6128 13.0697 21.9986 13.0697C24.5577 13.0697 27.0194 15.6206 27.321 16.1842C27.0184 16.7479 24.5568 19.2988 21.9986 19.2988C19.4404 19.2988 16.9842 16.7544 16.6771 16.1861C16.7295 16.0932 16.8656 15.8964 17.1424 15.5985C17.2867 15.4431 17.2711 15.2067 17.1065 15.0697C16.9428 14.9327 16.6927 14.9484 16.5483 15.1038C15.8669 15.8366 15.8669 16.0886 15.8669 16.1833C15.8669 16.6845 16.9897 17.7696 17.787 18.3792L17.7879 18.3811Z" fill="#2A9B58"/>
<path d="M21.9995 11.5193C22.2193 11.5193 22.3977 11.3492 22.395 11.1414L22.3867 10.3662C22.3848 10.1611 22.2074 9.99561 21.9913 9.99561C21.7752 9.99561 21.5931 10.1657 21.5959 10.3735L21.6041 11.1487C21.606 11.3538 21.7834 11.5193 21.9995 11.5193Z" fill="#2A9B58"/>
<path d="M19.1976 11.7051C19.3088 11.8835 19.5516 11.9423 19.7392 11.8366C19.9277 11.7317 19.9893 11.5019 19.879 11.3235L19.4624 10.6559C19.3511 10.4775 19.1084 10.4186 18.9208 10.5244C18.7323 10.6292 18.6707 10.8591 18.781 11.0375L19.1976 11.7051Z" fill="#2A9B58"/>
<path d="M24.2589 11.8412C24.4465 11.9469 24.6892 11.8881 24.8014 11.7106L25.2198 11.0439C25.3311 10.8664 25.2695 10.6366 25.0819 10.5308C24.8943 10.4251 24.6515 10.4839 24.5393 10.6614L24.1209 11.3281C24.0097 11.5055 24.0713 11.7354 24.2589 11.8412Z" fill="#2A9B58"/>
</g>
<defs>
<clipPath id="clip0_70_3605">
<rect width="44" height="44" fill="white"/>
</clipPath>
</defs>
</svg>
