<svg width="61" height="81" viewBox="0 0 61 81" fill="none" xmlns="http://www.w3.org/2000/svg">
<g clip-path="url(#clip0_113_2951)">
<path d="M59.2524 4.18055C59.2524 2.89606 58.2151 1.85693 56.9383 1.85693H4.03725C2.75802 1.85693 1.72314 2.89847 1.72314 4.18055V76.5565C1.72314 77.841 2.76042 78.8801 4.03725 78.8801H34.4824C39.5993 78.8801 43.3076 75.6353 46.9273 72.0031L52.4059 66.502C56.0232 62.8698 59.2548 59.1439 59.2548 54.0059V4.18055H59.2524Z" fill="#F2FBFF"/>
<path d="M56.9392 1.85498H53.08V46.6314C53.08 53.4243 47.5966 58.9302 40.8315 58.9302C38.3282 58.9302 36.2991 60.9676 36.2991 63.4813C36.2991 70.2741 30.8157 75.78 24.0506 75.78H1.72168V76.5546C1.72168 77.8391 2.75896 78.8782 4.03579 78.8782H34.4809C39.5978 78.8782 43.3061 75.6333 46.9258 72.0012L52.4044 66.5C56.0217 62.8679 59.2533 59.1419 59.2533 54.004V4.181C59.2533 2.89652 58.2161 1.85739 56.9392 1.85739V1.85498Z" fill="#DFF6FD"/>
<path d="M48.1229 73.2058C44.5056 76.838 39.5971 78.8801 34.4802 78.8801H30.4868H32.4392C37.9801 78.8801 42.4718 74.37 42.4718 68.8063V64.3564C42.4718 63.0719 43.5091 62.0327 44.7859 62.0327H49.2177C54.7586 62.0327 59.2502 57.5226 59.2502 51.9589V49.9985V54.0083C59.2502 59.1463 57.2164 64.0725 53.5991 67.7071L48.1205 73.2082L48.1229 73.2058Z" fill="#F2FBFF"/>
<path d="M56.9386 0.692871H4.03752C2.12108 0.692871 0.563965 2.25638 0.563965 4.1807V55.6177H2.87807V4.1807C2.87807 3.54086 3.39791 3.01889 4.03512 3.01889H56.9362C57.5734 3.01889 58.0932 3.54086 58.0932 4.1807V27.2917C58.0932 27.934 58.6107 28.4536 59.2503 28.4536C59.8899 28.4536 60.4073 27.934 60.4073 27.2917V4.1807C60.4073 2.25878 58.8502 0.692871 56.9338 0.692871H56.9386Z" fill="black"/>
<path d="M59.2531 31.5518C58.6135 31.5518 58.096 32.0713 58.096 32.7136V51.9543C58.096 56.8686 54.1146 60.8663 49.2205 60.8663H43.2987C43.1693 60.8976 43.0376 60.9289 42.9082 60.9674C42.3525 61.1309 42.1201 61.7034 42.156 61.9776L41.514 63.1899C41.4278 63.4353 41.3703 63.6951 41.3391 63.9621V69.5787H41.2792C40.8864 74.1297 37.0726 77.7137 32.4396 77.7137H4.03795C3.40073 77.7137 2.8809 77.1918 2.8809 76.5519V73.2878L2.88569 54.9587H0.612305V77.1244C0.885398 78.7769 2.31554 80.0397 4.03795 80.0397H34.4831C39.9449 80.0397 45.081 77.9038 48.9426 74.0263L54.4213 68.5251C58.2829 64.6476 60.4101 59.4904 60.4101 54.0037V32.7136C60.4101 32.0713 59.8927 31.5518 59.2531 31.5518ZM52.7851 66.8822L47.3065 72.3834C45.3158 74.3847 42.9418 75.8616 40.3498 76.7468C42.3764 74.7118 43.6317 71.9023 43.6317 68.8041V64.3542C43.6317 63.7143 44.1515 63.1923 44.7887 63.1923H49.2205C52.306 63.1923 55.104 61.9319 57.1306 59.897C56.2491 62.4972 54.7758 64.8809 52.7851 66.8822Z" fill="black"/>
<path d="M52.064 51.2395H9.08772C8.4481 51.2395 7.93066 51.7591 7.93066 52.4013C7.93066 53.0435 8.4481 53.5631 9.08772 53.5631H52.064C52.7036 53.5631 53.221 53.0435 53.221 52.4013C53.221 51.7591 52.7036 51.2395 52.064 51.2395Z" fill="black"/>
<path d="M52.064 56.053H9.08772C8.4481 56.053 7.93066 56.5725 7.93066 57.2148C7.93066 57.857 8.4481 58.3766 9.08772 58.3766H52.064C52.7036 58.3766 53.221 57.857 53.221 57.2148C53.221 56.5725 52.7036 56.053 52.064 56.053Z" fill="black"/>
<path d="M49.0671 60.8858L9.08772 60.7944C8.4481 60.7944 7.93066 61.314 7.93066 61.9562C7.93066 62.5985 8.4481 63.118 9.08772 63.118H43.0471L49.0671 60.8858Z" fill="black"/>
<path d="M42.2302 65.5352H9.08772C8.4481 65.5352 7.93066 66.0547 7.93066 66.697C7.93066 67.3392 8.4481 67.8588 9.08772 67.8588H42.2302V65.5352Z" fill="black"/>
<path d="M9.08772 29.4952H52.064C52.7036 29.4952 53.221 28.9757 53.221 28.3334C53.221 27.6912 52.7036 27.1716 52.064 27.1716H9.08772C8.4481 27.1716 7.93066 27.6912 7.93066 28.3334C7.93066 28.9757 8.4481 29.4952 9.08772 29.4952Z" fill="black"/>
<path d="M9.08772 48.7506H52.064C52.7036 48.7506 53.221 48.2311 53.221 47.5888C53.221 46.9466 52.7036 46.427 52.064 46.427H9.08772C8.4481 46.427 7.93066 46.9466 7.93066 47.5888C7.93066 48.2311 8.4481 48.7506 9.08772 48.7506Z" fill="black"/>
<path d="M9.08772 24.6818H52.0616C52.7012 24.6818 53.2186 24.1622 53.2186 23.52C53.2186 22.8777 52.7012 22.3582 52.0616 22.3582H9.08772C8.4481 22.3582 7.93066 22.8777 7.93066 23.52C7.93066 24.1622 8.4481 24.6818 9.08772 24.6818Z" fill="black"/>
<path d="M9.08772 19.9772H52.0616C52.7012 19.9772 53.2186 19.4576 53.2186 18.8154C53.2186 18.1731 52.7012 17.6536 52.0616 17.6536H9.08772C8.4481 17.6536 7.93066 18.1731 7.93066 18.8154C7.93066 19.4576 8.4481 19.9772 9.08772 19.9772Z" fill="black"/>
<path d="M9.08772 15.2719H52.0616C52.7012 15.2719 53.2186 14.7523 53.2186 14.11C53.2186 13.4678 52.7012 12.9482 52.0616 12.9482H9.08772C8.4481 12.9482 7.93066 13.4678 7.93066 14.11C7.93066 14.7523 8.4481 15.2719 9.08772 15.2719Z" fill="black"/>
<path d="M9.08772 34.3085H52.064C52.7036 34.3085 53.221 33.7889 53.221 33.1467C53.221 32.5044 52.7036 31.9849 52.064 31.9849H9.08772C8.4481 31.9849 7.93066 32.5044 7.93066 33.1467C7.93066 33.7889 8.4481 34.3085 9.08772 34.3085Z" fill="black"/>
<path d="M9.08772 39.1217H52.064C52.7036 39.1217 53.221 38.6021 53.221 37.9599C53.221 37.3177 52.7036 36.7981 52.064 36.7981H9.08772C8.4481 36.7981 7.93066 37.3177 7.93066 37.9599C7.93066 38.6021 8.4481 39.1217 9.08772 39.1217Z" fill="black"/>
<path d="M9.08772 43.9371H52.064C52.7036 43.9371 53.221 43.4176 53.221 42.7753C53.221 42.1331 52.7036 41.6135 52.064 41.6135H9.08772C8.4481 41.6135 7.93066 42.1331 7.93066 42.7753C7.93066 43.4176 8.4481 43.9371 9.08772 43.9371Z" fill="black"/>
</g>
<defs>
<clipPath id="clip0_113_2951">
<rect width="59.8481" height="79.3492" fill="white" transform="translate(0.563965 0.692871)"/>
</clipPath>
</defs>
</svg>
