<svg width="44" height="44" viewBox="0 0 44 44" fill="none" xmlns="http://www.w3.org/2000/svg">
<g clip-path="url(#clip0_70_3539)">
<path d="M22.0005 44.0009C34.151 44.0009 44.0009 34.151 44.0009 22.0005C44.0009 9.84994 34.151 0 22.0005 0C9.84994 0 0 9.84994 0 22.0005C0 34.151 9.84994 44.0009 22.0005 44.0009Z" fill="#9BDDB6"/>
<path d="M30.3794 9.4834H13.6214C13.0145 9.4834 12.5216 9.9772 12.5216 10.5832V26.8107H13.2545V10.5841C13.2545 10.3818 13.4191 10.2172 13.6214 10.2172H30.3794C30.5818 10.2172 30.7464 10.3818 30.7464 10.5841V17.8753C30.7464 18.0776 30.911 18.2422 31.1133 18.2422C31.3156 18.2422 31.4802 18.0776 31.4802 17.8753V10.5841C31.4802 9.9772 30.9864 9.48432 30.3804 9.48432L30.3794 9.4834Z" fill="#2A9B58"/>
<path d="M31.1123 19.2197C30.91 19.2197 30.7454 19.3843 30.7454 19.5866V25.6566C30.7454 27.207 29.4847 28.4677 27.9343 28.4677H26.0584C26.0171 28.4769 25.9757 28.487 25.9352 28.4999C25.7596 28.5514 25.686 28.7325 25.6971 28.8189L25.4929 29.2015C25.4653 29.2787 25.4469 29.3606 25.4377 29.4452V31.2172H25.4184C25.2934 32.6526 24.086 33.7837 22.6184 33.7837H13.6205C13.4182 33.7837 13.2536 33.6191 13.2536 33.4167V32.3868L13.2554 26.6037H12.5354V33.597C12.6218 34.1184 13.0752 34.5165 13.6205 34.5165H23.2648C24.9954 34.5165 26.6221 33.8425 27.8451 32.6195L29.5804 30.8843C30.8043 29.6603 31.4774 28.0336 31.4774 26.303V19.5857C31.4774 19.3834 31.3137 19.2188 31.1105 19.2188L31.1123 19.2197ZM29.0626 30.3657L27.3274 32.1009C26.6966 32.7317 25.9444 33.1979 25.1242 33.4774C25.766 32.8356 26.1642 31.9491 26.1642 30.9716V29.5675C26.1642 29.3652 26.3288 29.2006 26.5311 29.2006H27.9353C28.9128 29.2006 29.7992 28.8033 30.4411 28.1615C30.1615 28.9817 29.6953 29.7339 29.0645 30.3647L29.0626 30.3657Z" fill="#2A9B58"/>
<path d="M28.8346 25.4304H15.2205C15.0182 25.4304 14.8536 25.595 14.8536 25.7973C14.8536 25.9996 15.0173 26.1642 15.2205 26.1642H28.8346C29.0369 26.1642 29.2015 25.9996 29.2015 25.7973C29.2015 25.595 29.0378 25.4304 28.8346 25.4304Z" fill="#2A9B58"/>
<path d="M28.8346 26.9486H15.2205C15.0182 26.9486 14.8536 27.1132 14.8536 27.3155C14.8536 27.5178 15.0173 27.6824 15.2205 27.6824H28.8346C29.0369 27.6824 29.2015 27.5178 29.2015 27.3155C29.2015 27.1132 29.0378 26.9486 28.8346 26.9486Z" fill="#2A9B58"/>
<path d="M27.8857 28.4732L15.2215 28.4447C15.0192 28.4447 14.8546 28.6093 14.8546 28.8116C14.8546 29.0139 15.0183 29.1785 15.2215 29.1785H25.9794L27.8866 28.4741L27.8857 28.4732Z" fill="#2A9B58"/>
<path d="M25.7201 29.9399H15.2215C15.0192 29.9399 14.8546 30.1045 14.8546 30.3068C14.8546 30.5091 15.0183 30.6738 15.2215 30.6738H25.7201V29.9399Z" fill="#2A9B58"/>
<path d="M15.2205 18.5696H28.8346C29.0369 18.5696 29.2015 18.405 29.2015 18.2027C29.2015 18.0004 29.0378 17.8358 28.8346 17.8358H15.2205C15.0182 17.8358 14.8536 18.0004 14.8536 18.2027C14.8536 18.405 15.0173 18.5696 15.2205 18.5696Z" fill="#2A9B58"/>
<path d="M15.2205 24.6451H28.8346C29.0369 24.6451 29.2015 24.4805 29.2015 24.2782C29.2015 24.0759 29.0378 23.9113 28.8346 23.9113H15.2205C15.0182 23.9113 14.8536 24.0759 14.8536 24.2782C14.8536 24.4805 15.0173 24.6451 15.2205 24.6451Z" fill="#2A9B58"/>
<path d="M15.2215 17.0514H28.8347C29.037 17.0514 29.2016 16.8868 29.2016 16.6845C29.2016 16.4822 29.0379 16.3176 28.8347 16.3176H15.2215C15.0192 16.3176 14.8546 16.4822 14.8546 16.6845C14.8546 16.8868 15.0183 17.0514 15.2215 17.0514Z" fill="#2A9B58"/>
<path d="M15.2215 15.5672H28.8347C29.037 15.5672 29.2016 15.4026 29.2016 15.2003C29.2016 14.998 29.0379 14.8334 28.8347 14.8334H15.2215C15.0192 14.8334 14.8546 14.998 14.8546 15.2003C14.8546 15.4026 15.0183 15.5672 15.2215 15.5672Z" fill="#2A9B58"/>
<path d="M15.2215 14.0831H28.8347C29.037 14.0831 29.2016 13.9185 29.2016 13.7161C29.2016 13.5138 29.0379 13.3492 28.8347 13.3492H15.2215C15.0192 13.3492 14.8546 13.5138 14.8546 13.7161C14.8546 13.9185 15.0183 14.0831 15.2215 14.0831Z" fill="#2A9B58"/>
<path d="M15.2205 20.0887H28.8346C29.0369 20.0887 29.2015 19.9241 29.2015 19.7218C29.2015 19.5195 29.0378 19.3549 28.8346 19.3549H15.2205C15.0182 19.3549 14.8536 19.5195 14.8536 19.7218C14.8536 19.9241 15.0173 20.0887 15.2205 20.0887Z" fill="#2A9B58"/>
<path d="M15.2205 21.6078H28.8346C29.0369 21.6078 29.2015 21.4432 29.2015 21.2409C29.2015 21.0386 29.0378 20.874 28.8346 20.874H15.2205C15.0182 20.874 14.8536 21.0386 14.8536 21.2409C14.8536 21.4432 15.0173 21.6078 15.2205 21.6078Z" fill="#2A9B58"/>
<path d="M15.2205 23.126H28.8346C29.0369 23.126 29.2015 22.9614 29.2015 22.7591C29.2015 22.5568 29.0378 22.3922 28.8346 22.3922H15.2205C15.0182 22.3922 14.8536 22.5568 14.8536 22.7591C14.8536 22.9614 15.0173 23.126 15.2205 23.126Z" fill="#2A9B58"/>
</g>
<defs>
<clipPath id="clip0_70_3539">
<rect width="44" height="44" fill="white"/>
</clipPath>
</defs>
</svg>
