<svg width="44" height="44" viewBox="0 0 44 44" fill="none" xmlns="http://www.w3.org/2000/svg">
<g clip-path="url(#clip0_70_3520)">
<path d="M22.0005 44.0009C34.151 44.0009 44.0009 34.151 44.0009 22.0005C44.0009 9.84994 34.151 0 22.0005 0C9.84994 0 0 9.84994 0 22.0005C0 34.151 9.84994 44.0009 22.0005 44.0009Z" fill="#9BDDB6"/>
<path d="M17.7098 28.7592C17.6997 28.7491 17.6887 28.739 17.6776 28.7289C17.6887 28.8466 17.6951 28.9661 17.6951 29.0875C17.6951 29.3652 17.6638 29.6356 17.605 29.8958L17.7098 29.791C17.9949 29.5059 17.9949 29.0443 17.7098 28.7592Z" fill="#2A9B58"/>
<path d="M14.9244 31.5436C15.1286 31.7478 15.4008 31.8609 15.6895 31.8609C15.9782 31.8609 16.2504 31.7487 16.4546 31.5436L17.9581 30.0401C18.1622 29.836 18.2753 29.5638 18.2753 29.2751C18.2753 28.9863 18.1631 28.7141 17.9581 28.51C17.7539 28.3059 17.4817 28.1927 17.193 28.1927C16.9042 28.1927 16.6321 28.3049 16.4279 28.51L15.6895 29.2484L15.4228 28.9817C15.0008 28.5597 14.3148 28.5597 13.8927 28.9817C13.6885 29.1859 13.5754 29.4581 13.5754 29.7468C13.5754 30.0355 13.6876 30.3077 13.8927 30.5119L14.9244 31.5436ZM14.3911 29.4801C14.4628 29.4084 14.5575 29.3698 14.6578 29.3698C14.758 29.3698 14.8536 29.4093 14.9244 29.4801L15.4403 29.996C15.5065 30.0622 15.5957 30.099 15.6895 30.099C15.7833 30.099 15.8725 30.0622 15.9387 29.996L16.9263 29.0084C16.998 28.9367 17.0928 28.8981 17.193 28.8981C17.2932 28.8981 17.3889 28.9376 17.4597 29.0084C17.5314 29.0801 17.57 29.1748 17.57 29.2751C17.57 29.3753 17.5305 29.4709 17.4597 29.5417L15.9562 31.0452C15.8845 31.1169 15.7897 31.1556 15.6895 31.1556C15.5893 31.1556 15.4936 31.116 15.4228 31.0452L14.3911 30.0135C14.3194 29.9418 14.2807 29.847 14.2807 29.7468C14.2807 29.6466 14.3203 29.5509 14.3911 29.4801Z" fill="#2A9B58"/>
<path d="M31.5831 19.5572L29.4121 17.9286C28.978 17.6031 28.3711 17.6031 27.9362 17.9286L25.7651 19.5572C25.6437 19.6482 25.5426 19.7576 25.4644 19.8809L24.4161 18.8326C24.3149 18.7314 24.1641 18.702 24.0317 18.7562C23.9002 18.8105 23.8138 18.9392 23.8138 19.0818V19.4588H19.5765L19.5994 19.3907C19.708 19.0643 19.6555 18.7176 19.4542 18.4381C19.2528 18.1594 18.9401 17.9994 18.5962 17.9994H16.7764L17.6344 17.1415C17.7355 17.0403 17.7649 16.8895 17.7107 16.7571C17.6564 16.6256 17.5277 16.5392 17.3851 16.5392H17.0081V15.055H18.8702C19.4532 15.055 19.9277 14.5805 19.9277 13.9975V11.0292C19.9277 10.4462 19.4532 9.97168 18.8702 9.97168H15.9782C15.7833 9.97168 15.626 10.1298 15.626 10.3239C15.626 10.5179 15.7842 10.6761 15.9782 10.6761H18.8702C19.0643 10.6761 19.2224 10.8342 19.2224 11.0283V13.9966C19.2224 14.1906 19.0643 14.3488 18.8702 14.3488H12.9823C12.7883 14.3488 12.6301 14.1906 12.6301 13.9966V11.0283C12.6301 10.8342 12.7883 10.6761 12.9823 10.6761H14.3341C14.529 10.6761 14.6862 10.5179 14.6862 10.3239C14.6862 10.1298 14.5281 9.97168 14.3341 9.97168H12.9823C12.3993 9.97168 11.9248 10.4462 11.9248 11.0292V13.9975C11.9248 14.5805 12.3993 15.055 12.9823 15.055H14.8444V16.5392H14.4674C14.3249 16.5392 14.1961 16.6247 14.1419 16.7571C14.0876 16.8886 14.117 17.0403 14.2182 17.1415L15.0761 17.9994H14.2458C13.7897 17.9994 13.3869 18.29 13.2425 18.7222L12.2531 21.6905C12.1446 22.017 12.197 22.3637 12.3984 22.6432C12.5998 22.9228 12.9124 23.0818 13.2563 23.0818H14.8453V24.566H14.4683C14.3258 24.566 14.197 24.6515 14.1428 24.7839C14.0885 24.9154 14.118 25.0672 14.2191 25.1683L15.1525 26.1017C14.7377 26.1835 14.3368 26.3306 13.9681 26.5375C13.7989 26.6332 13.7382 26.8474 13.8338 27.0176C13.9294 27.1868 14.1437 27.2474 14.3138 27.1518C14.8039 26.8759 15.3621 26.7306 15.9276 26.7306C17.7447 26.7306 19.2233 28.2093 19.2233 30.0264C19.2233 31.8462 17.7429 33.323 15.9276 33.323C14.1124 33.323 12.6319 31.8443 12.6319 30.0273C12.6319 29.379 12.8205 28.7509 13.1763 28.213C13.2839 28.0502 13.2389 27.8323 13.077 27.7247C12.9143 27.6171 12.6963 27.6622 12.5887 27.824C12.1565 28.4778 11.9276 29.2401 11.9276 30.0273C11.9276 32.2333 13.7225 34.0283 15.9286 34.0283C17.8698 34.0283 19.4919 32.6388 19.8542 30.8025L20.7875 31.7358C20.8887 31.837 21.0404 31.8664 21.1719 31.8121C21.3034 31.7579 21.3898 31.6291 21.3898 31.4866V31.1096H29.4075C29.5013 31.1096 29.5905 31.0728 29.6567 31.0066C29.7229 30.9404 29.7597 30.8512 29.7597 30.7574V27.4819C29.7597 27.287 29.6015 27.1297 29.4075 27.1297C29.2134 27.1297 29.0553 27.2879 29.0553 27.4819V30.4052H21.0376C20.8841 30.4052 20.748 30.5045 20.7011 30.6526L20.0767 30.0282L20.7011 29.4038C20.7461 29.5473 20.8795 29.6512 21.0376 29.6512H27.9481C28.1431 29.6512 28.3003 29.493 28.3003 29.299V23.3402C28.5422 23.4175 28.807 23.4193 29.0553 23.3402V25.8378C29.0553 26.0327 29.2134 26.1899 29.4075 26.1899C29.6015 26.1899 29.7597 26.0318 29.7597 25.8378V22.8961L31.5868 21.5259C31.8995 21.2915 32.0788 20.9328 32.0788 20.542C32.0788 20.1512 31.8995 19.7926 31.5868 19.5581L31.5831 19.5572ZM16.3028 15.0559V16.8923C16.3028 17.0504 16.4067 17.1838 16.5502 17.2288L15.9258 17.8532L15.3014 17.2288C15.4449 17.1838 15.5488 17.0504 15.5488 16.8923V15.0559H16.3037H16.3028ZM24.166 20.1641C24.3241 20.1641 24.4575 20.0602 24.5025 19.9167L25.1269 20.5411L24.5025 21.1655C24.4575 21.022 24.3241 20.9181 24.166 20.9181H19.09L19.342 20.1632H24.166V20.1641ZM12.9694 22.2322C12.9023 22.1393 12.8848 22.0234 12.9207 21.9149L13.9101 18.9466C13.958 18.8022 14.0922 18.7057 14.2449 18.7057H18.5971C18.7121 18.7057 18.816 18.759 18.8831 18.8519C18.9502 18.9447 18.9677 19.0606 18.9318 19.1691C18.3075 21.0413 18.8895 19.296 18.2698 21.1544C18.2679 21.1581 18.267 21.1627 18.2661 21.1664L17.9424 22.1375C17.8946 22.2818 17.7603 22.3784 17.6077 22.3784H13.2554C13.1405 22.3784 13.0366 22.325 12.9694 22.2322ZM16.3037 23.0828V24.9191C16.3037 25.0773 16.4077 25.2106 16.5511 25.2557L15.9267 25.8801L15.3023 25.2557C15.4458 25.2106 15.5497 25.0773 15.5497 24.9191V23.0828H16.3047H16.3037ZM21.3871 28.9449V28.5679C21.3871 28.4254 21.3016 28.2967 21.1691 28.2424C21.0376 28.1882 20.8859 28.2176 20.7848 28.3187L19.8514 29.2521C19.5388 27.6668 18.2863 26.4143 16.701 26.1017L17.6344 25.1683C17.7355 25.0672 17.7649 24.9164 17.7107 24.7839C17.6564 24.6524 17.5277 24.566 17.3851 24.566H17.0081V23.0818H17.6068C18.0629 23.0818 18.4656 22.7913 18.61 22.3591L18.8555 21.6225H23.8138V21.9995C23.8138 22.142 23.8993 22.2708 24.0317 22.325C24.1623 22.3793 24.314 22.3499 24.4161 22.2487L25.4644 21.2004C25.5426 21.3236 25.6437 21.4331 25.7651 21.5241L27.5923 22.8942V28.944H21.3862L21.3871 28.9449ZM31.162 20.9613C30.6866 21.3181 29.1932 22.4372 28.9909 22.5899C28.8052 22.7287 28.5468 22.7287 28.361 22.5899C28.1495 22.4317 26.3867 21.1094 26.1899 20.9613C26.0566 20.8611 25.9803 20.7085 25.9803 20.542C25.9803 20.3691 26.0612 20.2183 26.1899 20.1218L28.361 18.4932C28.5468 18.3544 28.8052 18.3544 28.9909 18.4932L31.162 20.1218C31.2953 20.222 31.3716 20.3747 31.3716 20.542C31.3716 20.7094 31.2953 20.862 31.162 20.9623V20.9613Z" fill="#2A9B58"/>
<path d="M26.9458 14.8665C27.744 14.8665 28.3932 14.2173 28.3932 13.4191C28.3932 12.6209 27.744 11.9717 26.9458 11.9717C26.1476 11.9717 25.4984 12.6209 25.4984 13.4191C25.4984 14.2173 26.1476 14.8665 26.9458 14.8665ZM26.9458 12.677C27.355 12.677 27.6879 13.0099 27.6879 13.4191C27.6879 13.8283 27.355 14.1612 26.9458 14.1612C26.5366 14.1612 26.2037 13.8283 26.2037 13.4191C26.2037 13.0099 26.5366 12.677 26.9458 12.677Z" fill="#2A9B58"/>
<path d="M23.6934 14.2108L24.155 14.4417C24.1835 14.5189 24.2147 14.5952 24.2497 14.6697L24.086 15.1598C24.0437 15.2867 24.0768 15.4265 24.1715 15.5203L24.8446 16.1934C24.9394 16.2881 25.0782 16.3203 25.2051 16.2789L25.6952 16.1153C25.7697 16.1502 25.846 16.1815 25.9233 16.21L26.1541 16.6716C26.2139 16.7911 26.3362 16.8665 26.4695 16.8665H27.4222C27.5555 16.8665 27.6778 16.7911 27.7376 16.6716L27.9684 16.21C28.0456 16.1815 28.122 16.1502 28.1964 16.1153L28.6866 16.2789C28.8135 16.3212 28.9532 16.2881 29.047 16.1934L29.7202 15.5203C29.8149 15.4256 29.8471 15.2867 29.8057 15.1598L29.642 14.6697C29.6769 14.5952 29.7082 14.5189 29.7367 14.4417L30.1983 14.2108C30.3179 14.1511 30.3933 14.0288 30.3933 13.8954V12.9428C30.3933 12.8094 30.3179 12.6871 30.1983 12.6274L29.7367 12.3966C29.7082 12.3193 29.6769 12.243 29.642 12.1685L29.8057 11.6784C29.848 11.5515 29.8149 11.4117 29.7202 11.3179L29.047 10.6448C28.9523 10.5501 28.8135 10.5179 28.6866 10.5593L28.1964 10.723C28.122 10.688 28.0456 10.6568 27.9684 10.6282L27.7376 10.1666C27.6778 10.0471 27.5555 9.97168 27.4222 9.97168H26.4695C26.3362 9.97168 26.2139 10.0471 26.1541 10.1666L25.9233 10.6282C25.846 10.6568 25.7697 10.688 25.6952 10.723L25.2051 10.5593C25.0782 10.517 24.9384 10.5501 24.8446 10.6448L24.1715 11.3179C24.0768 11.4126 24.0446 11.5515 24.086 11.6784L24.2497 12.1685C24.2147 12.243 24.1835 12.3193 24.155 12.3966L23.6934 12.6274C23.5738 12.6871 23.4984 12.8094 23.4984 12.9428V13.8954C23.4984 14.0288 23.5738 14.1511 23.6934 14.2108ZM24.2037 13.1607L24.601 12.9621C24.6874 12.9189 24.7518 12.8425 24.7803 12.7506C24.8217 12.6163 24.8759 12.4848 24.9421 12.3598C24.9872 12.2743 24.9955 12.1749 24.9651 12.083L24.8244 11.6618L25.1895 11.2968L25.6106 11.4375C25.7017 11.4678 25.8019 11.4595 25.8874 11.4145C26.0125 11.3483 26.144 11.294 26.2782 11.2526C26.3702 11.2241 26.4465 11.1598 26.4897 11.0733L26.6884 10.6761H27.2052L27.4038 11.0733C27.447 11.1598 27.5233 11.2241 27.6153 11.2526C27.7495 11.294 27.881 11.3483 28.0061 11.4145C28.0916 11.4595 28.1909 11.4678 28.2829 11.4375L28.704 11.2968L29.0691 11.6618L28.9284 12.083C28.8981 12.174 28.9063 12.2743 28.9514 12.3598C29.0176 12.4848 29.0719 12.6163 29.1132 12.7506C29.1418 12.8425 29.2061 12.9189 29.2926 12.9621L29.6898 13.1607V13.6775L29.2926 13.8761C29.2061 13.9193 29.1418 13.9957 29.1132 14.0876C29.0719 14.2219 29.0176 14.3534 28.9514 14.4784C28.9063 14.564 28.8981 14.6633 28.9284 14.7552L29.0691 15.1764L28.704 15.5415L28.2829 15.4008C28.1918 15.3704 28.0916 15.3787 28.0061 15.4237C27.881 15.49 27.7495 15.5442 27.6153 15.5856C27.5233 15.6141 27.447 15.6785 27.4038 15.7649L27.2052 16.1622H26.6884L26.4897 15.7649C26.4465 15.6785 26.3702 15.6141 26.2782 15.5856C26.144 15.5442 26.0125 15.49 25.8874 15.4237C25.8019 15.3787 25.7026 15.3704 25.6106 15.4008L25.1895 15.5415L24.8244 15.1764L24.9651 14.7552C24.9955 14.6642 24.9872 14.564 24.9421 14.4784C24.8759 14.3534 24.8217 14.2219 24.7803 14.0876C24.7518 13.9957 24.6874 13.9193 24.601 13.8761L24.2037 13.6775V13.1607Z" fill="#2A9B58"/>
</g>
<defs>
<clipPath id="clip0_70_3520">
<rect width="44" height="44" fill="white"/>
</clipPath>
</defs>
</svg>
