<svg width="67" height="79" viewBox="0 0 67 79" fill="none" xmlns="http://www.w3.org/2000/svg">
<g clip-path="url(#clip0_113_2948)">
<path d="M41.0396 29.9146V32.3022H18.4609V37.0751H41.0396V39.4628L43.4514 37.0751L45.8632 34.6874L41.0421 29.9146H41.0396Z" fill="#C8EFFE"/>
<path d="M18.4611 22.756H16.0493V13.2102H11.2282V22.756H8.81641L11.2282 25.1436L13.64 27.5313L18.4611 22.7584V22.756Z" fill="#C8EFFE"/>
<path d="M18.4611 49.0084H16.0493V39.4626H11.2282V49.0084H8.81641L11.2282 51.3961L13.64 53.7838L18.4611 49.0109V49.0084Z" fill="#C8EFFE"/>
<path d="M53.5248 41.8477V63.3268H30.5174V60.9392L28.1056 63.3268L25.6938 65.7145L30.5149 70.4874V68.0997H53.5223H58.3434V41.8477H53.5223H53.5248Z" fill="#C8EFFE"/>
<path d="M23.3648 15.5958H3.915C2.62888 15.5958 1.58594 14.5633 1.58594 13.29V3.58043C1.58594 2.30717 2.62888 1.27466 3.915 1.27466H23.3648C24.651 1.27466 25.6939 2.30717 25.6939 3.58043V13.29C25.6939 14.5633 24.651 15.5958 23.3648 15.5958Z" fill="#01C0FA"/>
<path d="M19.1954 41.8477H4.81742C3.22794 41.8477 2.10728 40.3064 2.60869 38.8147L5.87791 29.1051C6.1938 28.1644 7.08381 27.5291 8.08664 27.5291H22.4647C24.0541 27.5291 25.1748 29.0704 24.6734 30.5621L21.4042 40.2716C21.0883 41.2123 20.1983 41.8477 19.1954 41.8477Z" fill="#0067C5"/>
<path d="M13.6399 77.6481C20.2971 77.6481 25.6939 72.3053 25.6939 65.7147C25.6939 59.124 20.2971 53.7812 13.6399 53.7812C6.98269 53.7812 1.58594 59.124 1.58594 65.7147C1.58594 72.3053 6.98269 77.6481 13.6399 77.6481Z" fill="#05E39C"/>
<path d="M12.8605 67.8714L11.1557 66.1837C10.213 65.2504 8.68871 65.2504 7.74606 66.1837C6.8034 67.1169 6.8034 68.626 7.74606 69.5592L11.1557 72.9347C12.0983 73.8679 13.6226 73.8679 14.5653 72.9347L19.5343 68.0154C20.4769 67.0821 20.4769 65.5731 19.5343 64.6399C18.5916 63.7066 17.0673 63.7066 16.1247 64.6399L12.8605 67.8714Z" fill="#0ED290"/>
<path d="M12.8605 64.7987L11.1557 63.1109C10.213 62.1777 8.68871 62.1777 7.74606 63.1109C6.8034 64.0441 6.8034 65.5532 7.74606 66.4864L11.1557 69.8619C12.0983 70.7952 13.6226 70.7952 14.5653 69.8619L19.5343 64.9426C20.4769 64.0094 20.4769 62.5003 19.5343 61.5671C18.5916 60.6339 17.0673 60.6339 16.1247 61.5671L12.8605 64.7987Z" fill="white"/>
<path d="M54.1942 27.0675L47.0215 32.3938C45.4746 33.5405 45.4746 35.8364 47.0215 36.9855L54.1942 42.3119C55.2246 43.0764 56.6411 43.0764 57.6715 42.3119L64.8442 36.9855C66.3911 35.8389 66.3911 33.543 64.8442 32.3938L57.6715 27.0675C56.6411 26.303 55.2246 26.303 54.1942 27.0675Z" fill="#FED402"/>
<path d="M23.3648 1.27466H19.4839V4.85121C19.4839 9.08798 16.0141 12.5206 11.7371 12.5206H1.58594V13.29C1.58594 14.5633 2.62888 15.5958 3.915 15.5958H23.3648C24.651 15.5958 25.6939 14.5633 25.6939 13.29V3.58043C25.6939 2.30717 24.651 1.27466 23.3648 1.27466Z" fill="#08A9F1"/>
<path d="M22.4647 27.5291H18.4508L16.2898 33.95C15.3195 36.8316 12.5943 38.775 9.5282 38.775H2.62123L2.60869 38.8147C2.10728 40.3064 3.22794 41.8477 4.81742 41.8477H19.1954C20.1983 41.8477 21.0883 41.2123 21.4042 40.2716L24.6734 30.5621C25.1773 29.0704 24.0541 27.5291 22.4647 27.5291Z" fill="#0055A3"/>
<path d="M15.6956 53.9548C18.0296 56.1315 19.4862 59.2191 19.4862 62.6418C19.4862 69.2315 14.0885 74.5753 7.43226 74.5753C6.73279 74.5753 6.04585 74.5157 5.37646 74.4015C7.53505 76.4144 10.4432 77.648 13.6398 77.648C20.296 77.648 25.6937 72.3042 25.6937 65.7145C25.6937 59.8173 21.3741 54.9203 15.6956 53.9548Z" fill="#0ED290"/>
<path d="M19.5334 61.5673C19.4983 61.5325 19.4632 61.5003 19.4281 61.468C19.4657 61.8527 19.4858 62.2449 19.4858 62.6395C19.4858 63.5479 19.383 64.4315 19.1899 65.2828L19.5359 64.9403C20.4761 64.0071 20.4761 62.498 19.5359 61.5648L19.5334 61.5673Z" fill="#F2FBFF"/>
<path d="M64.8461 32.3938L57.6734 27.0675C56.643 26.303 55.2265 26.303 54.1961 27.0675L53.8652 27.3132L57.5456 30.0459C59.6364 31.5996 59.6364 34.7046 57.5456 36.2583L52.0776 40.3189C51.9799 40.3908 51.8821 40.4578 51.7793 40.5199L54.1936 42.3119C55.224 43.0764 56.6405 43.0764 57.6709 42.3119L64.8436 36.9855C66.3905 35.8389 66.3905 33.543 64.8436 32.3938H64.8461Z" fill="#FAC600"/>
<path d="M60.2739 12.9549V9.84003L58.3184 8.87205C58.1579 8.35827 57.9498 7.86187 57.6991 7.39526L58.3911 5.34017L56.1673 3.13864L54.0914 3.82367C53.6176 3.57547 53.1187 3.36946 52.5997 3.21061L51.622 1.27466H48.4756L47.4979 3.21061C46.9789 3.36946 46.4775 3.57547 46.0062 3.82367L43.9303 3.13864L41.7065 5.34017L42.3985 7.39526C42.1478 7.86436 41.9397 8.35827 41.7792 8.87205L39.8237 9.84003V12.9549L41.7792 13.9229C41.9397 14.4367 42.1478 14.9331 42.3985 15.3997L41.7065 17.4523L43.9303 19.6538L46.0062 18.9688C46.48 19.217 46.9789 19.423 47.4979 19.5819L48.4756 21.5178H51.622L52.5997 19.5819C53.1187 19.423 53.6201 19.217 54.0914 18.9688L56.1673 19.6538L58.3911 17.4523L57.6991 15.3997C57.9498 14.9306 58.1579 14.4367 58.3184 13.9229L60.2739 12.9549ZM50.0501 14.9778C48.0519 14.9778 46.4349 13.3744 46.4349 11.3987C46.4349 9.42305 48.0544 7.81968 50.0501 7.81968C52.0457 7.81968 53.6652 9.42305 53.6652 11.3987C53.6652 13.3769 52.0457 14.9778 50.0501 14.9778Z" fill="#B2CAEC"/>
<path d="M10.3331 70.6763C11.0075 71.344 11.9051 71.7138 12.8602 71.7138C13.8154 71.7138 14.713 71.3465 15.3874 70.6763L20.3539 65.757C21.0283 65.0893 21.4018 64.2008 21.4018 63.2551C21.4018 62.3095 21.0308 61.4209 20.3539 60.7533C19.6795 60.0856 18.7819 59.7158 17.8267 59.7158C16.8715 59.7158 15.974 60.0832 15.2996 60.7533L12.8602 63.1683L11.9778 62.2946C10.5838 60.9146 8.31493 60.9146 6.921 62.2946C6.2466 62.9623 5.87305 63.8508 5.87305 64.7965C5.87305 65.7421 6.24409 66.6307 6.921 67.2983L10.3306 70.6738L10.3331 70.6763ZM8.57065 63.9253C8.80632 63.692 9.1197 63.5629 9.45314 63.5629C9.78658 63.5629 10.1 63.692 10.3356 63.9253L12.0404 65.613C12.2585 65.829 12.5544 65.9506 12.8627 65.9506C13.1711 65.9506 13.467 65.829 13.6851 65.613L16.9493 62.3815C17.1849 62.1482 17.4983 62.0191 17.8318 62.0191C18.1652 62.0191 18.4786 62.1482 18.7142 62.3815C18.9499 62.6148 19.0803 62.925 19.0803 63.2551C19.0803 63.5853 18.9499 63.8955 18.7142 64.1288L13.7452 69.0481C13.5096 69.2814 13.1962 69.4105 12.8627 69.4105C12.5293 69.4105 12.2159 69.2814 11.9803 69.0481L8.57065 65.6726C8.33499 65.4393 8.20462 65.129 8.20462 64.7989C8.20462 64.4688 8.33499 64.1586 8.57065 63.9253Z" fill="black"/>
<path d="M65.3704 31.4707L58.1977 26.1443C56.7637 25.0795 54.758 25.0795 53.3215 26.1443L46.1488 31.4707C45.7476 31.7685 45.4142 32.1284 45.1535 32.5305L41.6887 29.1003C41.3552 28.7702 40.8538 28.671 40.4201 28.8497C39.9839 29.0284 39.7006 29.4478 39.7006 29.9144V31.148H25.7036L25.7788 30.9246C26.1374 29.8574 25.9644 28.7231 25.3 27.8097C24.6356 26.8963 23.6027 26.3726 22.467 26.3726H16.4551L19.288 23.568C19.6215 23.2379 19.7193 22.7415 19.5413 22.3121C19.3607 21.8802 18.9371 21.5998 18.4657 21.5998H17.2197V16.745H23.3695C25.295 16.745 26.8619 15.1937 26.8619 13.2876V3.58047C26.8619 1.67429 25.295 0.123047 23.3695 0.123047H13.8151C13.1708 0.123047 12.6518 0.639302 12.6518 1.27469C12.6518 1.91008 13.1733 2.42634 13.8151 2.42634H23.3695C24.0114 2.42634 24.5328 2.94259 24.5328 3.57798V13.2876C24.5328 13.9229 24.0114 14.4392 23.3695 14.4392H3.91471C3.2729 14.4392 2.75143 13.9229 2.75143 13.2876V3.58047C2.75143 2.94508 3.2729 2.42882 3.91471 2.42882H8.37979C9.02411 2.42882 9.54307 1.91257 9.54307 1.27717C9.54307 0.641784 9.0216 0.125529 8.37979 0.125529H3.91471C1.98928 0.123047 0.422363 1.67429 0.422363 3.58047V13.29C0.422363 15.1962 1.98928 16.7475 3.91471 16.7475H10.0645V21.6022H8.81853C8.3472 21.6022 7.92351 21.8827 7.743 22.3146C7.56249 22.7464 7.66277 23.2404 7.99621 23.5705L10.8292 26.3776H8.08647C6.58223 26.3776 5.24847 27.3282 4.77212 28.7429L1.50291 38.4525C1.1444 39.5198 1.31739 40.654 1.98176 41.5674C2.64613 42.4808 3.67904 43.0045 4.81474 43.0045H10.062V47.8593H8.81602C8.3447 47.8593 7.921 48.1397 7.74049 48.5716C7.55998 49.0035 7.66027 49.4974 7.99371 49.8275L11.0774 52.8803C9.70603 53.1484 8.3823 53.6274 7.16387 54.3075C6.60228 54.6202 6.40423 55.3226 6.72012 55.8761C7.03601 56.4296 7.74551 56.6282 8.30458 56.3154C9.92415 55.4145 11.7668 54.9379 13.6371 54.9379C19.6415 54.9379 24.5253 59.7728 24.5278 65.7172C24.5278 71.6715 19.6365 76.5015 13.6371 76.5015C7.6377 76.5015 2.74641 71.6641 2.74641 65.7197C2.74641 63.5976 3.36817 61.545 4.54398 59.7853C4.89748 59.2541 4.75207 58.5393 4.21556 58.1893C3.67904 57.8394 2.95701 57.9833 2.60351 58.5145C1.17699 60.649 0.422363 63.1409 0.422363 65.7147C0.422363 72.9299 6.35158 78.7998 13.6396 78.7998C20.0527 78.7998 25.4128 74.2553 26.6087 68.2489L29.6924 71.3017C30.0283 71.6318 30.5297 71.7286 30.9609 71.5524C31.3972 71.3737 31.6805 70.9542 31.6805 70.4876V69.2541H58.1701C58.4785 69.2541 58.7743 69.1325 58.9925 68.9165C59.2106 68.7006 59.3334 68.4077 59.3334 68.1024V57.3876C59.3334 56.7498 58.812 56.236 58.1701 56.236C57.5283 56.236 57.0069 56.7523 57.0069 57.3876V66.9483H30.5172C30.0108 66.9483 29.5595 67.2734 29.4066 67.7574L27.3432 65.7147L29.4066 63.6721C29.5545 64.1412 29.9957 64.4812 30.5172 64.4812H53.3491C53.9934 64.4812 54.5123 63.9649 54.5123 63.3295V43.8409C55.3096 44.0941 56.1845 44.099 57.0044 43.8409V52.0092C57.0044 52.647 57.5258 53.1608 58.1676 53.1608C58.8094 53.1608 59.3309 52.6446 59.3309 52.0092V42.3889L65.3679 37.9065C66.4008 37.1395 66.9925 35.968 66.9925 34.6898C66.9925 33.4116 66.4008 32.2376 65.3679 31.4731L65.3704 31.4707ZM14.8856 16.7475V22.7539C14.8856 23.2701 15.2291 23.707 15.7029 23.8534L13.6396 25.8961L11.5763 23.8534C12.0501 23.707 12.3936 23.2701 12.3936 22.7539V16.7475H14.8856ZM40.8639 33.4538C41.3853 33.4538 41.8266 33.1137 41.9745 32.6446L44.0378 34.6873L41.9745 36.73C41.8266 36.2609 41.3853 35.9209 40.8639 35.9209H24.0941L24.9239 33.4538H40.8614H40.8639ZM3.87209 40.2172C3.65147 39.9119 3.5913 39.5347 3.71164 39.1797L6.98085 29.4702C7.1388 28.9986 7.58255 28.6809 8.08647 28.6809H22.4645C22.8431 28.6809 23.1865 28.8546 23.4097 29.1599C23.6328 29.4652 23.6905 29.8425 23.5701 30.1974C21.5068 36.323 23.4297 30.6119 21.384 36.6928C21.3789 36.7052 21.3739 36.7201 21.3714 36.7325L20.3034 39.907C20.1455 40.3785 19.7017 40.6962 19.1978 40.6962H4.81725C4.43868 40.6962 4.09522 40.5225 3.87209 40.2172ZM14.8856 42.9995V49.0059C14.8856 49.5222 15.2291 49.959 15.7029 50.1055L13.6396 52.1482L11.5763 50.1055C12.0501 49.959 12.3936 49.5222 12.3936 49.0059V42.9995H14.8856ZM31.678 62.1754V60.9419C31.678 60.4753 31.3947 60.0558 30.9584 59.8771C30.5222 59.6984 30.0233 59.7977 29.6899 60.1278L26.6062 63.1806C25.5733 57.9957 21.4366 53.9004 16.1993 52.8779L19.283 49.825C19.6165 49.4949 19.7142 48.9985 19.5362 48.5691C19.3557 48.1372 18.932 47.8568 18.4607 47.8568H17.2147V43.002H19.1928C20.697 43.002 22.0308 42.0514 22.5071 40.6367L23.3194 38.2266H39.7006V39.4602C39.7006 39.9268 39.9839 40.3463 40.4201 40.525C40.8513 40.7012 41.3527 40.6069 41.6887 40.2743L45.1535 36.8442C45.4117 37.2463 45.7476 37.6061 46.1488 37.904L52.1858 42.3865V62.1729H31.683L31.678 62.1754ZM63.9715 36.0623C62.3996 37.2289 57.4682 40.8898 56.7988 41.3887C56.1871 41.8429 55.3296 41.8429 54.7179 41.3887C54.021 40.87 48.1945 36.5463 47.5452 36.0623C47.104 35.7347 46.8507 35.2358 46.8507 34.6898C46.8507 34.1239 47.1165 33.6325 47.5452 33.3148L54.7179 27.9884C55.3296 27.5342 56.1871 27.5342 56.7988 27.9884L63.9715 33.3148C64.4127 33.6424 64.666 34.1438 64.666 34.6873C64.666 35.2309 64.4127 35.7347 63.9715 36.0599V36.0623Z" fill="black"/>
<path d="M50.0495 16.1319C52.6845 16.1319 54.8305 14.0098 54.8305 11.3987C54.8305 8.78763 52.687 6.66553 50.0495 6.66553C47.4121 6.66553 45.2686 8.78763 45.2686 11.3987C45.2686 14.0098 47.4121 16.1319 50.0495 16.1319ZM50.0495 8.9713C51.4008 8.9713 52.5014 10.0609 52.5014 11.3987C52.5014 12.7365 51.4008 13.8261 50.0495 13.8261C48.6982 13.8261 47.5976 12.7365 47.5976 11.3987C47.5976 10.0609 48.6982 8.9713 50.0495 8.9713Z" fill="black"/>
<path d="M39.302 13.9875L40.8288 14.742C40.9215 14.9952 41.0268 15.2434 41.1422 15.4866L40.6031 17.09C40.4627 17.5045 40.573 17.9611 40.8839 18.2689L43.1077 20.4704C43.4186 20.7782 43.8799 20.8874 44.2985 20.7484L45.9181 20.2148C46.1638 20.329 46.4145 20.4307 46.6702 20.5251L47.4324 22.0366C47.6304 22.4263 48.0316 22.6745 48.4728 22.6745H51.6192C52.0604 22.6745 52.4641 22.4287 52.6596 22.0366L53.4218 20.5251C53.6775 20.4332 53.9282 20.329 54.1739 20.2148L55.7935 20.7484C56.2121 20.8849 56.6734 20.7782 56.9843 20.4704L59.2081 18.2689C59.519 17.9611 59.6293 17.5045 59.4889 17.09L58.9498 15.4866C59.0652 15.2434 59.168 14.9927 59.2632 14.742L60.79 13.9875C61.1836 13.7914 61.4344 13.3943 61.4344 12.9574V9.84254C61.4344 9.40571 61.1862 9.00611 60.79 8.81251L59.2632 8.05799C59.1705 7.80482 59.0652 7.55662 58.9498 7.31339L59.4889 5.71002C59.6293 5.29553 59.519 4.83884 59.2081 4.53107L56.9843 2.32954C56.6734 2.02177 56.2121 1.91257 55.7935 2.05156L54.1739 2.58519C53.9282 2.47101 53.6775 2.36925 53.4218 2.27494L52.6596 0.763402C52.4666 0.368764 52.0629 0.123047 51.6217 0.123047H48.4753C48.0341 0.123047 47.6304 0.368764 47.4349 0.76092L46.6727 2.27245C46.417 2.36429 46.1663 2.46853 45.9206 2.5827L44.3011 2.04908C43.8824 1.91008 43.4211 2.01929 43.1102 2.32706L40.8864 4.52859C40.5756 4.83636 40.4652 5.29304 40.6056 5.70754L41.1447 7.31091C41.0293 7.55414 40.9265 7.80482 40.8313 8.0555L39.3045 8.81003C38.9109 9.00611 38.6602 9.40323 38.6602 9.84006V12.955C38.6602 13.3918 38.9084 13.7889 39.3045 13.985L39.302 13.9875ZM40.9867 10.5549L42.2979 9.90459C42.5812 9.76312 42.7968 9.51492 42.8896 9.21211C43.0275 8.7728 43.2055 8.34342 43.4236 7.93389C43.5715 7.6559 43.5991 7.32828 43.4988 7.03044L43.035 5.65293L44.2409 4.45909L45.6323 4.91826C45.9332 5.01754 46.2641 4.99024 46.5449 4.8438C46.956 4.62787 47.3898 4.44917 47.836 4.31514C48.1394 4.2233 48.3926 4.00985 48.5355 3.72939L49.1923 2.4313H50.8997L51.5565 3.72939C51.6994 4.00985 51.9501 4.2233 52.256 4.31514C52.6997 4.45165 53.1335 4.62787 53.5471 4.8438C53.8279 4.99024 54.1588 5.01754 54.4597 4.91826L55.8511 4.45909L57.057 5.65293L56.5932 7.03044C56.4929 7.32828 56.5205 7.6559 56.6684 7.93389C56.8865 8.34093 57.067 8.7728 57.2024 9.21211C57.2952 9.51244 57.5108 9.76312 57.7941 9.90459L59.1053 10.5549V12.2451L57.7941 12.8954C57.5108 13.0369 57.2952 13.2851 57.2024 13.5879C57.0645 14.0272 56.8865 14.4566 56.6684 14.8661C56.5205 15.1441 56.4929 15.4717 56.5932 15.7695L57.057 17.1471L55.8511 18.3409L54.4597 17.8817C54.1588 17.7824 53.8279 17.8097 53.5471 17.9562C53.136 18.1721 52.7022 18.3508 52.256 18.4849C51.9526 18.5767 51.6994 18.7901 51.5565 19.0706L50.8997 20.3687H49.1923L48.5355 19.0706C48.3926 18.7901 48.1419 18.5767 47.836 18.4849C47.3923 18.3483 46.9585 18.1721 46.5449 17.9562C46.2641 17.8097 45.9332 17.7824 45.6323 17.8817L44.2409 18.3409L43.035 17.1471L43.4988 15.7695C43.5991 15.4717 43.5715 15.1441 43.4236 14.8661C43.2055 14.4591 43.025 14.0272 42.8896 13.5879C42.7968 13.2876 42.5812 13.0369 42.2979 12.8954L40.9867 12.2451V10.5549Z" fill="black"/>
</g>
<defs>
<clipPath id="clip0_113_2948">
<rect width="66.5727" height="78.6768" fill="white" transform="translate(0.422363 0.123047)"/>
</clipPath>
</defs>
</svg>
