<svg width="44" height="44" viewBox="0 0 44 44" fill="none" xmlns="http://www.w3.org/2000/svg">
<g clip-path="url(#clip0_70_3518)">
<path d="M22.0005 44.0009C34.151 44.0009 44.0009 34.151 44.0009 22.0005C44.0009 9.84994 34.151 0 22.0005 0C9.84994 0 0 9.84994 0 22.0005C0 34.151 9.84994 44.0009 22.0005 44.0009Z" fill="#9BDDB6"/>
<path d="M27.1702 17.8818C26.9468 17.8818 26.7647 18.0629 26.7647 18.2873C26.7647 18.5117 26.9459 18.6928 27.1702 18.6928H29.2558C29.4793 18.6928 29.6613 18.5117 29.6613 18.2873V15.7695C29.6613 15.5461 29.4802 15.364 29.2558 15.364H14.9898C14.7663 15.364 14.5842 15.5452 14.5842 15.7695V18.2873C14.5842 18.5107 14.7654 18.6928 14.9898 18.6928H25.2796C25.5031 18.6928 25.6852 18.5117 25.6852 18.2873C25.6852 18.0629 25.504 17.8818 25.2796 17.8818H15.3953V16.1751H28.8503V17.8818H27.1702Z" fill="#2A9B58"/>
<path d="M21.0018 26.4732C21.206 26.6774 21.4763 26.7895 21.765 26.7895C22.0538 26.7895 22.3241 26.6774 22.5283 26.4732L24.0281 24.9734C24.2322 24.7693 24.3444 24.4989 24.3444 24.2102C24.3444 23.9214 24.2322 23.6511 24.0281 23.4469C23.8239 23.2428 23.5536 23.1306 23.2648 23.1306C22.9761 23.1306 22.7058 23.2428 22.5016 23.4469L21.765 24.1835L21.4993 23.9178C21.0781 23.4966 20.394 23.4966 19.9728 23.9178C19.7687 24.1219 19.6565 24.3923 19.6565 24.681C19.6565 24.9697 19.7687 25.2401 19.9728 25.4442L21.0018 26.4732ZM20.4694 24.4152C20.5402 24.3444 20.6349 24.3049 20.7351 24.3049C20.8354 24.3049 20.9301 24.3444 21.0009 24.4152L21.5158 24.9302C21.5821 24.9964 21.6712 25.0332 21.7641 25.0332C21.857 25.0332 21.9471 24.9964 22.0124 24.9302L22.9973 23.9453C23.0681 23.8745 23.1628 23.835 23.263 23.835C23.3632 23.835 23.458 23.8745 23.5288 23.9453C23.5996 24.0162 23.6391 24.1109 23.6391 24.2111C23.6391 24.3113 23.5996 24.406 23.5288 24.4769L22.029 25.9767C21.9582 26.0475 21.8634 26.087 21.7632 26.087C21.663 26.087 21.5683 26.0475 21.4975 25.9767L20.4685 24.9477C20.3977 24.8769 20.3581 24.7821 20.3581 24.6819C20.3581 24.5817 20.3977 24.487 20.4685 24.4162L20.4694 24.4152Z" fill="#2A9B58"/>
<path d="M32.9405 10.048H15.3907C15.1966 10.048 15.0394 10.2053 15.0394 10.3993C15.0394 10.5933 15.1966 10.7506 15.3907 10.7506H32.9405C33.1345 10.7506 33.2917 10.9078 33.2917 11.1019V28.6231C33.2917 28.8172 33.1345 28.9744 32.9405 28.9744H24.464C24.6699 28.8107 24.7775 28.5735 24.875 28.3601C24.8962 28.3132 24.9182 28.2663 24.9394 28.2213H30.0052C30.1993 28.2213 30.3565 28.064 30.3565 27.87V27.7955C30.3565 26.8263 31.1446 26.0383 32.1138 26.0383H32.1883C32.3823 26.0383 32.5395 25.881 32.5395 25.687V14.0371C32.5395 13.8431 32.3823 13.6858 32.1883 13.6858H32.1138C31.1446 13.6858 30.3565 12.8977 30.3565 11.9285V11.8541C30.3565 11.66 30.1993 11.5028 30.0052 11.5028H13.9957C13.8017 11.5028 13.6444 11.66 13.6444 11.8541V11.9285C13.6444 12.8977 12.8564 13.6858 11.8871 13.6858H11.8127C11.6186 13.6858 11.4614 13.8431 11.4614 14.0371V22.6055C11.4614 22.7996 11.6186 22.9568 11.8127 22.9568C12.0067 22.9568 12.1639 22.7996 12.1639 22.6055V14.3727C13.2996 14.2449 14.2035 13.341 14.3313 12.2053H29.6687C29.7965 13.341 30.7004 14.2449 31.8361 14.3727V25.3504C30.7004 25.4782 29.7965 26.3822 29.6687 27.5178H25.927C25.9868 27.4608 26.041 27.3955 26.0861 27.3183C26.2433 27.0461 26.2148 26.7426 26.19 26.475C26.1762 26.3279 26.1615 26.1762 26.1872 26.0806C26.2102 25.9932 26.2957 25.8737 26.3785 25.7578C26.5293 25.5463 26.7178 25.2833 26.7178 24.9587C26.7178 24.6341 26.5302 24.3702 26.3785 24.1596C26.2957 24.0437 26.2102 23.9242 26.1872 23.8368C26.1615 23.7412 26.1762 23.5895 26.19 23.4423C26.2148 23.1747 26.2442 22.8713 26.0861 22.5991C25.927 22.3232 25.6474 22.1963 25.401 22.0841C25.2686 22.0235 25.1316 21.9618 25.0644 21.8947C24.9973 21.8276 24.9348 21.6906 24.875 21.5582C24.7628 21.3117 24.6359 21.0322 24.3601 20.8731C24.0879 20.7158 23.7844 20.7444 23.5168 20.7692C23.3697 20.783 23.218 20.7977 23.1223 20.7719C23.035 20.7489 22.9154 20.6634 22.7996 20.5807C22.5881 20.4299 22.3251 20.2414 22.0005 20.2414C21.6759 20.2414 21.4119 20.4289 21.2014 20.5807C21.0855 20.6634 20.966 20.7489 20.8786 20.7719C20.783 20.7977 20.6312 20.783 20.4841 20.7692C20.2165 20.7444 19.9131 20.7149 19.6409 20.8731C19.365 21.0322 19.2381 21.3117 19.1259 21.5582C19.0652 21.6906 19.0036 21.8276 18.9365 21.8947C18.8694 21.9618 18.7323 22.0244 18.5999 22.0841C18.3535 22.1963 18.0739 22.3232 17.9149 22.5991C17.7576 22.8713 17.7861 23.1747 17.8109 23.4423C17.8247 23.5895 17.8395 23.7412 17.8137 23.8368C17.7907 23.9242 17.7052 24.0437 17.6224 24.1596C17.4716 24.3711 17.2831 24.6341 17.2831 24.9587C17.2831 25.2833 17.4707 25.5472 17.6224 25.7578C17.7052 25.8737 17.7907 25.9932 17.8137 26.0806C17.8395 26.1762 17.8247 26.3279 17.8109 26.475C17.7861 26.7426 17.7567 27.0461 17.9149 27.3183C17.9599 27.3955 18.0142 27.4617 18.0739 27.5178H14.3323C14.2044 26.3822 13.3005 25.4782 12.1649 25.3504V24.2451C12.1649 24.0511 12.0076 23.8938 11.8136 23.8938C11.6196 23.8938 11.4623 24.0511 11.4623 24.2451V25.6861C11.4623 25.8801 11.6196 26.0373 11.8136 26.0373H11.8881C12.8573 26.0373 13.6453 26.8254 13.6453 27.7946V27.8691C13.6453 28.0631 13.8026 28.2204 13.9966 28.2204H19.0625C19.0845 28.2654 19.1057 28.3123 19.1268 28.3592C19.2234 28.5726 19.3319 28.8098 19.5379 28.9735H11.0614C10.8674 28.9735 10.7101 28.8162 10.7101 28.6222V11.1028C10.7101 10.9087 10.8674 10.7515 11.0614 10.7515H13.752C13.946 10.7515 14.1033 10.5943 14.1033 10.4002C14.1033 10.2062 13.946 10.049 13.752 10.049H11.0614C10.4802 10.049 10.0076 10.5216 10.0076 11.1028V28.6241C10.0076 29.2052 10.4802 29.6779 11.0614 29.6779H20.1954V33.6007C20.1954 33.7221 20.2588 33.8352 20.3618 33.8996C20.4657 33.9639 20.5945 33.9695 20.7039 33.9152L22.0023 33.266L23.3007 33.9152C23.4101 33.9695 23.5389 33.9639 23.6428 33.8996C23.7467 33.8352 23.8092 33.7221 23.8092 33.6007V29.6779H32.9432C33.5244 29.6779 33.997 29.2052 33.997 28.6241V11.1028C33.997 10.5216 33.5244 10.049 32.9432 10.049L32.9405 10.048ZM17.9857 24.9605C17.9857 24.8612 18.0914 24.7132 18.1935 24.5697C18.3075 24.4106 18.4363 24.2304 18.4923 24.0198C18.5503 23.8019 18.5291 23.5766 18.5107 23.378C18.4951 23.2152 18.4776 23.0304 18.5227 22.9531C18.5696 22.8722 18.7406 22.794 18.8905 22.726C19.0707 22.6442 19.2758 22.5504 19.4331 22.3931C19.5903 22.2359 19.6832 22.0317 19.7659 21.8506C19.834 21.6998 19.9121 21.5297 19.9931 21.4828C20.0712 21.4377 20.2551 21.4552 20.4179 21.4708C20.6165 21.4892 20.8418 21.5113 21.0598 21.4524C21.2703 21.3963 21.4506 21.2676 21.6096 21.1536C21.7531 21.0515 21.9002 20.9457 22.0005 20.9457C22.1007 20.9457 22.2478 21.0515 22.3913 21.1536C22.5504 21.2676 22.7306 21.3963 22.9412 21.4524C23.1591 21.5103 23.3844 21.4892 23.583 21.4708C23.7458 21.4552 23.9306 21.4377 24.0079 21.4828C24.0888 21.5297 24.1669 21.7007 24.235 21.8506C24.3168 22.0308 24.4106 22.2359 24.5679 22.3931C24.7251 22.5504 24.9293 22.6432 25.1104 22.726C25.2612 22.794 25.4313 22.8722 25.4782 22.9531C25.5233 23.0313 25.5058 23.2152 25.4902 23.378C25.4718 23.5766 25.4497 23.8019 25.5086 24.0198C25.5647 24.2304 25.6934 24.4106 25.8074 24.5697C25.9095 24.7132 26.0153 24.8603 26.0153 24.9605C26.0153 25.0608 25.9095 25.2079 25.8074 25.3513C25.6934 25.5104 25.5647 25.6907 25.5086 25.9012C25.4506 26.1192 25.4718 26.3445 25.4902 26.5431C25.5058 26.7059 25.5233 26.8907 25.4782 26.9679C25.4313 27.0488 25.2603 27.127 25.1104 27.1951C24.9302 27.2769 24.7251 27.3707 24.5679 27.5279C24.4152 27.6806 24.3242 27.8746 24.235 28.0705C24.1669 28.2213 24.0888 28.3914 24.0079 28.4383C23.9297 28.4834 23.7458 28.4659 23.583 28.4503C23.3844 28.4319 23.1591 28.4098 22.9412 28.4687C22.7306 28.5247 22.5504 28.6535 22.3913 28.7675C22.2478 28.8696 22.1007 28.9753 22.0005 28.9753C21.9002 28.9753 21.7531 28.8696 21.6096 28.7675C21.4506 28.6535 21.2703 28.5247 21.0598 28.4687C20.9531 28.4401 20.8446 28.4309 20.7388 28.4309C20.6331 28.4309 20.52 28.4411 20.4179 28.4512C20.2551 28.4668 20.0703 28.4843 19.9931 28.4392C19.9121 28.3923 19.834 28.2213 19.7659 28.0714C19.6777 27.8765 19.5866 27.6824 19.4331 27.5289C19.2758 27.3716 19.0717 27.2787 18.8905 27.196C18.7397 27.1279 18.5696 27.0498 18.5227 26.9688C18.4776 26.8907 18.4951 26.7068 18.5107 26.544C18.5291 26.3454 18.5512 26.1201 18.4923 25.9022C18.4363 25.6916 18.3075 25.5113 18.1935 25.3523C18.0914 25.2088 17.9857 25.0617 17.9857 24.9615V24.9605ZM23.1049 33.0324L22.1577 32.5589C22.0584 32.5092 21.9425 32.5092 21.8432 32.5589L20.8961 33.0324V29.1528C20.9816 29.1822 21.0929 29.2613 21.2004 29.3386C21.4119 29.4894 21.6749 29.6779 21.9995 29.6779C22.3241 29.6779 22.5881 29.4903 22.7986 29.3386C22.9062 29.2613 23.0184 29.1813 23.103 29.1528V33.0324H23.1049Z" fill="#2A9B58"/>
</g>
<defs>
<clipPath id="clip0_70_3518">
<rect width="44" height="44" fill="white"/>
</clipPath>
</defs>
</svg>
