<svg width="81" height="79" viewBox="0 0 81 79" fill="none" xmlns="http://www.w3.org/2000/svg">
<g clip-path="url(#clip0_113_2942)">
<path d="M76.7201 63.5738H4.34388C3.06122 63.5738 2.01953 62.5373 2.01953 61.261V3.59214C2.01953 2.31583 3.06122 1.2793 4.34388 1.2793H76.7201C78.0027 1.2793 79.0444 2.31583 79.0444 3.59214V61.261C79.0444 62.5373 78.0027 63.5738 76.7201 63.5738Z" fill="#0067C5"/>
<path d="M54.9751 52.2896C54.9751 51.0582 53.5644 50.0292 53.2607 48.8953C52.9444 47.7213 53.6397 46.1303 53.0423 45.1013C52.4374 44.0598 50.6979 43.8649 49.8469 43.0207C48.996 42.174 48.8027 40.4456 47.756 39.8412C46.7244 39.2467 45.1229 39.9386 43.9432 39.6239C42.8036 39.3217 41.7695 37.918 40.532 37.918C39.2945 37.918 38.2603 39.3217 37.1208 39.6239C35.941 39.9386 34.3421 39.2467 33.3079 39.8412C32.2612 40.4431 32.0654 42.174 31.217 43.0207C30.3686 43.8674 28.6291 44.0598 28.0216 45.1013C27.4242 46.1278 28.1195 47.7213 27.8033 48.8953C27.4995 50.0292 26.0889 51.0582 26.0889 52.2896C26.0889 53.5209 27.4995 54.55 27.8033 55.6839C28.1195 56.8578 27.4242 58.4489 28.0216 59.4779C28.6266 60.5194 30.3661 60.7142 31.217 61.5585C31.7215 62.0605 31.9951 62.8722 32.3516 63.5766H48.7099C49.0663 62.8722 49.3399 62.0605 49.8444 61.5585C50.6954 60.7118 52.4323 60.5194 53.0398 59.4779C53.6372 58.4514 52.9419 56.8578 53.2582 55.6839C53.5619 54.55 54.9751 53.5209 54.9751 52.2896Z" fill="#0055A3"/>
<path d="M67.011 6.06982H14.0555V6.3146C14.0555 10.146 10.9329 13.2531 7.08242 13.2531H6.83643V51.5975H7.08242C10.9329 51.5975 14.0555 54.7046 14.0555 58.536V58.7808H67.011V58.536C67.011 54.7046 70.1336 51.5975 73.9841 51.5975H74.2301V13.2556H73.9841C70.1336 13.2556 67.011 10.1485 67.011 6.31709V6.07232V6.06982Z" fill="white"/>
<path d="M54.9751 52.2896C54.9751 51.0582 53.5644 50.0292 53.2607 48.8953C52.9444 47.7213 53.6397 46.1303 53.0423 45.1013C52.4374 44.0598 50.6979 43.8649 49.8469 43.0207C48.996 42.174 48.8027 40.4456 47.756 39.8412C46.7244 39.2467 45.1229 39.9386 43.9432 39.6239C42.8036 39.3217 41.7695 37.918 40.532 37.918C39.2945 37.918 38.2603 39.3217 37.1208 39.6239C35.941 39.9386 34.3421 39.2467 33.3079 39.8412C32.2612 40.4431 32.0654 42.174 31.217 43.0207C30.3686 43.8674 28.6291 44.0598 28.0216 45.1013C27.4242 46.1278 28.1195 47.7213 27.8033 48.8953C27.4995 50.0292 26.0889 51.0582 26.0889 52.2896C26.0889 53.5209 27.4995 54.55 27.8033 55.6839C28.0543 56.6181 27.6652 57.8169 27.7957 58.786H53.2607C53.3937 57.8169 53.0047 56.6181 53.2532 55.6839C53.5569 54.55 54.9676 53.5209 54.9676 52.2896H54.9751Z" fill="#F2FBFF"/>
<path d="M73.9839 13.2555C71.4637 13.2555 69.2574 11.9267 68.0324 9.93359V46.7293C68.0324 47.7159 67.2292 48.5152 66.2377 48.5152C63.2407 48.5152 60.8109 50.9329 60.8109 53.9152C60.8109 54.9017 60.0076 55.701 59.0161 55.701H13.4453C13.8369 56.5677 14.0528 57.5293 14.0528 58.5384V58.7831H67.0083V58.5384C67.0083 54.7069 70.1309 51.5998 73.9814 51.5998H74.2273V13.2555H73.9814H73.9839Z" fill="#F2FBFF"/>
<path d="M17.3438 18.9529H64.5311V27.2377H17.3438V18.9529Z" fill="#0067C5"/>
<path d="M45.3465 77.6433L40.5321 75.2481L35.7178 77.6433V58.7859H45.3465V77.6433Z" fill="#01C0FA"/>
<path d="M35.7178 64.8978C36.2098 64.8553 36.6942 64.8378 37.1209 64.9502C38.2605 65.2524 39.2947 66.6561 40.5321 66.6561C41.7696 66.6561 42.8038 65.2524 43.9434 64.9502C44.3726 64.8353 44.8545 64.8553 45.3465 64.8978V58.7834H35.7178V64.8978Z" fill="#08A9F1"/>
<path d="M54.9751 49.2051C54.9751 50.434 53.5644 51.4655 53.2607 52.5995C52.9444 53.7734 53.6397 55.3644 53.0423 56.3934C52.4374 57.435 50.6979 57.6298 49.8469 58.474C48.996 59.3207 48.8027 61.0491 47.756 61.6535C46.7244 62.248 45.1229 61.5561 43.9432 61.8708C42.8036 62.1731 41.7695 63.5767 40.532 63.5767C39.2945 63.5767 38.2603 62.1731 37.1208 61.8708C35.941 61.5561 34.3421 62.248 33.3079 61.6535C32.2612 61.0516 32.0654 59.3207 31.217 58.474C30.3661 57.6273 28.6291 57.435 28.0216 56.3934C27.4242 55.3669 28.1195 53.7734 27.8033 52.5995C27.4995 51.4655 26.0889 50.4365 26.0889 49.2051C26.0889 47.9738 27.4995 46.9447 27.8033 45.8108C28.1195 44.6369 27.4242 43.0459 28.0216 42.0168C28.6266 40.9753 30.3661 40.7805 31.217 39.9362C32.0679 39.0895 32.2612 37.3611 33.3079 36.7567C34.3396 36.1623 35.941 36.8541 37.1208 36.5394C38.2603 36.2372 39.2945 34.8335 40.532 34.8335C41.7695 34.8335 42.8036 36.2372 43.9432 36.5394C45.1229 36.8541 46.7219 36.1623 47.756 36.7567C48.8027 37.3586 48.9985 39.0895 49.8469 39.9362C50.6979 40.783 52.4349 40.9753 53.0423 42.0168C53.6397 43.0434 52.9444 44.6369 53.2607 45.8108C53.5644 46.9447 54.9751 47.9738 54.9751 49.2051Z" fill="#FED402"/>
<path d="M39.754 51.3706L38.0521 49.6771C37.1133 48.743 35.5872 48.743 34.6484 49.6771C33.7096 50.6113 33.7096 52.1299 34.6484 53.064L38.0521 56.4508C38.9909 57.385 40.517 57.385 41.4558 56.4508L46.4158 51.5154C47.3545 50.5813 47.3545 49.0627 46.4158 48.1286C45.477 47.1944 43.9508 47.1944 43.0121 48.1286L39.754 51.3706Z" fill="#FAC600"/>
<path d="M53.2579 52.5989C53.5616 51.4649 54.9723 50.4359 54.9723 49.2045C54.9723 47.9732 53.5616 46.9441 53.2579 45.8102C52.9416 44.6363 53.6369 43.0453 53.0395 42.0162C52.4346 40.9747 50.6951 40.7799 49.8442 39.9356C48.9932 39.0889 48.8 37.3605 47.7533 36.7561C46.7216 36.1617 45.1202 36.8535 43.9404 36.5388C43.6769 36.4689 43.4183 36.339 43.1623 36.1816C43.3028 36.4339 43.4585 36.6637 43.6467 36.8485C44.4977 37.6952 46.2346 37.8876 46.8421 38.9291C47.4395 39.9556 46.7442 41.5491 47.0605 42.7231C47.3642 43.857 48.7749 44.886 48.7749 46.1174C48.7749 47.3487 47.3642 48.3778 47.0605 49.5117C46.7442 50.6856 47.4395 52.2767 46.8421 53.3057C46.2372 54.3472 44.4977 54.5421 43.6467 55.3863C42.7958 56.233 42.6025 57.9614 41.5558 58.5658C40.5242 59.1603 38.9227 58.4684 37.743 58.7831C36.6034 59.0853 35.5692 60.489 34.3318 60.489C33.3829 60.489 32.5521 59.6598 31.7012 59.1378C32.1957 60.0245 32.4919 61.1784 33.3101 61.6479C34.3418 62.2424 35.9432 61.5505 37.123 61.8652C38.2626 62.1675 39.2967 63.5711 40.5342 63.5711C41.7717 63.5711 42.8058 62.1675 43.9454 61.8652C45.1252 61.5505 46.7241 62.2424 47.7583 61.6479C48.805 61.046 49.0008 59.3151 49.8492 58.4684C50.7001 57.6217 52.4371 57.4294 53.0445 56.3878C53.6419 55.3588 52.9466 53.7678 53.2629 52.5939L53.2579 52.5989Z" fill="#FAC600"/>
<path d="M39.754 48.2856L38.0521 46.5922C37.1133 45.658 35.5872 45.658 34.6484 46.5922C33.7096 47.5263 33.7096 49.0449 34.6484 49.979L38.0521 53.3659C38.9909 54.3 40.517 54.3 41.4558 53.3659L46.4158 48.4305C47.3545 47.4963 47.3545 45.9777 46.4158 45.0436C45.477 44.1095 43.9508 44.1095 43.0121 45.0436L39.754 48.2856Z" fill="#05E39C"/>
<path d="M57.6334 25.9039C56.8929 25.9039 56.293 26.5009 56.293 27.2377C56.293 27.9745 56.8929 28.5714 57.6334 28.5714H64.5312C65.2716 28.5714 65.8715 27.9745 65.8715 27.2377V18.9529C65.8715 18.2161 65.2716 17.6191 64.5312 17.6191H17.3438C16.6033 17.6191 16.0034 18.2161 16.0034 18.9529V27.2377C16.0034 27.9745 16.6033 28.5714 17.3438 28.5714H51.3782C52.1187 28.5714 52.7186 27.9745 52.7186 27.2377C52.7186 26.5009 52.1187 25.9039 51.3782 25.9039H18.6842V20.2867H63.1908V25.9039H57.6334Z" fill="black"/>
<path d="M37.2312 54.1826C37.9064 54.8544 38.8025 55.2216 39.7538 55.2216C40.7051 55.2216 41.6038 54.8519 42.279 54.1826L47.2389 49.2472C47.9141 48.5753 48.2856 47.6836 48.2856 46.737C48.2856 45.7904 47.9141 44.8962 47.2414 44.2243C46.5662 43.5525 45.6701 43.1853 44.7163 43.1853C43.7624 43.1853 42.8663 43.555 42.1911 44.2243L39.7538 46.6496L38.8728 45.7729C37.4822 44.3892 35.2156 44.3892 33.825 45.7729C33.1497 46.4448 32.7808 47.3364 32.7808 48.2856C32.7808 49.2347 33.1523 50.1263 33.8275 50.7982L37.2312 54.1851V54.1826ZM35.4716 47.4089C35.7075 47.1741 36.0188 47.0467 36.3526 47.0467C36.6865 47.0467 36.9977 47.1766 37.2337 47.4089L38.9355 49.1023C39.1539 49.3196 39.4501 49.442 39.7563 49.442C40.0626 49.442 40.3613 49.3196 40.5771 49.1023L43.8352 45.8603C44.0712 45.6255 44.3824 45.4981 44.7163 45.4981C45.0501 45.4981 45.3614 45.628 45.5973 45.8603C45.8333 46.0951 45.9613 46.4048 45.9613 46.737C45.9613 47.0692 45.8308 47.3789 45.5973 47.6137L40.6374 52.5491C40.4014 52.7839 40.0902 52.9113 39.7563 52.9113C39.4225 52.9113 39.1112 52.7814 38.8753 52.5491L35.4716 49.1622C35.2356 48.9275 35.1076 48.6177 35.1076 48.2856C35.1076 47.9534 35.2381 47.6437 35.4716 47.4089Z" fill="black"/>
<path d="M76.7201 0.123047H18.6691C18.0265 0.123047 17.5069 0.640066 17.5069 1.27947C17.5069 1.91888 18.0265 2.43589 18.6691 2.43589H76.7201C77.3602 2.43589 77.8823 2.95541 77.8823 3.59232V61.2612C77.8823 61.8981 77.3602 62.4176 76.7201 62.4176H48.6823C49.3626 61.8806 49.719 61.0988 50.0403 60.397C50.1106 60.2421 50.1809 60.0872 50.2537 59.9399H67.0086C67.6511 59.9399 68.1707 59.4229 68.1707 58.7835V58.5387C68.1707 55.3492 70.7787 52.7566 73.9816 52.7566H74.2276C74.8702 52.7566 75.3898 52.2396 75.3898 51.6001V13.2558C75.3898 12.6164 74.8702 12.0994 74.2276 12.0994H73.9816C70.7762 12.0994 68.1707 9.50432 68.1707 6.31728V6.07251C68.1707 5.43311 67.6511 4.91609 67.0086 4.91609H14.0555C13.4129 4.91609 12.8933 5.43311 12.8933 6.07251V6.31728C12.8933 9.50681 10.2854 12.0994 7.08247 12.0994H6.83648C6.19389 12.0994 5.6743 12.6164 5.6743 13.2558V41.4596C5.6743 42.099 6.19389 42.616 6.83648 42.616C7.47906 42.616 7.99865 42.099 7.99865 41.4596V14.3623C11.7563 13.9427 14.7458 10.9655 15.1675 7.22893H65.8991C66.3208 10.968 69.3128 13.9427 73.0679 14.3623V50.4962C69.3103 50.9158 66.3208 53.893 65.8991 57.6295H53.5218C53.7201 57.4422 53.9008 57.2274 54.0489 56.9726C54.571 56.076 54.4756 55.0769 54.3928 54.1977C54.3476 53.7132 54.2999 53.2136 54.3828 52.8989C54.4606 52.6117 54.7417 52.2196 55.0153 51.8374C55.5148 51.1406 56.1373 50.2764 56.1373 49.2074C56.1373 48.1384 55.5148 47.2717 55.0153 46.5773C54.7417 46.1952 54.4581 45.803 54.3828 45.5158C54.2974 45.2011 54.3451 44.7016 54.3903 44.217C54.4731 43.3353 54.5685 42.3388 54.0464 41.4421C53.5193 40.5354 52.5956 40.1158 51.7798 39.7462C51.343 39.5489 50.8887 39.344 50.6678 39.1218C50.4444 38.8995 50.2386 38.4499 50.0403 38.0153C49.6688 37.2035 49.2496 36.2844 48.3359 35.7599C47.4348 35.2404 46.4308 35.3353 45.5472 35.4177C45.0603 35.4627 44.5582 35.5101 44.242 35.4277C43.9533 35.3503 43.5592 35.0705 43.1752 34.7983C42.4749 34.3012 41.6064 33.6818 40.532 33.6818C39.4577 33.6818 38.5867 34.3012 37.8889 34.7983C37.5049 35.0705 37.1108 35.3528 36.8221 35.4277C36.5058 35.5126 36.0038 35.4652 35.5169 35.4202C34.6308 35.3378 33.6293 35.2429 32.7281 35.7624C31.817 36.2869 31.3953 37.206 31.0238 38.0178C30.8255 38.4524 30.6197 38.9045 30.3963 39.1243C30.1729 39.3465 29.721 39.5514 29.2843 39.7487C28.4685 40.1183 27.5448 40.5354 27.0177 41.4446C26.4956 42.3413 26.591 43.3403 26.6738 44.2195C26.719 44.7041 26.7667 45.2036 26.6838 45.5183C26.606 45.8055 26.3249 46.1977 26.0513 46.5798C25.5518 47.2767 24.9293 48.1409 24.9293 49.2099C24.9293 50.2789 25.5518 51.1456 26.0513 51.8399C26.3249 52.2221 26.6085 52.6142 26.6838 52.9014C26.7692 53.2161 26.7215 53.7157 26.6763 54.2002C26.5935 55.0819 26.4981 56.0785 27.0202 56.9751C27.1683 57.2299 27.3465 57.4447 27.5473 57.632H15.17C14.7483 53.893 11.7563 50.9183 8.00116 50.4987V46.8596C8.00116 46.2201 7.48157 45.7031 6.83899 45.7031C6.1964 45.7031 5.67681 46.2201 5.67681 46.8596V51.6026C5.67681 52.242 6.1964 52.7591 6.83899 52.7591H7.08498C10.2904 52.7591 12.8959 55.3541 12.8959 58.5412V58.786C12.8959 59.4254 13.4154 59.9424 14.058 59.9424H30.8129C30.8857 60.0897 30.956 60.2446 31.0263 60.3995C31.3476 61.1013 31.704 61.8806 32.3843 62.4201H4.34395C3.70387 62.4201 3.18177 61.9006 3.18177 61.2636V3.59232C3.18177 2.95541 3.70387 2.43589 4.34395 2.43589H13.2448C13.8873 2.43589 14.4069 1.91888 14.4069 1.27947C14.4069 0.640066 13.8873 0.123047 13.2448 0.123047H4.34395C2.42121 0.123047 0.857422 1.6791 0.857422 3.59232V61.2612C0.857422 63.1744 2.42121 64.7304 4.34395 64.7304H34.5555V77.6409C34.5555 78.043 34.7638 78.4152 35.1077 78.625C35.4516 78.8348 35.8783 78.8548 36.2398 78.6749L40.5345 76.5394L44.8293 78.6749C45.1908 78.8548 45.6175 78.8348 45.9614 78.625C46.3053 78.4152 46.5136 78.043 46.5136 77.6409V64.7304H76.7252C78.6479 64.7304 80.2117 63.1744 80.2117 61.2612V3.59232C80.2067 1.6791 78.6429 0.123047 76.7201 0.123047ZM27.2536 49.2049C27.2536 48.8777 27.6025 48.3906 27.9414 47.9186C28.3179 47.3966 28.7446 46.8021 28.9304 46.1103C29.1236 45.3934 29.0534 44.6516 28.9906 43.9972C28.9404 43.4602 28.8827 42.8533 29.0308 42.5985C29.1864 42.3313 29.7512 42.0765 30.2482 41.8492C30.8456 41.5795 31.5208 41.2723 32.0429 40.7552C32.5625 40.2382 32.8712 39.5638 33.1423 38.9719C33.3682 38.4774 33.6268 37.9154 33.8953 37.7605C34.1539 37.6132 34.7638 37.6681 35.301 37.7206C35.9586 37.783 36.7041 37.8529 37.4245 37.6606C38.1198 37.4758 38.7172 37.0512 39.2418 36.6765C39.7163 36.3393 40.2032 35.9922 40.5345 35.9922C40.8659 35.9922 41.3528 36.3393 41.8273 36.6765C42.3519 37.0512 42.9493 37.4758 43.6446 37.6606C44.365 37.8529 45.1105 37.783 45.7681 37.7206C46.3078 37.6706 46.9177 37.6132 47.1738 37.7605C47.4423 37.9154 47.6984 38.4774 47.9268 38.9719C48.1979 39.5663 48.5066 40.2382 49.0262 40.7577C49.5458 41.2748 50.2235 41.582 50.8184 41.8517C51.3154 42.0765 51.8802 42.3338 52.0358 42.601C52.1839 42.8583 52.1262 43.4652 52.076 43.9997C52.0132 44.6541 51.9429 45.3959 52.1362 46.1128C52.322 46.8046 52.7487 47.3991 53.1252 47.9211C53.4641 48.3931 53.813 48.8777 53.813 49.2074C53.813 49.5371 53.4641 50.0216 53.1252 50.4937C52.7487 51.0157 52.322 51.6101 52.1362 52.302C51.9429 53.0188 52.0132 53.7606 52.076 54.415C52.1262 54.952 52.1839 55.559 52.0358 55.8137C51.8802 56.081 51.3154 56.3357 50.8184 56.563C50.221 56.8328 49.5458 57.14 49.0237 57.657C48.5192 58.159 48.218 58.7959 47.9243 59.4403C47.6984 59.9349 47.4398 60.4969 47.1712 60.6517C46.9127 60.7991 46.3028 60.7416 45.7656 60.6917C45.1079 60.6292 44.3624 60.5593 43.6421 60.7516C42.9468 60.9365 42.3494 61.3611 41.8247 61.7357C41.3503 62.0729 40.8634 62.4201 40.532 62.4201C40.2007 62.4201 39.7137 62.0729 39.2393 61.7357C38.7147 61.3611 38.1173 60.9365 37.422 60.7516C37.0706 60.6592 36.7117 60.6267 36.3603 60.6267C36.0088 60.6267 35.6348 60.6592 35.301 60.6917C34.7613 60.7416 34.1514 60.7991 33.8953 60.6517C33.6268 60.4969 33.3707 59.9349 33.1423 59.4403C32.8486 58.8009 32.5474 58.159 32.0429 57.6545C31.5233 57.1375 30.8456 56.8303 30.2507 56.5605C29.7537 56.3357 29.1889 56.0785 29.0333 55.8112C28.8852 55.554 28.9429 54.947 28.9931 54.4125C29.0559 53.7581 29.1262 53.0163 28.9329 52.2995C28.7471 51.6076 28.3204 51.0132 27.9439 50.4912C27.605 50.0191 27.2561 49.5346 27.2561 49.2049H27.2536ZM44.1842 75.7727L41.0516 74.2141C40.7253 74.0518 40.3388 74.0518 40.0125 74.2141L36.8798 75.7727V63.0045C37.161 63.1019 37.53 63.3617 37.8864 63.6165C38.5867 64.1135 39.4552 64.7329 40.5295 64.7329C41.6039 64.7329 42.4749 64.1135 43.1727 63.6165C43.5291 63.3617 43.8981 63.0994 44.1792 63.0045V75.7727H44.1842Z" fill="black"/>
</g>
<defs>
<clipPath id="clip0_113_2942">
<rect width="79.3492" height="78.6768" fill="white" transform="translate(0.857422 0.123047)"/>
</clipPath>
</defs>
</svg>
