<svg width="81" height="79" viewBox="0 0 81 79" fill="none" xmlns="http://www.w3.org/2000/svg">
<g clip-path="url(#clip0_113_2958)">
<path d="M72.8105 18.9557L73.8679 18.6045C74.9152 18.2558 75.9475 19.1649 75.7301 20.2433L75.4326 21.7227C75.2276 22.7438 74.3278 23.4785 73.283 23.4785H72.8105V18.9557Z" fill="#FFE5C2"/>
<path d="M61.4649 23.4785V18.9557L60.4076 18.6045C59.3602 18.2558 58.3279 19.1649 58.5454 20.2433L58.8428 21.7227C59.0478 22.7438 59.9476 23.4785 60.9925 23.4785H61.4649Z" fill="#FED2A4"/>
<path d="M67.1388 28.7062C63.9493 28.7062 61.3098 26.2356 61.1098 23.0626L60.7549 17.3841C60.5249 13.7155 63.4494 10.6123 67.1388 10.6123C70.8282 10.6123 73.7527 13.7131 73.5227 17.3841L73.1678 23.0626C72.9678 26.2331 70.3283 28.7062 67.1388 28.7062Z" fill="#FFF3DE"/>
<path d="M64.502 11.1777C62.1599 12.2337 60.5801 14.6521 60.7526 17.3842L61.1075 23.0627C61.3075 26.2332 63.9471 28.7063 67.1365 28.7063C68.6938 28.7063 70.121 28.116 71.1959 27.1422C70.8259 27.212 70.446 27.2493 70.0585 27.2493C66.8691 27.2493 64.2295 24.7787 64.0296 21.6057C63.9696 20.6394 63.6671 15.8301 63.6071 14.8687C63.5221 13.5214 63.8596 12.2512 64.4995 11.1777H64.502Z" fill="#FFE5C2"/>
<path d="M74.8699 30.9678H59.4025C56.7805 30.9678 54.6533 33.0872 54.6533 35.6998V45.6671H79.6191V35.6998C79.6191 33.0872 77.492 30.9678 74.8699 30.9678Z" fill="#F2FBFF"/>
<path d="M75.4024 30.9951C76.2047 31.8419 76.6971 32.9851 76.6971 34.2428V40.3845C76.6971 42.4965 74.9799 44.21 72.8578 44.21H54.6533V45.667H79.6191V35.6998C79.6191 33.2665 77.7745 31.2616 75.4024 30.9976V30.9951Z" fill="#DFF6FD"/>
<path d="M65.6768 44.21L67.139 45.6669L68.6013 44.21H65.6793H65.6768Z" fill="#08A9F1"/>
<path d="M70.5435 15.5788C70.5435 16.7593 70.9284 17.91 71.6383 18.8539L73.293 21.0506L73.5905 16.3235C73.8229 12.6151 70.8684 9.48193 67.1391 9.48193C63.4122 9.48193 60.4552 12.6151 60.6876 16.3235L60.8676 19.1827L64.8644 18.0445C66.3567 17.6186 67.7165 16.8216 68.8138 15.7283L70.5435 14.0048V15.5763V15.5788Z" fill="#B2CAEC"/>
<path d="M65.8044 9.62109C62.7324 10.2612 60.4828 13.073 60.6878 16.3257L60.8677 19.1848L63.8297 18.343C63.7373 16.8661 63.6423 15.3643 63.6123 14.8712C63.4823 12.7891 64.3546 10.8888 65.8069 9.62358L65.8044 9.62109Z" fill="#6D88A8"/>
<path d="M68.7861 25.7126C68.8936 25.4312 68.7511 25.1149 68.4661 25.0102C67.6088 24.689 66.6664 24.689 65.8091 25.0102C65.5266 25.1173 65.3816 25.4312 65.4891 25.7126C65.5966 25.994 65.9116 26.136 66.194 26.0314C66.8014 25.8022 67.4688 25.8022 68.0762 26.0314C68.3587 26.1385 68.6761 25.9965 68.7811 25.7126H68.7861Z" fill="black"/>
<path d="M67.9071 23.053C67.9071 22.7516 67.6621 22.5075 67.3597 22.5075H66.9173C66.7148 22.5075 66.5523 22.3431 66.5523 22.1439V20.7915C66.5523 20.4902 66.3074 20.2461 66.0049 20.2461C65.7025 20.2461 65.4575 20.4902 65.4575 20.7915V22.1439C65.4575 22.9459 66.1124 23.6009 66.9198 23.6009H67.3622C67.6646 23.6009 67.9096 23.3568 67.9096 23.0554L67.9071 23.053Z" fill="black"/>
<path d="M72.6053 37.2041H69.4858C69.0683 37.2041 68.7334 37.4482 68.7334 37.7495C68.7334 38.0509 69.0708 38.295 69.4858 38.295H72.6053C73.0227 38.295 73.3576 38.0509 73.3576 37.7495C73.3576 37.4482 73.0202 37.2041 72.6053 37.2041Z" fill="black"/>
<path d="M66.3286 33.5557C66.3286 33.857 66.5211 34.1011 66.756 34.1011H67.1435C67.3809 34.1011 67.5709 33.857 67.5709 33.5557C67.5709 33.2543 67.3784 33.0103 67.1435 33.0103H66.756C66.5186 33.0103 66.3286 33.2543 66.3286 33.5557Z" fill="black"/>
<path d="M66.3286 37.4307C66.3286 37.732 66.5211 37.9761 66.756 37.9761H67.1435C67.3809 37.9761 67.5709 37.732 67.5709 37.4307C67.5709 37.1293 67.3784 36.8853 67.1435 36.8853H66.756C66.5186 36.8853 66.3286 37.1293 66.3286 37.4307Z" fill="black"/>
<path d="M76.2673 20.3505C76.4073 19.6507 76.1723 18.9533 75.6349 18.4801C75.1875 18.0866 74.6076 17.9172 74.0327 18.0044L74.1352 16.3581C74.2177 15.0381 73.9277 13.7281 73.2928 12.575C73.1479 12.311 72.8154 12.2139 72.5479 12.3583C72.283 12.5028 72.1855 12.834 72.3305 13.1005C72.8654 14.0743 73.1104 15.1776 73.0404 16.2909C72.9329 18.0218 72.9629 17.5387 72.8379 19.5386L72.0755 18.5274C71.4406 17.6831 71.0882 16.6346 71.0882 15.5786V14.0071C71.0882 13.7854 70.9557 13.5862 70.7507 13.5015C70.5458 13.4168 70.3108 13.4641 70.1534 13.6185L68.4236 15.342C67.3938 16.3681 66.1115 17.1203 64.7118 17.5187L61.3723 18.4701L61.2348 16.2884C61.1324 14.6471 61.6973 13.0831 62.8271 11.8851C63.9569 10.6871 65.4891 10.0271 67.1389 10.0271C68.4886 10.0271 69.7609 10.468 70.8157 11.3023C71.0532 11.4891 71.3981 11.4517 71.5856 11.2151C71.7731 10.9785 71.7356 10.6348 71.4981 10.448C70.2483 9.4593 68.7411 8.93628 67.1414 8.93628C65.1867 8.93628 63.372 9.71832 62.0322 11.1379C60.6924 12.5576 60.0225 14.4105 60.145 16.3557L60.2475 18.0019C59.6726 17.9147 59.0927 18.0816 58.6428 18.4776C58.1054 18.9483 57.8704 19.6482 58.0104 20.348L58.3078 21.8274C58.5428 22.998 59.5201 23.8722 60.6874 24.0042C61.3048 27.0078 63.9819 29.2493 67.1414 29.2493C70.3008 29.2493 72.9754 27.0103 73.5953 24.0042C74.7651 23.8722 75.7399 22.998 75.9749 21.8274L76.2723 20.348L76.2673 20.3505ZM60.315 19.1501C60.3225 19.287 60.54 22.7514 60.5475 22.871C59.9651 22.7066 59.5001 22.2284 59.3777 21.6157L59.0802 20.1363C59.0177 19.8225 59.1227 19.5112 59.3627 19.2995C59.6026 19.0878 59.9276 19.023 60.2325 19.1227L60.3125 19.1501H60.315ZM72.7329 21.2197L72.6204 23.0304C72.4405 25.9069 70.0334 28.1609 67.1389 28.1609C64.2468 28.1609 61.8372 25.9069 61.6573 23.0304L61.4423 19.5909L65.0142 18.5747C66.5914 18.1264 68.0387 17.2772 69.201 16.1215L69.9959 15.3295V15.5836C69.9959 16.8737 70.4233 18.1538 71.2007 19.1874L72.7329 21.2247V21.2197ZM74.9101 19.2995C75.15 19.5112 75.255 19.8225 75.1925 20.1363L74.8951 21.6157C74.7726 22.2309 74.3077 22.7091 73.7252 22.871C73.8577 20.7515 73.8102 21.5161 73.9577 19.1501L74.0377 19.1227C74.3426 19.0206 74.6676 19.0878 74.9076 19.2995H74.9101Z" fill="black"/>
<path d="M74.8705 30.4197H59.4031C56.481 30.4197 54.1064 32.7882 54.1064 35.6972V38.3148C54.1064 38.6162 54.3514 38.8602 54.6539 38.8602C54.9563 38.8602 55.2013 38.6162 55.2013 38.3148V35.6972C55.2013 33.3885 57.0859 31.5106 59.4031 31.5106H74.8705C75.9403 31.5106 76.9401 31.9066 77.7025 32.6015H79.1623C78.1674 31.2267 76.5902 30.4172 74.8705 30.4172V30.4197Z" fill="black"/>
<path d="M59.7424 45.119V36.6187C59.7424 36.3173 59.4974 36.0732 59.195 36.0732C58.8925 36.0732 58.6476 36.3173 58.6476 36.6187V45.119H55.2057V40.8626C55.2057 40.5612 54.9607 40.3172 54.6582 40.3172C54.3558 40.3172 54.1108 40.5612 54.1108 40.8626V45.6644C54.1108 45.9657 54.3558 46.2098 54.6582 46.2098H79.2041V45.119H59.7449H59.7424Z" fill="black"/>
<path d="M79.6595 38.8629C79.3571 38.8629 79.1121 38.6188 79.1121 38.3174V35.6999C79.1121 33.3911 77.2274 31.5132 74.9103 31.5132H70.4561V30.4224H74.9103C77.8323 30.4224 80.2069 32.7909 80.2069 35.6999V38.3174C80.2069 38.6188 79.962 38.8629 79.6595 38.8629Z" fill="black"/>
<path d="M70.4059 45.119H74.5202V36.6187C74.5202 36.3173 74.7652 36.0732 75.0676 36.0732C75.37 36.0732 75.615 36.3173 75.615 36.6187V45.119H79.0569V40.8626C79.0569 40.5612 79.3019 40.3172 79.6043 40.3172C79.9068 40.3172 80.1517 40.5612 80.1517 40.8626V45.6644C80.1517 45.9657 79.9068 46.2098 79.6043 46.2098H70.4009V45.119H70.4059Z" fill="black"/>
<path d="M19.6396 21.7229V12.0122H7.50913V21.7229C7.50913 22.368 6.98421 22.891 6.33682 22.891H5.08203V23.7926C5.08203 25.1922 6.14435 26.3479 7.50913 26.4998V26.5172H19.6396V26.4998C21.0044 26.3479 22.0667 25.1947 22.0667 23.7926V22.891H20.8119C20.1645 22.891 19.6396 22.368 19.6396 21.7229Z" fill="#FAC600"/>
<path d="M7.50904 17.3045H7.00412C5.88681 17.3045 4.92447 16.52 4.70701 15.4266L4.38956 13.8451C4.1596 12.6945 5.26191 11.7231 6.38173 12.0942L7.51154 12.4703V17.3045H7.50904Z" fill="#FFDFCF"/>
<path d="M19.6397 17.3045H20.1446C21.2619 17.3045 22.2243 16.52 22.4417 15.4266L22.7592 13.8451C22.9891 12.6945 21.8868 11.7231 20.767 12.0942L19.6372 12.4703V17.3045H19.6397Z" fill="#FFCEBF"/>
<path d="M13.5727 22.891C10.1633 22.891 7.34123 20.251 7.12877 16.8588L6.74883 10.7893C6.50387 6.86669 9.62835 3.55176 13.5727 3.55176C17.517 3.55176 20.6415 6.86669 20.3966 10.7893L20.0166 16.8588C19.8041 20.2485 16.9821 22.891 13.5727 22.891Z" fill="#FFEEE6"/>
<path d="M16.3898 4.15698C17.0746 5.30264 17.4346 6.66249 17.3446 8.10203C17.2796 9.13063 16.9572 14.2736 16.8922 15.3047C16.6797 18.6944 13.8577 21.3369 10.4483 21.3369C10.0333 21.3369 9.62589 21.297 9.23096 21.2223C10.3808 22.2634 11.9055 22.8935 13.5702 22.8935C16.9797 22.8935 19.8017 20.2535 20.0142 16.8613L20.3941 10.7918C20.5766 7.87041 18.8893 5.28521 16.3873 4.15698H16.3898Z" fill="#FFDFCF"/>
<path d="M9.93366 10.8039H13.8255C15.1578 10.8039 16.3726 10.0542 16.97 8.86872L17.2124 8.38804L20.2619 12.9458L20.4819 9.43906C20.7219 5.59613 17.6599 2.34595 13.793 2.34595H13.608C9.58621 2.34595 6.42924 5.69575 6.6767 9.65823C6.79168 11.4913 6.88417 12.9458 6.88417 12.9458L9.93366 8.38804V10.8064V10.8039Z" fill="#FED402"/>
<path d="M15.1226 2.47559C16.6024 3.78811 17.4922 5.7432 17.3572 7.88259L17.3147 8.54508L20.2593 12.9484L20.4792 9.44168C20.6917 6.04954 18.3321 3.12313 15.1201 2.47808L15.1226 2.47559Z" fill="#FAC600"/>
<path d="M20.2367 25.3091H6.91141C3.89191 25.3091 1.44482 27.7473 1.44482 30.7559V41.0195H25.7058V30.7559C25.7058 27.7473 23.2587 25.3091 20.2392 25.3091H20.2367Z" fill="#01C0FA"/>
<path d="M20.9891 25.3586C21.9715 26.3424 22.5788 27.6998 22.5788 29.1991V35.5326C22.5788 37.7043 20.8116 39.4627 18.6345 39.4627H1.44238V41.0193H25.7033V30.7557C25.7033 28.0011 23.6537 25.7248 20.9891 25.3586Z" fill="#08A9F1"/>
<path d="M18.4246 25.3091L17.2123 28.9353L13.5729 34.9774L9.93349 28.9353L8.72119 25.3091H18.4246Z" fill="#F2FBFF"/>
<path d="M13.5731 34.9774L8.72145 25.3091L7.03173 27.8345C6.6418 28.4198 6.85176 29.2118 7.48166 29.5256L8.72145 30.1433V31.8393C8.72145 32.2826 8.97141 32.6861 9.36884 32.8829L13.5731 34.9774Z" fill="#01D0FB"/>
<path d="M13.5728 34.9774L18.4244 25.3091L20.1142 27.8345C20.5041 28.4198 20.2941 29.2118 19.6642 29.5256L18.4244 30.1433V31.8393C18.4244 32.2826 18.1745 32.6861 17.7771 32.8829L13.5728 34.9774Z" fill="#01D0FB"/>
<path d="M12.5678 20.0318C13.2177 19.7877 13.9326 19.7877 14.58 20.0318C14.8824 20.1464 15.2199 19.9944 15.3348 19.6906C15.4498 19.3892 15.2974 19.053 14.9924 18.9384C14.0776 18.5947 13.0677 18.5947 12.1529 18.9384C11.8504 19.053 11.698 19.3892 11.8104 19.6906C11.9254 19.9919 12.2629 20.1439 12.5653 20.0318H12.5678Z" fill="black"/>
<path d="M6.29389 36.6657C6.61633 36.6657 6.87879 36.4042 6.87879 36.0829V31.3533C6.87879 31.032 6.61633 30.7705 6.29389 30.7705C5.97144 30.7705 5.70898 31.032 5.70898 31.3533V36.0829C5.70898 36.4042 5.97144 36.6657 6.29389 36.6657Z" fill="black"/>
<path d="M13.3358 17.4316H13.8082C14.6706 17.4316 15.3705 16.7342 15.3705 15.875V14.4304C15.3705 14.1092 15.108 13.8477 14.7856 13.8477C14.4631 13.8477 14.2007 14.1092 14.2007 14.4304V15.875C14.2007 16.0892 14.0257 16.2635 13.8107 16.2635H13.3383C13.0159 16.2635 12.7534 16.525 12.7534 16.8463C12.7534 17.1676 13.0159 17.4291 13.3383 17.4291L13.3358 17.4316Z" fill="black"/>
<path d="M18.4246 35.6025H15.9975C15.6751 35.6025 15.4126 35.8641 15.4126 36.1853C15.4126 36.5066 15.6751 36.7681 15.9975 36.7681H18.4246C18.747 36.7681 19.0095 36.5066 19.0095 36.1853C19.0095 35.8641 18.747 35.6025 18.4246 35.6025Z" fill="black"/>
<path d="M25.7033 40.4369H25.0759V30.1011C25.0759 29.7798 25.3383 29.5183 25.6608 29.5183H25.7008V28.1684C25.0234 26.7463 23.8186 25.6604 22.3738 25.115C22.5538 24.7015 22.6488 24.2557 22.6488 23.795V22.8934C22.6488 22.5721 22.3863 22.3106 22.0639 22.3106H20.8091C20.4866 22.3106 20.2242 22.0491 20.2242 21.7278V18.7665C20.3267 18.4776 20.4092 18.1788 20.4716 17.8724C21.7214 17.7305 22.7638 16.7965 23.0162 15.5437L23.3337 13.9622C23.4836 13.2151 23.2312 12.4679 22.6563 11.9623C22.1764 11.5414 21.5565 11.3621 20.9416 11.4542L21.0665 9.47425C21.194 7.45191 20.4966 5.52671 19.1044 4.04981C17.7121 2.57291 15.8249 1.76099 13.7928 1.76099H13.6078C11.2382 1.76099 9.05605 2.82944 7.62129 4.69487C7.42382 4.95139 7.47381 5.3175 7.72877 5.51426C7.98623 5.71101 8.35367 5.6612 8.55114 5.40716C9.76343 3.83313 11.6056 2.93155 13.6103 2.93155H13.7953C15.5025 2.93155 17.0847 3.61396 18.252 4.85177C19.4193 6.08958 20.0042 7.70844 19.8992 9.40451L19.7868 11.1853L17.6996 8.06708C17.5846 7.89274 17.3847 7.79561 17.1747 7.80806C16.9672 7.82052 16.7798 7.94255 16.6873 8.12935L16.4448 8.61002C15.9449 9.60376 14.9426 10.2239 13.8253 10.2239H10.5183V8.39086C10.5183 8.13433 10.3483 7.90769 10.1034 7.83297C9.85592 7.75825 9.58846 7.85289 9.44599 8.06708L7.35883 11.1853L7.26135 9.62368C7.22136 8.98361 7.27635 8.34602 7.42882 7.73086C7.50631 7.41705 7.31384 7.10075 6.99889 7.02603C6.68395 6.94882 6.3665 7.14059 6.29151 7.4544C6.11154 8.18414 6.04655 8.93878 6.09405 9.69591L6.20403 11.4542C5.58913 11.3621 4.96923 11.5389 4.48931 11.9623C3.91691 12.4679 3.66195 13.2151 3.81193 13.9622L4.12937 15.5437C4.37933 16.794 5.42416 17.7305 6.67395 17.8724C6.73644 18.1788 6.81892 18.4776 6.92141 18.7665V21.7278C6.92141 22.0491 6.65895 22.3106 6.33651 22.3106H5.08172C4.75927 22.3106 4.49681 22.5721 4.49681 22.8934V23.795C4.49681 24.2557 4.5893 24.704 4.77177 25.115C2.48715 25.9767 0.857422 28.1808 0.857422 30.7561V41.0197C0.857422 41.341 1.11988 41.6025 1.44232 41.6025H25.7008V40.4344L25.7033 40.4369ZM20.8616 12.7618C20.8616 12.7618 20.8616 12.7817 20.8666 12.6771L20.9541 12.6472C21.279 12.5401 21.6264 12.6099 21.8839 12.8365C22.1414 13.0631 22.2538 13.3969 22.1864 13.7306L21.8689 15.3121C21.7364 15.9696 21.2415 16.4802 20.6191 16.6545L20.8641 12.7593L20.8616 12.7618ZM5.28168 15.3146L4.96423 13.7331C4.89675 13.3994 5.00923 13.0631 5.26668 12.839C5.52414 12.6124 5.87158 12.5426 6.19653 12.6497L6.28401 12.6796L6.30401 12.9859L6.53397 16.6595C5.91158 16.4852 5.41416 15.9721 5.28418 15.3171L5.28168 15.3146ZM9.351 10.3185V10.8092C9.351 11.1305 9.61346 11.392 9.9359 11.392H13.8278C15.2375 11.392 16.5198 10.6872 17.2697 9.52904L19.6668 13.1105L19.4343 16.8289C19.2418 19.9047 16.6673 22.3131 13.5753 22.3131C10.4833 22.3131 7.90874 19.9047 7.71627 16.8289L7.48381 13.1105L9.351 10.321V10.3185ZM5.67162 23.4787H6.3415C7.31134 23.4787 8.09871 22.6941 8.09871 21.7278V20.8636C9.39599 22.4625 11.3757 23.4787 13.5778 23.4787C15.7799 23.4787 17.7596 22.46 19.0569 20.8636V21.7278C19.0569 22.6941 19.8442 23.4787 20.8141 23.4787H21.484V23.7975C21.484 24.1561 21.3965 24.4998 21.229 24.8086C20.9066 24.7563 20.5766 24.7289 20.2417 24.7289H6.91141C6.57397 24.7289 6.24402 24.7563 5.92407 24.8086C5.7566 24.4998 5.66912 24.1561 5.66912 23.7975V23.4787H5.67162ZM8.98606 29.6254L7.74627 29.0077C7.59379 28.933 7.48631 28.7985 7.44132 28.6366C7.39883 28.4722 7.42632 28.3054 7.52131 28.1634L8.65112 26.4748L12.2655 33.6775L9.63345 32.365C9.43349 32.2654 9.30851 32.0661 9.30851 31.842V30.1459C9.30851 29.9242 9.18353 29.7225 8.98356 29.6229L8.98606 29.6254ZM12.9904 40.4419H6.88391V38.7333C6.88391 38.4121 6.62146 38.1505 6.29901 38.1505C5.97657 38.1505 5.71411 38.4121 5.71411 38.7333V40.4419H2.02973V30.7611C2.02973 28.0787 4.21936 25.897 6.91141 25.897H7.62879L6.54647 27.5159C6.26652 27.9343 6.18153 28.4523 6.30901 28.9355C6.43649 29.4186 6.77143 29.8271 7.22136 30.0512L8.1362 30.507V31.842C8.1362 32.5094 8.50864 33.1097 9.10854 33.4085L12.9904 35.3412V40.4394V40.4419ZM9.67095 25.897H17.4796L13.5753 33.6775L9.67095 25.897ZM18.4995 26.4748L19.6293 28.1634C19.7243 28.3054 19.7518 28.4722 19.7093 28.6366C19.6643 28.801 19.5568 28.933 19.4043 29.0077L18.1645 29.6254C17.9671 29.725 17.8396 29.9267 17.8396 30.1484V31.8444C17.8396 32.0661 17.7146 32.2678 17.5146 32.3675L14.8826 33.68L18.497 26.4773L18.4995 26.4748ZM23.9061 30.1085V40.4444H21.9114V31.3588C21.9114 31.0375 21.6489 30.776 21.3265 30.776C21.0041 30.776 20.7416 31.0375 20.7416 31.3588V40.4444H14.1627V35.3462L18.042 33.4135C18.6419 33.1146 19.0144 32.5144 19.0144 31.8469V30.512L19.9292 30.0562C20.3792 29.8321 20.7116 29.4236 20.8416 28.9405C20.9716 28.4573 20.8841 27.9368 20.6041 27.5208L19.5218 25.902H20.2392C22.1389 25.902 23.8511 27.0003 24.6509 28.6814C24.201 28.9977 23.9061 29.5208 23.9061 30.111V30.1085Z" fill="black"/>
<path d="M21.5167 28.868C21.9967 31.2539 23.9863 33.0397 26.3684 33.3062C27.6282 39.4329 33.0848 44.0006 39.5262 44.0006C45.9677 44.0006 51.4242 39.4329 52.684 33.3062C55.0661 33.0372 57.0583 31.2539 57.5357 28.8655L58.1406 25.8494C58.4256 24.4248 57.9456 22.9977 56.8508 22.0364C55.936 21.2319 54.7537 20.8907 53.5814 21.0676L53.7913 17.7103C54.0413 13.7453 52.674 9.96464 49.942 7.06812C47.2124 4.17159 43.5106 2.57764 39.5237 2.57764C36.2593 2.57764 33.1873 3.6436 30.6377 5.66344C30.1553 6.04699 30.0753 6.74683 30.4577 7.22751C30.8427 7.70819 31.5451 7.78789 32.0275 7.40683C34.1771 5.70578 36.7692 4.80669 39.5237 4.80669C42.8882 4.80669 46.0101 6.15159 48.3148 8.59483C50.6194 11.0381 51.7717 14.226 51.5617 17.5733L51.2818 22.0214L44.4704 20.0813C41.6184 19.2694 38.9988 17.7352 36.9017 15.6431L33.3723 12.1264C33.0523 11.8077 32.5724 11.713 32.155 11.8849C31.7375 12.0567 31.4651 12.4627 31.4651 12.9135V16.1188C31.4651 18.2731 30.7502 20.4076 29.4529 22.131L27.9007 24.1932C27.6457 20.1186 27.7057 21.1024 27.4857 17.5733C27.3433 15.2994 27.8432 13.0504 28.933 11.0655C29.228 10.525 29.0305 9.85007 28.4881 9.55369C27.9457 9.25732 27.2683 9.45656 26.9708 9.99701C25.6785 12.3506 25.0836 15.018 25.2536 17.7103L25.4636 21.0676C24.2913 20.8907 23.109 21.2319 22.1941 22.0364C21.0993 22.9977 20.6194 24.4248 20.9043 25.8494L21.5092 28.8655L21.5167 28.868ZM53.6039 23.3489C54.2238 23.1422 54.8862 23.2767 55.3761 23.7075C55.866 24.1384 56.081 24.776 55.9535 25.4136L55.3486 28.4296C55.0961 29.6824 54.1538 30.6587 52.964 30.9899C52.979 30.7409 53.4239 23.6801 53.4389 23.4012L53.6039 23.3464V23.3489ZM31.2451 23.4709C32.8299 21.3639 33.7022 18.7563 33.7022 16.1238V15.6058L35.3244 17.2221C37.6915 19.5807 40.641 21.3091 43.8605 22.2257L51.1443 24.2978L50.7044 31.3137C50.3369 37.179 45.4277 41.7741 39.5287 41.7741C33.6297 41.7741 28.7205 37.179 28.3531 31.3137L28.1206 27.6227L31.2451 23.4709ZM23.6814 23.7075C24.1713 23.2767 24.8337 23.1422 25.4536 23.3489L25.6186 23.4037C25.921 28.2279 25.8235 26.6688 26.0935 30.9924C24.9037 30.6587 23.9613 29.6824 23.7089 28.4321L23.104 25.4161C22.9765 24.7785 23.1915 24.1409 23.6814 23.71V23.7075Z" fill="white"/>
<path d="M39.5264 45.9833C32.6801 45.9833 26.6611 41.4306 24.7414 34.985C22.1243 34.1781 20.1197 32.0113 19.5648 29.2567L18.9599 26.2407C18.5324 24.1137 19.2523 21.9868 20.8845 20.5522C21.6069 19.9171 22.4568 19.4688 23.3616 19.2347L23.2741 17.8375C23.0817 14.7691 23.7591 11.7307 25.2313 9.04832C25.6287 8.32357 26.2886 7.79557 27.0835 7.56395C27.5084 7.43942 27.9434 7.40704 28.3683 7.46432C28.2408 7.05836 28.1983 6.625 28.2483 6.18667C28.3433 5.36478 28.7532 4.63007 29.4031 4.11452C32.3076 1.81573 35.807 0.600342 39.5264 0.600342C44.0682 0.600342 48.285 2.41845 51.3944 5.71595C54.5039 9.01594 56.0612 13.3196 55.7787 17.8375L55.6912 19.2347C56.5961 19.4688 57.4459 19.9146 58.1683 20.5522C59.8005 21.9868 60.5179 24.1137 60.093 26.2407L59.4881 29.2567C58.9357 32.0138 56.9285 34.1781 54.3114 34.985C52.3893 41.4306 46.3703 45.9833 39.5264 45.9833ZM30.1505 28.2281L30.3355 31.1919C30.6379 36.0161 34.6747 39.7943 39.5239 39.7943C44.3731 39.7943 48.4099 36.0161 48.7124 31.1919L49.0523 25.7674L43.3083 24.1336C40.3288 23.2844 37.5543 21.8025 35.1971 19.805C34.7272 21.5509 33.9249 23.2096 32.8325 24.6616L30.148 28.2281H30.1505ZM32.5876 9.82039C33.3949 9.82039 34.1848 10.1342 34.7822 10.7294L38.3116 14.2461C40.1713 16.0991 42.4909 17.4589 45.0205 18.1787L49.4523 19.4414L49.5772 17.454C49.7522 14.6595 48.7899 11.9971 46.8652 9.95737C44.9405 7.91761 42.3359 6.79436 39.5264 6.79436C37.2268 6.79436 35.0622 7.54402 33.27 8.96613C32.6201 9.48168 31.8077 9.71081 30.9828 9.61866C30.9629 9.61866 30.9404 9.61368 30.9204 9.61119C30.9828 9.81292 31.0278 10.0196 31.0478 10.2313C31.1603 10.1691 31.2753 10.1118 31.3953 10.062C31.7802 9.90258 32.1851 9.82537 32.5876 9.82537V9.82039ZM29.4781 16.1564C29.4656 16.3382 29.4581 16.52 29.4581 16.7018C29.4706 16.52 29.4781 16.3382 29.4781 16.1564Z" fill="white"/>
<path d="M27.9438 32.2531H26.9815C24.8518 32.2531 23.0171 30.7538 22.5997 28.6742L21.9948 25.6581C21.5549 23.4614 23.6595 21.6084 25.7917 22.3183L27.9463 23.033V32.2556L27.9438 32.2531Z" fill="#FFE5C2"/>
<path d="M51.0787 32.2531H52.041C54.1707 32.2531 56.0053 30.7538 56.4228 28.6742L57.0277 25.6581C57.4676 23.4614 55.363 21.6084 53.2308 22.3183L51.0762 23.033V32.2556L51.0787 32.2531Z" fill="#FED2A4"/>
<path d="M39.5105 42.9125C33.0066 42.9125 27.625 37.8741 27.2201 31.4086L26.4952 19.8325C26.0253 12.3509 31.9893 6.02734 39.5105 6.02734C47.0318 6.02734 52.9958 12.3509 52.5259 19.8325L51.801 31.4086C51.3961 37.8766 46.012 42.9125 39.5105 42.9125Z" fill="#FFF3DE"/>
<path d="M44.8822 7.17554C46.1895 9.36225 46.8744 11.9549 46.7019 14.702C46.5794 16.6646 45.9645 26.4724 45.8395 28.4399C45.4346 34.9054 40.053 39.9438 33.5491 39.9438C32.7567 39.9438 31.9819 39.8691 31.2295 39.7271C33.4216 41.7121 36.3311 42.9126 39.5081 42.9126C46.012 42.9126 51.3936 37.8742 51.7986 31.4087L52.5234 19.8326C52.8734 14.2612 49.6539 9.32987 44.8797 7.17554H44.8822Z" fill="#FFE5C2"/>
<path d="M76.6025 53.2486H75.3277V52.0556C75.3277 51.4405 74.8278 50.9424 74.2104 50.9424H70.5135C70.0486 49.6024 68.7713 48.6361 67.269 48.6361C65.7668 48.6361 64.557 49.5526 64.0621 50.8377C62.0349 48.001 58.8029 46.3298 55.271 46.3298H23.7338C17.7773 46.3298 12.9331 51.1565 12.9331 57.0915V62.4288C12.9331 63.044 13.433 63.5421 14.0504 63.5421C14.6678 63.5421 15.1677 63.044 15.1677 62.4288V57.0915C15.1677 52.3844 19.0096 48.5564 23.7338 48.5564H34.0696L36.0492 54.4715L33.7671 72.665C33.7246 73.0062 33.8421 73.3474 34.0846 73.5915L36.8041 76.3012H24.4237V58.9719C24.4237 58.3567 23.9238 57.8586 23.3064 57.8586C22.689 57.8586 22.1891 58.3567 22.1891 58.9719V76.3012H15.1677V67.6241C15.1677 67.0089 14.6678 66.5108 14.0504 66.5108C13.433 66.5108 12.9331 67.0089 12.9331 67.6241V77.4145C12.9331 78.0297 13.433 78.5278 14.0504 78.5278H78.8346C79.452 78.5278 79.9519 78.0297 79.9519 77.4145V56.586C79.9519 54.7454 78.4472 53.2461 76.6 53.2461L76.6025 53.2486ZM64.9544 53.1689C65.5718 53.1689 66.0717 52.6708 66.0717 52.0556C66.0717 51.3981 66.6091 50.8627 67.269 50.8627C67.9289 50.8627 68.4663 51.3981 68.4663 52.0556C68.4663 52.6708 68.9662 53.1689 69.5836 53.1689H73.093V56.7454C73.093 57.3605 72.5931 57.8586 71.9757 57.8586H62.5623C61.9449 57.8586 61.445 57.3605 61.445 56.7454V53.1689H64.9544ZM42.5806 48.5589L41.0109 53.2486H37.9939L36.4242 48.5589H42.5781H42.5806ZM38.1764 55.4752H40.8309L42.9556 72.4035L39.5037 75.843L36.0517 72.4035L38.1764 55.4752ZM44.9203 73.5915C45.1652 73.3474 45.2827 73.0062 45.2377 72.665L42.9556 54.4715L44.9353 48.5564H55.271C57.5331 48.5564 59.6428 49.4206 61.2175 50.9399H60.3277C59.7103 50.9399 59.2104 51.438 59.2104 52.0531V53.2461H57.9356C56.0884 53.2461 54.5836 54.7454 54.5836 56.586V76.3012H42.2032L44.9228 73.5915H44.9203ZM77.7198 76.3012H56.8158V56.586C56.8158 55.9708 57.3157 55.4727 57.9331 55.4727H59.2079V56.7429C59.2079 58.5834 60.7126 60.0827 62.5598 60.0827H71.9732C73.8204 60.0827 75.3252 58.5834 75.3252 56.7429V55.4727H76.6C77.2174 55.4727 77.7173 55.9708 77.7173 56.586V76.3012H77.7198Z" fill="white"/>
<path d="M79.472 78.5575C79.6319 78.0295 79.8044 77.504 79.9794 76.981V52.3543C79.222 51.7541 78.2997 51.3481 77.2923 51.2211C76.9249 49.8687 75.6801 48.8725 74.2103 48.8725H71.7558C70.7409 47.4529 69.0812 46.5663 67.269 46.5663C66.0717 46.5663 64.9319 46.9623 64.0021 47.6447C61.6549 45.4704 58.5855 44.26 55.271 44.26H23.7338C16.6325 44.26 10.856 50.0157 10.856 57.0914V62.4286C10.856 63.4996 11.3909 64.4485 12.2057 65.0263C11.3884 65.6041 10.856 66.553 10.856 67.6239V77.4143C10.856 77.8178 10.9359 78.2014 11.0734 78.5575H79.4695H79.472ZM63.5221 55.2359H64.9569C65.8667 55.2359 66.6891 54.8548 67.2715 54.2447C67.8539 54.8548 68.6763 55.2359 69.5861 55.2359H71.0184V55.7863H63.5246V55.2359H63.5221ZM58.8954 60.7276C59.8628 61.6117 61.15 62.1522 62.5623 62.1522H71.9757C73.388 62.1522 74.6778 61.6117 75.6426 60.7276V74.2314H58.8929V60.7276H58.8954ZM46.435 50.6259H55.2735C55.9834 50.6259 56.6783 50.738 57.3332 50.9546C57.3007 51.0418 57.2732 51.1315 57.2482 51.2211C54.5786 51.5598 52.509 53.8362 52.509 56.5858V74.2314H46.9899C47.2699 73.676 47.3823 73.0459 47.3024 72.4083L45.0777 54.6805L46.435 50.6259ZM39.7011 50.6259L39.5162 51.1763H39.4937L39.3087 50.6259H39.7011ZM39.5062 61.5744L40.7709 71.6537L39.5062 72.9139L38.2414 71.6537L39.5062 61.5744ZM17.2499 62.4286V57.0914C17.2499 53.5249 20.1619 50.6259 23.7388 50.6259H32.5773L33.9346 54.6805L31.71 72.4083C31.63 73.0459 31.7425 73.676 32.0224 74.2314H26.5033V58.9717C26.5033 57.2159 25.0711 55.7888 23.3089 55.7888C21.5467 55.7888 20.1144 57.2159 20.1144 58.9717V74.2314H17.2474V67.6239C17.2474 66.553 16.7125 65.6041 15.8976 65.0263C16.715 64.4485 17.2474 63.4996 17.2474 62.4286H17.2499Z" fill="white"/>
<path d="M55.2782 47.5227H23.7434C18.3943 47.5227 14.0601 51.8413 14.0601 57.1711V77.4941H64.9615V57.1711C64.9615 51.8413 60.6273 47.5227 55.2782 47.5227Z" fill="#F2FBFF"/>
<path d="M56.3655 47.5823C58.0002 49.3107 59.005 51.6394 59.005 54.2022V66.7272C59.005 71.0334 55.5006 74.5252 51.1788 74.5252H14.0601V77.4939H64.9615V57.1734C64.9615 52.2097 61.1997 48.1227 56.363 47.5848L56.3655 47.5823Z" fill="#DFF6FD"/>
<path d="M41.8261 54.439H37.1994L34.8848 47.5227H44.1407L41.8261 54.439Z" fill="#01D0FB"/>
<path d="M41.8261 54.439H37.1994L34.8848 72.8816L39.5115 77.4916L44.1382 72.8816L41.8236 54.439H41.8261Z" fill="#01C0FA"/>
<path d="M36.5317 74.5254L39.5112 77.4941L42.4907 74.5254H36.5317Z" fill="#08A9F1"/>
<path d="M78.8447 77.4941H55.7061V56.6655C55.7061 55.4352 56.7059 54.439 57.9407 54.439H76.6101C77.8449 54.439 78.8447 55.4352 78.8447 56.6655V77.4941Z" fill="#FE9738"/>
<path d="M69.589 55.1012C69.589 53.8285 68.5541 52.7949 67.2743 52.7949C65.9946 52.7949 64.9597 53.826 64.9597 55.1012H60.333V59.7909C60.333 61.0212 61.3328 62.0175 62.5676 62.0175H71.9811C73.2159 62.0175 74.2157 61.0212 74.2157 59.7909V55.1012H69.589Z" fill="#FE860A"/>
<path d="M76.6105 54.4388H72.8861V69.2402C72.8861 72.1591 70.5115 74.5226 67.5845 74.5226H55.709V77.4914H78.8476V56.6628C78.8476 55.4325 77.8478 54.4363 76.613 54.4363L76.6105 54.4388Z" fill="#FE860A"/>
<path d="M69.589 52.1324C69.589 50.8598 68.5541 49.8262 67.2743 49.8262C65.9946 49.8262 64.9597 50.8573 64.9597 52.1324H60.333V56.8222C60.333 58.0525 61.3328 59.0487 62.5676 59.0487H71.9811C73.2159 59.0487 74.2157 58.0525 74.2157 56.8222V52.1324H69.589Z" fill="#B2CAEC"/>
<path d="M32.57 16.1464V12.941L36.0995 16.4577C38.3366 18.6868 41.1086 20.3131 44.1506 21.1773L52.2967 23.496L52.6617 17.6681C53.1366 10.1093 47.1101 3.71851 39.5089 3.71851C31.9077 3.71851 25.8837 10.1093 26.3561 17.6681L26.961 27.3041L30.3329 22.8236C31.7827 20.8959 32.5675 18.5523 32.5675 16.1439L32.57 16.1464Z" fill="#0067C5"/>
<path d="M42.2281 4.00024C45.1876 6.58295 46.9698 10.4583 46.7023 14.7022C46.6398 15.7059 46.4474 18.7693 46.2574 21.7803L52.2939 23.4988L52.6588 17.6709C53.0738 11.0386 48.4895 5.30779 42.2256 4.00024H42.2281Z" fill="#0055A3"/>
<path d="M37.5918 37.4557C38.8291 36.99 40.1939 36.99 41.4312 37.4557C42.0086 37.6724 42.6535 37.3835 42.8709 36.8057C43.0884 36.2304 42.7959 35.5878 42.2185 35.3711C40.4713 34.7161 38.5491 34.7161 36.8019 35.3711C36.2245 35.5878 35.9321 36.2304 36.1495 36.8057C36.367 37.381 37.0119 37.6699 37.5893 37.4557H37.5918Z" fill="black"/>
<path d="M39.0587 32.4967H39.9611C41.6033 32.4967 42.9406 31.1643 42.9406 29.528V26.7734C42.9406 26.1583 42.4407 25.6602 41.8233 25.6602C41.2059 25.6602 40.7059 26.1583 40.7059 26.7734V29.528C40.7059 29.9364 40.371 30.2702 39.9611 30.2702H39.0587C38.4413 30.2702 37.9414 30.7683 37.9414 31.3835C37.9414 31.9986 38.4413 32.4967 39.0587 32.4967Z" fill="black"/>
<path d="M51.079 60.2419H46.4523C45.8349 60.2419 45.335 60.7401 45.335 61.3552C45.335 61.9704 45.8349 62.4685 46.4523 62.4685H51.079C51.6964 62.4685 52.1963 61.9704 52.1963 61.3552C52.1963 60.7401 51.6964 60.2419 51.079 60.2419Z" fill="black"/>
<path d="M21.5011 28.8934C21.981 31.2793 23.9707 33.0651 26.3528 33.3316C27.6126 39.4583 33.0692 44.026 39.5106 44.026C45.952 44.026 51.4086 39.4583 52.6684 33.3316C55.0505 33.0626 57.0427 31.2793 57.5201 28.8909L58.125 25.8748C58.4099 24.4502 57.93 23.0231 56.8352 22.0618C55.9204 21.2573 54.7381 20.9161 53.5658 21.0929L53.7757 17.7357C54.0257 13.7707 52.6584 9.99003 49.9264 7.09351C47.1968 4.19699 43.4949 2.60303 39.5081 2.60303C36.2437 2.60303 33.1717 3.66899 30.6221 5.68883C30.1397 6.07238 30.0597 6.77222 30.4421 7.2529C30.8271 7.73358 31.5294 7.81328 32.0119 7.43222C34.1615 5.73117 36.7536 4.83208 39.5081 4.83208C42.8725 4.83208 45.9945 6.17698 48.2991 8.62022C50.6038 11.0635 51.7561 14.2514 51.5461 17.5987L51.2661 22.0468L44.4548 20.1067C41.6028 19.2948 38.9832 17.7606 36.886 15.6685L33.3566 12.1518C33.0367 11.833 32.5568 11.7384 32.1393 11.9102C31.7219 12.0821 31.4495 12.4881 31.4495 12.9388V16.1442C31.4495 18.2985 30.7346 20.4329 29.4373 22.1564L27.8851 24.2186C27.6301 20.144 27.6901 21.1278 27.4701 17.5987C27.3276 15.3248 27.8276 13.0758 28.9174 11.0909C29.2123 10.5504 29.0149 9.87546 28.4725 9.57908C27.93 9.28271 27.2527 9.48195 26.9552 10.0224C25.6629 12.376 25.068 15.0434 25.238 17.7357L25.448 21.0929C24.2757 20.9161 23.0934 21.2573 22.1785 22.0618C21.0837 23.0231 20.6038 24.4502 20.8887 25.8748L21.4936 28.8909L21.5011 28.8934ZM53.5883 23.3743C54.2081 23.1676 54.8705 23.3021 55.3605 23.7329C55.8504 24.1638 56.0653 24.8014 55.9379 25.439L55.333 28.455C55.0805 29.7078 54.1382 30.6841 52.9484 31.0153C52.9634 30.7663 53.4083 23.7055 53.4233 23.4266L53.5883 23.3718V23.3743ZM31.2295 23.4963C32.8142 21.3893 33.6866 18.7817 33.6866 16.1492V15.6311L35.3088 17.2475C37.6759 19.6061 40.6254 21.3345 43.8449 22.2511L51.1287 24.3232L50.6887 31.3391C50.3213 37.2044 45.4121 41.7995 39.5131 41.7995C33.6141 41.7995 28.7049 37.2044 28.3375 31.3391L28.105 27.6481L31.2295 23.4963ZM23.6658 23.7329C24.1557 23.3021 24.8181 23.1676 25.438 23.3743L25.6029 23.4291C25.9054 28.2533 25.8079 26.6942 26.0779 31.0178C24.8881 30.6841 23.9457 29.7078 23.6933 28.4575L23.0884 25.4415C22.9609 24.8039 23.1758 24.1663 23.6658 23.7354V23.7329Z" fill="black"/>
<path d="M76.6098 53.3255H75.335V52.1325C75.335 51.5174 74.8351 51.0193 74.2177 51.0193H70.5208C70.0559 49.6793 68.7786 48.713 67.2763 48.713C65.7741 48.713 64.5643 49.6295 64.0694 50.9147C62.0422 48.0779 58.8103 46.4067 55.2784 46.4067H23.7411C17.7846 46.4067 12.9404 51.2334 12.9404 57.1684V62.5057C12.9404 63.1209 13.4403 63.619 14.0577 63.619C14.6751 63.619 15.1751 63.1209 15.1751 62.5057V57.1684C15.1751 52.4613 19.0169 48.6333 23.7411 48.6333H34.0769L36.0566 54.5484L33.7744 72.7419C33.732 73.0831 33.8494 73.4243 34.0919 73.6684L36.8114 76.3781H24.431V59.0488C24.431 58.4336 23.9311 57.9355 23.3137 57.9355C22.6963 57.9355 22.1964 58.4336 22.1964 59.0488V76.3781H15.1751V67.701C15.1751 67.0859 14.6751 66.5877 14.0577 66.5877C13.4403 66.5877 12.9404 67.0859 12.9404 67.701V77.4914C12.9404 78.1066 13.4403 78.6047 14.0577 78.6047H78.8419C79.4593 78.6047 79.9592 78.1066 79.9592 77.4914V56.6629C79.9592 54.8223 78.4545 53.323 76.6073 53.323L76.6098 53.3255ZM64.9617 53.2458C65.5791 53.2458 66.079 52.7477 66.079 52.1325C66.079 51.475 66.6165 50.9396 67.2763 50.9396C67.9362 50.9396 68.4736 51.475 68.4736 52.1325C68.4736 52.7477 68.9736 53.2458 69.591 53.2458H73.1004V56.8223C73.1004 57.4374 72.6005 57.9355 71.9831 57.9355H62.5696C61.9522 57.9355 61.4523 57.4374 61.4523 56.8223V53.2458H64.9617ZM42.588 48.6358L41.0182 53.3255H38.0012L36.4315 48.6358H42.5855H42.588ZM38.1837 55.5521H40.8383L42.9629 72.4804L39.511 75.9199L36.0591 72.4804L38.1837 55.5521ZM44.9276 73.6684C45.1725 73.4243 45.29 73.0831 45.245 72.7419L42.9629 54.5484L44.9426 48.6333H55.2784C57.5405 48.6333 59.6501 49.4975 61.2249 51.0168H60.335C59.7176 51.0168 59.2177 51.5149 59.2177 52.13V53.323H57.9429C56.0957 53.323 54.591 54.8223 54.591 56.6629V76.3781H42.2105L44.9301 73.6684H44.9276ZM77.7271 76.3781H56.8231V56.6629C56.8231 56.0477 57.323 55.5496 57.9404 55.5496H59.2152V56.8198C59.2152 58.6603 60.7199 60.1596 62.5671 60.1596H71.9806C73.8278 60.1596 75.3325 58.6603 75.3325 56.8198V55.5496H76.6073C77.2247 55.5496 77.7246 56.0477 77.7246 56.6629V76.3781H77.7271Z" fill="black"/>
</g>
<defs>
<clipPath id="clip0_113_2958">
<rect width="79.3492" height="78.0043" fill="white" transform="translate(0.857422 0.600342)"/>
</clipPath>
</defs>
</svg>
