<svg width="80" height="80" viewBox="0 0 80 80" fill="none" xmlns="http://www.w3.org/2000/svg">
<path d="M68.4479 46.781V78.6233C68.4479 68.0268 63.4953 58.5943 55.7773 52.5029L56.353 50.2126C57.1852 50.097 57.9922 49.931 58.7967 49.7274L60.5238 52.0579L65.2476 50.0995L64.8252 47.2335C65.5417 46.8112 66.2205 46.3511 66.8867 45.8508L68.4479 46.786V46.781Z" fill="#F2FBFF"/>
<path d="M27.4954 24.8714V29.9899L30.3111 30.6938C30.4268 31.526 30.5927 32.333 30.7963 33.1374L28.4658 34.8645L30.4243 39.5883L33.2902 39.166C33.7126 39.8825 34.1726 40.5613 34.6729 41.2275L33.1746 43.7239L34.8011 45.3504C16.5897 45.5541 1.89795 60.364 1.89795 78.6257V17.1912H29.6323L28.4684 19.9943L30.7988 21.7214C30.5952 22.5284 30.4268 23.3329 30.3136 24.165L27.498 24.8689L27.4954 24.8714Z" fill="#F2FBFF"/>
<path d="M42.8526 70.9426C42.8526 67.2571 41.0853 61.2285 39.2425 55.9441H39.2551C50.0301 57.8774 58.2081 67.2973 58.2081 78.6228H35.1724C39.4084 78.6228 42.8501 75.1812 42.8501 70.9451L42.8526 70.9426Z" fill="#82AEE3"/>
<path d="M31.1028 55.9444C29.26 61.2163 27.4927 67.2574 27.4927 70.9429C27.4927 75.179 30.9344 78.6206 35.1704 78.6206H12.1372C12.1372 67.2951 20.3152 57.8752 31.0902 55.9419H31.1028V55.9444Z" fill="#B2CAEC"/>
<path d="M40.9321 50.0943L45.6559 52.0527L47.383 49.7222C48.19 49.9258 48.9945 50.0943 49.8266 50.2074L50.5305 53.0231H55.649L55.7772 52.4976C63.4952 58.589 68.4478 68.0215 68.4478 78.618H58.2083C58.2083 67.2925 50.0302 57.8726 39.2553 55.9393H39.2427C37.6941 51.4468 36.0826 47.5048 35.4541 45.9939L36.7991 47.3389L39.2955 45.8406C39.9617 46.3409 40.6405 46.8009 41.357 47.2233L40.9346 50.0892L40.9321 50.0943Z" fill="#B2CAEC"/>
<path d="M35.0701 45.6167C34.6101 46.7052 32.8176 50.9916 31.103 55.9441H31.0905C20.3155 57.8774 12.1375 67.2973 12.1375 78.6229H1.89795C1.89795 60.3587 16.5897 45.5513 34.8011 45.3477L35.0701 45.6167Z" fill="#B2CAEC"/>
<path d="M35.0697 45.6169L35.4544 46.0016C36.0803 47.5125 37.6943 51.4544 39.2429 55.9469C41.0857 61.2339 42.853 67.2599 42.853 70.9454C42.853 75.1815 39.4114 78.6232 35.1753 78.6232C30.9392 78.6232 27.4976 75.1815 27.4976 70.9454C27.4976 67.2599 29.2649 61.2188 31.1077 55.9469C32.8222 50.9944 34.6147 46.7055 35.0747 45.6195L35.0697 45.6169Z" fill="#B2CAEC"/>
<path d="M35.1725 73.5025C36.586 73.5025 37.7318 72.3567 37.7318 70.9433C37.7318 69.5298 36.586 68.384 35.1725 68.384C33.7591 68.384 32.6133 69.5298 32.6133 70.9433C32.6133 72.3567 33.7591 73.5025 35.1725 73.5025Z" fill="#FF826E"/>
<path d="M7.01611 22.3096H23.6537V29.9873H7.01611V22.3096Z" fill="#FE0364"/>
<path d="M1.89795 6.95166H41.252L41.3551 7.63044C40.6386 8.05279 39.9598 8.51285 39.2936 9.01314L36.7972 7.5148L33.1746 11.1375L34.6729 13.6339C34.1726 14.3001 33.7126 14.9788 33.2902 15.6953L30.4242 15.273L29.6298 17.1937H1.89795V6.95166Z" fill="#05E39C"/>
<path d="M35.1724 27.4307C35.1724 17.5381 43.197 9.51343 53.0896 9.51343C62.9822 9.51343 71.0068 17.5381 71.0068 27.4307C71.0068 37.3232 62.9822 45.3479 53.0896 45.3479C43.197 45.3479 35.1724 37.3232 35.1724 27.4307Z" fill="#FED402"/>
<path d="M60.6749 42.4895C58.0126 44.3021 54.7972 45.363 51.3404 45.363C45.8071 45.363 40.8973 42.6479 37.8704 38.4797H35.9171V34.9626C35.1352 33.0344 34.7028 30.9301 34.7028 28.7254C34.7028 26.5206 35.1352 24.4214 35.9171 22.4957V17.3093C33.5464 20.5021 32.1436 24.4516 32.1436 28.7254C32.1436 39.3118 40.7565 47.9222 51.3404 47.9222C56.5318 47.9222 61.2456 45.8482 64.7048 42.4895H60.6749Z" fill="#DFF6FD"/>
<g style="mix-blend-mode:multiply">
<path d="M65.0016 47.9979L67.5609 49.2951L72.443 44.4104L70.8693 41.7883C70.8919 41.7556 70.9145 41.7204 70.9372 41.6878H67.8223L69.2176 44.0132L67.0103 46.2205L64.6371 44.7976L63.9482 45.3155C63.3197 45.7856 62.6636 46.228 61.9974 46.6227L61.2583 47.0627L61.663 49.7929L58.7795 50.987L57.1353 48.7672L56.3032 48.9809C55.544 49.1744 54.7697 49.3278 54.0029 49.4359L53.1481 49.5566L52.4769 52.239H49.357L48.6858 49.5541L47.831 49.4334C47.0643 49.3253 46.2899 49.1719 45.5307 48.9783L44.6986 48.7647L43.0544 50.9845L40.1709 49.7904L40.5756 47.0602L39.8365 46.6202C39.1703 46.223 38.5142 45.7831 37.8857 45.3129L37.1968 44.7951L34.8236 46.218L32.6163 44.0107L34.0392 41.64L33.5214 40.9512C33.0487 40.3227 32.6088 39.6665 32.2141 39.0003L31.7741 38.2612L29.0439 38.6659L27.8498 35.7824L30.0696 34.1382L29.856 33.3061C29.6649 32.5544 29.5115 31.7801 29.4009 31.0033L29.2803 30.151L26.5978 29.4823V26.3599L29.2803 25.6887L29.4009 24.8365C29.5115 24.0596 29.6649 23.2878 29.856 22.5336L30.0696 21.7015L27.8498 20.0573L29.0439 17.1738L31.7741 17.5785L32.2141 16.8394C32.6088 16.1732 33.0487 15.5171 33.5214 14.8886L34.0392 14.1997L32.6163 11.829L34.8236 9.62176L37.0234 10.9416V6.25049L34.8362 6.58485L32.4303 8.72175H32.106L29.3984 11.4318L30.9722 14.0539C30.8012 14.2978 30.6353 14.5467 30.4744 14.7956L27.4501 14.343L26.5978 16.3995L25.5369 18.9587L24.7249 20.9196L27.1811 22.7398C27.1182 23.0314 27.0604 23.323 27.0076 23.6172L24.0386 24.3588V31.4759L27.0076 32.2175C27.0604 32.5117 27.1182 32.8033 27.1811 33.0949L24.7249 34.9151L27.4476 41.4917L30.4719 41.0417C30.6328 41.2906 30.7987 41.5394 30.9697 41.7833L29.3959 44.4054L29.7127 44.7222C29.6951 44.7071 35.603 48.7546 35.5778 48.7496L37.0535 47.8646C37.2974 48.0356 37.5438 48.2015 37.7952 48.3624L37.3451 51.3842L42.255 53.4181L41.7396 54.6625H44.51L45.7545 51.6558C46.0411 51.7161 46.3277 51.7739 46.6143 51.8267L47.3232 54.6625H57.4068C56.6577 53.9158 55.8683 53.1993 55.0437 52.5155L55.2171 51.8267C55.5113 51.7739 55.8029 51.7161 56.092 51.6532L57.9121 54.1094L64.4888 51.3842L64.0387 48.3624C64.2876 48.2015 64.5365 48.0356 64.7804 47.8646L64.9941 47.9929L65.0016 47.9979Z" fill="#C0E9F2"/>
</g>
<path d="M35.4544 45.999L35.0698 45.6144L34.8008 45.3454L33.1742 43.7188L34.6726 41.2224C34.1723 40.5562 33.7122 39.8774 33.2899 39.161L30.4239 39.5833L28.4655 34.8595L30.796 33.1324C30.5924 32.3254 30.4239 31.5209 30.3108 30.6888L27.4951 29.9849V24.8664L30.3108 24.1625C30.4264 23.3303 30.5924 22.5233 30.796 21.7189L28.4655 19.9917L29.6295 17.1886L30.4239 15.2679L33.2899 15.6903C33.7122 14.9738 34.1723 14.295 34.6726 13.6288L33.1742 11.1324L36.7969 7.50975L39.2933 9.0081C39.9595 8.50781 40.6383 8.04775 41.3548 7.6254L41.2517 6.94662L40.9324 4.75693L45.6562 2.79853L47.3833 5.129C48.1903 4.92537 48.9948 4.75693 49.8269 4.6438L50.5309 1.82812H55.6493L56.3533 4.6438C57.1854 4.75944 57.9924 4.92537 58.7969 5.129L60.524 2.79853L65.2478 4.75693L64.8254 7.62288C65.5419 8.04524 66.2207 8.5053 66.8869 9.00558L69.3833 7.50724L73.006 11.1299L71.5076 13.6263C72.0079 14.2925 72.468 14.9713 72.8903 15.6878L75.7563 15.2654L77.7147 19.9892L75.3842 21.7163C75.5878 22.5233 75.7563 23.3278 75.8694 24.1599L78.6851 24.8639V29.9824L75.8694 30.6863C75.7538 31.5184 75.5878 32.3254 75.3842 33.1299L77.7147 34.857L75.7563 39.5808L72.8903 39.1584C72.468 39.8749 72.0079 40.5537 71.5076 41.2199L73.006 43.7163L69.3833 47.339L68.4481 46.7758L66.8869 45.8406C66.2207 46.3409 65.5419 46.801 64.8254 47.2233L65.2478 50.0893L60.524 52.0477L58.7969 49.7172C57.9899 49.9208 57.1854 50.0893 56.3533 50.2024L55.7776 52.4927L55.6493 53.0181H50.5309L49.8269 50.2024C48.9948 50.0868 48.1878 49.9208 47.3833 49.7172L45.6562 52.0477L40.9324 50.0893L41.3548 47.2233C40.6383 46.801 39.9595 46.3409 39.2933 45.8406L36.7969 47.339L35.4519 45.994L35.4544 45.999Z" fill="#FED402"/>
<path d="M53.0903 21.0298H49.2515V33.8285H51.8107V28.71H53.0903C55.2071 28.71 56.9292 26.988 56.9292 24.8712C56.9292 22.7544 55.2071 21.0323 53.0903 21.0323V21.0298ZM53.0903 26.1483H51.8107V23.589H53.0903C53.7968 23.589 54.37 24.1622 54.37 24.8687C54.37 25.5751 53.7943 26.1483 53.0903 26.1483Z" fill="black"/>
<path d="M44.1327 22.3094C44.1327 23.9762 43.0592 25.384 41.5734 25.9145V21.0298H39.0142V33.8285H41.5734V28.9438C43.0592 29.4743 44.1327 30.8821 44.1327 32.5489V33.8285H46.6919V32.5489C46.6919 30.4497 45.6612 28.5969 44.0924 27.4304C45.6612 26.2639 46.6919 24.4111 46.6919 22.3119V21.0323H44.1327V22.3119V22.3094Z" fill="black"/>
<path d="M59.4907 23.589H62.05V31.2668H59.4907V33.826H67.1685V31.2668H64.6092V23.589H67.1685V21.0298H59.4907V23.589Z" fill="black"/>
<path d="M53.0899 8.23096C42.5035 8.23096 33.8931 16.8439 33.8931 27.4278C33.8931 38.0117 42.506 46.6247 53.0899 46.6247C63.6739 46.6247 72.2868 38.0117 72.2868 27.4278C72.2868 16.8439 63.6764 8.23096 53.0899 8.23096ZM53.0899 44.0654C43.9164 44.0654 36.4523 36.6014 36.4523 27.4278C36.4523 18.2543 43.9164 10.7902 53.0899 10.7902C62.2635 10.7902 69.7276 18.2543 69.7276 27.4278C69.7276 36.6014 62.2635 44.0654 53.0899 44.0654Z" fill="black"/>
<path d="M79.9669 30.9879V23.8733L76.9979 23.1317C76.9451 22.8375 76.8873 22.5459 76.8244 22.2543L79.2806 20.4341L76.5579 13.855L73.5336 14.3075C73.3727 14.0587 73.2068 13.8098 73.0358 13.5659L74.6096 10.9438L69.5766 5.90828L66.952 7.48204C66.7081 7.31109 66.4617 7.14516 66.2103 6.98427L66.6603 3.96244L60.0837 1.23727L58.2636 3.69345C57.972 3.6306 57.6803 3.57278 57.3887 3.51998L56.6471 0.553467H49.5275L48.7858 3.51998C48.4917 3.57278 48.2001 3.6306 47.911 3.69345L46.0908 1.23727L39.5142 3.96244L39.7706 5.67448H3.8381C2.0582 5.67448 0.617676 7.11751 0.617676 8.8949V35.5433C0.617676 36.2497 1.19087 36.8229 1.8973 36.8229C2.60373 36.8229 3.17692 36.2497 3.17692 35.5433V18.4732H27.711L26.899 20.4341L29.3552 22.2543C29.2923 22.5459 29.2345 22.8375 29.1817 23.1317L26.2127 23.8733V30.9904L29.1817 31.732C29.2345 32.0262 29.2923 32.3178 29.3552 32.6094L26.899 34.4296L29.6216 41.0062L32.646 40.5562C32.8069 40.805 32.9728 41.0539 33.1437 41.2978L31.57 43.9199L31.8868 44.2367C18.8894 45.4761 7.94346 53.9985 3.17944 65.6333V45.7023C3.17944 44.9959 2.60625 44.4227 1.89981 44.4227C1.19338 44.4227 0.62019 44.9959 0.62019 45.7023V77.4591C0.62019 78.8091 1.71378 79.9027 3.06379 79.9027H67.4724C68.7193 79.9027 69.7299 78.8921 69.7299 77.6451V48.8021L74.6121 43.9174L73.0383 41.2953C73.2093 41.0514 73.3752 40.8025 73.5361 40.5536L76.5604 41.0037L79.2831 34.427L76.8269 32.6069C76.8898 32.3153 76.9476 32.0237 77.0004 31.7295L79.9694 30.9879H79.9669ZM28.7694 15.9115H3.17692V11.4542C3.17692 9.67424 4.61996 8.23372 6.39735 8.23372H34.2776L31.57 10.9438L33.1437 13.5659C32.9728 13.8098 32.8069 14.0587 32.646 14.3075L29.6216 13.855L28.7694 15.9115ZM33.2292 46.6878C32.4599 48.5708 31.2859 51.5373 30.1169 54.8558C29.0736 55.077 28.0504 55.3561 27.0649 55.703L24.126 48.611C26.992 47.5476 30.049 46.8814 33.2292 46.6878ZM21.7679 49.6015L24.6942 56.6658C22.5649 57.679 20.6291 59.0039 18.9095 60.5525L13.5019 55.1449C15.938 52.8923 18.726 51.0194 21.7654 49.604L21.7679 49.6015ZM10.9125 77.3435H3.20961C3.34536 73.9269 4.02163 70.6437 5.16047 67.5766L12.2499 70.5129C11.4882 72.6725 11.0357 74.9677 10.9125 77.3409V77.3435ZM6.15098 65.2159C7.56636 62.1765 9.44431 59.3935 11.6969 56.955L17.1019 62.36C15.5458 64.0897 14.231 66.0305 13.2228 68.1447L6.15098 65.2159ZM13.4717 77.3435C14.0097 68.0945 20.3148 60.2508 29.139 57.7217C27.5602 62.531 26.2152 67.6042 26.2152 70.9428C26.2152 73.4493 27.2509 75.7144 28.9177 77.3409H13.4742L13.4717 77.3435ZM35.1725 77.3435C31.6429 77.3435 28.7744 74.4725 28.7744 70.9453C28.7744 65.402 33.0658 53.9884 35.1725 48.7166C37.2717 53.9683 41.5707 65.3944 41.5707 70.9453C41.5707 74.475 38.6997 77.3435 35.1725 77.3435ZM44.4291 52.9326L43.2827 55.703C42.2972 55.3561 41.274 55.077 40.2282 54.8558C39.3508 52.3694 38.4734 50.0817 37.7494 48.2641L39.2251 47.3791C39.469 47.5501 39.7153 47.716 39.9667 47.8769L39.5167 50.8987L44.4266 52.9326H44.4291ZM41.4299 77.3435C43.0941 75.7144 44.1324 73.4493 44.1324 70.9453C44.1324 67.6068 42.79 62.5436 41.2036 57.7242C50.0303 60.2508 56.3354 68.097 56.8734 77.346H41.4299V77.3435ZM45.6534 56.6658L47.9311 51.1677C48.2177 51.2281 48.5043 51.2859 48.7909 51.3387L49.5325 54.3052H55.9532C56.265 54.5717 56.5692 54.8432 56.8683 55.1172L51.4381 60.55C49.7185 59.0013 47.7853 57.679 45.6534 56.6658ZM53.2431 62.3626L58.6809 56.9248C60.9712 59.3986 62.834 62.1891 64.2243 65.2034L57.1222 68.1447C56.1141 66.0305 54.7993 64.0922 53.2431 62.3626ZM59.4326 77.3435C59.3094 74.9677 58.8544 72.6725 58.0952 70.5154L65.2073 67.569C66.3461 70.6663 66.9997 73.9571 67.133 77.3435H59.4326ZM67.1682 65.5377C65.0489 60.3514 61.6625 55.7181 57.2178 52.03L57.3912 51.3412C57.6854 51.2884 57.977 51.2306 58.2661 51.1677L60.0862 53.6239L66.6628 50.8987L66.2129 47.8769C66.4617 47.716 66.7106 47.5501 66.9545 47.3791L67.1682 47.5074V65.5377ZM74.7227 29.663L74.6021 30.5153C74.4914 31.2921 74.3381 32.0639 74.147 32.8181L73.9333 33.6502L76.1532 35.2944L74.959 38.1779L72.2288 37.7732L71.7889 38.5123C71.3942 39.1785 70.9542 39.8346 70.4816 40.4631L69.9637 41.152L71.3867 43.5227L69.1794 45.73L66.8061 44.307L66.1173 44.8249C65.4888 45.295 64.8327 45.7375 64.1665 46.1322L63.4273 46.5722L63.8321 49.3024L60.9485 50.4965L59.3044 48.2766L58.4723 48.4903C57.713 48.6839 56.9387 48.8373 56.1719 48.9454L55.3172 49.066L54.646 51.7485H51.5261L50.8548 49.0635L50.0001 48.9429C49.2333 48.8347 48.459 48.6814 47.6998 48.4878L46.8676 48.2741L45.2235 50.494L42.3399 49.2998L42.7447 46.5696L42.0056 46.1297C41.3394 45.7325 40.6832 45.2925 40.0547 44.8224L39.3659 44.3045L36.9927 45.7275L34.7854 43.5202L36.2083 41.1495L35.6904 40.4606C35.2178 39.8321 34.7778 39.176 34.3831 38.5098L33.9432 37.7707L31.213 38.1754L30.0189 35.2919L32.2387 33.6477L32.025 32.8156C31.834 32.0639 31.6806 31.2896 31.57 30.5128L31.4493 29.6605L28.7669 28.9918V25.8694L31.4493 25.1982L31.57 24.3459C31.6806 23.5691 31.834 22.7973 32.025 22.0431L32.2387 21.211L30.0189 19.5668L31.213 16.6833L33.9432 17.088L34.3831 16.3489C34.7778 15.6827 35.2178 15.0265 35.6904 14.398L36.2083 13.7092L34.7854 11.3385L36.9927 9.13122L39.3659 10.5541L40.0547 10.0363C40.6832 9.56614 41.3394 9.12368 42.0056 8.72898L42.7447 8.28903L42.3399 5.55883L45.2235 4.36468L46.8676 6.58454L47.6998 6.37085C48.459 6.17727 49.2333 6.02392 50.0001 5.91582L50.8548 5.79515L51.5261 3.11271H54.646L55.3172 5.79766L56.1719 5.91833C56.9387 6.02643 57.713 6.17979 58.4723 6.37337L59.3044 6.58706L60.9485 4.3672L63.8321 5.56135L63.4273 8.28903L64.1665 8.72898C64.8327 9.12619 65.4888 9.56614 66.1173 10.0363L66.8061 10.5541L69.1794 9.13122L71.3867 11.3385L69.9637 13.7092L70.4816 14.398C70.9542 15.0265 71.3942 15.6827 71.7889 16.3489L72.2288 17.088L74.959 16.6833L76.1532 19.5668L73.9333 21.211L74.147 22.0431C74.3381 22.7948 74.4914 23.5691 74.6021 24.3459L74.7227 25.1982L77.4052 25.8694V28.9918L74.7227 29.663Z" fill="black"/>
<path d="M35.1729 67.104C33.0561 67.104 31.334 68.8261 31.334 70.9429C31.334 73.0597 33.0561 74.7817 35.1729 74.7817C37.2896 74.7817 39.0117 73.0597 39.0117 70.9429C39.0117 68.8261 37.2896 67.104 35.1729 67.104ZM35.1729 72.2225C34.4664 72.2225 33.8932 71.6493 33.8932 70.9429C33.8932 70.2364 34.4689 69.6632 35.1729 69.6632C35.8768 69.6632 36.4525 70.2364 36.4525 70.9429C36.4525 71.6493 35.8768 72.2225 35.1729 72.2225Z" fill="black"/>
<path d="M5.7373 10.793H8.29655V13.3522H5.7373V10.793Z" fill="black"/>
<path d="M10.8574 10.793H13.4167V13.3522H10.8574V10.793Z" fill="black"/>
<path d="M15.9766 10.793H18.5358V13.3522H15.9766V10.793Z" fill="black"/>
<path d="M22.3749 28.7102H9.57618C8.86974 28.7102 8.29655 28.137 8.29655 27.4306V24.8713C8.29655 24.1649 8.86974 23.5917 9.57618 23.5917H22.3749C23.0814 23.5917 23.6545 23.0185 23.6545 22.3121C23.6545 21.6057 23.0814 21.0325 22.3749 21.0325H7.01693C6.3105 21.0325 5.7373 21.6057 5.7373 22.3121V29.9898C5.7373 30.6963 6.3105 31.2695 7.01693 31.2695H22.3749C23.0814 31.2695 23.6545 30.6963 23.6545 29.9898C23.6545 29.2834 23.0814 28.7102 22.3749 28.7102Z" fill="black"/>
<path d="M6.41608 33.8289H7.61777C7.99236 33.8289 8.29655 34.1331 8.29655 34.5076V35.7093C8.29655 36.0839 7.99236 36.3881 7.61777 36.3881H6.41608C6.0415 36.3881 5.7373 36.0839 5.7373 35.7093V34.5076C5.7373 34.1331 6.0415 33.8289 6.41608 33.8289Z" fill="black"/>
<path d="M11.5362 33.8289H22.9774C23.352 33.8289 23.6562 34.1331 23.6562 34.5076V35.7093C23.6562 36.0839 23.352 36.3881 22.9774 36.3881H11.5362C11.1616 36.3881 10.8574 36.0839 10.8574 35.7093V34.5076C10.8574 34.1331 11.1616 33.8289 11.5362 33.8289Z" fill="black"/>
<path d="M6.41608 38.9473H7.61777C7.99236 38.9473 8.29655 39.2515 8.29655 39.626V40.8277C8.29655 41.2023 7.99236 41.5065 7.61777 41.5065H6.41608C6.0415 41.5065 5.7373 41.2023 5.7373 40.8277V39.626C5.7373 39.2515 6.0415 38.9473 6.41608 38.9473Z" fill="black"/>
<path d="M12.0239 38.9473H22.4872C23.1307 38.9473 23.6537 39.4702 23.6537 40.1138V40.3375C23.6537 40.9811 23.1307 41.504 22.4872 41.504H12.0239C11.3803 41.504 10.8574 40.9811 10.8574 40.3375V40.1138C10.8574 39.4702 11.3803 38.9473 12.0239 38.9473Z" fill="black"/>
<path d="M6.41608 44.0684H7.61777C7.99236 44.0684 8.29655 44.3726 8.29655 44.7471V45.9488C8.29655 46.3234 7.99236 46.6276 7.61777 46.6276H6.41608C6.0415 46.6276 5.7373 46.3234 5.7373 45.9488V44.7471C5.7373 44.3726 6.0415 44.0684 6.41608 44.0684Z" fill="black"/>
<path d="M12.0239 44.0684H17.3687C18.0123 44.0684 18.5352 44.5913 18.5352 45.2349V45.4586C18.5352 46.1022 18.0123 46.6251 17.3687 46.6251H12.0239C11.3803 46.6251 10.8574 46.1022 10.8574 45.4586V45.2349C10.8574 44.5913 11.3803 44.0684 12.0239 44.0684Z" fill="black"/>
</svg>
