<svg width="80" height="80" viewBox="0 0 80 80" fill="none" xmlns="http://www.w3.org/2000/svg">
<g clip-path="url(#clip0_113_2955)">
<path d="M78.5664 40.2293C78.5664 43.545 75.2028 46.3724 74.3846 49.4288C73.5387 52.591 75.014 56.72 73.4128 59.4894C71.7864 62.2991 67.461 63.0746 65.18 65.3556C62.899 67.6366 62.1236 71.9619 59.3139 73.5883C56.5444 75.1895 52.418 73.7167 49.2533 74.5601C46.1968 75.3784 43.367 78.742 40.0537 78.742C36.7405 78.742 33.9106 75.3784 30.8542 74.5601C27.692 73.7142 23.563 75.1895 20.7936 73.5883C17.9839 71.9619 17.2084 67.6366 14.9274 65.3556C12.6464 63.0746 8.32109 62.2991 6.69467 59.4894C5.09344 56.72 6.56627 52.5935 5.72286 49.4288C4.90462 46.3724 1.54102 43.5425 1.54102 40.2293C1.54102 36.916 4.90462 34.0862 5.72286 31.0297C6.56879 27.8675 5.09344 23.7386 6.69467 20.9691C8.32109 18.1594 12.6464 17.384 14.9274 15.103C17.2084 12.822 17.9839 8.49662 20.7936 6.87021C23.563 5.26898 27.6895 6.74181 30.8542 5.89839C33.9106 5.08015 36.7405 1.71655 40.0537 1.71655C43.367 1.71655 46.1968 5.08015 49.2533 5.89839C52.4155 6.74433 56.5444 5.26898 59.3139 6.87021C62.1236 8.49662 62.899 12.822 65.18 15.103C67.461 17.384 71.7864 18.1594 73.4128 20.9691C75.014 23.7386 73.5412 27.865 74.3846 31.0297C75.2028 34.0862 78.5664 36.916 78.5664 40.2293Z" fill="#FED402"/>
<path d="M78.567 40.2292C78.567 36.9135 75.2034 34.0861 74.3852 31.0297C73.5392 27.8675 75.0146 23.7385 73.4134 20.9691C71.7869 18.1594 67.4616 17.384 65.1806 15.1029C62.8996 12.8219 62.1241 8.49659 59.3144 6.87018C58.1714 6.20804 56.7943 6.07208 55.3516 6.07964C56.5979 8.01824 57.4514 10.473 58.9821 12.0037C61.2631 14.2847 65.5885 15.0601 67.2149 17.8699C68.8161 20.6393 67.3433 24.7657 68.1867 27.9304C69.0049 30.9869 72.3685 33.8167 72.3685 37.13C72.3685 40.4432 69.0049 43.2731 68.1867 46.3295C67.3407 49.4917 68.8161 53.6207 67.2149 56.3901C65.5885 59.1998 61.2631 59.9753 58.9821 62.2563C56.7011 64.5373 55.9257 68.8626 53.1159 70.489C50.3465 72.0903 46.2201 70.6174 43.0554 71.4609C39.9989 72.2766 37.1691 75.6427 33.8558 75.6427C33.6292 75.6427 33.4051 75.6276 33.1836 75.5974C35.4017 76.8864 37.5945 78.7419 40.0568 78.7419C43.3726 78.7419 46.1999 75.3783 49.2564 74.5601C52.4186 73.7142 56.5475 75.1895 59.317 73.5883C62.1267 71.9619 62.9021 67.6365 65.1831 65.3555C67.4641 63.0745 71.7895 62.2991 73.4159 59.4894C75.0171 56.7199 73.5443 52.5935 74.3877 49.4288C75.2059 46.3723 78.5695 43.5425 78.5695 40.2292H78.567Z" fill="#FAC600"/>
<path d="M40.0541 69.1143C56.0069 69.1143 68.9393 56.182 68.9393 40.2292C68.9393 24.2763 56.0069 11.344 40.0541 11.344C24.1013 11.344 11.1689 24.2763 11.1689 40.2292C11.1689 56.182 24.1013 69.1143 40.0541 69.1143Z" fill="#FE9738"/>
<path d="M40.0533 64.3005C53.3476 64.3005 64.1247 53.5234 64.1247 40.2291C64.1247 26.9348 53.3476 16.1577 40.0533 16.1577C26.7591 16.1577 15.9819 26.9348 15.9819 40.2291C15.9819 53.5234 26.7591 64.3005 40.0533 64.3005Z" fill="#0067C5"/>
<path d="M47.5943 17.3638C53.8381 21.7118 57.9243 28.945 57.9243 37.13C57.9243 50.4232 47.1487 61.2013 33.8529 61.2013C31.2194 61.2013 28.6841 60.7784 26.3125 59.9954C30.2098 62.7094 34.9456 64.3006 40.0539 64.3006C53.3472 64.3006 64.1253 53.525 64.1253 40.2292C64.1253 29.5694 57.1967 20.5285 47.5968 17.3638H47.5943Z" fill="#0055A3"/>
<path d="M42.083 26.8103L45.2628 32.5179C45.5926 33.107 46.1591 33.5249 46.8213 33.6634L53.415 35.0305C55.2126 35.4031 55.8899 37.6186 54.6059 38.9329L50.1068 43.5352C49.6108 44.0437 49.3717 44.7512 49.4623 45.4561L50.3258 52.1632C50.5625 54.0086 48.6441 55.3707 46.9799 54.5373L41.0936 51.5917C40.439 51.2644 39.6686 51.2644 39.0115 51.5917L33.1252 54.5373C31.461 55.3707 29.5425 54.0086 29.7792 52.1632L30.6428 45.4561C30.7334 44.7512 30.4967 44.0437 29.9982 43.5352L25.4992 38.9329C24.2152 37.6186 24.8899 35.4056 26.69 35.0305L33.2838 33.6634C33.9459 33.5274 34.5149 33.1095 34.8422 32.5179L38.022 26.8103C38.9082 25.2192 41.1968 25.2192 42.083 26.8103Z" fill="#FED402"/>
<path d="M54.6059 38.9326C55.89 37.6184 55.2152 35.4053 53.4151 35.0302L47.2468 33.7512C47.7655 35.0906 47.554 36.7019 46.4009 37.8827L44.4346 39.8943C43.6012 40.7453 43.206 41.9311 43.357 43.1119L43.7473 46.1457C44.1451 49.2374 40.93 51.5184 38.1429 50.1236L35.5925 48.8471C34.4948 48.2983 33.2033 48.2983 32.1081 48.8471L30.0738 49.8668L29.7767 52.1679C29.5401 54.0134 31.4585 55.3754 33.1227 54.5421L39.009 51.5964C39.6636 51.2691 40.434 51.2691 41.0911 51.5964L46.9774 54.5421C48.6416 55.3754 50.5601 54.0134 50.3234 52.1679L49.4598 45.4609C49.3692 44.7559 49.6059 44.0485 50.1044 43.5399L54.6034 38.9376L54.6059 38.9326Z" fill="#FAC600"/>
<path d="M77.32 34.2115C76.542 32.9954 75.8069 31.8474 75.5073 30.727C75.1901 29.5387 75.2505 28.1338 75.3134 26.6434C75.4066 24.4857 75.4997 22.2551 74.4171 20.3845C73.3169 18.4836 71.3204 17.4463 69.3894 16.4468C68.0827 15.7696 66.8465 15.1276 66.0006 14.2791C65.1521 13.4307 64.5126 12.197 63.8329 10.8903C62.8308 8.95929 61.7961 6.96278 59.8927 5.86256C58.0221 4.77997 55.7889 4.87564 53.6338 4.96628C52.1459 5.02922 50.741 5.08964 49.5502 4.77242C48.4323 4.47281 47.2818 3.73766 46.0657 2.9597C44.2152 1.7764 42.3018 0.550293 40.0485 0.550293C37.7952 0.550293 35.8818 1.77388 34.0313 2.9597C32.8153 3.73766 31.6672 4.47281 30.5468 4.77242C29.3585 5.08964 27.9511 5.02922 26.4632 4.96628C24.3055 4.87312 22.0749 4.77997 20.2043 5.86256C18.3034 6.96278 17.2662 8.95929 16.2666 10.8903C15.5894 12.197 14.9474 13.4332 14.0989 14.2791C13.2505 15.1276 12.0168 15.7671 10.7102 16.4468C8.77912 17.4489 6.78261 18.4836 5.68239 20.387C4.59979 22.2576 4.69546 24.4882 4.7861 26.6459C4.84904 28.1338 4.90947 29.5387 4.59224 30.7295C4.29264 31.8474 3.55748 32.9979 2.77952 34.214C1.59622 36.0645 0.370117 37.9779 0.370117 40.2312C0.370117 42.4845 1.5937 44.3979 2.77952 46.2484C3.55748 47.4644 4.29264 48.6125 4.59224 49.7329C4.90947 50.9212 4.84904 52.3261 4.7861 53.8165C4.69295 55.9741 4.59979 58.2048 5.68239 60.0754C6.78261 61.9763 8.77912 63.0135 10.7102 64.0131C12.0168 64.6903 13.253 65.3323 14.0989 66.1808C14.9474 67.0292 15.5869 68.2629 16.2666 69.5695C17.2687 71.5006 18.3034 73.4971 20.2068 74.5973C22.0774 75.6799 24.3081 75.5842 26.4657 75.4936C27.9536 75.4307 29.3585 75.3702 30.5494 75.6875C31.6672 75.9871 32.8178 76.7222 34.0338 77.5002C35.8843 78.6835 37.7977 79.9096 40.051 79.9096C42.3043 79.9096 44.2178 78.686 46.0682 77.5002C47.2843 76.7222 48.4323 75.9871 49.5527 75.6875C50.741 75.3702 52.1459 75.4307 53.6363 75.4936C55.794 75.5868 58.0246 75.6799 59.8952 74.5973C61.7961 73.4971 62.8334 71.5006 63.8329 69.5695C64.5101 68.2629 65.1521 67.0267 66.0006 66.1808C66.849 65.3323 68.0827 64.6928 69.3894 64.0131C71.3204 63.011 73.3169 61.9763 74.4171 60.0729C75.4997 58.2023 75.4041 55.9716 75.3134 53.814C75.2505 52.3261 75.1901 50.9212 75.5073 49.7303C75.8069 48.6125 76.542 47.4619 77.32 46.2459C78.5033 44.3954 79.7294 42.482 79.7294 40.2287C79.7294 37.9754 78.5058 36.0619 77.32 34.2115ZM75.3613 44.9921C74.5204 46.3038 73.6543 47.6608 73.2615 49.1286C72.8512 50.6619 72.9216 52.3135 72.9896 53.9097C73.0702 55.8181 73.1482 57.6207 72.4055 58.9047C71.6452 60.2189 70.0288 61.0573 68.3194 61.9435C66.912 62.6737 65.4593 63.429 64.3565 64.5292C63.2538 65.6319 62.501 67.0846 61.7709 68.492C60.8847 70.2015 60.0463 71.8178 58.7321 72.5781C57.4481 73.3209 55.6454 73.2453 53.737 73.1622C52.1408 73.0943 50.4867 73.0238 48.956 73.4342C45.6931 74.3078 42.9086 77.5757 40.0561 77.5757C38.4825 77.5757 36.9342 76.5838 35.2926 75.5339C33.9809 74.693 32.6239 73.8269 31.1561 73.4342C30.207 73.1799 29.2125 73.1119 28.213 73.1119C25.6752 73.1119 23.0744 73.56 21.3775 72.5781C20.0633 71.8178 19.2249 70.2015 18.3387 68.492C17.6086 67.0846 16.8533 65.6319 15.753 64.5292C14.6503 63.4264 13.1976 62.6737 11.7902 61.9435C10.0807 61.0573 8.46441 60.2189 7.70407 58.9047C6.96136 57.6207 7.03689 55.8181 7.11998 53.9097C7.18795 52.3109 7.25845 50.6594 6.84807 49.1286C5.97696 45.8657 2.70651 43.0812 2.70651 40.2287C2.70651 38.6551 3.69847 37.1068 4.74834 35.4653C5.58924 34.1536 6.45531 32.7965 6.84807 31.3287C7.25845 29.7955 7.18795 28.1439 7.11998 26.5477C7.03941 24.6393 6.96136 22.8367 7.70407 21.5526C8.46441 20.2384 10.0807 19.4 11.7902 18.5138C13.1976 17.7837 14.6503 17.0284 15.753 15.9282C16.8558 14.8254 17.6086 13.3728 18.3387 11.9654C19.2249 10.2559 20.0633 8.63955 21.3775 7.87921C22.6615 7.1365 24.4642 7.21203 26.3726 7.29512C27.9688 7.36309 29.6229 7.43359 31.1536 7.02321C34.419 6.14958 37.201 2.88165 40.0535 2.88165C41.6271 2.88165 43.1754 3.87361 44.817 4.92348C46.1287 5.76438 47.4857 6.63045 48.9535 7.02321C50.4867 7.43359 52.1383 7.36309 53.7345 7.29512C55.6429 7.21455 57.4456 7.1365 58.7296 7.87921C60.0438 8.63955 60.8822 10.2559 61.7684 11.9654C62.4985 13.3728 63.2538 14.8254 64.354 15.9282C65.4568 17.0309 66.9095 17.7837 68.3168 18.5138C70.0263 19.4 71.6427 20.2384 72.403 21.5526C73.1457 22.8367 73.0702 24.6393 72.9871 26.5477C72.9191 28.1464 72.8486 29.798 73.259 31.3287C74.1301 34.5916 77.4006 37.3762 77.4006 40.2287C77.4006 41.8022 76.4086 43.3506 75.3587 44.9921H75.3613Z" fill="black"/>
<path d="M29.18 63.0039C32.5889 64.6353 36.2471 65.4611 40.0538 65.4611C53.9664 65.4611 65.2858 54.1417 65.2858 40.2291C65.2858 26.3165 53.9664 14.9971 40.0538 14.9971C26.1412 14.9971 14.8218 26.3165 14.8218 40.2291C14.8218 47.9256 18.271 55.106 24.2832 59.9273C24.7842 60.3276 25.5143 60.247 25.9171 59.7486C26.3174 59.2475 26.2369 58.5149 25.7384 58.1146C20.2801 53.7389 17.1481 47.2207 17.1481 40.2316C17.1481 27.6005 27.4252 17.3234 40.0563 17.3234C52.6874 17.3234 62.9646 27.6005 62.9646 40.2316C62.9646 52.8627 52.6874 63.1398 40.0563 63.1398C36.5996 63.1398 33.2788 62.3896 30.1846 60.9092C29.6055 60.6323 28.9106 60.8765 28.6337 61.4555C28.3567 62.0346 28.601 62.7295 29.18 63.0064V63.0039Z" fill="black"/>
<path d="M71.3455 39.066H70.0791C69.9029 34.4435 68.6768 30.0855 66.6349 26.2259L67.7352 25.5914C68.2916 25.2717 68.4804 24.5592 68.1606 24.0028C67.8384 23.4464 67.1284 23.2576 66.572 23.5773L65.4667 24.2143C63.0724 20.4277 59.8549 17.2101 56.0683 14.8158L56.7053 13.7106C57.025 13.1542 56.8362 12.4442 56.2798 12.1219C55.7234 11.8022 55.0134 11.991 54.6911 12.5474L54.0567 13.6476C50.1946 11.6058 45.8365 10.3797 41.2141 10.2035V8.93709C41.2141 8.29508 40.6929 7.77393 40.0509 7.77393C39.4089 7.77393 38.8878 8.29508 38.8878 8.93709V10.2035C34.3912 10.3797 29.9954 11.5655 26.0451 13.6451L25.4107 12.5474C25.0884 11.991 24.3785 11.8022 23.8221 12.1219C23.2656 12.4417 23.0768 13.1542 23.3966 13.7106L24.031 14.8083C22.956 15.4855 21.9237 16.2308 20.9368 17.044C20.4408 17.4518 20.3703 18.1845 20.7807 18.6804C21.1886 19.1764 21.9212 19.2469 22.4172 18.8365C27.3342 14.7806 33.5881 12.5071 40.0509 12.5071C55.3382 12.5071 67.7729 24.9444 67.7729 40.2291C67.7729 55.5139 55.3357 67.9511 40.0509 67.9511C24.7662 67.9511 12.3289 55.5139 12.3289 40.2291C12.3289 33.8569 14.5445 27.5804 18.6634 22.5904C19.0712 22.0944 19.0032 21.3618 18.5073 20.9539C18.0113 20.546 17.2786 20.614 16.8708 21.11C16.0551 22.0969 15.3073 23.1342 14.6301 24.2092L13.5324 23.5748C12.976 23.255 12.266 23.4439 11.9437 24.0003C11.624 24.5567 11.8128 25.2667 12.3692 25.5889L13.4669 26.2234C11.3873 30.1736 10.2015 34.5694 10.0252 39.066H8.75886C8.11686 39.066 7.5957 39.5871 7.5957 40.2291C7.5957 40.8711 8.11686 41.3923 8.75886 41.3923H10.0252C10.2015 46.0147 11.4276 50.3728 13.4694 54.2324L12.3692 54.8668C11.8128 55.1866 11.624 55.8991 11.9437 56.4555C12.266 57.0144 12.9785 57.2007 13.5324 56.881L14.6376 56.244C17.0319 60.0306 20.2495 63.2481 24.0361 65.6424L23.3991 66.7477C23.0793 67.3041 23.2682 68.0141 23.8246 68.3363C24.3759 68.6561 25.0884 68.4698 25.4132 67.9109L26.0477 66.8106C29.9098 68.8525 34.2678 70.0786 38.8878 70.2548V71.5212C38.8878 72.1632 39.4089 72.6843 40.0509 72.6843C40.6929 72.6843 41.2141 72.1632 41.2141 71.5212V70.2548C45.8365 70.0786 50.1946 68.8525 54.0542 66.8106L54.6886 67.9109C55.0109 68.4698 55.7234 68.6561 56.2773 68.3363C56.8337 68.0166 57.0225 67.3041 56.7027 66.7477L56.0658 65.6424C59.8523 63.2481 63.0699 60.0306 65.4642 56.244L66.5695 56.881C67.1259 57.2007 67.8359 57.0119 68.1581 56.4555C68.4779 55.8991 68.289 55.1891 67.7326 54.8668L66.6324 54.2324C68.6742 50.3703 69.9003 46.0122 70.0766 41.3923H71.343C71.985 41.3923 72.5061 40.8711 72.5061 40.2291C72.5061 39.5871 71.985 39.066 71.343 39.066H71.3455Z" fill="black"/>
<path d="M26.9267 36.168L33.5205 34.8009C34.5124 34.5944 35.3659 33.9675 35.8594 33.0838L39.0392 27.3763C39.3388 26.8375 39.8499 26.7796 40.0538 26.7796C40.2577 26.7796 40.7688 26.8375 41.0684 27.3763L44.2482 33.0838C44.7417 33.9701 45.5927 34.5944 46.5872 34.8009L47.1914 34.9268C47.8208 35.0577 48.4351 34.6524 48.566 34.0255C48.697 33.396 48.2916 32.7817 47.6647 32.6508L47.0605 32.5249C46.7307 32.4569 46.4462 32.248 46.28 31.9534L43.1002 26.2459C42.4758 25.1255 41.3378 24.4558 40.0538 24.4558C38.7698 24.4558 37.6318 25.1255 37.0074 26.2459L33.8276 31.9534C33.664 32.248 33.3795 32.4569 33.0497 32.5249L26.4559 33.892C25.1895 34.1539 24.2076 35.0501 23.83 36.2888C23.4523 37.5275 23.7671 38.8191 24.6709 39.7431L29.17 44.3454C29.4192 44.6022 29.5375 44.9521 29.4922 45.3071L28.6287 52.0142C28.465 53.2957 29.0164 54.5545 30.0688 55.3022C30.6705 55.7302 31.3754 55.9468 32.0854 55.9468C32.6166 55.9468 33.1529 55.8234 33.6464 55.5767L39.5327 52.631C39.8574 52.4673 40.2477 52.4673 40.5725 52.631L46.4588 55.5767C47.6144 56.1557 48.9865 56.05 50.0389 55.3022C51.0913 54.5545 51.6426 53.2957 51.479 52.0142L50.6154 45.3071C50.5701 44.9521 50.6884 44.6022 50.9377 44.3454L55.4367 39.7431C56.3406 38.8166 56.6553 37.525 56.2776 36.2888C55.9 35.0501 54.9181 34.1539 53.6517 33.892L53.05 33.7661C52.4231 33.6352 51.8063 34.0406 51.6754 34.6675C51.5444 35.2944 51.9498 35.9112 52.5767 36.0421L53.1784 36.168C53.7877 36.2939 53.9941 36.7697 54.0545 36.9661C54.115 37.1625 54.2081 37.6735 53.7751 38.1167L49.276 42.7189C48.5258 43.4868 48.1733 44.5367 48.3118 45.6017L49.1753 52.3087C49.2559 52.9331 48.8656 53.2831 48.6944 53.4039C48.5232 53.5248 48.065 53.7765 47.5011 53.4946L41.6148 50.5489C40.6379 50.0605 39.4697 50.0605 38.4929 50.5489L32.6066 53.4946C32.0426 53.7765 31.5844 53.5248 31.4132 53.4039C31.242 53.2831 30.8518 52.9331 30.9323 52.3087L31.7959 45.6017C31.9318 44.5367 31.5819 43.4868 30.8316 42.7189L26.3326 38.1167C25.897 37.671 25.9927 37.1625 26.0531 36.9661C26.1135 36.7672 26.32 36.2939 26.9292 36.168H26.9267Z" fill="black"/>
</g>
<defs>
<clipPath id="clip0_113_2955">
<rect width="79.3492" height="79.3492" fill="white" transform="translate(0.37793 0.553223)"/>
</clipPath>
</defs>
</svg>
