<svg width="44" height="44" viewBox="0 0 44 44" fill="none" xmlns="http://www.w3.org/2000/svg">
<g clip-path="url(#clip0_70_3519)">
<path d="M22.0005 44.0009C34.151 44.0009 44.0009 34.151 44.0009 22.0005C44.0009 9.84994 34.151 0 22.0005 0C9.84994 0 0 9.84994 0 22.0005C0 34.151 9.84994 44.0009 22.0005 44.0009Z" fill="#9BDDB6"/>
<path d="M33.2329 20.1871C32.9984 19.8202 32.7768 19.4744 32.6867 19.1369C32.5911 18.7783 32.6095 18.3553 32.6279 17.9066C32.6554 17.2564 32.6839 16.5842 32.3575 16.0196C32.0255 15.4467 31.4242 15.1341 30.8421 14.8325C30.4485 14.6283 30.0761 14.4352 29.8204 14.1796C29.5648 13.9239 29.3717 13.5515 29.1676 13.158C28.8659 12.5759 28.5533 11.9745 27.9804 11.6425C27.4167 11.3161 26.7436 11.3446 26.0935 11.3731C25.6447 11.3924 25.2208 11.4099 24.8631 11.3142C24.5256 11.2241 24.1799 11.0025 23.813 10.768C23.2557 10.4112 22.6782 10.0416 21.9996 10.0416C21.3209 10.0416 20.7435 10.4103 20.1862 10.768C19.8193 11.0025 19.4736 11.2241 19.1361 11.3142C18.7774 11.4099 18.3535 11.3915 17.9057 11.3731C17.2556 11.3455 16.5834 11.317 16.0188 11.6434C15.4459 11.9754 15.1332 12.5768 14.8316 13.1589C14.6275 13.5524 14.4344 13.9249 14.1787 14.1805C13.9231 14.4361 13.5507 14.6292 13.1571 14.8334C12.575 15.135 11.9736 15.4477 11.6417 16.0205C11.3152 16.5842 11.3437 17.2573 11.3713 17.9075C11.3906 18.3562 11.4081 18.7801 11.3125 19.1378C11.2223 19.4753 11.0007 19.8211 10.7662 20.188C10.4095 20.7452 10.0398 21.3227 10.0398 22.0014C10.0398 22.68 10.4085 23.2575 10.7662 23.8147C11.0007 24.1816 11.2223 24.5274 11.3125 24.8649C11.4081 25.2235 11.3897 25.6465 11.3713 26.0952C11.3437 26.7454 11.3152 27.4176 11.6417 27.9822C11.9736 28.5551 12.575 28.8677 13.1571 29.1693C13.5507 29.3735 13.9231 29.5666 14.1787 29.8222C14.4344 30.0778 14.6275 30.4503 14.8316 30.8438C15.1332 31.4259 15.4459 32.0273 16.0188 32.3593C16.5825 32.6857 17.2547 32.6572 17.9057 32.6296C18.3545 32.6103 18.7784 32.5928 19.1361 32.6885C19.4736 32.7786 19.8193 33.0002 20.1862 33.2347C20.7435 33.5915 21.3209 33.9611 21.9996 33.9611C22.6782 33.9611 23.2557 33.5924 23.813 33.2347C24.1799 33.0002 24.5256 32.7786 24.8631 32.6885C25.2217 32.5928 25.6447 32.6103 26.0935 32.6296C26.7436 32.6572 27.4158 32.6857 27.9804 32.3593C28.5533 32.0273 28.8659 31.4259 29.1676 30.8438C29.3717 30.4503 29.5648 30.0778 29.8204 29.8222C30.0761 29.5666 30.4485 29.3735 30.8421 29.1693C31.4242 28.8677 32.0255 28.5551 32.3575 27.9822C32.6839 27.4185 32.6554 26.7454 32.6279 26.0952C32.6085 25.6465 32.5911 25.2226 32.6867 24.8649C32.7768 24.5274 32.9984 24.1816 33.2329 23.8147C33.5897 23.2575 33.9594 22.68 33.9594 22.0014C33.9594 21.3227 33.5906 20.7452 33.2329 20.188V20.1871ZM32.6426 23.4368C32.3897 23.8322 32.1276 24.2414 32.009 24.6837C31.8858 25.1453 31.9069 25.6437 31.9272 26.1247C31.952 26.6994 31.975 27.2428 31.7506 27.6309C31.5216 28.0272 31.0343 28.2801 30.5193 28.5468C30.0954 28.7666 29.6568 28.9946 29.3248 29.3266C28.9928 29.6585 28.7648 30.0972 28.545 30.5211C28.2774 31.036 28.0255 31.5234 27.6291 31.7524C27.242 31.9767 26.6985 31.9528 26.1229 31.9289C25.641 31.9087 25.1436 31.8866 24.6819 32.0108C23.698 32.2738 22.8594 33.2595 21.9996 33.2595C21.526 33.2595 21.058 32.9607 20.5642 32.6443C20.1687 32.3915 19.7595 32.1294 19.3172 32.0108C19.0312 31.9344 18.7315 31.9133 18.4299 31.9133C17.6657 31.9133 16.8813 32.0485 16.37 31.7524C15.9737 31.5234 15.7208 31.036 15.4542 30.5211C15.2344 30.0972 15.0063 29.6585 14.6744 29.3266C14.3424 28.9946 13.9038 28.7666 13.4799 28.5468C12.9649 28.2792 12.4775 28.0272 12.2486 27.6309C12.0242 27.2438 12.0481 26.7003 12.072 26.1247C12.0923 25.6428 12.1143 25.1453 11.9902 24.6837C11.7272 23.6998 10.7414 22.8611 10.7414 22.0014C10.7414 21.5278 11.0403 21.0597 11.3566 20.5659C11.6095 20.1705 11.8716 19.7613 11.9902 19.319C12.1134 18.8574 12.0923 18.359 12.072 17.8781C12.0472 17.3033 12.0242 16.7599 12.2486 16.3718C12.4775 15.9755 12.9649 15.7226 13.4799 15.4559C13.9038 15.2362 14.3424 15.0081 14.6744 14.6761C15.0063 14.3442 15.2344 13.9056 15.4542 13.4816C15.7218 12.9667 15.9737 12.4793 16.37 12.2503C16.7572 12.026 17.3006 12.0499 17.8763 12.0738C18.3572 12.094 18.8556 12.1152 19.3172 11.992C20.3012 11.729 21.1398 10.7432 21.9996 10.7432C22.4732 10.7432 22.9412 11.042 23.435 11.3584C23.8304 11.6113 24.2396 11.8733 24.6819 11.991C25.1436 12.1143 25.642 12.0931 26.1229 12.0729C26.6985 12.048 27.2411 12.0251 27.6282 12.2494C28.0245 12.4784 28.2774 12.9658 28.5441 13.4807C28.7639 13.9046 28.9919 14.3433 29.3239 14.6752C29.6558 15.0072 30.0945 15.2352 30.5184 15.455C31.0333 15.7226 31.5207 15.9746 31.7497 16.3709C31.974 16.758 31.9501 17.3015 31.9262 17.8771C31.906 18.359 31.8839 18.8565 32.0081 19.3181C32.2711 20.302 33.2568 21.1406 33.2568 22.0004C33.2568 22.474 32.958 22.9421 32.6416 23.4359L32.6426 23.4368Z" fill="#2A9B58"/>
<path d="M18.7223 28.865C19.7494 29.356 20.8529 29.6052 21.9996 29.6052C26.1937 29.6052 29.6053 26.1936 29.6053 21.9995C29.6053 17.8054 26.1937 14.3939 21.9996 14.3939C17.8055 14.3939 14.3939 17.8054 14.3939 21.9995C14.3939 24.3196 15.433 26.4833 17.2455 27.9362C17.3963 28.0576 17.617 28.0328 17.7384 27.882C17.8597 27.7312 17.8349 27.5105 17.6841 27.3891C16.039 26.0695 15.0946 24.1053 15.0946 21.9986C15.0946 18.1916 18.1917 15.0936 21.9996 15.0936C25.8075 15.0936 28.9046 18.1907 28.9046 21.9986C28.9046 25.8065 25.8075 28.9036 21.9996 28.9036C20.9577 28.9036 19.9563 28.6774 19.0248 28.2314C18.8501 28.1477 18.6414 28.2213 18.5577 28.396C18.474 28.5707 18.5476 28.7794 18.7223 28.8631V28.865Z" fill="#2A9B58"/>
<path d="M31.4315 21.6501H31.0499C30.9966 20.257 30.6269 18.9439 30.0117 17.7797L30.3437 17.5884C30.5111 17.4919 30.569 17.2776 30.4715 17.1102C30.375 16.9429 30.1607 16.885 29.9933 16.9824L29.6605 17.1746C28.9386 16.0334 27.9685 15.0633 26.8273 14.3415L27.0195 14.0086C27.116 13.8412 27.059 13.627 26.8917 13.5304C26.7243 13.4339 26.51 13.4909 26.4135 13.6582L26.2222 13.9902C25.0581 13.3741 23.7449 13.0053 22.3518 12.952V12.5704C22.3518 12.3773 22.1946 12.22 22.0014 12.22C21.8083 12.22 21.6511 12.3773 21.6511 12.5704V12.952C20.2957 13.0044 18.9706 13.363 17.7797 13.9893L17.5885 13.6582C17.4919 13.4909 17.2777 13.4329 17.1103 13.5304C16.943 13.627 16.885 13.8412 16.9825 14.0086L17.1738 14.3396C16.8501 14.5438 16.5383 14.7681 16.2413 15.0137C16.0924 15.1369 16.0712 15.3576 16.1944 15.5065C16.3176 15.6555 16.5383 15.6767 16.6873 15.5534C18.1687 14.3304 20.0547 13.6453 22.0024 13.6453C26.6094 13.6453 30.3584 17.3935 30.3584 22.0014C30.3584 26.6093 26.6103 30.3574 22.0024 30.3574C17.3945 30.3574 13.6463 26.6093 13.6463 22.0014C13.6463 20.0813 14.3139 18.1889 15.5553 16.6845C15.6786 16.5355 15.6574 16.3148 15.5084 16.1916C15.3595 16.0684 15.1388 16.0895 15.0156 16.2385C14.77 16.5364 14.5447 16.8482 14.3397 17.1728L14.0086 16.9815C13.8413 16.885 13.627 16.942 13.5305 17.1093C13.4339 17.2767 13.4909 17.4909 13.6583 17.5875L13.9893 17.7788C13.3631 18.9696 13.0045 20.2938 12.9521 21.6501H12.5704C12.3773 21.6501 12.2201 21.8074 12.2201 22.0005C12.2201 22.1936 12.3773 22.3508 12.5704 22.3508H12.9521C13.0054 23.744 13.3751 25.0571 13.9902 26.2212L13.6583 26.4125C13.4909 26.5091 13.433 26.7233 13.5305 26.8907C13.6279 27.059 13.8422 27.1151 14.0086 27.0185L14.3415 26.8263C15.0634 27.9675 16.0335 28.9376 17.1747 29.6595L16.9825 29.9924C16.8859 30.1597 16.943 30.374 17.1103 30.4705C17.2768 30.5662 17.4919 30.511 17.5885 30.3427L17.7797 30.0107C18.9439 30.6269 20.257 30.9956 21.6502 31.0489V31.4305C21.6502 31.6237 21.8074 31.7809 22.0005 31.7809C22.1936 31.7809 22.3509 31.6237 22.3509 31.4305V31.0489C23.744 30.9956 25.0571 30.6259 26.2213 30.0107L26.4126 30.3427C26.51 30.511 26.7243 30.5671 26.8907 30.4705C27.0581 30.374 27.116 30.1597 27.0186 29.9924L26.8264 29.6595C27.9675 28.9376 28.9377 27.9675 29.6595 26.8263L29.9924 27.0185C30.1598 27.1151 30.374 27.058 30.4706 26.8907C30.5671 26.7233 30.5101 26.5091 30.3428 26.4125L30.0108 26.2212C30.6269 25.0571 30.9957 23.744 31.049 22.3508H31.4306C31.6237 22.3508 31.781 22.1936 31.781 22.0005C31.781 21.8074 31.6246 21.6501 31.4306 21.6501H31.4315Z" fill="#2A9B58"/>
<path d="M18.0436 20.7765L20.0317 20.3646C20.3305 20.302 20.588 20.1135 20.736 19.8469L21.6942 18.1264C21.7843 17.9636 21.9388 17.9461 22.0004 17.9461C22.0621 17.9461 22.2156 17.9636 22.3067 18.1264L23.2648 19.8469C23.4138 20.1135 23.6704 20.303 23.9692 20.3646L24.1513 20.4023C24.3407 20.4418 24.5265 20.3195 24.5651 20.1301C24.6046 19.9407 24.4823 19.7549 24.2929 19.7163L24.1108 19.6786C24.0115 19.6574 23.9251 19.5949 23.8763 19.5057L22.9182 17.7852C22.7297 17.4477 22.3867 17.2454 21.9995 17.2454C21.6124 17.2454 21.2694 17.4468 21.0809 17.7852L20.1227 19.5057C20.073 19.5949 19.9875 19.6574 19.8882 19.6786L17.9001 20.0905C17.5185 20.1696 17.2224 20.44 17.1084 20.8133C16.9944 21.1867 17.0891 21.5756 17.3622 21.8543L18.7185 23.2419C18.7939 23.3191 18.8289 23.4249 18.8151 23.5315L18.5549 25.5536C18.5052 25.9399 18.6716 26.3196 18.9889 26.5449C19.17 26.6737 19.3834 26.739 19.5967 26.739C19.7567 26.739 19.9186 26.7022 20.0675 26.6277L21.8414 25.7394C21.9398 25.6907 22.0565 25.6907 22.1549 25.7394L23.9288 26.6277C24.2773 26.8015 24.6902 26.7702 25.0074 26.5449C25.3247 26.3196 25.4911 25.9399 25.4414 25.5536L25.1812 23.5315C25.1674 23.4249 25.2033 23.3191 25.2778 23.2419L26.6341 21.8543C26.9072 21.5756 27.0019 21.1857 26.8879 20.8133C26.7739 20.44 26.4778 20.1705 26.0962 20.0905L25.915 20.0528C25.7256 20.0133 25.5398 20.1356 25.5012 20.325C25.4626 20.5145 25.584 20.7002 25.7734 20.7388L25.9545 20.7765C26.1385 20.8142 26.2001 20.9577 26.2185 21.0175C26.2369 21.0772 26.2644 21.2308 26.1339 21.365L24.7775 22.7527C24.5513 22.9844 24.4456 23.3007 24.4869 23.6216L24.7472 25.6438C24.7711 25.8323 24.6543 25.9371 24.6028 25.9739C24.5513 26.0107 24.4134 26.087 24.2433 26.0015L22.4694 25.1132C22.1752 24.966 21.823 24.966 21.5287 25.1132L19.7549 26.0015C19.5857 26.0861 19.4468 26.0107 19.3953 25.9739C19.3438 25.9371 19.2261 25.8323 19.251 25.6438L19.5112 23.6216C19.5526 23.3007 19.4468 22.9844 19.2206 22.7527L17.8643 21.365C17.7337 21.2308 17.7613 21.0772 17.7797 21.0175C17.7981 20.9577 17.8597 20.8152 18.0436 20.7765Z" fill="#2A9B58"/>
</g>
<defs>
<clipPath id="clip0_70_3519">
<rect width="44" height="44" fill="white"/>
</clipPath>
</defs>
</svg>
