<svg width="44" height="44" viewBox="0 0 44 44" fill="none" xmlns="http://www.w3.org/2000/svg">
<g clip-path="url(#clip0_70_3541)">
<path d="M22.0005 44.0009C34.151 44.0009 44.0009 34.151 44.0009 22.0005C44.0009 9.84994 34.151 0 22.0005 0C9.84994 0 0 9.84994 0 22.0005C0 34.151 9.84994 44.0009 22.0005 44.0009Z" fill="#9BDDB6"/>
<path d="M18.52 19.6114C18.3986 19.6114 18.2836 19.5544 18.211 19.4569L17.3181 18.267L16.473 19.1121C16.3222 19.2629 16.0767 19.2629 15.9259 19.1121C15.8965 19.0827 15.8726 19.0496 15.8542 19.0128L15.3208 17.9461L14.9263 18.3406C14.8537 18.4132 14.7553 18.4537 14.6523 18.4537H13.4918V17.6803H14.4923L15.1525 17.0201C15.3034 16.8693 15.5489 16.8693 15.6997 17.0201C15.7291 17.0495 15.753 17.0826 15.7714 17.1194L16.3048 18.1861L17.0855 17.4054C17.2363 17.2546 17.4809 17.2537 17.6326 17.4054C17.6455 17.4183 17.6583 17.433 17.6694 17.4477L18.3627 18.3719L18.9218 16.4132C18.965 16.2596 19.0984 16.1474 19.2575 16.1327C19.4165 16.1162 19.5692 16.2008 19.64 16.3451L20.3067 17.6794H20.8409V18.4528H20.0676C19.9214 18.4528 19.7871 18.37 19.7218 18.2385L19.3936 17.581L18.8933 19.3319C18.8529 19.4726 18.7361 19.5792 18.5917 19.6059C18.5687 19.6105 18.5448 19.6123 18.5209 19.6123L18.52 19.6114Z" fill="#2A9B58"/>
<path d="M21.6134 16.1309H22.3868V16.9043H21.6134V16.1309Z" fill="#2A9B58"/>
<path d="M21.6134 17.6776H22.3868V18.451H21.6134V17.6776Z" fill="#2A9B58"/>
<path d="M21.6134 19.2243H22.3868V19.9977H21.6134V19.2243Z" fill="#2A9B58"/>
<path d="M21.6134 20.771H22.3868V21.5443H21.6134V20.771Z" fill="#2A9B58"/>
<path d="M24.7067 22.3186H27.4138V23.092H24.7067V22.3186Z" fill="#2A9B58"/>
<path d="M28.1873 22.3186H30.8944V23.092H28.1873V22.3186Z" fill="#2A9B58"/>
<path d="M32.8283 10.0232H11.1717C10.5308 10.0232 10.0112 10.5427 10.0112 11.1837V26.6304C10.0112 27.2714 10.5308 27.7909 11.1717 27.7909H19.6795V30.9827L12.7451 32.0604C12.5814 32.1092 12.4692 32.26 12.4692 32.431V33.5915C12.4692 33.8048 12.6421 33.9786 12.8563 33.9786H31.1565C31.3698 33.9786 31.5436 33.8058 31.5436 33.5915V32.431C31.5436 32.26 31.4314 32.1092 31.2678 32.0604L24.3205 30.9827V27.7909H32.8283C33.4692 27.7909 33.9887 27.2714 33.9887 26.6304V11.1837C33.9887 10.5427 33.4692 10.0232 32.8283 10.0232ZM30.7703 33.2034H13.2435V32.7179L20.1236 31.6567H23.8782L30.7712 32.7179V33.2034H30.7703ZM23.5471 30.8834H20.4537V27.79H23.5471V30.8834ZM33.2154 26.6304C33.2154 26.8438 33.0425 27.0176 32.8283 27.0176H11.1717C10.9584 27.0176 10.7846 26.8447 10.7846 26.6304V11.1837C10.7846 10.9703 10.9575 10.7965 11.1717 10.7965H32.8283C33.0416 10.7965 33.2154 10.9694 33.2154 11.1837V26.6304Z" fill="#2A9B58"/>
<path d="M32.0549 11.5699H11.946C11.7326 11.5699 11.5588 11.7428 11.5588 11.957V25.8562C11.5588 26.0695 11.7317 26.2433 11.946 26.2433H32.0549C32.2682 26.2433 32.442 26.0704 32.442 25.8562V11.957C32.442 11.7437 32.2692 11.5699 32.0549 11.5699ZM31.6678 25.469H12.3322V12.3432H31.6678V25.469Z" fill="#2A9B58"/>
<path d="M13.4927 23.092H23.5472C23.7605 23.092 23.9343 22.9191 23.9343 22.7049V14.9704C23.9343 14.7571 23.7614 14.5833 23.5472 14.5833H13.4927C13.2794 14.5833 13.1056 14.7562 13.1056 14.9704V22.7049C13.1056 22.9182 13.2785 23.092 13.4927 23.092ZM23.161 15.3576V22.3186H13.8799V18.4519H14.6532C14.7562 18.4519 14.8537 18.4114 14.9263 18.3388L15.3208 17.9443L15.8542 19.011C15.9498 19.2023 16.1824 19.2795 16.3728 19.1829C16.4096 19.1646 16.4436 19.1407 16.4721 19.1112L17.3172 18.2661L18.2101 19.4561C18.2827 19.5535 18.3977 19.6105 18.519 19.6105C18.5429 19.6105 18.5659 19.6087 18.5898 19.6041C18.7342 19.5774 18.851 19.4717 18.8915 19.3301L19.3917 17.5792L19.72 18.2367C19.7853 18.3682 19.9195 18.451 20.0657 18.451H20.8391V17.6776H20.3048L19.6409 16.3443C19.571 16.199 19.4174 16.1135 19.2565 16.13C19.0974 16.1447 18.9641 16.2551 18.9209 16.4086L18.3618 18.3673L17.6684 17.445C17.5406 17.2739 17.2979 17.2399 17.1268 17.3677C17.1121 17.3788 17.0983 17.3907 17.0854 17.4036L16.3047 18.1843L15.7732 17.1176C15.6776 16.9264 15.4449 16.8491 15.2546 16.9457C15.2178 16.9641 15.1838 16.988 15.1553 17.0174L14.4923 17.6776H13.8789V15.3576H23.1601H23.161Z" fill="#2A9B58"/>
<path d="M21.6133 16.1309H22.3866V16.9043H21.6133V16.1309Z" fill="#2A9B58"/>
<path d="M21.6133 17.6776H22.3866V18.451H21.6133V17.6776Z" fill="#2A9B58"/>
<path d="M21.6133 19.2243H22.3866V19.9977H21.6133V19.2243Z" fill="#2A9B58"/>
<path d="M21.6133 20.771H22.3866V21.5443H21.6133V20.771Z" fill="#2A9B58"/>
<path d="M25.0938 17.6776H30.5082C30.7215 17.6776 30.8953 17.5048 30.8953 17.2905V14.9704C30.8953 14.7571 30.7224 14.5833 30.5082 14.5833H25.0938C24.8805 14.5833 24.7067 14.7562 24.7067 14.9704V17.2905C24.7067 17.5038 24.8795 17.6776 25.0938 17.6776ZM25.4809 15.3576H30.122V16.9043H25.4809V15.3576Z" fill="#2A9B58"/>
<path d="M25.0938 21.5443H30.5082C30.7215 21.5443 30.8953 21.3715 30.8953 21.1572V18.8371C30.8953 18.6238 30.7224 18.45 30.5082 18.45H25.0938C24.8805 18.45 24.7067 18.6229 24.7067 18.8371V21.1572C24.7067 21.3705 24.8795 21.5443 25.0938 21.5443ZM25.4809 19.2243H30.122V20.771H25.4809V19.2243Z" fill="#2A9B58"/>
<path d="M24.7067 22.3186H27.4138V23.092H24.7067V22.3186Z" fill="#2A9B58"/>
<path d="M28.1873 22.3186H30.8944V23.092H28.1873V22.3186Z" fill="#2A9B58"/>
</g>
<defs>
<clipPath id="clip0_70_3541">
<rect width="44" height="44" fill="white"/>
</clipPath>
</defs>
</svg>
