<svg width="80" height="80" viewBox="0 0 80 80" fill="none" xmlns="http://www.w3.org/2000/svg">
<g clip-path="url(#clip0_113_2936)">
<path d="M33.4141 58.1274H46.212V70.9354H33.4141V58.1274Z" fill="#7A9FCC"/>
<path d="M75.6485 1.83545H3.97901C2.56566 1.83545 1.41992 2.98232 1.41992 4.39705V55.5662C1.41992 56.9809 2.56566 58.1278 3.97901 58.1278H75.6485C77.0618 58.1278 78.2076 56.9809 78.2076 55.5662V4.39705C78.2076 2.98232 77.0618 1.83545 75.6485 1.83545Z" fill="#B2CAEC"/>
<path d="M6.53809 6.9585H73.0894V53.0019H6.53809V6.9585Z" fill="#E2E7F6"/>
<path d="M67.6096 46.2095V6.9585H6.53809V48.2558H65.1158C66.492 48.2558 67.6096 47.5871 67.6096 46.2095Z" fill="white"/>
<path d="M70.3439 78.4695V74.6259L46.4407 70.7822H33.6427L9.78223 74.6259V78.4695H70.3464H70.3439Z" fill="#B2CAEC"/>
<path d="M11.6562 16.9409H44.9319V42.5619H11.6562V16.9409Z" fill="#0055A3"/>
<path d="M11.6562 16.9409H41.092V38.7183H11.6562V16.9409Z" fill="#0067C5"/>
<path d="M28.2941 32.3155C27.8923 32.3155 27.513 32.1245 27.2694 31.8027L24.3161 27.8585L21.5209 30.6564C21.0211 31.1566 20.21 31.1541 19.7102 30.6539C19.6148 30.5583 19.5344 30.4452 19.4716 30.3246L17.7061 26.7901L16.4027 28.0948C16.1616 28.3361 15.8352 28.4719 15.4961 28.4693H11.6562V25.9077H14.9662L17.1511 23.7207C17.6509 23.2205 18.4621 23.223 18.9618 23.7232C19.0573 23.8187 19.1376 23.9319 19.2004 24.0525L20.9659 27.587L23.5501 25.0003C24.0499 24.5 24.8585 24.4975 25.3608 24.9977C25.4035 25.0405 25.4462 25.0882 25.4813 25.1385L27.7742 28.1979L29.6251 21.7096C29.7682 21.1993 30.2102 20.8298 30.7376 20.782C31.265 20.7267 31.7698 21.0083 32.0009 21.4859L34.2058 25.9077H35.9738V28.4693H33.4148C32.9301 28.4693 32.4855 28.1953 32.2696 27.7604L31.1821 25.5835L29.5272 31.3829C29.3941 31.8505 29.0073 32.2024 28.5301 32.2904C28.4523 32.3055 28.3744 32.313 28.2966 32.313L28.2941 32.3155Z" fill="#C0DAFC"/>
<path d="M38.5332 20.7847H41.0923V23.3463H38.5332V20.7847Z" fill="#C0DAFC"/>
<path d="M38.5332 25.9106H41.0923V28.4722H38.5332V25.9106Z" fill="#C0DAFC"/>
<path d="M38.5332 31.0337H41.0923V33.5953H38.5332V31.0337Z" fill="#C0DAFC"/>
<path d="M38.5332 36.1565H41.0923V38.7181H38.5332V36.1565Z" fill="#C0DAFC"/>
<path d="M50.0522 16.9409H67.9684V24.6282H50.0522V16.9409Z" fill="#0ED290"/>
<path d="M64.129 19.505V16.9434H50.0503V20.787H62.8482C63.5539 20.787 64.129 20.2139 64.129 19.505Z" fill="#05E39C"/>
<path d="M50.0522 29.7515H67.9684V37.4388H50.0522V29.7515Z" fill="#E53A35"/>
<path d="M48.772 41.2825H57.73V43.8441H48.772V41.2825Z" fill="#B5B5B5"/>
<path d="M60.291 41.2825H69.2491V43.8441H60.291V41.2825Z" fill="#B5B5B5"/>
<path d="M64.129 32.3155V29.7539H50.0503V33.5976H62.8482C63.5539 33.5976 64.129 33.0244 64.129 32.3155Z" fill="#E57373"/>
<path d="M75.6485 0.553223H3.97904C1.85694 0.553223 0.13916 2.27269 0.13916 4.39688V55.566C0.13916 57.6877 1.85694 59.4097 3.97904 59.4097H32.134V69.9854L9.18511 73.555C8.64266 73.7184 8.27348 74.2161 8.27348 74.7818V78.6254C8.27348 79.3318 8.84608 79.9075 9.55428 79.9075H70.1185C70.8242 79.9075 71.3993 79.3343 71.3993 78.6254V74.7818C71.3993 74.2161 71.0276 73.7159 70.4876 73.555L47.496 69.9854V59.4097H75.651C77.7706 59.4097 79.4909 57.6902 79.4909 55.566V4.39688C79.4909 2.2752 77.7731 0.553223 75.651 0.553223H75.6485ZM68.8377 77.3408H10.8326V75.732L33.6006 72.2177H46.0244L68.8352 75.732V77.3408H68.8377ZM44.9344 69.6535H34.6956V59.4071H44.9344V69.6535ZM76.9293 55.5635C76.9293 56.2699 76.3567 56.8455 75.6485 56.8455H3.97904C3.27335 56.8455 2.69825 56.2724 2.69825 55.5635V4.39688C2.69825 3.69049 3.27084 3.11482 3.97904 3.11482H75.6485C76.3542 3.11482 76.9293 3.68798 76.9293 4.39688V55.566V55.5635Z" fill="black"/>
<path d="M73.0889 5.67651H6.53763C5.83194 5.67651 5.25684 6.24967 5.25684 6.95857V53.002C5.25684 53.7084 5.82943 54.284 6.53763 54.284H73.0889C73.7946 54.284 74.3697 53.7109 74.3697 53.002V6.95857C74.3697 6.25218 73.7971 5.67651 73.0889 5.67651ZM71.8081 51.7199H7.81843V8.24063H71.8081V51.7224V51.7199Z" fill="black"/>
<path d="M11.6568 43.8443H44.9324C45.6381 43.8443 46.2132 43.2712 46.2132 42.5623V16.9412C46.2132 16.2348 45.6406 15.6592 44.9324 15.6592H11.6568C10.9511 15.6592 10.376 16.2323 10.376 16.9412V42.5623C10.376 43.2686 10.9486 43.8443 11.6568 43.8443ZM43.6516 18.2233V41.2827H12.9376V28.4722H15.4967C15.8357 28.4722 16.1622 28.3365 16.4008 28.0976L17.7042 26.793L19.4696 30.3274C19.7861 30.9609 20.5546 31.2148 21.1874 30.8981C21.3105 30.8377 21.421 30.7573 21.5164 30.6592L24.3116 27.8613L27.2674 31.8055C27.5085 32.1273 27.8878 32.3184 28.2921 32.3184C28.3699 32.3184 28.4478 32.3108 28.5256 32.2957C29.0028 32.2078 29.3896 31.8558 29.5227 31.3883L31.1777 25.5888L32.2651 27.7658C32.4811 28.2007 32.9256 28.4747 33.4103 28.4747H35.9693V25.9131H34.2013L32.0014 21.4963C31.7703 21.0162 31.2605 20.7321 30.7306 20.7874C30.2058 20.8352 29.7637 21.2022 29.6181 21.71L27.7672 28.1982L25.4743 25.1439C25.0499 24.5783 24.2488 24.4626 23.6837 24.8875C23.636 24.9227 23.5908 24.9629 23.5456 25.0056L20.9614 27.5924L19.2034 24.0579C18.887 23.4244 18.1185 23.1705 17.4857 23.4873C17.3626 23.5476 17.2521 23.628 17.1567 23.7261L14.9642 25.9131H12.9351V18.2258H43.6516V18.2233Z" fill="black"/>
<path d="M38.5332 20.7847H41.0923V23.3463H38.5332V20.7847Z" fill="black"/>
<path d="M38.5332 25.9106H41.0923V28.4722H38.5332V25.9106Z" fill="black"/>
<path d="M38.5332 31.0337H41.0923V33.5953H38.5332V31.0337Z" fill="black"/>
<path d="M38.5332 36.1565H41.0923V38.7181H38.5332V36.1565Z" fill="black"/>
<path d="M50.0528 25.9106H67.9689C68.6746 25.9106 69.2497 25.3374 69.2497 24.6285V16.9412C69.2497 16.2348 68.6771 15.6592 67.9689 15.6592H50.0528C49.3471 15.6592 48.772 16.2323 48.772 16.9412V24.6285C48.772 25.3349 49.3446 25.9106 50.0528 25.9106ZM51.3336 18.2233H66.6906V23.3465H51.3336V18.2233Z" fill="black"/>
<path d="M50.0528 38.7207H67.9689C68.6746 38.7207 69.2497 38.1475 69.2497 37.4386V29.7513C69.2497 29.0449 68.6771 28.4692 67.9689 28.4692H50.0528C49.3471 28.4692 48.772 29.0424 48.772 29.7513V37.4386C48.772 38.145 49.3446 38.7207 50.0528 38.7207ZM51.3336 31.0334H66.6906V36.1565H51.3336V31.0334Z" fill="black"/>
<path d="M48.772 41.2825H57.73V43.8441H48.772V41.2825Z" fill="black"/>
<path d="M60.291 41.2825H69.2491V43.8441H60.291V41.2825Z" fill="black"/>
</g>
<defs>
<clipPath id="clip0_113_2936">
<rect width="79.3492" height="79.3492" fill="white" transform="translate(0.13916 0.553223)"/>
</clipPath>
</defs>
</svg>
