<svg width="71" height="78" viewBox="0 0 71 78" fill="none" xmlns="http://www.w3.org/2000/svg">
<g clip-path="url(#clip0_113_2945)">
<path d="M33.1687 50.9337C33.1687 50.9337 21.383 54.0253 21.383 54.0302C1.37628 58.4558 -6.00102 30.176 13.5316 24.1729L25.3172 21.0764L33.1687 50.9337Z" fill="#E57373"/>
<path d="M5.40557 46.6784C3.2342 38.4333 8.14591 29.9886 16.3767 27.8049L26.3946 25.1734L25.3175 21.0764L13.5318 24.1729C1.97223 27.026 -1.87933 42.3477 6.88394 50.3105C6.23472 49.1688 5.73869 47.9467 5.40557 46.676V46.6784Z" fill="#E53A35"/>
<path d="M34.2585 76.0658C31.6713 76.7571 28.9747 75.4036 27.9802 72.9157L26.2903 68.7287L20.457 54.2784L21.3883 54.0301L33.1594 50.9336L37.8401 68.7287C38.9902 71.5063 37.6748 74.6928 34.898 75.8467C34.6913 75.9319 34.4773 76.0049 34.2609 76.0658H34.2585Z" fill="#0055A3"/>
<path d="M32.8409 75.4475C31.7248 72.6918 26.5334 59.8287 25.3152 56.8101C25.624 56.72 33.5557 54.6387 34.098 54.4975L33.1545 50.9336L21.3834 54.0301L20.4521 54.2784L26.2854 68.7287L27.9753 72.9157C28.8264 75.0458 30.9515 76.3822 33.2372 76.2289C33.084 75.9806 32.9503 75.7177 32.8384 75.4475H32.8409Z" fill="#3D82C4"/>
<path d="M66.0409 54.7581C63.9376 55.2644 61.8222 53.9645 61.3189 51.8587C61.2629 51.625 61.2289 51.3865 61.2167 51.1479C60.2174 47.343 56.3536 32.6104 55.4418 29.1098C54.0826 23.9563 50.7757 11.3488 49.397 6.10522C48.935 4.09445 50.1897 2.09098 52.1981 1.63089C54.1166 1.19027 56.0473 2.31738 56.6065 4.20643C57.4405 7.38568 59.9839 17.0671 60.8569 20.3973L64.4312 34.0466L68.6816 50.2204C69.2043 52.202 68.0226 54.2347 66.0433 54.7605L66.0409 54.7581Z" fill="#E57373"/>
<path d="M65.3091 51.1722C63.4003 43.8983 59.8041 30.1516 57.9269 23.0311L54.0486 8.23273C54.0073 8.26437 53.4723 6.02964 53.4553 6.02964C52.8085 4.54956 53.0906 2.82605 54.1775 1.63078C52.2104 0.995417 50.1022 2.07627 49.4652 4.04565C49.2488 4.71266 49.2269 5.42593 49.3971 6.10754C49.5284 6.63336 50.0439 8.60031 50.1946 9.17482C50.2335 9.1383 54.0729 23.9756 54.09 23.9732C55.8115 30.5167 59.4637 44.4461 61.2192 51.1502L61.2533 51.2525L61.4721 52.1167C62.0265 54.1128 64.0909 55.2813 66.0847 54.7263C66.7145 54.551 67.2859 54.2151 67.7455 53.7501C66.5516 53.3606 65.6349 52.3893 65.3115 51.1746L65.3091 51.1722Z" fill="#E53A35"/>
<path d="M61.2094 51.1431C60.1249 47.2117 56.074 44.8893 52.1373 45.9458L33.1688 50.9338L25.3174 21.0765L44.298 16.0885C48.2687 15.0223 50.6419 10.9545 49.6206 6.96704C53.1245 20.2951 57.7128 37.7713 61.2094 51.1431Z" fill="#B2CAEC"/>
<path d="M45.3727 20.2853C49.3434 19.2191 51.7166 15.1513 50.6954 11.1639C53.9318 23.3989 57.9584 38.9373 61.2094 51.1431C57.7104 37.7567 53.1269 20.3097 49.6206 6.96704C50.6443 10.9545 48.2687 15.0223 44.298 16.0885L25.3174 21.0765L26.4189 25.266L45.3727 20.2853Z" fill="#82AEE3"/>
<path d="M65.2804 33.4137C65.0129 33.6425 64.7309 33.8518 64.4342 34.0417L60.8599 20.3923C64.957 20.6601 68.0621 24.2045 67.7946 28.3064C67.6657 30.2758 66.7612 32.1113 65.2804 33.4137Z" fill="#FCB64D"/>
<path d="M64.0355 21.3493C63.0628 20.7918 61.9759 20.4656 60.8599 20.3975L64.4342 34.0468C65.3801 33.4456 66.1679 32.6252 66.7345 31.6539L64.0379 21.3493H64.0355Z" fill="#F78C1E"/>
<path d="M65.9314 34.5699C71.7331 30.0664 69.1532 20.2657 61.8975 19.197L57.8781 3.87037C57.1171 1.17068 54.3111 -0.39947 51.6145 0.362481C50.3768 0.713026 49.3167 1.52123 48.6504 2.62399C47.865 4.06269 47.7556 5.77403 48.3538 7.30037C49.1902 10.5843 47.2401 13.9315 43.9721 14.8201L13.1986 22.907C-6.72793 28.635 -1.04299 58.0078 19.6203 55.7146L26.7593 73.4002C28.1866 76.8034 32.0989 78.4052 35.4982 76.9787C36.8113 76.4261 37.9152 75.4694 38.6471 74.2449C39.5346 72.7259 39.7777 70.9147 39.3182 69.218L34.7566 51.8684L52.468 47.2115C55.8259 46.3692 59.2301 48.4092 60.0714 51.771C60.1273 51.995 60.1711 52.2214 60.2027 52.4477C60.9662 55.1499 63.7722 56.72 66.4712 55.9556C67.7089 55.6051 68.769 54.7969 69.4352 53.6917C70.1088 52.5427 70.2936 51.1721 69.9507 49.8868L65.9338 34.5699H65.9314ZM62.6634 22.1158C65.8074 23.3817 67.332 26.9601 66.0676 30.1102C65.8439 30.6652 65.5424 31.1862 65.1679 31.6536L62.7728 22.5248L62.6634 22.1158ZM10.3512 51.3036C-0.442398 45.135 1.85541 28.4889 13.8648 25.4484L24.3836 22.6854L31.5591 49.9964L21.0476 52.7666C17.4294 53.7331 13.5754 53.2048 10.3512 51.3036ZM36.3784 72.9303C35.2308 74.8462 32.7481 75.4669 30.8345 74.3179C30.1002 73.8773 29.5239 73.2127 29.1908 72.4216L22.2269 55.1645L32.2229 52.5403L36.7845 69.8971C37.0593 70.922 36.9134 72.015 36.3784 72.9303ZM58.3863 45.5318C56.3925 44.3828 54.0266 44.0736 51.8066 44.6724L34.1001 49.3293L26.9222 22.0111L44.636 17.3591C46.8584 16.7675 48.7623 15.3288 49.9367 13.3522C51.7604 20.2681 56.5165 38.387 58.3888 45.5318H58.3863ZM67.1691 52.3723C66.4663 53.5262 64.9661 53.8913 63.8135 53.1878C63.2932 52.8713 62.9114 52.3723 62.7412 51.788C59.7674 40.4586 53.5549 16.7748 50.6638 5.76673C50.3841 4.45949 51.2157 3.17172 52.5215 2.89177C53.7421 2.62886 54.9627 3.34212 55.3372 4.53738C57.2459 11.7869 61.2896 27.2766 63.1716 34.3995L67.4098 50.549C67.5751 51.1648 67.49 51.8197 67.1691 52.3698V52.3723ZM13.4952 41.7731C12.7901 41.9338 12.0873 41.4932 11.9269 40.7848C11.7737 40.1105 12.1676 39.4337 12.829 39.2365L21.7624 36.8825C22.4676 36.7219 23.1703 37.1625 23.3308 37.8709C23.484 38.5452 23.0901 39.2219 22.4287 39.4191L13.4952 41.7731ZM24.0262 45.5001L15.0903 47.859C14.3973 48.0684 13.6654 47.6764 13.4563 46.9826C13.2472 46.2889 13.6387 45.5561 14.3317 45.3468C14.3633 45.337 14.3949 45.3297 14.424 45.3224L23.3575 42.9684C24.0627 42.8077 24.7654 43.2484 24.9259 43.9567C25.0791 44.6311 24.6852 45.3078 24.0238 45.505V45.5001H24.0262ZM11.8977 35.6921C11.1925 35.8528 10.4898 35.4122 10.3293 34.7038C10.1761 34.0295 10.5701 33.3527 11.2314 33.1556L20.1649 30.8015C20.8676 30.6263 21.5801 31.0523 21.7551 31.7558C21.9278 32.4472 21.5193 33.1507 20.8312 33.3406L11.8977 35.6921Z" fill="black"/>
</g>
<defs>
<clipPath id="clip0_113_2945">
<rect width="69.2625" height="77.3319" fill="white" transform="translate(0.853516 0.170166)"/>
</clipPath>
</defs>
</svg>
