<svg width="80" height="81" viewBox="0 0 80 81" fill="none" xmlns="http://www.w3.org/2000/svg">
<g clip-path="url(#clip0_113_2964)">
<path d="M78.5629 5.96704C78.5629 3.72554 76.8282 1.90967 74.688 1.90967H5.41391C3.27373 1.90967 1.53906 3.72554 1.53906 5.96704V11.9914L40.0522 14.5125L78.5654 11.9914V5.96704H78.5629Z" fill="#01C0FA"/>
<path d="M74.6902 1.90967H72.3647V12.3969L78.565 11.9914V5.96704C78.565 3.72554 76.8303 1.90967 74.6902 1.90967Z" fill="#08A9F1"/>
<path d="M1.53906 11.9912V74.7684C1.53906 77.0099 3.27373 78.8258 5.41391 78.8258H74.688C76.8282 78.8258 78.5629 77.0099 78.5629 74.7684V11.9912H1.53906Z" fill="#F2FBFF"/>
<path d="M72.3652 11.9912V63.3342C72.3652 70.099 67.1286 75.5819 60.668 75.5819H1.6167C1.97465 77.4331 3.5391 78.8283 5.41395 78.8283H74.6881C76.8282 78.8283 78.5629 77.0125 78.5629 74.7709V11.9912H72.3626H72.3652Z" fill="#DFF6FD"/>
<path d="M54.496 35.3982C54.496 36.6927 53.0842 37.7757 52.7813 38.9695C52.4659 40.2036 53.1618 41.8784 52.5636 42.9614C51.9578 44.0595 50.2181 44.2609 49.3696 45.1525C48.5185 46.0416 48.3258 47.8625 47.277 48.4971C46.2432 49.1217 44.6437 48.3939 43.4647 48.7238C42.3258 49.0437 41.2895 50.5195 40.0529 50.5195C38.8164 50.5195 37.7826 49.0411 36.6412 48.7238C35.4622 48.3939 33.8627 49.1217 32.8289 48.4971C31.7801 47.8625 31.5873 46.0416 30.7363 45.1525C29.8852 44.2635 28.148 44.0595 27.5423 42.9614C26.944 41.8809 27.6399 40.2061 27.3245 38.9695C27.0191 37.7757 25.6099 36.6927 25.6099 35.3982C25.6099 34.1037 27.0216 33.0207 27.3245 31.8269C27.6399 30.5928 26.944 28.918 27.5423 27.835C28.148 26.7369 29.8877 26.5354 30.7363 25.6439C31.5873 24.7548 31.7801 22.9339 32.8289 22.2992C33.8627 21.6746 35.4622 22.4025 36.6412 22.0726C37.7801 21.7527 38.8164 20.2769 40.0529 20.2769C41.2895 20.2769 42.3233 21.7552 43.4647 22.0726C44.6437 22.4025 46.2432 21.6746 47.277 22.2992C48.3258 22.9339 48.5185 24.7548 49.3696 25.6439C50.2206 26.5329 51.9578 26.7369 52.5636 27.835C53.1618 28.9155 52.4659 30.5903 52.7813 31.8269C53.0867 33.0207 54.496 34.1037 54.496 35.3982Z" fill="#DFF6FD"/>
<path d="M55.2269 37.4864C55.2269 38.8464 53.745 39.9848 53.4246 41.239C53.0942 42.5361 53.8251 44.2966 53.1968 45.4324C52.561 46.5859 50.7337 46.7975 49.8401 47.7344C48.9465 48.6687 48.7438 50.5828 47.6424 51.2503C46.556 51.9076 44.8764 51.142 43.6374 51.4895C42.4384 51.8245 41.352 53.3759 40.0529 53.3759C38.7538 53.3759 37.6674 51.8245 36.4684 51.4895C35.2293 51.142 33.5472 51.9076 32.4634 51.2503C31.362 50.5828 31.1593 48.6713 30.2656 47.7344C29.372 46.8 27.5447 46.5859 26.9089 45.4324C26.2807 44.2966 27.0116 42.5361 26.6812 41.239C26.3608 39.9848 24.8789 38.8464 24.8789 37.4864C24.8789 36.1264 26.3608 34.988 26.6812 33.7338C27.0116 32.4367 26.2807 30.6763 26.9089 29.5404C27.5447 28.3869 29.372 28.1754 30.2656 27.2385C31.1593 26.3041 31.362 24.39 32.4634 23.7226C33.5497 23.0652 35.2293 23.8309 36.4684 23.4833C37.6674 23.1483 38.7538 21.5969 40.0529 21.5969C41.352 21.5969 42.4384 23.1483 43.6374 23.4833C44.8764 23.8309 46.5585 23.0652 47.6424 23.7226C48.7438 24.39 48.9465 26.3016 49.8401 27.2385C50.7337 28.1728 52.561 28.3869 53.1968 29.5404C53.8251 30.6763 53.0942 32.4367 53.4246 33.7338C53.745 34.988 55.2269 36.1264 55.2269 37.4864Z" fill="#05E39C"/>
<path d="M53.4247 41.2388C53.7451 39.9846 55.227 38.8462 55.227 37.4862C55.227 36.1261 53.7451 34.9878 53.4247 33.7335C53.0943 32.4365 53.8252 30.676 53.197 29.5402C52.5612 28.3867 50.7339 28.1751 49.8403 27.2382C48.9466 26.3038 48.7439 24.3897 47.6425 23.7223C46.5562 23.065 44.8766 23.8306 43.6375 23.4831C43.3597 23.405 43.0893 23.2614 42.819 23.0876C42.9667 23.3647 43.1294 23.6191 43.3271 23.8256C44.2207 24.76 46.048 24.974 46.6838 26.1275C47.3121 27.2634 46.5812 29.0239 46.9116 30.3209C47.232 31.5751 48.7139 32.7135 48.7139 34.0735C48.7139 35.4335 47.232 36.5719 46.9116 37.8262C46.5812 39.1232 47.3121 40.8837 46.6838 42.0195C46.048 43.173 44.2207 43.3846 43.3271 44.3215C42.4335 45.2559 42.2308 47.17 41.1294 47.8374C40.043 48.4947 38.3634 47.7291 37.1244 48.0766C35.9254 48.4116 34.839 49.963 33.5399 49.963C32.5411 49.963 31.67 49.0463 30.7739 48.4695C31.2921 49.4492 31.605 50.7261 32.4635 51.245C33.5499 51.9023 35.2295 51.1367 36.4685 51.4842C37.6675 51.8192 38.7539 53.3706 40.053 53.3706C41.3522 53.3706 42.4385 51.8192 43.6375 51.4842C44.8766 51.1367 46.5587 51.9023 47.6425 51.245C48.7439 50.5775 48.9466 48.666 49.8403 47.7291C50.7339 46.7922 52.5612 46.5806 53.197 45.4271C53.8252 44.2913 53.0943 42.5308 53.4247 41.2338V41.2388Z" fill="#0ED290"/>
<path d="M39.2386 36.4737L37.4414 34.6125C36.4477 33.5849 34.8482 33.5925 33.8644 34.6326C32.8832 35.6728 32.8907 37.3501 33.8845 38.3777L37.4814 42.1026C38.4752 43.1302 40.0747 43.1226 41.0584 42.0825L46.2424 36.5971C47.2236 35.5569 47.2161 33.8796 46.2224 32.852C45.2286 31.8245 43.6291 31.832 42.6454 32.8722L39.2411 36.4762L39.2386 36.4737Z" fill="#FED402"/>
<path d="M74.6909 0.692871H13.6696C13.0288 0.692871 12.5081 1.23688 12.5081 1.90933C12.5081 2.58178 13.0288 3.12578 13.6696 3.12578H74.6909C76.1852 3.12578 77.4018 4.40017 77.4018 5.9667V10.7746H2.70334V5.9667C2.70334 4.40017 3.91986 3.12578 5.41423 3.12578H8.24527C8.88607 3.12578 9.40672 2.58178 9.40672 1.90933C9.40672 1.23688 8.88607 0.692871 8.24527 0.692871H5.41423C2.63826 0.692871 0.37793 3.05778 0.37793 5.9667V74.7683C0.37793 77.6772 2.63826 80.0421 5.41423 80.0421H74.6884C77.4668 80.0421 79.7247 77.6772 79.7247 74.7683V28.898C79.7247 28.2256 79.204 27.6816 78.5632 27.6816C77.9224 27.6816 77.4018 28.2256 77.4018 28.898V74.7683C77.4018 76.3348 76.1852 77.6092 74.6909 77.6092H5.41423C3.91986 77.6092 2.70334 76.3348 2.70334 74.7683V13.2075H77.4018V23.2187C77.4018 23.8912 77.9224 24.4352 78.5632 24.4352C79.204 24.4352 79.7247 23.8912 79.7247 23.2187V5.9667C79.7272 3.05778 77.4668 0.692871 74.6909 0.692871Z" fill="black"/>
<path d="M73.7498 8.16802C74.3913 8.16802 74.9113 7.62339 74.9113 6.95156C74.9113 6.27973 74.3913 5.73511 73.7498 5.73511C73.1084 5.73511 72.5884 6.27973 72.5884 6.95156C72.5884 7.62339 73.1084 8.16802 73.7498 8.16802Z" fill="black"/>
<path d="M68.9368 8.16802C69.5783 8.16802 70.0983 7.62339 70.0983 6.95156C70.0983 6.27973 69.5783 5.73511 68.9368 5.73511C68.2954 5.73511 67.7754 6.27973 67.7754 6.95156C67.7754 7.62339 68.2954 8.16802 68.9368 8.16802Z" fill="black"/>
<path d="M64.1224 8.16802C64.7638 8.16802 65.2838 7.62339 65.2838 6.95156C65.2838 6.27973 64.7638 5.73511 64.1224 5.73511C63.4809 5.73511 62.9609 6.27973 62.9609 6.95156C62.9609 7.62339 63.4809 8.16802 64.1224 8.16802Z" fill="black"/>
<path d="M55.2689 40.3951C55.7945 39.627 56.4479 38.6699 56.4479 37.4862C56.4479 36.3025 55.7945 35.3455 55.2689 34.5773C54.981 34.1567 54.6832 33.721 54.6031 33.4037C54.5129 33.0561 54.563 32.502 54.6131 31.9681C54.7007 30.9934 54.8008 29.8903 54.2526 28.9005C53.6969 27.8981 52.7282 27.4347 51.8721 27.0267C51.4116 26.8076 50.936 26.5809 50.7032 26.3366C50.4704 26.0923 50.2526 25.5937 50.0424 25.1126C49.6519 24.216 49.2113 23.201 48.2526 22.6193C47.3064 22.045 46.2526 22.1508 45.3215 22.2415C44.8108 22.2918 44.2827 22.3447 43.9497 22.2515C43.6469 22.1659 43.2313 21.8561 42.8283 21.5539C42.0949 21.0049 41.1788 20.3198 40.0499 20.3198C38.9209 20.3198 38.0073 21.0049 37.2714 21.5539C36.8684 21.8536 36.4529 22.1659 36.15 22.2515C35.8171 22.3447 35.2889 22.2918 34.7783 22.2415C33.8471 22.1508 32.7933 22.045 31.8471 22.6193C30.8884 23.201 30.4479 24.216 30.0574 25.1126C29.8471 25.5937 29.6318 26.0923 29.3965 26.3366C29.1637 26.5809 28.6882 26.8076 28.2276 27.0267C27.3715 27.4347 26.4003 27.8981 25.8471 28.9005C25.2989 29.8903 25.399 30.9959 25.4866 31.9681C25.5342 32.502 25.5843 33.0561 25.4967 33.4037C25.4166 33.721 25.1187 34.1567 24.8308 34.5773C24.3052 35.3455 23.6519 36.3025 23.6519 37.4862C23.6519 38.6699 24.3052 39.627 24.8308 40.3951C25.1187 40.8157 25.4166 41.2514 25.4967 41.5688C25.5868 41.9163 25.5367 42.4704 25.4866 43.0043C25.399 43.979 25.2989 45.0821 25.8471 46.0719C26.4028 47.0743 27.3715 47.5377 28.2276 47.9457C28.6882 48.1648 29.1637 48.3915 29.3965 48.6358C29.6293 48.8801 29.8471 49.3788 30.0574 49.8598C30.4479 50.7564 30.8884 51.7714 31.8471 52.3532C32.7933 52.9274 33.8471 52.8216 34.7783 52.731C35.2889 52.6806 35.8171 52.6277 36.15 52.7209C36.4529 52.8065 36.8684 53.1163 37.2714 53.4185C38.0048 53.9676 38.9209 54.6526 40.0499 54.6526C41.1788 54.6526 42.0924 53.9676 42.8283 53.4185C43.2313 53.1188 43.6469 52.8065 43.9497 52.7209C44.2827 52.6277 44.8108 52.6806 45.3215 52.731C46.2526 52.8216 47.3064 52.9274 48.2526 52.3532C49.2113 51.7714 49.6519 50.7564 50.0424 49.8598C50.2526 49.3788 50.4679 48.8801 50.7032 48.6358C50.936 48.3915 51.4116 48.1648 51.8721 47.9457C52.7282 47.5377 53.6994 47.0743 54.2526 46.0719C54.8008 45.0821 54.7007 43.9765 54.6131 43.0043C54.5655 42.4704 54.5154 41.9163 54.6031 41.5688C54.6832 41.2514 54.981 40.8157 55.2689 40.3951ZM53.2814 38.9092C52.8859 39.4885 52.4379 40.1433 52.2426 40.9089C52.0399 41.6997 52.1149 42.5208 52.18 43.2436C52.2326 43.8355 52.2927 44.5079 52.1375 44.79C51.9748 45.0847 51.3815 45.3693 50.8584 45.6186C50.2301 45.9183 49.5192 46.2558 48.9735 46.8275C48.4278 47.3992 48.1024 48.1447 47.8171 48.7995C47.5793 49.346 47.3089 49.9681 47.0261 50.1394C46.7557 50.3031 46.1149 50.2401 45.5492 50.1847C44.8584 50.1167 44.0749 50.0386 43.3189 50.2502C42.588 50.4542 41.9623 50.9226 41.4091 51.3382C40.9109 51.711 40.3978 52.0963 40.0524 52.0963C39.7069 52.0963 39.1913 51.711 38.6957 51.3382C38.1425 50.9252 37.5167 50.4567 36.7858 50.2502C36.4153 50.1469 36.0373 50.1117 35.6694 50.1117C35.3014 50.1117 34.9084 50.1495 34.5555 50.1847C33.9898 50.2401 33.349 50.3031 33.0786 50.1394C32.7958 49.9681 32.5255 49.3486 32.2877 48.7995C32.0023 48.1422 31.6794 47.3992 31.1312 46.8275C30.5855 46.2558 29.8746 45.9158 29.2464 45.6186C28.7232 45.3693 28.13 45.0872 27.9673 44.79C27.8096 44.5054 27.8721 43.8355 27.9247 43.2436C27.9898 42.5208 28.0649 41.6997 27.8621 40.9089C27.6669 40.1433 27.2188 39.4859 26.8233 38.9092C26.4679 38.3879 26.0999 37.8514 26.0999 37.4887C26.0999 37.1261 26.4679 36.5871 26.8233 36.0683C27.2188 35.489 27.6669 34.8342 27.8621 34.0686C28.0649 33.2777 27.9898 32.4567 27.9247 31.7339C27.8721 31.142 27.8096 30.4696 27.9673 30.1875C28.13 29.8928 28.7232 29.6107 29.2464 29.3589C29.8746 29.0592 30.5855 28.7217 31.1312 28.15C31.6769 27.5783 32.0023 26.8328 32.2877 26.178C32.5255 25.6314 32.7958 25.0094 33.0786 24.8381C33.349 24.6744 33.9898 24.7374 34.5555 24.7928C35.2464 24.8608 36.0298 24.9388 36.7858 24.7273C37.5167 24.5233 38.1425 24.0548 38.6957 23.6393C39.1938 23.2665 39.7069 22.8812 40.0524 22.8812C40.3978 22.8812 40.9134 23.2665 41.4091 23.6393C41.9623 24.0523 42.588 24.5208 43.3189 24.7273C44.0749 24.9388 44.8584 24.8608 45.5492 24.7928C46.1149 24.7374 46.7557 24.6744 47.0261 24.8381C47.3089 25.0094 47.5793 25.6289 47.8171 26.178C48.1024 26.8353 48.4253 27.5783 48.9735 28.15C49.5192 28.7217 50.2301 29.0617 50.8584 29.3589C51.3815 29.6082 51.9748 29.8903 52.1375 30.1875C52.2952 30.4721 52.2326 31.142 52.18 31.7339C52.1149 32.4567 52.0399 33.2777 52.2426 34.0711C52.4379 34.8367 52.8859 35.4915 53.2814 36.0708C53.6369 36.5921 54.0048 37.1286 54.0048 37.4938C54.0048 37.859 53.6369 38.3954 53.2814 38.9168V38.9092Z" fill="black"/>
<path d="M44.4459 30.8325C43.4446 30.8325 42.5035 31.2405 41.7951 31.9835L39.2344 34.6632L38.3107 33.6936C36.8489 32.1623 34.4684 32.1623 33.0066 33.6936C32.2982 34.4366 31.9077 35.4213 31.9077 36.4715C31.9077 37.5218 32.2982 38.5065 33.0066 39.2495L36.5836 42.9946C37.2919 43.735 38.2331 44.1455 39.2344 44.1455C40.2356 44.1455 41.1768 43.7375 41.8852 42.9946L47.0967 37.5369C47.8051 36.7964 48.1956 35.8092 48.1956 34.7614C48.1956 33.7137 47.8051 32.7265 47.0967 31.9835C46.3883 31.243 45.4471 30.8325 44.4434 30.8325H44.4459ZM45.3695 35.7286L40.158 41.1863C39.9102 41.4457 39.5823 41.5867 39.2344 41.5867C38.8864 41.5867 38.556 41.4431 38.3107 41.1863L34.7337 37.4412C34.4859 37.1818 34.3508 36.8392 34.3508 36.4741C34.3508 36.1089 34.4859 35.7638 34.7337 35.5069C34.9816 35.2475 35.3095 35.1065 35.6574 35.1065C36.0053 35.1065 36.3358 35.25 36.5811 35.5069L38.3683 37.3782C38.8464 37.8769 39.6174 37.8769 40.0955 37.3782L43.5197 33.7943C43.7675 33.5349 44.0955 33.3939 44.4434 33.3939C44.7913 33.3939 45.1217 33.5374 45.367 33.7943C45.6149 34.0537 45.75 34.3963 45.75 34.7614C45.75 35.1266 45.6149 35.4717 45.367 35.7286H45.3695Z" fill="black"/>
<path d="M52.4081 74.4332H27.6972C26.1227 74.4332 24.8486 73.0984 24.8486 71.4487V65.0592C24.8486 63.4121 26.1252 62.0747 27.6972 62.0747H52.4081C53.9826 62.0747 55.2567 63.4095 55.2567 65.0592V71.4487C55.2567 73.0959 53.9801 74.4332 52.4081 74.4332Z" fill="#DFF6FD"/>
<path d="M51.6292 70.6529H28.4753C27.0385 70.6529 25.8745 69.434 25.8745 67.9279V62.0949C25.8745 60.5914 27.0385 59.3699 28.4753 59.3699H51.6292C53.066 59.3699 54.23 60.5888 54.23 62.0949V67.9279C54.23 69.4315 53.066 70.6529 51.6292 70.6529Z" fill="#0067C5"/>
<path d="M31.2616 66.374C31.9805 66.374 32.5632 65.764 32.5632 65.0115C32.5632 64.259 31.9805 63.6489 31.2616 63.6489C30.5427 63.6489 29.96 64.259 29.96 65.0115C29.96 65.764 30.5427 66.374 31.2616 66.374Z" fill="black"/>
<path d="M34.7284 70.6528C34.7284 71.4058 35.3117 72.0153 36.0301 72.0153H51.6296C53.7823 72.0153 55.5319 70.1818 55.5319 67.9302V62.0973C55.5319 59.8432 53.7823 58.0122 51.6296 58.0122H28.4756C26.3229 58.0122 24.5732 59.8457 24.5732 62.0973V67.9302C24.5732 70.1843 26.3229 72.0153 28.4756 72.0153H29.96C30.6784 72.0153 31.2616 71.4058 31.2616 70.6528C31.2616 69.8997 30.6784 69.2902 29.96 69.2902H28.4756C27.7572 69.2902 27.174 68.6782 27.174 67.9277V62.0948C27.174 61.3442 27.7572 60.7322 28.4756 60.7322H51.6296C52.348 60.7322 52.9312 61.3442 52.9312 62.0948V67.9277C52.9312 68.6782 52.348 69.2902 51.6296 69.2902H36.0301C35.3117 69.2902 34.7284 69.8997 34.7284 70.6528Z" fill="black"/>
<path d="M48.8436 66.374C49.562 66.374 50.1452 65.7645 50.1452 65.0115C50.1452 64.2584 49.562 63.6489 48.8436 63.6489H36.6483C35.9299 63.6489 35.3467 64.2584 35.3467 65.0115C35.3467 65.7645 35.9299 66.374 36.6483 66.374H48.8436Z" fill="black"/>
</g>
<defs>
<clipPath id="clip0_113_2964">
<rect width="79.3492" height="79.3492" fill="white" transform="translate(0.37793 0.692871)"/>
</clipPath>
</defs>
</svg>
