<svg height="512" viewBox="0 0 512 512" width="512" xmlns="http://www.w3.org/2000/svg"><path d="m349.513821 170.666667.000676 22.835963c10.403228 3.677109 19.917577 9.235886 28.13411 16.267393l19.796812-11.430035 29.62963 51.320024-19.783918 11.423312c.973274 5.268478 1.481949 10.69984 1.481949 16.250009 0 5.550277-.508695 10.981742-1.482006 16.250316l19.783975 11.423006-29.62963 51.320024-19.796812-11.430036c-8.216533 7.031508-17.730882 12.590285-28.13411 16.267393l-.000676 22.835964h-59.259259l-.000676-22.835964c-10.402842-3.676972-19.916872-9.235473-28.133197-16.266611l-19.797726 11.429254-29.62963-51.320024 19.783975-11.423006c-.97331-5.268574-1.482006-10.700039-1.482006-16.250316 0-5.550521.50874-10.982219 1.482135-16.25101l-19.784104-11.422311 29.62963-51.320024 19.796733 11.430104c8.21655-7.03154 17.730928-12.590341 28.13419-16.267462l.000676-22.835963zm13.152846-170.666667.00095 156.617113c-13.345503-4.717078-27.706817-7.28378-42.667617-7.28378-44.521965 0-83.734871 22.730787-106.666547 57.220191l-.000453-35.887524h-64v42.667l59.79134-.000046c-7.49548 12.957347-12.784817 27.35057-15.354392 42.666048l-44.436948.000998v42.666l44.436948.001665c2.569576 15.315485 7.858918 29.708715 15.354404 42.666067l-209.124352-.000399v-341.333333zm-42.782476 241.777778c-19.636791 0-35.555555 15.918764-35.555555 35.555555s15.918764 35.555556 35.555555 35.555556 35.555556-15.918765 35.555556-35.555556-15.918765-35.555555-35.555556-35.555555zm-213.218191 14.222222h-64l.0006667 42.666667 63.9993333-.000667zm0-85.334h-64v42.667h64zm0-85.333-63.9993333.0003333-.0006667 42.6666667h64zm106.667 0h-64v42.667h64zm106.667.0003333-64.001-.0003333v42.667h64.001z" fill-rule="evenodd" transform="translate(42.666667 85.333333)" fill="#068460"/></svg>