<svg xmlns="http://www.w3.org/2000/svg" viewBox="0 0 433.48 465.4"><defs><style>.cls-1{fill:#36293d;}.cls-2{fill:#d1c3af;}.cls-3{fill:#4b3550;}.cls-4{fill:#4f4055;}.cls-5{fill:#57485a;}.cls-6{fill:#625764;}.cls-7{fill:#3d2c42;}.cls-8{fill:#e7dfd3;}.cls-9{fill:#221d26;}.cls-10{fill:#fff;}.cls-11{fill:#1e1a21;}.cls-12{fill:#4a3d53;}.cls-13{fill:#0e0c0f;}.cls-14{fill:none;stroke:#1e1a21;stroke-linecap:round;stroke-linejoin:round;stroke-width:3px;}</style></defs><title>Recurso 4</title><g id="Capa_2" data-name="Capa 2"><g id="Capa_1-2" data-name="Capa 1"><path class="cls-1" d="M207.92,265.86S228.54,393,183.47,412.68s-27.67-20.42-29.94-65S118,244,118,244Z"/><path class="cls-1" d="M406.88,179.76s16.3,122.83-11.35,201.16c-9.07,25.71-28.08,57.51-53.94,56.72s-15.53-33.51-11.85-56c5.08-31-22.69-99.83-22.69-99.83S378.14,171.44,406.88,179.76Z"/><path class="cls-2" d="M151.46,402.61c-2.88,1.55-7.68,4.84-9.73,10.33a1.22,1.22,0,0,0,1.62,1.53c5-1.8,16.19-6.46,13-10.89A3.83,3.83,0,0,0,151.46,402.61Z"/><path class="cls-2" d="M159.75,408.39c-2.65,1.91-7,5.79-8.27,11.48a1.24,1.24,0,0,0,1.82,1.31c4.71-2.43,15.2-8.48,11.47-12.46A3.86,3.86,0,0,0,159.75,408.39Z"/><path class="cls-2" d="M169.17,411.26c-1.88,2.64-4.7,7.66-4,13.42a1.26,1.26,0,0,0,2.16.66c3.67-3.79,11.62-12.81,6.75-15.36A3.88,3.88,0,0,0,169.17,411.26Z"/><path class="cls-3" d="M25.73,338.63c40.9,77.62,78.09,89.28,99.54,88.87a60.21,60.21,0,0,0,13.89-2,13.11,13.11,0,0,0,4-1.67c8.9-5.92-.75-22.1-17.63-43.71-10.46-13.4-7-61.54-1.86-101.84q9.48,3,19.58,5.64c15.68,4.16,32.42,7.81,50,11.06v.09c.86,86.19,37.2,150.76,91.81,162.19,9.32,1.95,16.42,1.94,21.54.46,6-1.74,9.26-5.51,10.12-10.52,1.81-10.56-7.07-26.6-23.34-40.61s-15.15-61.42-10.73-101.57c23.41-1.25,42.49-7.32,58-16.36,66.93-38.92,68.4-132.76,68.4-132.76L354.32,68.53s-8.94.65-23.13.37c-26.54-.53-71.45-4.32-110.73-21.77-1.9-.84-3.78-1.72-5.65-2.62C178.5,26.86,127,11.09,83.68,27.19c-27.55,10.22-51.81,33.33-66.78,77l-.11.34A361.66,361.66,0,0,0,8,141.06C-1.17,188.18-9.54,271.72,25.73,338.63Z"/><path class="cls-4" d="M247.38,251.6c28.82,54.45,11.28,90.75,20.86,138.4,6.29,31.25,31.76,48.84,48.54,57.24,1.81-10.56-7.07-26.6-23.34-40.61s-15.15-61.42-10.73-101.57c23.41-1.25,42.49-7.32,58-16.36,2-55.32,3-114,.79-157.91-1.15-23.08-4.83-43.95-10.35-61.89-26.54-.53-51.24-4.65-95.39-15.71C179.93,151.16,220,199.91,247.38,251.6Z"/><path class="cls-5" d="M250,196.39A174.13,174.13,0,0,1,281.57,275c2.49,18.16,1.14,30.08,1.14,30.08,79.71-3.14,114.87-51.49,130-100a222.48,222.48,0,0,0,6.13-24.63,282.32,282.32,0,0,0,3.79-75.61c-.05-.42-.07-.63-.07-.63l-1.76-1.42,0,0c-14.12-11.34-109-85.33-153.08-63.37a63.75,63.75,0,0,0-7.59,4.47C219.18,71.93,213.17,145.68,250,196.39Z"/><path class="cls-4" d="M282.71,305.05c79.71-3.14,114.87-51.49,130-100C389,231.71,342.71,273,281.57,275,284.06,293.13,282.71,305.05,282.71,305.05Z"/><path class="cls-6" d="M262.08,161.19c32.67,95.4,109.53,55.85,156.77,19.27a282.32,282.32,0,0,0,3.79-75.61l-1.83-2,0,0c-14.12-11.34-109-85.33-153.08-63.37a63.75,63.75,0,0,0-7.59,4.47C247.75,69.55,243.53,107,262.08,161.19Z"/><path class="cls-4" d="M143.18,423.87c8.9-5.92-.75-22.1-17.63-43.71-10.46-13.4-7-61.54-1.86-101.84q9.48,3,19.58,5.64C125.62,246.22,109,216.05,109,216.05S59.8,380.62,143.18,423.87Z"/><path class="cls-7" d="M123.69,278.32C95,257.66,109,216.06,109,216.06s18.61,49.2,84.34,79.05h0S148.11,295.94,123.69,278.32Z"/><path class="cls-7" d="M25.73,338.63c40.9,77.62,78.09,89.28,99.54,88.87C65.77,394.15,25.52,323.92,23.73,197.15c-1.29-91,34.35-143.84,60-170-27.55,10.22-51.81,33.33-66.78,77l-.11.34A361.66,361.66,0,0,0,8,141.06C-1.17,188.18-9.54,271.72,25.73,338.63Z"/><path class="cls-7" d="M193.31,239.66c-14.06,142.27,37.2,206.21,91.81,217.64,9.32,1.95,16.42,1.94,21.54.46C272.53,445.05,214.45,351.75,193.31,239.66Z"/><path class="cls-3" d="M8,141.06a361.66,361.66,0,0,1,8.83-36.5c-1.16,3.38-2.27,6.9-3.3,10.54A181,181,0,0,0,8,141.06Z"/><path class="cls-4" d="M212.52,52.71C212.48,66.51,71.7,89,64.3,67.07c-3.62-10.69,23.75-34.38,51.8-39.32,15.8-2.78,32.71,2.43,66.55,12.86C202.57,46.74,212.53,49.81,212.52,52.71Z"/><path class="cls-2" d="M316.45,438.9c3.21.65,8.76,2.41,12.31,7.07a1.23,1.23,0,0,1-1.11,1.94c-5.3-.29-17.36-1.51-15.63-6.66A3.84,3.84,0,0,1,316.45,438.9Z"/><path class="cls-2" d="M310.19,446.83c3.09,1.06,8.35,3.52,11.23,8.6a1.24,1.24,0,0,1-1.36,1.78c-5.21-1-17-3.73-14.58-8.61A3.85,3.85,0,0,1,310.19,446.83Z"/><path class="cls-2" d="M302,452.3c2.56,2,6.72,6,7.74,11.68a1.26,1.26,0,0,1-1.88,1.26c-4.61-2.57-14.83-8.91-10.9-12.76A3.89,3.89,0,0,1,302,452.3Z"/><path class="cls-2" d="M142.54,415.87c2.7,1.86,7.12,5.66,8.56,11.33a1.23,1.23,0,0,1-1.78,1.35c-4.77-2.34-15.39-8.19-11.77-12.24A3.81,3.81,0,0,1,142.54,415.87Z"/><path class="cls-2" d="M133.68,420.72c2.42,2.19,6.3,6.51,7,12.31a1.23,1.23,0,0,1-2,1.1c-4.42-2.93-14.19-10.09-10-13.63A3.86,3.86,0,0,1,133.68,420.72Z"/><path class="cls-2" d="M124,422.55c1.58,2.82,3.84,8.12,2.55,13.78a1.26,1.26,0,0,1-2.23.41c-3.23-4.16-10.15-14-5-16A3.88,3.88,0,0,1,124,422.55Z"/><path class="cls-2" d="M326.64,423.49c-2.88,1.55-7.69,4.84-9.74,10.33a1.23,1.23,0,0,0,1.62,1.53c5-1.81,16.19-6.46,13-10.89A3.82,3.82,0,0,0,326.64,423.49Z"/><path class="cls-2" d="M334.93,429.27c-2.65,1.91-7,5.79-8.27,11.48a1.24,1.24,0,0,0,1.82,1.31c4.71-2.44,15.2-8.49,11.46-12.46A3.85,3.85,0,0,0,334.93,429.27Z"/><path class="cls-2" d="M344.35,432.14c-1.88,2.63-4.71,7.66-4,13.42a1.26,1.26,0,0,0,2.17.66c3.67-3.79,11.62-12.81,6.75-15.37A3.89,3.89,0,0,0,344.35,432.14Z"/><path class="cls-3" d="M261.92,97.84c-.4,58.83,120.51,64,155,33.47a46.89,46.89,0,0,0,13.23-19.44c11.56-31.91-9.74-75.05-28.86-92a40,40,0,0,0-5.61-4.13c-5.32-3.84-5.06-2.56-7.66-3.91-28.64-12-74.8-6.84-87.09,3.77a118.56,118.56,0,0,0-21.61,24.65A105,105,0,0,0,261.92,97.84Z"/><path class="cls-8" d="M348.18,144.56c-8.4.22-17.08-.08-24.72-3.57s-14-10.88-14-19.29c0-4.69,2-9.39,1-14-1.09-4.9-5.26-8.4-8.13-12.53-4.43-6.38-5.73-14.49-5.42-22.25.35-8.62,2.67-17.38,7.95-24.19s13.83-11.41,22.42-10.6a28.33,28.33,0,0,1,11.91,4.26c2.21,1.35,4.34,2.93,6.84,3.59h6.73c2.5-.66,4.63-2.24,6.84-3.59a28.28,28.28,0,0,1,11.91-4.26c8.59-.81,17.13,3.78,22.42,10.6s7.6,15.57,7.95,24.19c.31,7.76-1,15.87-5.43,22.25-2.86,4.13-7,7.63-8.12,12.53-1,4.59.95,9.29,1,14,0,8.41-6.37,15.8-14,19.29s-16.33,3.79-24.72,3.57"/><path class="cls-3" d="M399.58,34.23c5.45,6.6,15.12,10.7,15.12,10.7S443.79,30,429.56,9.51c-5.78-8.32-12.08-9.58-17.65-7.31-8.15,3.33-14.74,14.22-15.85,21.6C395.48,27.7,397.09,31.22,399.58,34.23Z"/><path class="cls-3" d="M263.31,24.31C265.72,34.82,277.38,41.5,282.54,44c1.52.73,2.47,1.09,2.47,1.09a53.64,53.64,0,0,0,7.9-5.58C298.19,35,303.85,28.34,302,21.19c-3.28-12.65-23.72-33.9-36.21-11.13A27.65,27.65,0,0,0,264.39,13,18.56,18.56,0,0,0,263.31,24.31Z"/><path class="cls-9" d="M382.73,60.57c4.21,5.66,8,12.37,7.34,20.59S387.21,99.42,374,89.85,361.05,72.4,362,66.81,374.19,49.06,382.73,60.57Z"/><path class="cls-10" d="M381,64.33c4.17,3.76,4.6,15.22-1,18.79s-13.77-.17-14.53-8.8C364.66,65.41,372.67,56.86,381,64.33Z"/><path class="cls-9" d="M314.6,60.57c-4.21,5.66-8,12.37-7.34,20.59s2.86,18.26,16.11,8.69,12.92-17.45,11.93-23S323.14,49.06,314.6,60.57Z"/><path class="cls-10" d="M315.85,64.59c-4.18,3.76-4.6,15.21,1,18.78s13.76-.16,14.53-8.79C332.16,65.66,324.15,57.11,315.85,64.59Z"/><path class="cls-9" d="M319.26,69.43c-2.32,2.09-2.55,8.43.55,10.41s7.63-.09,8.05-4.87C328.29,70,323.85,65.29,319.26,69.43Z"/><path class="cls-10" d="M322.39,65c-2.08,1.87-2.29,7.56.49,9.33s6.84-.08,7.22-4.37S326.51,61.29,322.39,65Z"/><path class="cls-9" d="M369.82,69.43c-2.31,2.09-2.55,8.43.55,10.41s7.63-.09,8.05-4.87C378.86,70,374.42,65.29,369.82,69.43Z"/><path class="cls-10" d="M373.72,64.75c-2.07,1.87-2.28,7.55.5,9.32s6.83-.08,7.21-4.36S377.84,61,373.72,64.75Z"/><path class="cls-2" d="M319,140.77c.17.31.36.62.55.93a22.53,22.53,0,0,0,3.84,4.69,20.94,20.94,0,0,0,1.82,1.55c12.16,9.35,32.72,7,44,.24h0c.52-.32,1-.64,1.5-1a17,17,0,0,0,5.34-5.51c13.84-25-8.22-62.72-14.08-69.9-5.26-6.46-13.93-7.67-20.61-5.46a14.94,14.94,0,0,0-7.74,5.46C328.53,79.31,304,114.74,319,140.77Z"/><path class="cls-9" d="M415.6,35.82S434,24.25,421.87,13.76s-18.14,9.38-18.14,9.38S412.71,29.19,415.6,35.82Z"/><path class="cls-9" d="M281.84,35.73s-19.11-12-6.52-22.95,18.88,9.76,18.88,9.76S284.86,28.84,281.84,35.73Z"/><path class="cls-11" d="M336.75,117.92c1.06,2,3.94,2.33,3.94,2.33,6.82,9,13.8.45,13.8.45a7.22,7.22,0,0,0,3-2.21h0c1.51-2,1.71-5.11-2.06-9.5-3.34-3.89-11.91-4-15.4,0C336.22,113.57,335.91,116.29,336.75,117.92Z"/><path class="cls-12" d="M356.24,114c-.72,1.12-4.13,0-4.87-.21-2.85-.91-6.38-3.17-6-4.68.32-1.26,3.32-1.94,5.67-1.32C354.61,108.69,357,112.72,356.24,114Z"/><path class="cls-13" d="M336.75,117.92c1.06,2,3.94,2.33,3.94,2.33,6.82,9,13.8.45,13.8.45a7.22,7.22,0,0,0,3-2.21c-.26.14-2.42,1.21-4.84-1.47,0,0-.54,6.8-5.69,6.25s-4.93-6.57-4.93-6.57S341,119.51,336.75,117.92Z"/><path class="cls-7" d="M263.31,24.31C265.72,34.82,277.38,41.5,282.54,44h0s-16.15-13.64-18.15-31A18.56,18.56,0,0,0,263.31,24.31Z"/><path class="cls-4" d="M292.73,11c-.48.54-3-2.22-8.48-3.95-6.9-2.18-11.82-.62-12-1.51S278.09.92,284,2.47,293.37,10.29,292.73,11Z"/><path class="cls-14" d="M373.38,128.65s-15.9,10.8-25.5-.6c0,0-11.4,12.6-25.2,0"/></g></g></svg>